<mxfile host="app.diagrams.net" agent="Mozilla/5.0 (Windows NT 10.0; Win64; x64) AppleWebKit/537.36 (KHTML, like Gecko) Chrome/137.0.0.0 Safari/537.36" version="27.1.4">
  <diagram name="Page-1" id="ROXT1ie18NgWsVAq6pzB">
    <mxGraphModel dx="815" dy="1597" grid="1" gridSize="10" guides="1" tooltips="1" connect="1" arrows="1" fold="1" page="1" pageScale="1" pageWidth="850" pageHeight="1100" math="0" shadow="0">
      <root>
        <mxCell id="0" />
        <mxCell id="1" parent="0" />
        <mxCell id="RF7QKK640K8U4cVMku1n-1" value="" style="sketch=0;aspect=fixed;pointerEvents=1;shadow=0;dashed=0;html=1;strokeColor=none;labelPosition=center;verticalLabelPosition=bottom;verticalAlign=top;align=center;fillColor=#00188D;shape=mxgraph.azure.laptop" vertex="1" parent="1">
          <mxGeometry x="140" y="170" width="116.67" height="70" as="geometry" />
        </mxCell>
        <mxCell id="RF7QKK640K8U4cVMku1n-2" value="" style="points=[[0.13,0.02,0],[0.5,0,0],[0.87,0.02,0],[0.885,0.4,0],[0.985,0.985,0],[0.5,1,0],[0.015,0.985,0],[0.115,0.4,0]];verticalLabelPosition=bottom;sketch=0;html=1;verticalAlign=top;aspect=fixed;align=center;pointerEvents=1;shape=mxgraph.cisco19.laptop;fillColor=#005073;strokeColor=none;" vertex="1" parent="1">
          <mxGeometry x="368" y="168.5" width="114.29" height="80" as="geometry" />
        </mxCell>
        <mxCell id="RF7QKK640K8U4cVMku1n-3" value="" style="verticalLabelPosition=bottom;sketch=0;aspect=fixed;html=1;verticalAlign=top;strokeColor=none;align=center;outlineConnect=0;shape=mxgraph.citrix.laptop_1;" vertex="1" parent="1">
          <mxGeometry x="600" y="170" width="91" height="77" as="geometry" />
        </mxCell>
        <mxCell id="RF7QKK640K8U4cVMku1n-4" value="" style="verticalLabelPosition=bottom;html=1;verticalAlign=top;align=center;strokeColor=none;fillColor=#00BEF2;shape=mxgraph.azure.github_code;pointerEvents=1;" vertex="1" parent="1">
          <mxGeometry x="390.15" y="-20" width="70" height="80" as="geometry" />
        </mxCell>
        <mxCell id="RF7QKK640K8U4cVMku1n-5" style="edgeStyle=orthogonalEdgeStyle;rounded=0;orthogonalLoop=1;jettySize=auto;html=1;entryX=0;entryY=0.5;entryDx=0;entryDy=0;entryPerimeter=0;" edge="1" parent="1" source="RF7QKK640K8U4cVMku1n-1" target="RF7QKK640K8U4cVMku1n-4">
          <mxGeometry relative="1" as="geometry">
            <Array as="points">
              <mxPoint x="200" y="20" />
            </Array>
          </mxGeometry>
        </mxCell>
        <mxCell id="RF7QKK640K8U4cVMku1n-6" style="edgeStyle=orthogonalEdgeStyle;rounded=0;orthogonalLoop=1;jettySize=auto;html=1;entryX=0.5;entryY=1;entryDx=0;entryDy=0;entryPerimeter=0;" edge="1" parent="1" source="RF7QKK640K8U4cVMku1n-2" target="RF7QKK640K8U4cVMku1n-4">
          <mxGeometry relative="1" as="geometry" />
        </mxCell>
        <mxCell id="RF7QKK640K8U4cVMku1n-7" style="edgeStyle=orthogonalEdgeStyle;rounded=0;orthogonalLoop=1;jettySize=auto;html=1;entryX=1;entryY=0.5;entryDx=0;entryDy=0;entryPerimeter=0;" edge="1" parent="1" source="RF7QKK640K8U4cVMku1n-3" target="RF7QKK640K8U4cVMku1n-4">
          <mxGeometry relative="1" as="geometry">
            <Array as="points">
              <mxPoint x="650" y="20" />
            </Array>
          </mxGeometry>
        </mxCell>
        <mxCell id="RF7QKK640K8U4cVMku1n-13" value="" style="group" vertex="1" connectable="0" parent="1">
          <mxGeometry x="130" y="500" width="166.66999999999996" height="100" as="geometry" />
        </mxCell>
        <mxCell id="RF7QKK640K8U4cVMku1n-8" value="" style="sketch=0;aspect=fixed;pointerEvents=1;shadow=0;dashed=0;html=1;strokeColor=none;labelPosition=center;verticalLabelPosition=bottom;verticalAlign=top;align=center;fillColor=#00188D;shape=mxgraph.azure.laptop" vertex="1" parent="RF7QKK640K8U4cVMku1n-13">
          <mxGeometry width="166.67" height="100" as="geometry" />
        </mxCell>
        <mxCell id="RF7QKK640K8U4cVMku1n-9" value="" style="shape=image;verticalLabelPosition=bottom;labelBackgroundColor=default;verticalAlign=top;aspect=fixed;imageAspect=0;image=data:image/png,iVBORw0KGgoAAAANSUhEUgAAAJIAAACHCAYAAAD9YACmAAAAAXNSR0IArs4c6QAAAARnQU1BAACxjwv8YQUAAAAJcEhZcwAADsMAAA7DAcdvqGQAAGiRSURBVHhe7f1ZzC1Zlt+H/dbeOyLO+M13nvJmVg6VU1UP7KbYhCiJMGFRhiEDDQHUgwnYDwZN0QAtyaZIi50i7TfCgl/k4cWW/SZQ8JsgCpApttgku6pr6MysHG8Odx6/e7/pDBGxBz+sHeec77s3b1Wxs7Ltrl4Xcc/54sSJE7H3P9Zae41y69atdP78eX5ZKaV0ctexfSJy7LOOgggt4AEBDGASWCKGAGIAYRrgoIV7BzU/vHabH127w+e7M24fRu5OI/utEBoDzMFMwDXQH0JvxGD7FBunzjLc2MSnRBsTPScMSstaIeyYxI6JXCodL1QFL/QsFyo434Oe7S6qXl6cACQ84KOhjYIxJc6CNfqxJD1cyUOquXP7Or/1F/6t1dt/iuw/+Af/4J2TO39ZqANMSgkR+bm2CEQgZSAtSYgYWjE0CI/rxL3Dmi8eHvDDT2/xLz78gi8eT3kUSg5kQIwFxBJ8A/Uh1BMwJeL6jPubjEc7DAbr1KlkEh0HQXjUBu7VDQ/mc+7Opxx6zzwlGjEEaxGnF+USOAzIAlWQBJKQYkJiwmKwRrCSgXTsfgRSZDAccPvOHT788ONjd7pKEmN8+pH8E0yr4Omo4zpfxX2eRSkDqQPT6msLTDxMWvjywQEf33rAJ7ce8sndPT65t8eT1jE1Q7wdgO2D60NzCLNHWD+hGIxw/RGDrdOMTp2l3NhiEiOTEAkWcGBtoqKlomGrEHYqw05p2K4cW5XjvDNcMoZzThj1YdSDnoPSQGECJgYkegQDplCwpXwTZAwJJBKRwD/6R/+If++v/3snRmFJv1RAWgVR977jMN37n4vyyCWBkAHUADNgdw67M/jDa3f4/fc/4b0vbvOktey1hkmqSNIDN4DhBma0zqCeMjzapTc7xFcVoaywa5uU2zuY8TqzlJjGhBSWoiqwBRgCRlqMabHGY6zHmICxgRdtjzfdiFfKijPrcGYNtirYcDA2UKQWYg2p46kC0eomhiSW0DExA3fu3OFf+63fOjkCC/qlBtJPA9Eq4DjJuVLIWwJxeGOZRDgIsFvD5w/nfPbwgI9u3ueD63f57P4T5pTMpcBTKFsxBVQDbH9I1dRU0yOKZk4sS2JVUK5v0N/aplgbU8dEHSPWWYqywDpLSp6YPAGPF08wgWAiwQTOScmLpscLRY+za5Zza3C6B6cK2C48I2kZGU/PgLMKHmJGDZbEcVkXQuDlV761MjrH6ZcSSN37nwVEMcbFvg54xhiI3RPtwVR4qXjUGu7XcH3f88Nrd/jBtdvc3J/xaBZ40iY8lhab5QYZhIII4COp8RATtldiq5LR5gbrO1sM1seEEPAhYI3BWYc1ljbva0k0Aq0kvBW8FYZJ2EiwZQxnhoazQ8uZXuRcFThTBrbLxHYFa6VjVJUMbKH3mLLCvSrm8uvVV64uxuIk/dICqaOTIDrJtU4CyRiTgVRDmCmgqJhQcXOS+Pwg8NHDKf/8wxv8s49u8NgbfDUmFIPl450CkjwSW1IzJ7U1RIGUuVSvhKpkbWudnVNbrK2NSKElBo8RgzMWEUPjoQ2JJgkNlhZVtr1xpOQhtjjxnKpgp0qcLSNny8DZKnFmYDkzcGwPe2wN+6yXULDcyggmAjFlzgtXv/3yykgdp18qIHECTKsg6oDzLLB11HEkEYHYgK/BNzxuhN0aPnww4ce39vjJ3QM+32v4bK/mMBUE1wdT5Uc7QWwxscGEmlRPSPWUSAFuqIp3YaF0bKyNOLW9ztp4QEgtPnpwBlMU4BxtMPhoSMEi0UEsMMlhEBobmbqa1tYM8QxTYEzLOp4NG9keVOwMSnbWR5xe77MzhjUHYwdjYBxhFCMmtpAaSImrr3/n5JAs6JcOSF9FMcanuM+qDtXt60g5REPdNNw+bLl92PD9z+/zex/e5Ee3njCpNplWm8xND6QArK7pUoRYY8IM52ek2SFpdoh3fag2oBqrUccKW6MBpzdGrI0qWjwNLbGy0K+IZUGIBTE5nC8ofUnVllQeKg9HFewOGg7LGVLXyLzGNjWuaaliZHPQZ2M44MzmOud3+pzdUh3qTB92BLYjbMeGXpxDmkOKXH3jX1nc/0la2p5+SehZHGeVG53kWCcBFWPEe89hk7g/M3x2KLx/74jvXbvHT27ucnN/xl6bmEZoERDJikeEGFQUhpboPTEEjLGUVZ/Slrr8awMSIj3AGSE5gy8dbWFpncOLI0QDwSAhIW1EggI0mkAowFcQChAbMZIwIhjjVJczfeYyYC/2ud9U3JgaPt6D9x/Au/fhR3fhJw/h872WO9OWSUDFrStXRuxp+qXiSCdBsro/xkgI4bge9IzjvPd473lYw52Z4frenHc//ZJ3P/2C2wczHjXwxFvackhTDsGUYLJB0LfQthAaNUCmlr4R+lYQb4iNIUWLDAoYFPQ31xie3qBaH9IETx1aRAyFsVixJA8EECzGFIhxGFsg1tEaz9zMaGiwHlwQNcN7gSiILRBT4JyhKISegw3bsOEarvQjLw3hpZHwwshxdeSwVrj64muLsThJvzRAWlWiT4qsk0Cy1i6A1H3eHVPXNU3T8MWR8MGB5YNHNX/44Sf84cefcOgTsTcglgMaWxBsAeIykERB1LQQPIQWUqJXlYzKCtcEzKRB2kAc9QijHuXOBr0zOxSbY2rvadqATUKBoYgGfAAfSJlzxcKSSkcqLTEFYmhIMVAkR5EcJtuJUjS0WNoktDHSxJYUG4ZMGTDj6kh4baPg1Y2SV7YGvLI1YFDAr1z901Ub/Bwc6SSQQgi0bUvTNBwdHTGZTPjRo8g/vQc/eBDY3d/j8cEe8xDwIgQRvBGSCJgVF0WM4COEpO+TIMZRWof4OamdQGyx/T62N2C4ucPaqTP01zd1dRZAxGCtQ0QIsSGEliSBZAPJJMQmcJCSIWbglFEoouCSweTNG0cQQ01iHlua0GDDFBumnO2jnGi94ltbY7613WNQwF9546uB9EunIz2PTnKqjkIINE3DZDLh4OCA3d1dPrt1n9//5A7//JP7fH4I9eA0abhDKIa0GFKMurILNRLnmDRHUqu6khXUNF2SkqNuhXmM1LamLidM7ZwpDT4EpIFybqnqin47oAw9rPpIiK5PW1Y0paWxiVZqfJoS2wOin5MCqiwFi3iwPlH6SC9GBiQGFvoWSitYKzQiHER42MDNWeLaUeLTifDRBD6cnByV42TUYZRQU/mq9yg/vd3b7qNjHycgkPB5C6Rj/57/9SxsVj4JgCelVg19KR4/Qb7Mbvt5KKEKb5JIkrS4bb11wSSDSwaXBBMThEjwkVkbeTQLfHkU+GAv8L2HLf/4bsOPHjXcnrbgW3wI+AQR5UIiNnMhiySDJEEi+trZkiRbjldvDllwLxF9xlOKhBSIBOU8ogwt5KERIwgGSWqZlmAxscBGi4sGp940QIgkgiRaIj55YvSQPJZIIVAaq0q/qZilkiet4/ZUuLYPH+8dH8+TJLGOCYk5zKALNZAVT/GxWc/f6g7RiY8ENamjg3fMtp7pWV+XfGL1pecBTZGUAiSLdK6ElXMsziM5UuMraJWvpJRBtAC6I5GdlNnwZulOvoT7PMBhgJuHDZ/tz7n2eMrHd57w0d0n3D1oeTRPzBpBCkdROCASQyCmsHK1KYNn9SHI48rK+MYa4gzwmN6AqhoyXttkvLHDYLROEEsUo5sxWWxqzEeMLTG2pOixknJIiEPEAQ6TEhLjMkQkAVn0hswKQoqkvBVG6DlDz1mGVcGwKrECf/hXnifaFixieePLJ2Tlz5NbSrrkJBBoiLQZUDFvz+BKaXV4u607qjuxV6ts58c6eUl51+LaTnCpYxyr21YO7v4tbuGpC8pu7wDTOrA7abl5UPPxbs2PH9R872HL9x4Fbk4SsyjYQjASiL4heg8pYTAYLMoPCkg2b/pwZljpTUnIG/mYAkeBFQdiiET1o0lLMC1BGkKqCbGGFLAkbDKYaDHBYVKFTT09BwZHQkhkhkUriUYiTQo0sSVGj8RAAVTG0nclhStJUjJPjsc13D703Djw3UA+k4wyEaMrCzFEhICowEpR9ULFzLGJSUk/b2KgToGWQFx5mkUZ/coXFtjLWyImhZBSx/ItxlgkX8+S+2VpIGDy64LyeWNIhJC5QgxqYEzddUjmRAUgmBSUpZOwktTGEzwpQRDLAQU3J/DRgwkf3HrMR1/e5fPrt9h/8kSX7ycettU76Wj5GP18lFIiLdSNpIJCBCNqlug21edWbF1Gss1IXSiC5AWGPn3PusYl6XFp9dj8pMUUjy1UnkWmCxMIIqi0VCal7C7go8fHhE8qmxP66lPUpWMINN7ThkDKk7YEUH7fXUhMpGxBjjHvSykfldGC0SWzZCBxXFJKB6hOfKUMyhiI0RN8Swhq7FtwNqIOqj6/CIJJEZs8Ii1IS0otdWiZRjgU2BO4NU18/HDCh7ce8+H1u3x2/Tb7e08oYoOVqADs6MREdRPy3Llbpe64xbx346O7BRQkYlYAddxgKis2MDEd30uZsS/P9SxaXOoKiHR6njbUPovMDKhzyKgOefd7qjOJ6bblPOsmiDEYazHGYcRismJnSItXSd175SRGumMEUYwRY1Z8M/QUTGap6TznHoQVLkVSSy7LbXE3+fwhocq17s13HfBGaKzjYR34+KHn+9fn/PjWE96/e8QXT2oe14kmWWJISNNgfIOsuFS60+Vn+il69t5n06rdKnUPXL7P1S0fvZzoFeDpJ6tjt3j08pc7xV8/E7JIz9+JCWJMiy2cvNcTZKZxCaROMOl0JqxJWAvW6baQNgbEKvKtcThbUpgCm9npytpkASIr4ERwIlgxGBEkyVLMxZQBJRkCS74WWYKt49THbkLyitoIVkQldZaKS7YF0UPIT0v3vHay1htLUxTcnbX8+OZDfveDL/ne5/d59+4BNw8DU/rY3hoijtQ0usVw/ELyKZ+e0OdzA6V8TEqq9AYFUcxcXG88j2oGQlpMdndsJKZ87GKcZEW5179l5Rxk0bgcET1vih2YEzFEYvgpQGpOcKNu6haCQBImc6SOKy1VF4PF4nBYrMrJ7hTdEwKLi1/VcYwsnwK98E4Z74C05CdpsUxfGaBuWwTQZECZfO7l2OhUdqw6KEfq7iABdUrs+8DDOvHlkwnv3X7I9z6/y3t3nnDt8Yx7s8QslUg5QMTpCihG5Ge15ebDOq70U7+V71UnUznSYiQ7qwEd6PIxMerxGQDLrTt4ec8LMB0DUd7ytC1ButyeR8Y5XfouRBEBQ8AS8rI8a8cZZou7yLOvN6r6UVoYZlbYR2J1JI+Nosp0lftqN1GFTcXbUhFKLAc2hqCcYHFNK6iSlZFe3VAlVG0lustHwzw5jlLFo9by4d0n/JN3P+H3P7nBpw/2eTAP7EeYi6XBMA/QeAFTUVZjXDlAbPFziazFoYvZ7cYnk+iYrBpFO/Gjt7bk94sj8lOmIFJutPrALUTeM65zlRMpnQThCqf7aaKtC3AQQJLHRI8JHgk+e6u7CVsB0yoL8QGaQGpDvhGeDablo7EggYXyKFnDWuVGSyDogHQ3FGPQa9MfOw6kxZJuRZHIfzqjQAJok2GeLBMcu94pkN77lN//5DqfPtznYR048JDEARYfoQ6QTEXRW6Moh+pRT/xcYErPAlFKGTI6CgvQHLt81esUTHlY8rjqQ9ZxpCWY9Lry/6n7wldTd0wHpNitrDPDeB6ZzuTnYsCGgPUB40Oen+6SVZ4lMVk1FSJqFzE4rDi1IyRDTKJbJ9aVR2ZAnbiRheKoijvSLWlPHCZqwTVGVPdZjGR33pXzd7+xAFNW/Tt5jALioIEbT2p+dP0Jv/fxHd67vc8X+57788S+T8yjGunUvd5NDrRiaaSklYK4YhH9qilairMTRyz+PL5fRLlnx32OaZ0diLrPupXa6qqt+zvfrIrxTIv3HTS7gVzu747vuFonHk9O3UkyJVDEhAse572CSO39i0BwRM0CPmdKeMlalDiMKShMiTMliArEkPKWtX31O2XO8awr6gC1slBb+QgxYK1gs4JvOk36WSBKOmURIYpFrUW246WkBLMAjxv49MERv/fhTf7RD6/xh7cPeOArjugxxxK6GCLxqkWKaugewzQVzJMlrKxyFGhPbwvG84zbPknLqc38+Rg4jk9/B5jj5oC8dYuZbjBXdMJugJfAXIJoQdkoe2JYn0vGRXAhYDvlMZLjh3MCFZY6GiYRjgIctnDU6mQ0EQIGMRrbksSpHUpM1rQk+7NSBlEHpo5dZRCtvHa3k79ByvuUYQlis7beHbUKoJTUD4Ucu4YMBdoI0xZ2J4FbT+Z8dG+fP/jiIf/is/t8sjtn15ccSUUjNnOQgKFVMGUgqSap9qi4OvjPo3yvT3Glp0g/F5acWgHUAWJ5TEdGsiFyYVdSrr7Uf54BlNV9i/Mvt9WxXx3i55GR0OpSRkQFnc35VqZPMCX73nJvCl/uB67ttnz0cM613YYbB5H7M9hrYSbQGAjWkKwj2QJcgTgNshJr1TdEt47vogVVB+sG+OS0HHsajt1I5xPsjkvK/TAk44imIGQO2m2TAA9nietPprz75T1+771PefeLe9ybJGq3zpQeR8FQR101WmsUKrFBYjaOLHyRK7/9U8HxLOq+07ErIKn+F0LQFVK+Z73/ZZhL8HkLYcHxlK8s9avuofqj0AKCqzrZc8hopF7UQ60DW4GrCNYwF9gLcG8GX+63XHs846MHh1zbnXJzv+H+FPZ8BlKesCRZpbKCWIO4bIgSQ0IVtxgDMXhi1NUeCzfGkpKO7XJQF3ufvquYEiElogjRqBhTXW4JpKMAD2ee608mvHf9Hv/03U9598v73JtG5sUac3pEb0hBSGKwokAyocWkVs9mUDCtUvqXBdMqnjJiotprdEyOc9oYIsF7QvAKqKAuoO63dY2hA/MveTULWgxvBlFmj8eOOUkSpodJjAOjYowIdYTHHnY93D5MXN874u7BhMN5zeGsZlgWbA367Iz6nBkPOTNybPRhXMGwBCedUFwaJCV7oIm6ukspqagy2XpoOvtRVs9SZ4bW2GWNM8uPKSmLx6jjn9TFk0xBMktO1CRoPDQBbj+a8/m9PT6/+5iP7zzmozu7PGqEA3ocsRKPbMEUiUIi0dektiEk1QeRUjm27WmYS6iR2HaP7kl8AxlkeWYX7zsWm3QvCY2YbFskRar+gLI/YDheZ7ixQW80JhijD0r2hyYRrHVYZzMAPSlGzXszy+ig2OlxqyJy9f0CeKs63fJ9/gQA/x+8vfjOSRJfT5KRAowjRDR0ooUbR3DjMPLZ4yM+293n+t4hh3XN0bxmVDp2Bj1OD/ucGw85Ox5yYb3k4kbBmTVDr4DKPA0mk5I6RqPagqTzCWUwdQElEcWJxvCoxdoYybec9axumdsNbg6zCDlteh5g1sLRLHI4q/ng5mN++Pl9Pri9xzQaJsGw13h2p56mCeCy+b4QrBOcJEJoiL5Vq25Mehe9AZQDfSh8o3HYi9E8OUGr3FRF1FMAWgDJg2+xKdIbDqn6QwZr6wzXN6iGI304Umc4Vq7pCkfhCuXyXoGkVn79XPl8Xll2uujyDd2ILiiv0BRU+XXl4/bff3Plr+NkkjEEMYSkesReC/dn8OVe5MMHE96/f8iP7x3yo3tH/OGDCe8/mvLeoynvPTzivfsHvHv3Ce/e2uXTB3vc3TviYNowqaFOusI75r+ThVMMkaTbCSevOis7g+Ny/2JLHTfKXmlUExdZcrMmwbSB/WnkwZNDbt3b5dPbj/jxzcf88M4BNyaRmRvgTY+QErSNTiQas0NS80aUgtgVWCApF5KWnq0pTYuVEy6SFdycBNGClgccp+xwddbirMO5vFmnob+i057S0uLdneMYdFd8dN15l/aS7kh9vzD8shIflY+VvIxW5X0ZaPdVJLPQJB8MrTfsThL3Dz239ls+3J3w8e6Ezw4brk8aHtR+eVFOWHfCpoNNk9iQxCtbBW+ernhlp8fGeMjGaMiwcgxK6IlyJgdZtLUQgy7jswExid5YF9EkOWrRJKOLtIWHV0VjTEnDVowq9ohdmCf2ani4X/Pg8QG37z3k9r2HvL8b+NETw+cTS2GF0gnJN/imJvgWsRaxlmgc0ViSyeDpABS1GpKxicImUjSE4DQu+tiI5tcTQDku1lZe834hURKpjKE3GNEbjeiP1xisrVP2B9QhUIdAGyGkRBJDWRQUZQlJ9acYAtJxPelCg05cHxlcJ2lxPfnPY38p1X/z2yd3LcgEscyjcNQmHh7NuP5on4/vPOTjO7t8cPcxn+4e8WAaIZTgxjDYht4m+27Eo1Ryc+K5tnvI5w+ecPPBI+4+fMjDx3s8OTxiMm9o/YmHMCuFaoDMwBQdyMy0gaS7O5G2mJysdIZO6Yw5sq/7tv7GvIW9gwl3H+zyxY3bfPjpZ3x+7xEPvYNqizYWTA7nTOcNlsi4NAxsokoBGwMppOzFtiCVLkDKElNaTGpI9R6pOcrgOkF5Ho/vWhFjX0HGGApXUFUVVa+iqip6VUVVlpRliXOF6kQrsUhyzG6UbUeSQXECGAt6Foh4ev8qD1vlZV9F8tC36d5ezb29ms93az57NOfa44brE41T3g2oYVIsVAVUZV65BKrgkekEmU44N4y8uGl4YbPgwsY65zfXubA25Px4wJmBYWhgaMjiIC+n1XsLomFwXVBdRLBAkcNQsryBGAnR51imzJpNBbbAC+zPYb+GLx9OuHb3EZ/dfciX9x7wxf0H3IsjHhWnSWYdmoluEihcorcoDSS0GBpcXnp2QO8Mkw0S5pgwI6WCKH2gpwOZjXudDSelpIK68wsuIgU0YdEJ2Oz2sCRODysubvQ5vaYZJLY3YOoG7Jk+R1LStp62CbQp0gpEEUpbUtkSwZNCTYwtIRlCVB2psyl9XVT/r18/uWtBcn02Sz+5s88Htw/45LHn073EF0fwJBXsxyKr/rmES16OiQiFGGxIzKdz0nQOhWc4jGyOhBfX13hxfY1X1oa8uj7gpXHFqRJOVQlnI1ifA6U7IBk8Ft/lIuRCBhUBUrsEErrMD4kMNZsFgnKhG4/hxu6Mj+4/4cO7u3z08Al3JjPuTGa0qQA70JVX0GxX1eQTzrAIElsAOpEV+hUj6qphIYfFktS0gRisMVij+kzIZo4QW1XKo9fzSKISoW8NPWMogRL49tk1/szVbV49v443Fd6WfFY7fjyxXJsJ0uhy2ptEbdVm10slVSqw0iJMiDQ0qaRJZY65Ui3o66L233/j5K4FmYeTmutPpnz48ID3Hx3xk72aL48i+60F0wdXoUUGATzOzyl9jfNtNiZaMD2IPSbzglsHhh89DvzowZz3H0z55MGE64+mPDyoOZpFUps0eHhRjk4Zp07gScmgnC/n1WiktagYEOMwpiSkLMomcHt3xqe3n/Dx7T0+uHfIR7tzrk8NLSOQnrL7mKOvbDa+IHiEBoM3RpmvRKxkjSs2GlobfDZHWD2XlPn6OxJIS+ezqDEtuxvywxi1AkmFZ2wj2wWc7zleGPV4c2fIn720xr92dYPfujzmN86PeGGzol8Z5rl+JBFSEqLJG7nCV0hICnrNkghdkgC6Uvy6tueR/TN/5W+88+luw42DwP2Z8KgxGi6hwjb7mTwYj4k1JsxJwWddBZItoTeCqgdFCabA+YSfzWmbObN6ylEzpTaJWBhC4SiKgrJUjtJlqqj3OuaVQgevoIH1MRLagETBJouhQCiIAk+mcOPxjI/v7/PB3Qd8cO8hX+4dcH8656CNtEkUuGTl02bwdnpE6nJ70iKYTLlwh2jlmIvQX5PDgFWxW8BeVRO1sPuY8ikWN5IlZaRInvXScKpfcnF9wCvndnjz6gVev7TDle0B6wNHwOKx3Krhs2ni9ixhQsKGRBTwVoHkosUlo4+C1CRaPAVt0qgEk75ejhT/m//s5K4F2Uv/o//FO9cPAvemwqNGeNJxYSF7vj3WBQbGY3wNzYzoPd5HYjK4/ojeeJNe1WdgSqpo8bM5e4f7HE6PeDI7ZK+ZEguLGfawVUlVWYZlZnIpJ2p5T/QtIgljDWgWlsaOB0+oPSYaTBZ6AgSBuweej+8/4r3bd/ng7kM+uP+QO0dT9n2kjsoliJo5WzhLYawq9CkH2MeoYZOhc93EhTQTlmEuJiclWMkb6nUTiarHLc6XN0SBaySDSChSi4sN2z3HuXGPqztj3nzhAr/x2mVePDtie1BSGC3I5THcmiuQ7swTxiuYgkCwQhRwyeKiXQGSx1PgU05w+JpF2/OAZD7Z9dw6Eh77kmmq8FJmKzd52dtgY42NDS616PPSCSId8UR+60EaSNGB9JhIxaPouN7Ahwdz/uD+Ht+/94Qf3p/y3qPEjUN1ovpkiWLVKgs4PBZVThMCUmBMBVKRUkls4dFB4ov7nk/v7vLx3Ud8cn+XL5/sc3cy4fG8ZtJ6fIyYlFQPSWBDRELAxIhNXRxWZhfkmOW4siUNtJPYJTmKipegoBGyLUzyhHXch6xftZpAaWOgbxOnxgNeOrPNa5fO8PbVs7z9wllePbvG5TU41YdBqXpWtxJ7SlHO0iUlHXMVOc8QX51l+hskm/71/+U7+6FgkipmKZemE5NjcNTZoFUPWyR6TAokMerpN45kK6ItiU0gTRti7dVdUZakssQXjsYYpjHyeDrncFYzmTXMmpaEoaoKlThW7TtW0CKbpCxeNebJmJIkFW0SDlu4/njCJ/ce8cHdh3x07xGfPtrj7tGchzPPLAg+GkgaAlyIU3UohaWxMycLarhG1mskuz5XYs8XAMvKm0ZppoWpQiTlXLXuu1avOwa1eseWAs+ogCs7Y169eIq3Lp/mrctneePSNpfGPXZKoS/gJIHRlWObhFtzuDZJ3J5FjE+IjwQBb3XV5qLJHKlFpAYJtMnhKfL1LOzaXws9lyM9qi17jWUSHHUqcgSAW4mej+r9Dh5JEWsEZ9Q7bowhpUhoa5qmpm4a2taDcdjeCKoxsRgxp8+dSeInDyb88M4+37/9mO/fecxPHh/xxSTxoIHDCL7TPSJZHxIMFpECcY4a2PdwdxL47NE+7928zwe3HvLp/Sfc3JvwcNLQtJ0NSB2+KalNihRVt2tbCAFJUZfeYnHG5tWW5oN1nCjlhMaFOhW7GqRJV/RJEy3JqpCRhJOEk4jFQ2rom8BGKZwZlrx4ap03rpzhzRfO8eaVTV47W3Jx3TC2LT1pKU3K3GgZHQnZJLS6ClF29DQn6rhQ5lKL478Bshf/nb/zjojQeo8P3RObH1fbBUhl+d8pm7ZCigpsSYgCrZZpSRKIDigtxllMjsNOyYKH5BM+Ck1ITEOgiYlpaJn6gI/KgQRDzzigQJLFRHXC1gnuT+HzvSkfPnjM+3fu897t+1x/csSjWctRAzGVJFPpiiqHyCYRgoE2etpchzHBwlks1iBGj3vKYSOZI8nxOB+TU6YXjCppapWEgGlrnK8Zu8hWz/DC9ojXLmzx1tUzvH5pm1fObnBxXLJVCCOBKmo9SUQQYwnG0EZ189ycwbVJ4NY0YoLqSTEXHO2UbRsMRjwiDUhQ+SGFVi1ZseV+HfRcjnR6c51Rr9BkwW6ZmyIYgyt7GFcRcTTJ4qUk2Qopetiyn83zAWYTaKdgWlIViQUYq6lKBT1cGkDoQ9tnNrfcOvC8tzvlD+7v8c9uP+AH93f5aG/CrannSWPwKTPkbLaJAWYJ7s8jHz/Z54f37/ODuw/40b0HfPJ4nwdHLfPWIqliYIf07YBCSrULiaqgIbWk0JB8Q4hefVWigBKn7hGMJWXn8SJKcMUnJaKgM0aP1VWn0dV9imomaCa45pB103BxAK+dGfLr3zrLn3/9Cr/24mleP1dxcU1YMwFbz5BQ642uZMJ0q1Y639ox/SfvX53FTtnPHElF9DdL9i/9jf/9O9LO8PMjkm80WzUGTXx0BQnRBU0yGqYhhQauZWdmG7TYExaosnWNnEnru3pAOZyhKzpluujFRO19DsdN+JBogxAoCF4rjIUWbu3DZw8n/OTOA96/fY8P7zzkxpMj7k1qpt7gU0GkREyJUGQdrvPf6fV0YSdqhHRqGzMahx47z/pCHORp6izvRjC2ixnXrQvlAPXcp7ZhKIGtUjg/LnnlzDpvXNzm9UtbvHpunRd3hpzuC5slDASqFCiIGMmgNDo2QTTspQ5wYxr59ChzJJ+wQS0ZwQqpW/5Hi5GAmAYxgSAlQcpvfNVm/+p/9DvvUM9oJvvEdk7bNjQ+YKxDbEXMYaWIhtIGLFEcYixijCqfJAVQlcBFHdi6JraemGMfrClwZR+KkmTVFuNDZFo3NG2gbgPTxjMLMMPQhIIUhbqBj+484sdf3OTd67f5ye37XHv4hN2ZZ5IcCVXCkxQ5tz+DKDuEYwciVJHFGHCGZHN8Tw4H7rIvFgqJsIiTkgwizZnTLUpWZSNquW5mbFXCpbUer5xe4zsvnOLXXzrLa+fXubJVcWYgjG2glzxlChQCrosDk6VOGnMITO3h+iTyyaECyeblfzSiy3+rinaRLIalaItSEUy5ULa/KSCZN3bg5U3Di2uJ8/3AtmsZ0VBFj4mJGI06LKRSlpMqQipokyHmWKGiMFgH2Kgpl3EOfgp+Br4mRq0PXRUVlRtQ2CHIAN8WTCeJ2/stnz6a8d79I3788IgfPJzw7uMpn+5HvtwLfHT3MX/42S3e/+I2n9y8z+17Tzg8atRFYXvqVDUlQQxNgjbbExejmKK+WqOlh7tWQGQNuvOHZXG39AF2loGcCNDJWnx+zXqdNQwLy+lRjxdPr/HGpW2+c3mHX3thhzfPjXlx3XKmatkwNf04o0wtTsgxUGbVwJ+vt8N0J9I0gG9Vngl5UbvyVckysdPlvkkBZ//2f/w779jQUlmh5yzW5tgTsdQ+4n1YjBlpKcATCUlRV3KSEAkQG1JolwY563SwnCXZ/N3gkRBwIWJCRJJQGEcylkYMhxEetp69ec3BZM6Dg0M+vvuQLx884eHBjINpoG5Q943t5VVmAYXLo6kxTRFNXzYp4ZK6VTpOpDPQWbe7ocjcSrpAuwyklCB6LYfsG4Kvic2cFLVARVUYXtgc8fqFU3z3hbO8feUMb1zY4spGj9N9YWQ9Rc5EEZKe1hgQRxLbqWLLLSlHmvvE9WnIoi1gAlm0CdGZJUeKZiHakEA01UK0SeqWDl8PPY8jyWFbp3uHLfePPJ8+mvLR/QkfPZzx5X7gy4PAQSh0JWTK7HOz+elsEfGUJlKaRIwzWj/Fx1qDwWyh9aUluyWjOjiLIDgPLuhaWvBa1tfp5l0kushpJ1wpDNsh8PD+Lg8f7HJ4OGMyb2l8guEYMxwRe5VGJTirdpvQqpU61+MpxDBAB78pDY3V5bsqfvnhQNTtYVwGUKfs5yTRkCMhfedzaxHnKKuKzfGI775wge9cvcBrp8a8slVwZQ1GyTOKE4z1yqltXvWKhSyOA07tnpnxmWzH3JvDXh357x+2/Ff3Wn5/t6VshbKF4Ax1JQRnqVpH1RZYZhhzCKamMSMaM9L1UlQzx9dF/j94ToTkgJbtShXEq1sDXj6zxutn13hpq8eloXCmigxs7vvT1ePtjHpR/VMhBFIQbHIUVFrjsFt5dSEY0oA0JPRVk4QCKSZChCYIjTdEb6G1PJhFPt+b8fGTCfcamJdDUn8d11+nqMZYU6gy32b3xqpYEhbXKSkuTIsLH1rnxjjJjYx68UHFocSAhBYTAi4FSkn0C8OwV3Bhvc/rp9f4tYsbvHVuzCs7A17YLDg7gq0ejAqHUXmf3TSSU7zU4Ku6XGZ4Jy+HVTG2/GBhIs12pmeKrs6G9A2TkeAZ2sR2z3Bhvccrp8e8cWGTb58e8q3NkssjOFMG1k3NQBqK1GJTwCT1S4UQadtADIKhopABlkoHLZL1D61BhKnBNmAaommINPjY4IMnhKSBZKkEGYAv2J0EvjiqeUJJHG3hNnao1rfpjTewriK1Qd0Q2cioj+GqSOoKMKRsUEwKvrDqlF2JJMwBYyYlbIyYEDC+pYyevsC4sGz2Kk6PR3zr1Ca/cfUU/+orZ/jOuTFXx5bTFaxZdccYIetulepywZGiJaTsAMorypSWz+XTSFruWAJI4SQsbAT58OPukW8aTIYUKQyMC8PpYcELmz1ePT3ilVNDXjs14MWNkguDxI7zrJuGfmooM5gkqaHS+6TV6Ckx0kcoc+8vyY+bWnmhIUlNNDXBNnhpacXjidnPZVQExh74AhqBGqamwg/WkdEGdryBG60hRc788EENok2r7+PqBOiK0ufqczHELPayh38h1hRAVgw2gYkR8R7jW6z3VCRGzrDZrzizNubS1havntvmVy5v8WevbPDG6R6XR8KpAkaSOwsJeUVWEaiYp4o6lTQZSHEFBbISu9ddfdLLzwewNC5lMB03fefvdADK3zthbfqFksR6ksiBXA2OeXIcBri133Jrv+azRxOuPTjk890pD2eRh/PIPBla47RAZsox1mIwovWfY9JKt7ELQSEsVz5CN8oZOOoTWwSJJYtgtbJtnOsKqXD0CqfKedOQmpp2NqGdThYGVEGjBqzrFFgNuVhk+Xa/KSYPdOedV1OGOkkNyXti20Db4JLXsI9Bxc54yM76mNPbG5ze2uSVHcubO4mXNoSeLalsQWlKSmNUOuZ5Vm1S09yTqJTLAQFaLiOmHO6hH4SUdaR54L9/5Pmv7jX8/q6n8oaeNwQn1JUhOEPRWMrGYdIUkQOSzGnMiFqGCAabYleO42uh5+pI2FKLPviAjZ6hjZzqwYs7Bd+9OuKtS1t869SQiyPLVhHo+SnOz3HR5zAKVVSjODyONhWE5JBYUERL4YXCJ4xvIcwVHGYOroaehyHQN1AYCjH0gzCaJ4ahpKo2sOMdpDdmbkqmzjHtFcwHFaFfYQY9jDWYusUcTimO5vQmNf0m0MdQOqfsIanzlOiXXCsBSUPQLIKJID5C40nzmjSvkabFhsDQOXbGYy6dPsUrly/z9quneevqNq+eGnJxFNnpB8ZloLJe8ZNVthbNQG4L8E6drdnOqgvhFDDisZI7Px5TeY79saQFZ8p/HzMT5AySPxbRlr3dRixWBJciJdpy6XQFL6wVvH56yHcvrvH66T7f2nSc60dGzLHNFBNbBdPqnYmQrNFMDDEa1RdQA0+7kqcU8mOadWQMJJOIJmkVe6PLZZ11VSKSCNEKsXDEXknsV8R+j9jLHYOs6h8xolb1NmnSf5AcFlsqWwhR/YO+JvkZ0c9IfgapwdpIVRm2N/pcOrPJK+e3ePPiJt+9uM7bpwreWocXBrBZGW324rSAupaNW4QV6JyvZNCsbhrPJFqc7Nj4ZZIVuZadep2ep7rnYkg0xCUJkrSersm1vfUzjXv/OrbnkQEQY7FOuxJKSohvqUJiFOF8H944M+A3X9jiVy+MeOtMjxfGsC5zTHOA+DrfDVl0adHqlG0dwVhCJ8baXCSgMVBbaAymNdigTs8oEe8idZVoioCnIYY6c5Mu5DaHlxQOyhIGfVgfkjbGtKM+815BYw1NjIQ65FhnwJusyFcZSAHamtROic0R0R8RwgQxDWUJ43HJuVPrvHLlDG+/eIZff3GbP3t5yK9uBd4say6amsqQw26rhYtDwaRIMUbD3IvsOapyqkCZY9JdjvVeRF8uqJu0lclbgKgrqpW5asxA6koyJ5tLMxtM50z+mrbnkV69ZOOhqBFLA79aXPJsVYmrG47Xzw55/eyI18+OeHGz4kwfxsbTNx6n7GW5idZ1TtmXlSSPbHQQLHiHtBbnLc4LxuuSPJLwJuJdwBtPSJ4YGgXSsSLo2UpdFtDrwWAAowFp0CNUBa21WpknqGuhDIILgokrRehjyjYibSkqscHQ0C8iGyPH2a0BV89t8PoLp3jjyjZvXlznzTM9rq4nBsUUY+vMcqpsL8tuDrNY4WO07Roay3B80zwVBUAXYreYqwUXXu5QVU9Xn0szhopnMjdSMK1wpe40X9f2HMqaZ95EMovugtvQi49gU2JzNODy2R1evnyON69e4K0XznJpvc86c3p+Cgvu0WKirk2cNZRFqZEE/SGmN8A4fYJjErxP+IUtKlcLDblKSdIAtMXkL24oi4LuiTZdeItu4pxWQlndiEhziMwfY+IcWxhsWWJchbF9+mWP9X6Pi+sj3jy3yW9ePcWvX9nkVy+u8fKpPjtDi3OALbXTo+nnUJU/JXTh0AnflBc2RoFk8tIjRcig2Bz1uHJmg1cuneONFy/w5pVzXN7osZ7m9MOUMswhttmIp3nshdGM0Krq0e8NKKs+tqgQU2gtpZBtOz4DKGgQnYJpZT1MBtRC01wFU/agi9U+ZAswOaRQ94kQoDnEzJ5QxJqes5RFhS16WNenX/VY7/W4tDnkzQub/MbVHf7MlU1+9dIaL++U7AyFIotsXJmb0qyKo19u6tbC+f9uclbsFElFgI2evoHNHpxfE17aGfDa2XVe3RnyrY2SiwPDVpGoaHGh1j6t8xmhrgmtV4ObuEUUQZRlSwXSym+KKDYky+WOWXYgWoCp0y+yQfEYR1IuRFFCUSJlhSkLytJROTChJcynON+w5gznxn1ePrXJr145y69cPs2bZzd4dbvP5ZHldBlYs5p2bkRXXfNcqKJLefyF0tIstNxx7PX/N2gp2rL0UMHakf4hMWJToEdgJHCqB1fW4bXTJa+dHvLmaTVcnuoJfTyunRPnE9r5hHY2pZnP8T4samhr/cllYFgHCGcNZd6KHHKqukG3cunAtAKiRTyPzUW9OiduiRQFkmPHXdWjN+jT6/WQ6GmO9rHNlK0i8cJ6n+9c3OHPv3qF33zxHG+eWePq2HG6jAzCHBtyiyw0ObPOQPr6vFhfTYn8MK/sSCd2LT/LJshnffYLJtXIVkC0vIYlR9J2C4FKAgOBTQvnK7i6Aa9s93n9zJhvbQ84NyrZKA19iThfQ1MT24bQtEQftRldF9+UF8DdplmquhVGkwBWOdJTYFqssZ/BlZyCKbmSVGRQVRWm6lFUPU1LIrJewMVRyWunR7x1fpPfeGGb755f4+WtARcGjjXH0gaVfRiRFQ/LNzJh3Y88/WP6+3n/InryJB0bxD/i9tWUgZTz1fPKIZLHLaruJEa0RhEBE1uqpMvYMXBhVPLauU2+feEUL184zdVzpzi/vc7WYMC4LKiswS4qr+YMVLolb7dl71FS31z0nhQ0dryzh+h7luI3rYq3HO1o1HaVjM0lCLUMYXKOxhRMUsnUDFjfPs1rL13l1159gT/32kX+3EuneOt0j8u9xCmXWLMahK9L+p5GPogFNNOjZ6DM3QZ+IbTi5ljsOra7+3CpQy4OX+zKK7xviPLy//j8JNS1EGJeNQnZYhjzE1pTpKBAGlu+fW7Mty/uZCCd5vzWBlujPuOqpDJdMqEudUXssjFeZz/pAutBV2shAymujETS/5RLneBKK4BagMkqmKJ1RFvQmII5JTPTZ2PrFK+9fJVffe0qf/bVC/y5l3Z481SPCz3P0HmM0YxfTKFOV1PlFZrgCPRoKGlzpYKvlzIuns5Ny/e/fL98+zQv6pCVndVf0/Y8ysYGpYR+oTNTJDqArUQMkhZRhRIjlYFhoVvPiratSgHTrcCiXwBDK7XlDgEnrjLlnhoxLttkpZTD7vOCcjHK3UAt/s4XKrqKS13ue26SF40WKcWVpKKH6w8YDEeMRgNGg4pRzzEozUrzw26xkbX+lZ9SCKsP6+sMGvtKyrd6bMex15P0Vft/sfSUT28ZG5NWVJIORCuoixqmQW4+SYDYtPh6jq/nhHpOaOdayKrVEnrJZ1DlaraLENeVNgXLyq4aQ71qmu9+XbnSKhB5hg6Vg/9FiJIdtK7AZCUcpwW1ApID/1dXjvnXVm63o582jV83JfK9ruzobv8p+mNVtlm9OL2Qbltdkq8+8SSNUvchMa8jR1M4PJpzeHDI5OCA2dER8/mEZjbD13Ni2xB9Q/KtGh27yMO0zO7omsvFpNXYlK3riCy0t2MA6t6vXrAevUDAAhC5203hcGVBQJg0gf15y+NZy+60Za8J+JCj7ztNujv/yk8kWOFHz0Da107djS1u8AR1F/i0gFNavfI/6vbVZEhCirl0XFSBZgwYq4XAUyfSRLJOUxClYErBk0b44uEBP/r0Fj/++Es+uvYln39xg9t377G7+5iDw0Oa2WyxeiM0SNDUb21+HDpn0VKSGKuGRGvBCEmWwVrdDWnMzbM2lu8hcyd9NVYYVIZBmdg7OuDDG7f4g2u3+Kef3uO/+/wxP7g/5+Mj4fbc8KSJzJsG385JfkoK2vYTLezDnJJGk4lWhvKPRk9N04kdi1t71oertHi2/hiU7RgT3gdCDPqcCar85myKLuM0iSUZRy2WaTIZSIf86Npt/vCT63z4+Zd8fv06t+/e4/DxE8LhIcxm0GpiYvINEhotKbwKJLpiDMo5JHvT9XdXAbSSn5a68jMrQFq8XxnrDKbCGoaVYVDC/uEBH924zfc/UyD97me7/OD+jI+OhBtz4UEd2G8bZu2c0M60DHLykPNHOjvS122QTPk/lQw/m7L9bOoQ900q2wtK+uML1UC/GXP+Q5NEq942cH8SufGk4dMHR3x494D3b+9x7eEhDw7mHNWeNpJ1kpyIaI32fcMjqcWmFpN8bgqsEQNp0VYZzTWTFW6U/+VRVuB1+tOxO833sBjwJaJiDLTeM29b5hha12MvldyaC58ceN57MOUPbj3hx/cO+OTJnFvTyKNWmGCppasmpyvLbq34ixBsP2W+Vo74qpijZ+37xZPpdArheOEC9FIzkGCe4LCN7M49t/fnfPrgkJ/cfsIHdw/44MGEG3sNezUEUyBFDwZD6A8w/R5FVVA4cvmoFkOL1j0JixLJrLR1Uh7V/VvCq9s0M2IBuUVaVGc01Is/PqA+BCbzmsN5TWtLZG2HMNxk3/a5NU/85NER/+LLB/zBzV1+sjvji0nkfms5NH3mpkdLQcoA6sJAvj7B9nNQfla621s8RyeP+4bJQC6MIBotuDqFrHCkOsL+vOX+wYwvHx3w8Z3H/OTmLh8/OOKzJy13p4lDbzTLs6hwVV+tyIXDWkFSIIY5KcxVvKUWg8dK1NIwucW7Uodo3a+fnQBUBo9uyp3MU0FYaQGsFBNtG5i3CW8rZLhG6I2oTcleC1/sz7Rm+L19Png04eO9huuTxL3G8KQ1TIPGyZmkcUXfJJCeD5LlPf5xUgaSwVqrOlFKOeZaJ7abyjpEHuwdcu3mHT78/CbvXbvBe1/e4db+nIkZ0hYjgutpzSTjNL07JpqmYT6bMJscMjvYY3a4Tz07xDdTom+QpHrZUqHvbDedfrTKjZaKdrdmOrl1IkdfF/kWap0uxlCug1Ra4yh2tQAgGJgB92YtHz444vs3nvAHN/b4wc1DPn4w5f6hZ95oiyXrW22OmOLJ8fzaSaXzzwiUr1y5/eLJIFqvuasun5IaBFOuqh9zyeJ5SDzYO+Czm3f5yec3+cPPbvDeF3e4tV8ztQN8OSI6zXyNopmzMSVS28BsCkcHsP8EjvZJ00NiPdXox5QLIi+AtAqmk0DqRNeS4xwHUtZh8mnyWkGr5psSipECyVS5sGjQ6rouEQzMEe5PWz58qED6/s19fnDzIAOpYd4EpJ2Dn0CcLVZyv1j6GaGxCraf8StfJ5mYPFE8SSLJaGRjNDCLif0QuX0w44Nbj/nBtXu8e32Xn9w+4Ppew+PGEcyA1EUImhwhqCXXiB0wtBzbMncsoulD85o0mxNnU1I9g6bBLFp+dQUfXG5N6CAaxAvWJ4oWigBl0q7aYoTkBG9zhCVayF1LKQsxdUEOYRF4p7asLnDO5voGJT4VTBvD42nk1pOaj+8f8v69Q35894gf3J/x4yeRm5OCg9oSvKapd3axlJN3u1jRhcaWNKaL1GpaVtJKYCkfpz0F9Fgdtlz5LYeLdQXDQJ8Q1We7AmB5mb/IeWP5sHXP3Ne1PYdMQ6P1g/C5/LAQjDCJsDsLXHtwyPc+vcs/fvc6v3/tEe/fm3FrYpnZNWR0CqrRwqGpy5kc/C4ogIoCW/WwVR9X9bGmQAIwb2A6IxweEicTpJlhfUOZPJVErO0CyHKUs7cYLxStUPpEFbQkaSGCcUJ0XeB9jhun8/WIVl6LEXzmJn6+ktotmgIlJcb0EdHfa4Ll0VHLFw+PeO/OAb9/65B/cnPCP3kIv3sw5MNZxWETNSsmNJD7rPlcMO4YmFLM4G20PHNS40HMIKrzaycoBdFyNxhSFEKuEJc/WSRJgoKMpKaTriMAsKJvfjNkQvJEApGIZqNBjfB41nLzyZSP7+7z4y8f8b3PH/CTu4d8sed5VFtqM8D0x4grM1yX+sYCSAImN2kpbUHlSkrjcEkwPkLdwmxOms9I8xm0c4xvcNFjU06axObcN4MJggmCDZpCZJMuEjjmGeki1buB7J7MpcN5kUyQgUa0SHIYKREpNfguWQ7mgTv7Mz57NOHde0d8/+6E7z/wfO8JfHgA96deH4hWM4VDXkEdE8AJJIWl3SzbzrqlQzhe22Qp3QWtcLRYlWXhnaMoEJO50XKRoqlhGUQnucnXsT2H7H/yd//OO2iqHnWyTKNldxr58MYjfvjJbT68+ZgvH894MEtMU0FjKqLRpbBWHmn0CZNWayNZ9FeTRlam1hPalhCjsmgRJPu8krUkUdSlqK2ifO78E9pIakLO7ddKHmLUYBmtwRuh6RoOJl2V6QxmROVBVQ4ZwUSVrjkhQR/orIt1E5V1RBV5STXEFBcl9FKMeO9pmgbqObFuaFuYSYWUfYzV1hAlYGOL9U1uGpiWceWmJOAIuSeuSNcuYzl0TdRiW9en8MlR4PY0UmIpMWCN1kcyYLwgrWhunGkRE9FUjAJ0VL9Wx3L8//xfTu5akHFYbLLEYKlbw2FteHgY+fjmE/75e1/ww8/vcX2vZj+WzF0fGYw1DSh5aCfgj8AfQppTmKARAIKGWAQPTa36UNPiQyCIQcoK1x9gypzGExLMajicwNEEP5kQJxOYHMH0CNpa+yYZrcLRlI6ZNcyBNiRiV3TRCyZaLAZrJOcweDA1xgacMxRFge2SG2DF+ZyBrmxUoy2NJWFoQuRoNmd374C7D3b58tZdPrz5iB/envK9+5HPDy37SbOtDBGJU8QfIe2+1olKAYwjmZI2d+huoyX4hIT0lDlByFEsOdDPWC0d3ZVM7sSXPq+qPynTUNCsupO+KTKkgnkt7B16bt4/5P1r9/n+h7f5+PYht46E+zPLw7nhSS1MvKFJOWuj6KK7AjDXzIzQYHPOPG2rE2QM5ChFypJoLU1KzH3Ad4Uf6Jb/ScVOPWOQWk6VhouDktM9x7gQShe1BA5hOdrSPc8OGw2Fh6JNOB+wQQ2fRhpEvBZXP3b7ndzIG0nFhzEZSNrCK4iliYlJ69mbzHm0d8TNJzM+2W15/1Hgvftz3r/T8vmjlodHDb7NWvdiwrUofAxREzezPcqKaL3vGBcRLN3cy0LMreT6d6fLCnYHn7xzcUt/HGRSsBzN4OF+y6c3n/C996/zuz/8lI/uHLGXRhzKmHlb5Ij3pFY5ASqHHRRQJC1TE+dIWyN1TaobYt3o0+4K6A+Qfh/TH4BzJB+I8zk0XcO9hC0MVeWoCPTaOZsSuDIseXV7zIVxyWYlVDYSJa9+yCA1BZgSJ5VWefVgfMC0LeJzvpq0GFEd5XgsFBlMGcxJZ0+M1dKHrsC4imS0Qt3cJ44az5PpnHuHDV/sBz7YDbx754g/+OIh79/e48ZezZNGmCerqUvGQkyktiW1DalpkRBxQGkk97BbBoE9i5cswN/hnQycDlDdrfwxkpm28PDAc+PBhI9vPOZHn97hB5/c4YvdOQdpQC1DiOUyad3ntYU1FGXO9TJBFUrvNXd+UbMIxBbYssJWPRVl1umILIpiNRg8QwebpWGnZznVM1walbyyPeLbp8e8sNHn9NAyLqEwnXoasy5kQRxWCkxymChISFpLO+h1SW7tlWLM/UZWQbT6JHfsQGPAxTqN/TaOII42GeqQmDWR3Znn9qHn872WDx9M+fGtPT64e8hnjxtuTxK7taGJBSk5UlQdkBAwocGGFqcpEAqSjJzUMZYTzEUvrRNhK6/582fR8z77RZD9d//677zz/o2H/OjaLd6/tcvnu1PuzxJ1MaBx/VyI1OQqsOl4Rm3UTQCDQ6IlRauNhG2hEYm2IInNjX0l32Lm7bEBP89FzROnB46rOxu8cfkcb75wjtcu7nD51BplkbAmgmh36akPGsKRJBf00jRlchSBZjlFonSmCO34GIMhhpyZQicas6jOSj+Lh30lDKOz0ZjcMdw6jHEkRI23UeuE+2SYR8NhA5MW5tHgk3K3qig0m1siZuFfJCv8uYBqfjzqqFVtvzxKfLTfcuPIY7vSfwLeaKUV4/MK1gScCxiT8KJ9Gki6hPqmlG37l//n//E7P7p2i3/+wed8cn+fO9PAJDqCG5BcX5XhnGRIymXwkhrgYlIQWWuRZEnBkILaf0zR06e5m6CFnE9aYtgmxM+hPmLNeLZL4fyo5I0r5/j1117kzStneeX8iAtbRe4w0BKCZ940zJuWGI0GorGM/9ZB66IGIqnrrizZJhhkYYw2GUCSU5lUn1koIStcQUBU4dVKvw5jC0hC8J62bWhjYh6EaTAcNNp8cB4NHodxjmGvZK3nltXrupVhTItyg13oVEgKotrDF0dRgXTYYkPCxmwyyKWnrDeYYHAmKpBswqNVYUALhn1jQHrtf/zX3vnw9kOu3X/CozoykUJbZ1ntsIM+8GrsSyqKNGdexVdCl7SSSi2wJeWiL6zCLG8pZctygw01vdSw4SKn+oYXd8a8dm6LNy6d5vVLp3nt/DYXNkt2RjCqQIgUuTKJKqdqR/K+ixjQpXmUpFVQbI5rMkaf+AgpGlLMHjgxGGM1iC63jUh0ekoWd3FlAkTBtHw12TmcRbrRxoVNEqYtHDaR2ifmXi3rJrugLELplpkzOr5ac6GjSK6zHeHLiXKkm0dey1CGXP/C5nbt0WBXgCQ24pNbttn6JjnS8Lf+3Xe+fHzEg1nLRApaV6lFmbyCkkhZwNCpbUSiJ4Sgd9smkJKULcLGVoitCJhscSVzIxYgEj/HtVP6ac65ccmL22PevHyaX3npAr/y0gW+dWadS+t9NvswLAOlCxQmMSodlbWUWCosBGhrj/eBJnqtMmuFVDpSruQv1qll25NFoG7GOoztslmyHStlM8CCW3RmxY5RrRaB12LoLnmcSSRxeHHUQThsIvvzyKzxHM5b7d0meRVoHYOeozC551sHoIhaqnNTpiZX4vnyCD7a99yYqGhzcaXOtskginbJkUykTY42am9VIwqmr4ueC6T6V/4n7zyat0yiocmeex3coP4hExm4xMBEbGhwOSMkeLXbYHpghyRTql/MOK2gH5JORKdNxhZCTZVqhtKwWcG3dtZ4/eIp3rxylu9cPcsbl05xblyx0YPKeQrXUJqWnjOMq5KesVRiKbBEH6jrhjYEZsHTpqB6XKnlZZJx6mbIJSzpXAum40jZndDl83Xg6TgSK9kkqxsdo465gU0iYGiTUet2E2nqwL6PTOYBn3RBEEWzgMtK8ax9bU3m1F0vEqNAirp9OYGPD1RHciscKTrN4XNBK/87E3HWIzbSRksTLaLQP1G8649GzwWS+fV/+50gghSlWogbLXuHFaRX0LMJm3P5U6tlgiUZMCWx6IMbqDc9ii7rfe4V64y+phb8nCLOqOJMFertMa+d3+Htq+d5++p5vnV2k/PrfTYroUcLKQezikZRWoQiCRZDZQr6TutHGgGsEIhMU8Abtaar2E3qJw1gkoovlUw5hDgz/ZSrnC1FWRcyoFbkZd/djnso4JKg4tFafEjE0P0Y4AzO2VyG0DJrE/uzwKRJHNSOWasZcYXLRW1MyL9pibkeWZPg+kT4+MBzcxIoEhRRtO6UU/Fto8EFgzUBawNiAk20NFFNm92lf130XCD5t//Nd6SoKPoD2hCJ0xnUc+iVrI37FARSfUSYHYJvMSFijMOVA2w5wktuQBKiAtA34Axlr8ChYRemnVLFOf045+JGj9cu7PD21Qt85+p5vvPSBS5vDdnuGSqTXS5+rm5Mo2EekrTyT9841quCcc8h4hCjIJrHlmloaFIgtM2i/wlBIDoMpVqFbVpUCk2yBFGKmQOlrA+ZvJKz2j1pAaIuCjOEvJLVYhWt99DMVEZZwTmDzYmZsxZ2Jy33DxoO68RBAx5Lr7KMempLqkybwWpJGvJEm9RF8vFBUCBFwSVN71UgqViz0WpbL+cRCTTRZCAJRr5BjvTqX/6fvlMYg29bfNMSIqoAlgXWGq1439Yk32Z1J6kR0FUkWxJEg9gWMkQ0KMLEhjLWDKVlq4JLW31eOr3Om5fO8Mbls3z7wikunxpzbr1k7KDoROmCjeRaTdKVqdL3xhqcgSgO62yuWJUTFoBZCBoz3m0YRFxevWmMuEqvbI9ZNdxk8SW5cY1kEaSfZ5HXGS/zik57AKqlXZylsNo9QZvlaMusuU/UPuGj9l4JviWEkMtABQqnveFCFEIUXbVFuD6Bjw88tyaBIimQ1E2krzYYrBetP2laMCra2mgRchPFbwpIf/mv/o13/HzO3uMneB+Qsgf9ISJC6yPBawEFXWTo6iuZnFNvHT6nR2v79YBIi/gZab5Pn4btnnBxo8/rF0/xKy9d5O2r5/n2hVNcPbXOzqBkXAguBWSR76YcQoz2hcNUGo+UwyoQrRorDnoDhy0czmrtIpMisWmRkIt3+ZT1JbsAUqLLn1vRhRb6EMvmNd0irWNGdI7cFVB1pZatoSwLCuewRkVozLbbmADRblBN23A0mTKfT6nnU2azGcFYXH9IFKtp6iFQB0ubgfTJYeDWLOKSivdkO2Vbsh1J+7UZ0yISaJOljS4DSb45IP3P/lf/23dmRxMePXpMTIKrhphySBsiqcnWYAPWZJ2CqPn1VpvURdH3iKegoUw1Nsywfsp233Bpc8C3Tm/w1gvn+NWXL/Lq+R2u7PQ4t2YYFoJDK+ynpCnaQXtrk0yBMb0MpNyNW1UbMEJRwqAHRekorKM0AiESGk8KieD1qY7ZTtTZlgRNwNQZPg4kbaHVYSpzncyFFqlQHfeKXb3uCM5S9iqs0bis2HWoUBTplsA3c+bTCfNmznw+Y9a04CroDUkp4XxLERtVtpPjRu5FcmeWKGIGkhFt/AcKIi8YCVjrwWgr0jZqtOs3ypH+1v/mf/dOjGBQDjD1wpNpq+2x0OjGbjmNqMU4CPiU8DEso7rbKXF+qAAaFFzYXuPVC6d548o53rhylpfPbnFle8xOX1hzUEjXcChH4uTiD9E6gisQ01M9KAkhCW0U/U2JeIlEMYvCBYWx9GyBxVBKoe0ljLo0PIJfLWRKfulAKWhQmOQsmpSIUXP8gvcr2cHZwZyBvPSwKgh90kiENhoCVoPpRHIMUovEOY6GQjw9B85qTs2BF+4ceOazOcM0Z914mghtMrlfW+T2TBvzFFG7a3sLQVIOIwErHms9YhJtsvjUcaRvEEj/6d/7+++IOMRVTFvh/v6cx48nGUSVOl2LAnE2JwQEQopqtwldneMIzQRmB9gw48LOGt/KIHrr6gXevHKGK9s9zo2E9VJBtDBQJo3KxFiiKwhGmy6L0RUNeSk8j0JDpDWBYDRhwObEx1EpjCtLKT16ViuHNEmYhsQkBOo2Z8oK2Za0JAVRZ3OBlLSABcHnRjZdRd3MjUQVcCsJkzNg0kKOmZUCyJmDJo+JM8owpW88A6d1NYM4JsFy+9Dz0YMp0sw5V7ac60XaJHgsN2eJa5PEnTm4rGxHA17Uwm18Fm+iLpJlPJICycjX3Bz5eUD6P7zzd98JCZwr1BbXBnyMiLXMY1wsp1MI+vwtXAo5OCwG8A1rLvDCmuHNUwPeurTNGxd3eOXcBi+eXuPChmW9B6NitaZQfrqlWyl1fWWzO7YLq6CL/wZjEkaS+qy0LczCHuMMgFC4IivJSUO80hzfTggp4bPlXfUsyUmbQYPPoicmnzsF6ApquekqCP0JShKWzuCqdcQzq1pRrDK3Stor06DxRZJtSq046mSYtIm6CRSS6Emk9pEbE+HmJPHZYeLGFA4ao1GlSUVazI4CG3WfkUgSVQ18tMSk7iLN9cuDuAjP7a5vxecICzatOuFiYvQWO0b+PCC98zt/5x0xlmFZ0DOGvoGxGIrkaacz5nVNaBqNVDQOyv5i2VuIYNoamR3xrbHhX7m0zl/41g5vXdrm2+c3eGF7wNm1io2+pWezaQmWg2xEJ8l0wVpqGEwhIB16MrewBgqjEYgFYLIioqYBq6ex0KugsJaeDQxNy8BPGNb7kAxHaYBnqJm/TrAETKyROCfGRksxQ3Y4a/NnbC8r+uqwc0R6ySMJbacqWuh4MUHS3Z8uG/UuugdFuYUXjZD0GRgJkJQ4bCK3jgLXDhKfHURuTGCvtUQsJo9HzMxcUu5YkOsjxBRzUwOTpW5St1F+MDrjq4jGfXfRA93CYwmqxSTpTHUrXIB//Bwg/c5/8nfeqQrLuFfRN4ahdQytIbUqt5u25bDNfWud0wA1a+lZw8gKw+gZp5q3T4/4V1/a4c+/fIqXzqxzeWfM6XGP9b6jXyjHkBxPHJPGLJO7XB97inOhLdCwXEQVYGfAiSwKB0peMUkeTGsMhYVeCVVh6JnEUDw9P2XQTmhSwWNGHMU+2KS+u9RgwhxiTci1mzTrpcorxkLBJLk5T4oUKVImr0t/0fCSDkQahKZVMoWuxwjZu6+ACGIIWXeLAKhobUJidxa4dei5PU3cnib2vSFKQZn9nh2IyNzaGIOxRhWOkPBBQWtED+wqu5hFYkBnzV8BUF50ZLgtOFIXhanrEgWa/Hf/12PgWSX7d37nb72TuoYuWIyrKKs+UlWU/T62KkkWDqLXqhyzQyTO2XKJs33HSzvrvHX5PL9y9SzfvrDFxZ0xw+GQfr+/CGtdhIbmJ6CjRfTfCTJ56bQMeM/Ma3GEfqKrrM75uny69dVhjMU5S1VV+GLIREoOQ6SIc2impNAQsi8s2UqjHWypT2XsdDjVAY0RnFP7TESUq0gXc67U+cu663z6zlZpZRygC09QZ3COSrCuoCiK3KS6u+tlHNJi/DJoSFHBZZbiS0THqAvTzUg5VvAsoYhZcK3Flel+BdtPAdLf/p2/9Y6Ixga7wtIfWIajiqK/Rn84xjhD2zbU8wnt7JD2ySPK1HC6Z7m8PuStyxf4zW+/zBuXT3N5e8jWuKLf1+qxzjkFRaZVEPEMIHV/63e0Z273RC3a0HaKUxaHcsxnlqcnmyuKoqCq+oxGQxpbMvWRWV1DPaWeTbQCC12aeR/bU3uOulhyAdIUMAbKoqAstLZSE2UJotXr/7mApJDIUS750dfE1A5IzhW4osA6twDSgn8sOKDkYDfVh9SYqte1GE/ReO/FBSU0EbYzyOYh1WHsdKnu2E7sJeSf/N+W+0+Q/Y9+52+/s1DDjMXl/sFioCwLnDVUhWFcOXaGJeujipdPb/Ht8zt8+/xpXr94htfO7XBuvWRzYBlUywD7DiQdgI5bk58G0uq+RC6nk0WbdDe6CkZFVn6KVoCEXr814JyhKkoCQkyqgJcSkBgAwYvBR7VbRZNDZ/RC8o/GxRI6JqGNLIP9TiClA5K+f+pjpeW8weoxnUhPIXcwz0AqS10I5aNT/lJaKO/6x7K2lQJHx7UD0zLfDbrw3OU85FPn5kZLriQZ33TAfQ5HkoN4lLpUNJscJpWkCEcejlp4eAR3D2bc35+yfzRh/2jCsCzYHvY5NR5wfn3MuXXHoFLHu7M+s9fjnKhr/7RKJ4/rSJU7WeZ65etTlbYTYN3W3bKKnJBEXWxdzljU7d5B4sbjCV/uTvjswSHXHhxx/aDl1mHgSZ2gyN26rSA2aUhvaCC0hJgIORJTi5OWKkBT1yNFSadq+f9y6pb/SWIhnFKnQyU0tctr1q4rKlxZ0e8PGYzHVP1h5rjavjQCiGiavTFaKC2XVFTunR/E/Psdx+64i+pHUXXCjjpbmtGysR3ullm+ifQ7v7I8/gTJfpxo9euUcMngFunLhiAwCXDYwFED0zlMa09lDOPSMC5hXMC4M510s51plROtAqnjOrIQY8/4TudYXXzAIlBryXsWQ5W/K2pRFqvhR/n7Cb3+vSOtpvLRgwkf35/y4cM5Hz2a88WBJ0lu5lxYisrSKyC2M2I7p/FRW6UmA8UQylGOr6rVyXyC92ReoE90t3MhQhZ7luORkho+2xpiwJUVrijpD0YMRmOqwVAV9syl1dogWKsBeilpxb0Ug6YtGb2C5S+Rr0oDAZ+WDN2cLL/7LCDFv/vdY2dcJQMOg8OJxS1uXfUDm7Qv37qF7RJOD+D82HFmZNjqw7iESlbSRfOVd8A5Vlg0A6hjxyfF2irYlCOtDrnOQ0z5xuKKfUQ/hZWIRYle46FyGQELDAxsV3BxbHn51Ii3Lm3z1qUtXju7zotbAzb6Ru87aK3Ltg2EKLkgRm6h1Ym7zgh7YqpW6dj1n+DEXx8tx3AVygqFlYtI+Rq6KsEZPCZzoU6H6sRit18Wn+v+55FJOXDe0kXsxZxeXEOssXhGGUhnBnB+DGdGsN1XblRK1M6QQZ8mTgCp28hA6sC0kO/5+NXtpBjs3qaUbSMdkPKTolv2haUcRZDFkgTNGeubxFaVuDiyvHxqyNuXN3jz4javnVMgne5bKrQ0YWpb/AJI2jtFdSKTLaUr9QW6C1xwnMVVr1zjL5aWynF+XYBr5Rq668tgMosVnc6FNQbbgSibCgxLIK0+9M8i4zBYHJK6FuuSByFPSvLa8SiG3H81x6uBrhZMILmk7WjNEhQdrXKfZ3GiVVo8XSvKHieeNv1jdcBWPhX1eFujFfrVchMxKWIye3IW1kvh9ACubpW8eW7Mr1/Z1Jbr2wPO9C0VHl/PaVtP61Hl2lVQVSq6uwdnRT9apZ8FOotF/Cr+uvHpxmIxXsvPn0/Lc668dPg5Ni9kkCznY3nu7oFdfbh/2gNhigQ2klGw0q0I9BJiVjrbmtDMaeoZTTOn8XPq1NDaSKyEpHnax6i7yK8SZyePY0UBX4Aq/ycoK17I8WM3n/8WNTgZY7DW4Ky6DyR1qVPKySoTWHdwaQxvn+/xmy9u8auXN3j7/BpX1kuGBK3pVDdaWABHUfYY9PtUNuHCNBsytUDpkhZP2DE0LSYy70zH0LN8vxijfP+Lie5WX90x3YAsaGlb0p/Wf3TgWXDuJelwrZ5XD9NAv+PSZFWqfBUZ1/m0FmA6oeGSrc3RE0NL9C0+trTR0+IJNhFsrq6/ylF+RhDB8klZPU5WxkqW4UILMC1Rm49KeTSMuly6TWDpc8r35SQytJGzA3h5C757Hr5zfsxb58e8uN1np29wkr+jSyScsVTWUBBwYaaulWdypOOTdvLdKohS1gVBjUkLoCzAsrKR74/uwdIxWp55FTTdznz2DKhjkmIFnN13U8qgCcf125PffRYZDeXIv6kWwGzVRSfLaMV8cbokLaoeRVVhqxIpC6JRc/9KkMYJQDwNoO7COqSvAml5jCrWIaQlV10dWCGDfuWaY1qtb7Pyna6thCWgGRYkT5ECgwQbApdG8MbZIW9f3OC7V07x1qVTXNwc0nOCCw1hesTsYJ84n2GDx+ZS0itIOUZpZTx+mlhQ0vtaTG5+XWwrk97R4rTpxG+k/Ov5ZcVHsHhdfk+PTxlAGrnpCV5rFagFvAtH/mrSbJW08DHmHlL5IjpPaO5/ZsuKsldSVCXWlYg4EvZEfZ8lJ3oWN+pAsyp/n4X2rgRhDF6tvRkTyydUz6fxZUnTfhan6YZ8Ke4wliAOr377rPvNsXHCmsy4PIbXz/b4zqVNvntlh7cun+LK1pCNUihjQ5wdMT/cJ8ynmKD1m57febqbzOcds6TFHeX70/cLFC2PW7ztzqu/k/HQCbUVkK0CSmlx2vx5ikm5UAhEHzKIuk1BlNJPEW3Zc7iwAUWnweXLeNPOiqtcoIvb0U1IRAItEb8iqZ9NzwLPs0DEsZvNdqPlWK5Yk3QLOfgtLCITyZwpX2nmSMs2XJ0HOWmalK8ZSctOCVfWLK+fGfDdi2u8eXbIqzsVF4eWNRsoQqNRBzlOXf1sz75++GkfHf8wz3We+Pxpt7PjMN3bE69f/TMnPzl+cKKbi058PS0hjNGMGGfd8ovPINNJg2QhFZAKIRWG5HJf2w5Ei5taVvczALkTdggt6Zk6g9IqgFbl7rNEX0eSsyCEpYutow5EudK2AimCj2lRO7I7hpzciFHjtNqENCyWoPFUNjaMaTjXT7y6Y/nVC32+c27A22f6vLRZcKqCnkScGJJURAqWYWPPnc0lSI7PYn5dIuLkg7bYSBlfeqZuortXPddzLgDy91b+yghc/s5xXWgJIofLzuPnkYkEogSSCZryLEKUHKKKELJXfUFZObdJO29LiFqFJOSSMV8TrfCTpSV7yaV1E1FOQ5e1IUt1KVfjVaCtTiYKri7GKGb5mDzQsFEGXhjD69vw5umKt872eWWnx4X1HpuDiqqsiFIRpFwCqZvI597+sz48vi/l0I64AM+ztu6n9LsLMD2LjgFnZecJICpIl8dIXjFaa3HOUZYlZam5hF9FRnIKZyQQ8LQEWkIuT6qVYRcX0c1Gtse5BD3RGKaesRjy8vErbu6k/vRVOlSMWhdR1RsBEilqCKyuKJbXJEa0opl1WKchF5Lz6fOlZmAdu3ytZmJK9bEVPeW+yYOf4poJa2HGxUHg9bMD3rq8w9svXeTbV19ge+sUwfbxqfMJ/eyU8n8nxdrysxXOkIPSjoGoA5ee5DhSvoqSnnepEy33L/7O7yXblmzmRIUrKIuSqizoVT9FtBmnqFAgBfwCTJE2FyhdXHM3C937lHAi9KyjMua5QHoWiE7ajGDJavXmc8ftpAH5XUNABZqOjOT0N5u9GJ3U6qwYqVs/xByDkwKBnK1iCnAngBRm0O5T+j0u9QNvnBny9uUt3nrpAq+9+AJbW6cIpr/iXPz56Cvnvxuz7ALSoLPudcmNnuJOz6NjK7ZVwCxVztXP1GJisCYXkC0KqtLRqzTy9HlktHGEyf8sFofLLhOLgkM6ObP6KvmDXOgKcSfCFf7laPF96VZnqqdJjrNecLATl9OJwcWWVSLp3ueti3RYDKCYXBFEW8kjLkdGFtjCMSrh9BBeXIc3dwx/9pzh37jkeGWzYGQKaEqgR2kHlKZQcR8biA2JRusEWzS6tPsdcl2aXC9MomBTwsaghSlSwEWP6Xqs5IdZOakQkkZZhiTEKNq9POri3mBxYrE5/y8ZjUbVxbgQosUHR0gFMfUIVAS1jmmNp6AlnEupGbmanUHi4gZc3jwxUSfIoIWG1XGLo6SgpKTEUWJxIhqP89RMdQjrogUcIhrW8EcFk56jU/S1PI0xFmO0KGeX+LcKpmduuYGxXeR2SHZRa4bK8ipNLjpfgR2oh78Ygi0wAus2cbnn+c7ajH/jXODfecXwF845ThclzHqYOGRQjOnbiiJF7Q4QZrqJVkmh0HqUGK13STC5Cp5gAxQxaY1xWkpaigwok42pKak49nlrk8ZR+ahgStkzYbEU4nBGU9Sj0XI/gYSPgg8WH0p87OFTSaCHp6f5cCHRtnNSmFAyYeymnB02vLgF3zp1bIqeIgMmA6njRo4CR4FF/XCieDk5Y9JxDZPB1BVq+OpV2M9Cx3SmxdaBqduOA+lZ20lAKahy9unKLaSErv7EEqQg2opk+5CLjAkwtIEzZcPL45Y/czrxP7hs+c1zJVfHfWwxZGQq+uIoUc6idbXjMkpAuspxq1eWXVE5O8R0Jcpzc57VkBnRgVnh0rotlOSYw2FjQmLuTM5yMFTMawq5lmV2+CT4XLDCY1DzaoDUUEnD2NWcqhouDQPf2oBXNk5M1AmSqOmgv7S0XLmo3nFS+Sfrfd77RY3ttm1596Hj9+72+NE9uLv7iHuPdzkKLbWB2qjUWtgsFiO8AiCMFpzvqiD6muDnpNhiiwJXlPQGIwbjMb3hSHU4azur2kLfMYjWJ28bog84azM30vTuZARN3nJZHFpi0vI5QVgUsbeppp9mDNKMCyPHC+s9XtgccHVng6s7hl4B//ZbVxdjcpL+FEg/A5C6z2KMtG1L27Y8qPvcqguuPYbfe/dL/um7H7IbLO1ok6Y3plU+Au1ck0fbOstZQ+FKeq7CmZLWa2uWuu1KSgcts1g4BoMB47Uhw+EAZzSQTVuSKZxUfUq0Tct83tA27cJH51ypAXJdAVjjCCK0CdqUaJP6S0kKooqabevZtoGX1nq8ujnm1c0RL2z0uLoOPQevfvtPgfSV9LMAqaPOkRlCYBIKDoPl/hF879N7fP+TW3x+ELjTOh60jmkW98RWwRQbsGjBCzG4HMDTRgVSq62+lVsVFgrLcNBnbW3IaFBpqSajDui0MAGo4Gt9pGkCPiSMcRibW7ladWB3Mdyd5ZoYtYKJBAYFjCtYr+B0BadLuDQsuDqquDwoOdOznOmpBnP1zT8F0lfSzwOkVc4Us39v0kQ+3/N8vuf54c0Dfv+LXd67d8QhJZGcE5fVIkukNFo0g+jVSZpdOiHleOUc7mucZTTssT7uM+yXquFIJMWg7TgSixWz6j2GKA5X9ilKSwPMYkMTGmwM2BCx3mN9SxE941JT3U+v9Ti/NeDMep+zAzgzhFMFbFvYNDBMgV7ykBJXf+3bJ4dkQX8KpJ8DSMcoNtoZKQUOGfMExz/7dMJ/8+Mv+b1PH7DrHY9bLRFNUeGcw6IrsRhqfDMntDV0RkYpQXL1lcJSOMtoWDEe9Rn2CrXPp0BMiRCiLvmtFqtPplCXjS0pe4aiB7MAh03LvD2iioEqRPrB0/ctYyI7PcdO33Jpe8yVM2Mu7cDpkYZTj4FeAheA+RzqKcTI1d/4MydHYUG/9EBiBUQdqE4C6ZmgSo2GI6dATY9J6vHJgynv3tjjJ7cO+OThlI8fTDmIBY3p05iKENXAq5WBGyTWuet4nRViNQ9Yq2UDe70eg+GQXl8NpmKy41lyLfNs7/JRaH0iRNFCqw7a0FD7x5Am7PR67PT7nCoLTheOU6VjuzLslMLOyHBqDFtDjcEfV9pqtUwgSUs9kmtkXX37106OwoL+FEiZnmWRXwXU02Bqc9P2lpRrEj2Zw4MJ3Hjc8C8+vss///ged2aWJ4zZp8+8yxkg5Mp2NcYfYfwRNoFDM2KTaHGwotenHIwp+kNNlXfaL1hcpe3NjAEDTQvzeaSu/YpJYI8UHtEzE67ubHN1e4cXN9a4ug6XR7BdwLaDkYWBhZ7NawEBKy1C7oKeUnfRXH3lq7NIfumA1Imvk7TKkVY5U0dPAyqQ0LI+Km4SdbDMg+PxJPGHN57w3vUnfLLb8vle5OZR4iBY5qFLIAi5eHtNQY2LniJ4bEoqqmyB7Y0pRmvY/phoS6KrNDbMOMTabhFIbCOhnhPbBpfBMHJz1ooZ273Aha0NLmxucGHNcWGketC6gzUHlQEni0I8SPKYpJalpQ9GAOHqK28sxuMk/VIB6VkcZ5VOAmn1+FUgiUiuFBW1hV9stcZmUht6HSx3DiO3DyI/vv6E7197wLu393kSS56EAq+mUJ2fUiicoQxzXDPB+gaKPsn1sIN17GgLM1jT1lxSqKszaSfxUgKlRIpYU/g5VWrpO2Hg4OK45OpGycW1io1BxcYQ1nsqukYVVE6X9DkGIq8HtF6eJWJDxISkK89kCCHwrTdeX4zHSfqlAdJJcDzNYZ4+rttWj+lcQD6n8nmi+tbaBieGwjjElMySYQr88LMZv/vul3z/03vcayz3GstBMNRJdJJ6FVL1KP2UYr6P8zMo1UVjR5u48TYyWKNOKki1+FzCxJahtAykZSw1Y6lZsy0bPcNmZXhpa43XT23y4qZmQFeFliF3XYvhRcOBhDpQYramq7ZmY8J5EBwky527d/mtf/3PLwfqBP1SAWlVfLHCXZ4HppPUHa9tW7WJq3pUc7RCdgur6wFu7wY+v7fHtbt7fHxvj4/u7nNvnnjUOvZCkZtLl6qA+ykmtZhqgFRDiuEG5XgTNxgRchSDiREba3q0bJWe7cJzqgqcrjynepGdoePUoODMcMDZ4YjtvrbWc1ZFWJcboWausOCsuUwrsYsWiIKJQkmBE8N//Y/+a/7aX/9rJ4djQb+0QOo4zfOczM8CEhlMIYW85cY0osXWF70MUVXIJ+228fiw5V988Dm//8HnfLYXuFVX3KkrjpocQZCCKvA2QjWAaoAM1+mvbVAOBnrCFCmp6ac5Y9NwfhA5P4hcHiUujeHy2HBureT8uGTgKgpTkeNAT1BuU5/9M0nAk7qlg5oWkkGSoTAFhcDf/g//Q/7f//AfnjzRguTWrVvp/PnzJ/f/iaOvEllfxZU6Ogmm7jgtC6OlAoNYtJYb2QmcdQ6tJYYIzOrIT768x/tf3uOTh3M+eRz5bC9xa2o4muYmJCYHBRUlFCXVYMhoPGYw7FM5oedgXCY2isBWlbgwhHNDOD+InBtEzvYTOwPLRj+3OUsFEYdJKyGQMS0dyZ0zOcfcdB2/1cguRNQC/+DOHf6Hv/Vbx8bhJFkReecv/aW/dHL/nzjqALAEwtOrt5N/d/ueBTZB61maRdqUCgWTe+kusn0loklQgaIs2FofU5QVMaK+sRipvScZMM5incOZhMMzdJF1F9gsPKcqz/lB5Oq68PJOyWune7x2qserp/pc2Sg5NzRs94RxIUhuWV9LZGYCEBTmuRjXIm0ryUouo8FicqMfDU+OuarJP/h7f59PPvjg2LicJHvnzp13Njc3+e53v9pG8CeFOjCsirhj4HgGkH4aSVLlN4SAkc6XJrrykYAVXUpbSQwGA7bWBxjbp/WB2HpKSZQpMCgt/aqiKktGBYxcZLvSegtnB5oVfGVNeGnL8cpOxaunSq5uGq5sCKf7ho3KUjmNKCXphc1NopaQq9vqlgObWEQhSA4FEs0aMrmNRRdh+l/85/9P/u//2f/55G0/RXLlypUE8M477/BX/+pfPfn5n0h6VvaoPENfWhWHq8eJiOaCdXFAKS+bu5gQk/JsJkDz6QKOFkcLPDyEO49q7j2e8OjJEY/2JuzWhoe+4jA4ShMpTWBz4NgZF2yPCjb7wmbfsDlwbA4LNvqOQWkZFHkJnyWVZEnlibTSEnKx5CIJNuZkh1WkdMYok5Mn9I5JKfL/+n/85/z9v/f3F/f+PFoACeC3f/u3+Zt/82/yJ11nWgVSB5IuaI4T4u+rABeCeu1TTFTGY6xmoSB1NgzkyTI9WjOgoaLJOkjMVad9A5O9wHR/j9sT+HJW8qh1DIrEoIicGjrOrDlODS1jFxgXgZ5NVDZRWMlRpCo4u1UieguYvDAzNFp5hBx8ktUknxJtLjNoTK7Lnb/38M5t/k//x/+Uf/hf/peL+/5pdAxIHf32b/82f/Ev/kXefvttzpw5g7XP1v3//5WeBaRVjtQBadVtchJwPgMphkTfZiBJDczVD9eZ+UyfxoxoKMnNw5DcpkcSzPdhtnfArQl8Pi253ziGRWJUJk6NLGfHllNDGLnEyHqNHuharOZQlYijThrtSM5IzwHQOHKMUgZSzMp0m6ICyRpSEHbvP+CDd9/ld//b//a5q7Ovov8v5f4MeT3dD84AAAAASUVORK5CYII=;" vertex="1" parent="RF7QKK640K8U4cVMku1n-13">
          <mxGeometry x="41.30000000000001" y="20" width="32.44" height="30" as="geometry" />
        </mxCell>
        <mxCell id="RF7QKK640K8U4cVMku1n-10" value="" style="shape=image;verticalLabelPosition=bottom;labelBackgroundColor=default;verticalAlign=top;aspect=fixed;imageAspect=0;image=data:image/png,iVBORw0KGgoAAAANSUhEUgAAAYAAAAFzCAYAAAA3wd4IAAAAAXNSR0IArs4c6QAAAARnQU1BAACxjwv8YQUAAAAJcEhZcwAADsMAAA7DAcdvqGQAAEPoSURBVHhe7d33dlRXui3wuXYuJRBJCAEiZ0w2mJwMNgab7tP3ec59kfsG3e1sg8kgghBRQiIJkADlnKpq5/vH2lsq1NgNQqCSav7G0Rhuj0bug0XNvfb65loiCIIQRESUc5TRf4OIiHIDA4CIKEcxAIiIchQDgIgoRzEAiIhyFAOAiChHMQCIiHIUA4CIKEcxAIiIchQDgIgoRzEAiIhyFAOAiChHMQCIiHIUA4CIKEcxAIiIchQDgIgoRzEAiIhylBjrjWC+D7hOiDAEFAVQVUBVBQQjhYhoUhhzAKSSIXq6fHhOCCtPwMpTkMgT0HUx+r9KRERZaMwB0N8XoLnRQ3+Pj8ATSOQJzChRUVQsYFoCuiGgKAKCeUBElJXGHAC93T5ePHHxvM7D81ofALBkrYryFSrmlSuYPlOFaapQVSYAEVE2GvMb+yAAXAfo6w7w4qGLh7cdPLzn4tF9B/V1Ll49c9HZ5mNoIIDnjSljiIjoIxpzAAgAQgFUHTALBHyEaH/to/a2h8u/Obj0m4OaWw5eN3pIDTEAiIiyzZgDAFEIKCqg6UAY7Qu0vvTxrNbD47seHt118eSBixdPXbS88tDXEyCdCuHLN0ZERDSBPigAMgkBKKqAqgmoqkByKMCLhx5uX3Jw4ac0Kk6nUV/noKfTh2NzRUBENNHGLQAgZB9AUQGhAo4DdLb5aHzi4dE9B7V3HDy6J/cHXj+X+wPJQbk/EDIPiIg+ufELgAwiCgPNEFB1IPCBrrYA1ZUerpyycen3FG5dTaP5lY/kUMhNYiKiCfBRAgDxBrEmVwRBCCQHQjQ3enhW6+LRPQ8P77h4Uu2g4bGLttc++noCODZXA0REn8pHC4BMcn8AMEwBRQVSQyFeP/Nx/YyNCz+mUXkxjSe1Dvp6fPh+gJApQET00X2SAEDGyKhQAMcJ0dMZ4MUjDw/vOqi75w7vD7x65qGrPWB/gIjoI/tkAZBJCPl6yEgIBCHQ2eyj9paLs9+n8ce/U7h3w0YT+wNERB/VhAQAohWBZsj+wEBfgJZGH4/vuait8vDwrountS4a6z20Nfno7w1gp0ME7A8QEY2bCQuAmBDyGGnNEDAsATsdoOGhh1uXHJz/KYUrp1Kor3PQ3eHDZn+AiGjcTHgAQIxMDKk64PlAZ7uPhsdyf+BBdMbQ80cumho9dHeMjI5yr5iIaOwmPgAyvK0/0N0WoOaGiyunbVScTuHOdRutr+T+gM9NYiKiMcuqAMBb+gNDAyGaGjzU17iou+OO7A8889DW7KOvN4CdDuD7XBEQEb2PrAuATMP9AUsAAhjsC9DwyMP1szYu/pzCzYtpPK620dXhwrZ9jPFqAyKinJTVAYDM/oAA0qkQXW0+nte5eHjHRe09F4+qo/OFXrjo7vAxFJ0vREREfy3rAyCWOS2kmwKeF6KzycfDOx4u/+7g0q8OqqscNLM/QET0TiZNAMTTQooqVwRBAPT3yP7A02oPdbdlf+BJ3B947aO/j/0BIqI/M3kCYBTZJhbQdAFNE0gNyf5A1QUHZ/6dwoVfk3j6wEF3J/sDRERvM2kDIHNFoGiA6wIdrT5ePHJRe8tBTZWLh3cdvHjkojnqD6TYHyAiGjZ5AyBDZn9AMwSEAvR1BXhQ5aHitI0rf8j+QMtr9geIiGJTIgCQ0R9QNbk6SA2FaHrh4Um1i7rbLuruunj6wMXLZx7aW9gfICKaMgGQKbM/IBQgORji1RMP1/6wcf6HFCovpPGkhv0BIsptUzIAkNkfUAA7HaKrPcCzWrk/UHvXxaP7Dp4/lvsDPZ3yfCHfG/1diIimrikbAJmEkBvFmfcPPLzr4crvDi7/ZqO6ykFTg4vkUDD6lxIRTVk5EQBAvEks7x/o7wnQ0uDjyT1v5P6BOhevXnjoaPExwP4AEeWAnAmAWNwfUHUBVRNIDgV4Ed8/8GMKV07L+wd6On047A8Q0RSWcwGQ2R8QKuDYQEeLjxcPPdTedlBT5eDxfRcvnrhofiX3B1JJOTrKaSEimkpyLwAyxNNCb9w/0B6gpspFxSkbl39P4dZVGy0vvWiTmAlARFNHTgcA3nL/wGBfiNfPZX+g9paL2tvy/oFXzz10tMr9AdfhaoCIJr+cD4BMmSsCKFGZ7JmHG2dsnP9R9gee1jro6/Hh+wFCpgARTWIMgFHiFYEQgG3L/sDTBy4e3HTw4I6Lh/cdvHjsouWlj96uQO4PcFqIiCYhBsBfGOkPyNdDnc0+aqtcnPlXGn/8M4n7lTaaX7pIsT9ARJMQA+C/iA+Zi/sDTc9lCNy/7qL2jov6hy5eN3jojPYHHDtEwDwgokmAAfCuBKBo8rRRIyFfD8X3D5yL+gPPHrroZn+AiCYJBsA7io+cVnVAMwU8D2hv8fGs1sODKgfVN+X5Qg1PXLS+8tDbHSCdlOcLca+YiLIRA2AMBN7SH2jzUV3pyvOFTqdx52oaLa88JIcC9geIKCsxAMYiahNn9gcG+kO8qvfw+J6DB1UOau+4ePbIRVOjh842HwP97A8QUXZhAIwDAUBVAd2S/YHBvgAvn3i4dsbGhZ9SuHkp6g/0+ryAhoiyBgNgPEQrAk2XewXpZIiOFh/1NS4eVLmouS33BxqfuGh77aGvOzpfiP0BIppADIDxFk8L6QK6KeB5ITqbfNTd9nDuJxtnf0zhXqWNpgaP/QEimlAMgHEWTwspmpwYCgKgrzvA6+ceaqsc3L/mou6Oi/pHsj/Q1eZjsJ/9ASL69BgAH1u8IohWBalk1B+4aOPsDylc/j2F+jr2B4jo02MAfGSZKwJFAxw7RFuTj2cPPNRUOrh3I9ofeOqi9bWHvu4A6RT7A0T08TEAPqHh/oAp+wNhCPR0+qi5GfUHfk/h1tV0dP8A+wNE9HExAD6ljP6Aqsn7iQf7Qrx86uHhXQc1N108uC3PF2pq9NDVHmTsD3B8lIjGFwNgAgnIINAtAUWN7h+o93DtDxvnvk+h8mIKjx/Y6Op0Yds+goAJQETjhwEwkTL7A4o8YK6zLcDT+y5qKh3U3IrPF3Lk/kAP+wNENH4YAFkk3iPIvH/g0V0PV353cfk3GzVVDpob2R8govHBAMgm8ZWUprx/oK87wOtnPh7edlFzwxvuDzQ3euju8DE0EMBx2B8gorFhAGSrqD+g6gKKJpAcCvHioYdbFx2c+0neP1D/0EVPB/sDRDQ2DIAsNdwfUOWXnQ7R9tpH/QMX1VF/4PF9B431HtqbPfT1RP0Bn/0BIno3DIBJ4I3+gCaPlxi+f+CUjUu/pXC7Irp/YJD9ASJ6NwyAySDz/oEoAAZ6QzQ+8VB320F1pewPPHvoouWlh+6OAEMDATyX3QEi+nMMgElIQAaBbgooCpBKhnj9LOoP/JBC5cU0nta56O8LEIZ8JUREb8cAmIyi/QHNAES0P9DZGuDxPRf3rju4X+mgvs5BX3cAz+MqgIjejgEwBcR7BGYC8D2g5bmPl48D9HWNHCNBRDQaA2AqyOgP+AHQ1Rago8nHUL/cB2BPgIjehgEwxYgoDBQtWhoQEf0JBsBUI+S+gKIKCAYAEf0FBgARUY5iABDCEPC9EOmU/OJpo0Tjy/dDpFIeUikPnifHs7MBAyDHhaH84RwcDPC6QV5Ew9NGicbX0JCLxsYBNDT0Y3DQhe9nx3g2AyDHhaEcEx3sC9D41MOzhy5aX/vo6w6QSoayTcw8IHovQRDCcQIMDrro6krj1ashPHrUg/r6PvT1OdENfxOfAAyAnCcghMBAb4hHt11c/122ia+eTeHFExd9PfLIaSJ6d7bto7MziYcPe3Dq1Ev88EMDzpxpwf37vejrc0f/1ycMAyDHCSG/0kMhXtcHqLvl4u41edpo/QMHTQ0eutp9DPTFpTIeLUE0WvwqNZ320ddno7U1iefPB1Bd3YmrV9tQUdGCO3e60dAwiKEhb/QvnzAMAAIQXU1pAEIDPDdEZ5OPO1ddXPw1jcu/p3Dvho22Jg/pZIDAZwIQZfK8AENDLl6+HMSVKy349ddG/PbbK1y/3oGWliRcN4CuA4ahQFGyZz6bAUBAtBJQdUBRQ/h+iN7uAM8euKi+4eDedQc1txy8eOyirclHb3eA1FAIj8dOUw4LQ8B14/f8qeH3/FVV7bh2rQ2Vle2oq+tDd7d856+qgK5nVz+HAUD/Yfi0UUsAAhjoC9HwyMOVUzbOfp/EzUtp1D9yMNgX8JUQ5aT4lU9PTxoPHnTh/Pkm/PvfDTh1qglPnvRjYMCFogCWJaDrAoqSXR/8MQYA/afM00YFkBoM0PbKR+1NB3cqHNRUuXj6wMXr6G7iwYGR/QGiqUy+5/fQ32+jrS2JFy8GcP9+Jyor21FR0YLbt7vQ1JRCMulDCAHDUKBp8th2BgBNPkIeK6EZAmaeQBAA7a981Nx0cfb7NM5+n0TtbQetr+X+ANFUlkzKef7r19vwr3+9wL/+1YBbt7rQ3JxCGIZIJAQMQ0BVs/MDfzQGAP2l+HA5VZevhIIQ6O708eKhi7sVNm5ddlB7x8GLpx7amn309bA/QFNHEIRwXbnB292dxuvXQ3j8uAe3bnXg4sVmVFS04fHjfnR12QAAy4qf+LPzlc9oDAB6P9GKQNXlV3IoRP0DD5XnbZz/KYVrZ9N48ZT9AZoa3pznf4Uff2zExYutePSoD+m0D8uaXE/8ozEA6L0Mrwg0+WWnQjS/8PDojuwP3L3uyP5AvD/Qz/4ATR7x5q5t++jrc9DWFs/zd+Hq1VZUVLTg7t0uvHw5BNf1h9/xq5P09F0GAI1ZfBOZZggomf2BKy4u/ZJGxek0qm/aaG9mf4Amh8x5/oqKFvz660v89ttr3LjRgfb2FIIghKbJp/5smucfKwYAjZ2QBTLZHwB8H+jtCvC0xsX9aDVQc9tBw1MP7S0Z+wO8p5iySBiOfPB3d6fR1DQyz3/1aitu3GhDbW0fenrieX4BTZucT/yjMQBo3MT9ASMhf7IGegI0PPRx9YyNCz+lUHXFRv0jB/29ftachki5bWSe38aDB124cKEJP/7YiLNnm/H06Zvz/FPhiX80BgCNn2h/QDcFhAIMDQRoafTwoFL2B6pvOnhaI/cHejrZH6CJE5/b09/voKMjFc3zd6Gysg1XrrSgqqoTr18nh+f5ZZlr9HeZ/Kbg/0uUFeJpIUNANwVcN0TbSx81VS4u/CRXBHV3HLRG5wsRfUpynr8flZVynv/77+U8f1NTCr4fDjd4J+t0z7tiANBH8ca0kA54HtDd4aPhoTfSH7jroOGJh/ZmH329AdLcH6CPZGSe30NPz5vz/JcuNePKlTY8ftyHzk4bQRBmNHinxrv+P8MAoI9ORKeNKqqAqgkomsDQYIj6Gg83zts480MKV06l8PyJi/6eAC77AzTO4nn+urpu/PLLS/zrXy9w4UIrHj7sRSrlwTRz44l/NAYAfXzRnQOKKjeJFRVIJ0O8fu6h7paLW5ds3K4Y2R/o7vAxNCCDgP0BGovMef7+fgft7Sk0NAzi/v1OXLrUjEuXmnH7dhcaG4dg2z50XU72TNZ5/rFiANAnF/cHdENA1eUf1p52H3evZvYHHLQ1++wP0Jj85zx/I3799RUqKzvR3W1DUeQs/1SZ5x8rBgB9ehn9AVUDQgD93SGe1ri4d9XBnWsOam7baHzqoqNV3kaWToXwuT9AfyGe508mPfT22mhuTuLx415UVbWjoqIV16+3oa6uD/39LoQANG3qzPOPFQOAJtzb+gMvHvqoOG3j/I+yP/DssYP+PvYH6O1Gz/OfO/ca//53A06fbsLjxyPz/KaZ20/8ozEAaOK9pT/Q3OCh+oaDW5dlf6D+gYPmVx76un0MDcqD5tgfoCCQ7/kHBhx0daXQ2Cjf89+40YZLl5px8+ab8/zylc/o75K7+FtB2SW+f0AXMCwBzwvR0uDj/k0PF36ycfGXNOru8v4BkoaG5Pn8lZVt+P77Bvz4YyNu35685/N/agwAyipv3D9gyvOFOtt8PH/g4u5VB7euOKi76+BlvYfOtgADfQHsNPcHckUYhvC8AKmUh74+By0tKTx+3IPbt+X5/FeutODRIznPj0l4Pv+nxgCgrCYUQNXk3QNCAIN9AZ5We7hx3sH5n5O4di6NF0/k/QPsD0x9cp4/hbq6Hpw69RI//tiAS5daUVfXh6Ehb3hjl0/874YBQFlNiJG7B4QCJAdDvHrmoe6W3B+4c9XB01oHzS/l+UJDg+wPTCVhKN/zO46PgQEXHR0pNDQMoKamE1eutODSpWbcutWJhoZBpNOZAcAn/nfBAKBJI7M/MHz/QHPUH/g1jSun0rh/w0Zbs4d0iv2BqcDzAgwOynn+q1czz+fvRHt7GkEQQtc5zz9WDACaPN5y/0BPZ4An96P9gQob1bccND710NnqY6A/6g9wdHRSief55Xt+O3rP34vKyjZcvtyCq1dbUVPTi+5ueW7PVDqf/1NjANCkFa8IDEsAAhjsDdHw0MOVUzbOfZ/CzUvx/QMBQ2CS+M95/ib8858v8Pvvcp5/cDBznn/0r6b3xd9CmryiiSHNkHsFycEAzY0+qq/ZuHnRxv0bDuofuGh+6aKv20cyY3+AskvmPH93dxovX8p5/mvXWnHhQjOuX+/Aq1dJDA1lzvPzkf9DMQBoaoj6A7oBmHkCQQC0v/ZRfdPFuR9snPshhdo7DlqbfKRTXApkm3ie/+bN9uh8fjnP39KSghAh8vMVzvN/BAwAmhJG+gMCuiUQhEBXu49nD1xUXbBRed5B7R0HL+tddLX5GOxnf2AixfP86bSc529tTeHJk17cutWO8+ebcPFiC+rq5Dy/EEBenhLdysV3/eOJAUBTU0ajWDcEUskQ9Q/i/kCK/YEJljnPf/r0q2ieX37o5/L5/J8aA4CmpMxGsWoAdlr2Bx5UOai6ZOP2VQf1dS5aXnvo6w6QGgrhuewPfCwj8/xyrLOzU77nr6npwpUrzbh4sRlVVXKeP5fP5//UGAA05WX2B1QV8Fygs8nH3asOLv+aRsXpFO7ftOX9A+wPfBS+L8/nf/VqIJrnl+fz37jRgba2kXl+XRcQ/MT/ZBgANPVl9ge0aMywM8Djey7uVDi4dVXeP/DymYvudh+DA6HcH+Do6AeJRzrjeX75nr8PN27Ief6KilZUV785zy/f84/+TvSx8Leacs4b/QEA/d0BXtT5uHraxvmfUqi6nGZ/4AONzPOn8eBBF86fb8KPPzbizJkmPH06kHE+P/iBP4H4W0+5J6M/AAEM9QdoeuHh/nUHVZcc3K+U/YHWJg8DvT5SyQButD9Afy0+t2doyEVvr41Xr4ZQXd2FGzfacOFCUzTPP5Qxz69wnn8CMQAot8XTQoaAbgq4boi2lz6qq1yc+z6Ncz+mUHvbQetr9gfeReb5/HKevwG3bnXh9eskfD+EZXG6J5swACinDU8LaXJF4Hvy/oFnNS5uXoz6A3cdvHzmoqvdx9BAAMcO4fucFsIb8/w++vsdtLXJef6qqnacPfsa58+3oLa2Fx0d8j2/afJ8/mzCACDKFK0I1GgMMTkUor7Gw41zDs5+n8SV02k8f+yiv8dnfyBjnr+2thu//tqIf/3rBS5ebMHDh3Ke3zB4I1c2YwAQZchcEag6kE6GeFnvoeaGgxvnbNy8bONprYOWJg/9PQFSSdkfCAMAOZAH8Ty/6wYYGvKGz+2pru7E+fPNOHv2NSorO/HihZznNwzO82czBgDRn4inhTRDQNXlh19PW4B711xc+jmNy7+ncO+G7A+kUnJiaKqL5/lfvhxARUULfv75JX755RWuX+9EV5cNIeQ7fs7zTw4MAKI/E/UHNF2uBkIAfd2yP3D7ioOqKzaqq2R/oKfDx+BgOCX3B+KRzsz3/E+fynn+S5eacelSK6qre9Db60BRMBwAHO/MfvxXRPSO3ugPxPcPPPJQccrG2R9G+gMDvT6CYGr0B+JXPpnz/N9/34jTp5vw9Kk8n1/TAMuS7/lpcmEAEL2rUfcPDA0EaHru4+5lGzfO2rh3zcHTuD/QJ/sDw/sDk0z8nj+ZlPP8TU1JVFfL8/nPnm3C1avtaGyU8/yqKmBZClSVr3wmGwYA0VjE/QETMPIF/ABofeWjpsrFxV/SuPhLGg9uy8vqU8nJlwBDQy4aGvpx82Y7fvihAT/8IM/nb2pKIgwDJBI8n38qYAAQjUE8LaTpAoYlL6DpbPVRX+2i6pKDGxfk/QONzzx0d8rTRl0nRJCl+wPxe37b9jE46KKjI4X6enk+/9mzTbhwoWl4nh8AEgmezz8VfFAAyPeDQBh/ZeEPNtGnIBRA1WR/QAhgqC/Aswceqi46uPBzClfPpvDisYu+LO0P2LaHzs4kamu78csvjfjnPxtw4UIr6up6MTTkQtPicU4+8U8lYw8AIQ9xUhT5AxH/TDAEKBcJEXUHNBkGycEQL596qLnpoPKCjVsVDuofumht9tDfGyCdCuFN4G1kmfP8yaSHnp6Rc3vOn2/CmTPyqOZnzwaRSnkZAcAn/qlkzAGgGwLFs1TMmquioFiRy2Af8Bwg8HOjFEP0NsP9AVM+MfuevH/gztWR/sDd6zbamuRGse99+j8smefzV1SMnM9fWdnBef4cMuYAMAyB4pkK5sxVMbNEwbSZihwFU+QfgDAc+SLKKRn9AUUDPC9Ed0eAR3cc3Lrk4OYl2R949dxFb1eAoXh/4BPsFcfv+QcG4vf8/dFJnc24fLkF1dW96OvjPH+uGPO/WlUTSOQpmL9Yw67DFg6dTOCLIyZWbtRROF2Rm0qufPrhioByWbwi0E0BKMBgX9Qf+N3G2e+TUX/AxUBf8NGupIw3eUfm+V/j3/9uxKlTcp6f5/PnpjH/q1ZVwMoTKCnTsGmniV1HLGzbZ2LVRh2z5qlI5Avo0bw0MlYEDALKOdHEkG7KPw/JqD9w57KNG2ds3L3moL7WQXuzh8GBAHY643yhD5T5nr+vzxme5796tRVnzjShoqINDQ08nz9XjTkARjNNgTmlKlZtMLDvawsHT1jY8IWBBUtVmKaAa4fw3alXkyd6L5n9gTzZH2h/7aP6pouzP6Rw7vskaqpsNL8an/5AMukNn8//z3++wL//Lc/nb2pKcZ6fxjEALIGZc1QsW6Njx0ETu45a2LDDQPlyDUXFCnQjmhmGXAVwNUC56I3+QEIgCGV/4Ol9F9fP2Lj6h42aWzZePvPQ2xUgHZ02+q6vhuJXPY7jI5n00Nkp5/mrqtpx+vQr/PFHE6qre9HRkQY4z5/zxi0AMgkhkF+oYNFyHZt3mjjwrYU9X5tYtl5D8SwFCAAnKVcDDAHKaZn3D+gCqaEQz+t8VF10cP7nFK6dS6Ox3sNAvw/P/e9/WOJ5/rq6Hpw69RI//NCAixdb8fBhL9JpD5bF8/lpxLgHgIj6AfkFCsrKNazdbOCLQxa2H7SwYr2G2WUKEvlyWkgR8g8Ap4UoV8UrguH7B1KyP1B9w8GN8zZuV9h4+dzFQI+8l/i/sW0f7e0pPHzYjUuXmnH2bBNu3GjH8+eDcBwfpimf+DnPT/gYATCaogqYltwfWLvZxM7DFvafsLD1gInSchWmJRB4gJsGAo8rAspdAoCI+gOKCtipEH3dAVpf+Whv8eGk//sfjmTSw8uXg2hoGER3twPHCaCqnOent/v4AaAAhilLYyvXG9i6x8LOIxa27DFQtlRFYbFckmY2ibk/QDkpWj1ruuwROHaIgb4AHW0BOjt82PZ//0ORTntoaRlCc/Mg+vsduG4AVZUz/RzvpNE++Y+EpgOFRQoWLtWxY5+FfccS2PGliVVbdBRl9Ac8T54vRJSrFCG/RPSq6F0IIV/vxK943vXXUW769AGgyQ3i0gUaNmw38cUhC9v2m1i9UcfMUgVWQsjzVNgmplwW7Y/FH/4i47yt/0ZRZABwsof+m08eAKOZpkBJqYrVGw0cOJ7A4ZMWNu0yMH+JCl0D7GQIzwnhewwCIqLxNPEBEPUHlq/VsfOwhT1fJ7Bxh4GFy1QUFCpQ46cgZPQHiIjog014AIyWl6+gfLmOLbssHPybhb3HLSzfoKN4lgIBTgsREY2XrAuARL5AWbmGdVsN7D6awM4jFlas0zCrTIGVJ+SmWLwk4LQQEdGYZV0AxOL+wOy5KtZtMbHrkIX9xy1s3W9gbtwfCACX9w8QEY1J9gZA1B+YMVvFys8MbN070h+Yv0RF4fSoPxBNOYTR1BCDgIjo3WRtAIym6UBBkYIFS3Rs32dh77EEth8ysGqTjukzFAghVwKeJ+8pZhAQEf21yRMAmkBBoYJ5CzVs3GFi5yEL2/ZZsj8wT0UiTx5whRBAdHIiJ4aIiP7cpAmA0UxLoGSevH9g71EL+76J7h9YpsKwRu4fCNgfICJ6q0kdAPH9A9sPyBvJNkT9gcKiqAoPgRAh+wNERG8xaQMgk6LI10Ply3Rs3mlh/4kEdn9tYul6DcUzFSAEnJRsE3NvgIhImvQBMHz/QKGCBYs1rN9qYPdRCzsPy/sHZs6TV1IiAET04c/9ASKiKRAAow33B0qj/kB0/8C2AyZmz1ehagK+y0YxEdHUC4CM/sCqzwx8vtfC7q8sbN5tYF65irx8eS56mDEpxNUAEeWiKRcAo8X9gYXLdHxx0MKBby3sPGJi9RYdRcXR/QMe4LnsDxBRbsmBABAoKFIwf5GGrXtM7Pk6ge2HLKzepKF4jgLDkOcLsT9ARLlmygfAaJY1cv/AweMJHDppYeMuAwuWRv0Bh/0BIsoNORcApiUwq0TFinVyWmjfNwlsjApkBQUCCkTUG5D9Ab4SIqKpKucCYLS8AgWLlunYstPC/m8t7D5mYtlnOopnqRAAHJvTQkQ0NTEA8gXmL9awfpuBPV8lsPNLC8vXaZg5T4ER9QeGcUVARFNIzgdAbPT9AzsPyvOF4vsHjISA73FFQERTBwMgEvcHZs5RsXqDge37Lez5Wt4/MG+RiryCqD/gsz9ARFMDA+BPDPcHlurYsd/E/m8sfPGliVWb/7M/EGa+JiIimiQYAH8i7g+UlWvYvNPCriMj/YHpsxXouryWOD5plKsBIppsGADv6M3+gIVD3yWwaZeBssUqNA1wkiFcm/0BIpo8GADvKO4PrFwvp4X2n4j6A0tVJBJCfvAH7A8Q0eTBABijvHyB8mUatuwycfBkAvtOmFg+uj/gMwiIKHsxAMYor0BeUL9hu4n9xxPY/XUCK9ZrmFGqQDcEwswPf4YAEWUhBsAHyuwPrM3oD2zbb2DuQhVmQiAIAJcrAiLKMgyAD5TZH1iz0cCOAxb2HrOwZa/sDyQKBNRR9w8wBIgoGzAAxlncH1iwRMf2/Sb2HbOw/bCJlZt0FE2X/QGP9w8QURZgAIyzzPsHtuyysPtoAp8fMLFqg4bpMxWoatQd8MPhVQFDgIgmAgPgI5P9AQ2rNxrYd8zCwW+j+weWaTBNAc8J4fH+ASKaAAyAjyzeIF653sDuryzsO57Axi90LFgq7ycOA7k/EATsDxDRp8UA+IQURb4eWrRMx+adprx/4GsLy9brKJ6lACHgpEL4PG2UiD4BBsAnIoScGCoolAfMbdhuYt+xBHZ9Je8fKC5RoSqjDpdjCBDRR8QAmCCKImCaAnPmqli71cSuwyYOfGvh84MmSsvl/cS+Bzhp9geI6ONgAEwQRQUMS/YH1m40sONgAnuPJ7B1X9QfyBcQgLygPrqDgCFAROOJAZAl9Pj+gSUatu8zsfeYhR2HTazabAzfP8D+ABGNJwZAltB0gcIiBfMX69i6x8LerxPY8aWJNZtkf0CJ2sQB+wNENE4YAFlquD+wycCB4xYOn0xg024DC5ayP0BE44MBkKXi/sCqzwzs+yaBg98lsCnqDyQSAoEvN4eH+wNERO+JATBJyPsH3t4fEOC0EBG9PwbAJJFXIPsDG3fE9w/I/sD0EhWqKuC7obyDAAwBIno3DIBJRlEEDFNgdomKdVsN7DpkYt9xE9v2m5hbrsK05ErATYdyWoiI6E8wACYZRR25n3jtJhNfHEpg3zeyP1BarsLKE0AABA5GVgRERG/BAJjk4v7Agqg/sP8bC7uOmVizXcO0WfzXS0R/jp8Qk5ymCxROU7BgsY5tey3sO56H3ccsrP3cQNEMuUEsRv8iIiIGwNRjJQTmlqkoK9dQPFOBmVCgqIwAIvpPDIApRgaAhnkLNUwrVmElhLyFjIhoFAYAEVGOYgAQEeUoBgABkAfNeTbgO2wUE423MARcF/C8MKvO7mIAEBAFgO8AniMQ+oKnjRKNoyCQH/4yALLnDxYDgKAoAvnTFCxcrWDhShVmAiOnjcaX0RDROwtDwPdDuG4I2w5gWSpWrCjEypVFmDbNgKoKCDHx03kMgBwX31VcOF2gfI2G+StVmAkBzwF8DwiybMlKNBmEYQjPA1w3hOMAiYSKZcsKsWpVIYqL9SgARv+qT48BQACA/EIFy1fr+HyviX3HLez40sTi1TqKZihAADgpefcAXwsR/af4id9xAiSTAYJAYNYsA+vXT8exY/Px7beLsHt3KZYvL0Z+vj76l08YBgABAAqnKVi+1sDn+ywcOJHAriMWFq9WUVisIAwAJxnCj1cDDAGiN4RhiCCQT/syAICZM02sWzcdx48vwMmTi7BrVymWL5+OwkJj9C+fMAwAeoOmAYl8gbnzVWz83MTuoxb2HTexea+J2WUqNF3A9wGP00JECAL5jt/3gURCw+LF+Th0qBQnT5bj6NEF2LatBHPn5sE05bHt2YYBQG9QNYG8fAVz52vYsN3E7i8t7PsmgU17DMyep0LTgcCTm8RhwM9/ym2+D9h2CN8H8vJULF5cgIMH5+LkyYU4cmQBtm6dg5ISGQCKwgCgScYwBabPVLBkhY6dhywcOG7h84MGlq7TkcgT8OyR1QA3i2mqk6955FO/64YoKtKxefMMHDlShm++Kcf+/WVYtmwapk0zYRjZfwYLA4D+km4ITCtWsXiljl2HLRz8NoEdh0wsX6chkSfgOiF8N0Tg8W5imvqCYGSyRwaAgU2bZuCrr8rw7bflOHCgDEuXygDQ9ez/eM3+/4WUPQRgJRSUztewbquBgycTOPx3C+u2GyhZoEJVASfFFQFNHSPTPSGSyQCapmDJkgLs2TMH//jHIpw8uQibN89GaWkeLEvLitHO98EAoPdi5QnMna9h3RYTh/+WwOG/5WH9dh0lCzSoqoCTDuE5XBHQ1CCne+TTfioVQFVlAOzePQf/+MdinDy5CBs3zkZpaQESCW30L896DAAaEyEAVRUoKlawbJWBbXsMHPjWws6jJhat1uT4aAi4aU4L0eSR2eBNpwMIMTLPf/z4Avz974uxe3cpVqwoRmGhASGyo9A1VgwAGpO4QVw0TcHS1fI2skMnE9jztYlFq1QUTFOAEHDs6DiJ0d+AKAtlPvGn0yEAEc3zT8N33y3EP/6xCHv2zMu6ef6xYgDQBxMCUDUgkRAoKdOwabuFXUdM7PnaxMadBmaVKtA0Ad9jf4CyU+Y8f16eikWL8rF//1wcP74Ahw/H8/wJWJYGTZvcT/2ZGAA0LlRVwMpTUDJPw8YdJvZ+lcC+bxLYvMfA7FL2Byi7xfP8QTAyz3/gwFycOFGeMc+fn7Xz/GPFAMhx8TvPjhYP186mcfn3FJ4/ctHX48N13v9jWgj5ZVoCxbMULF6h44tDJvZ/Y2HbAQPL1usomCbk/QOuPHCO00L0qcWveVxXfugXFxvYvHkGDh+eh2PHyrFvnxznLC42YZrqpH/X/2cYADkuDEP4foi2Fg9Xz6Zx6VQazx476OsOxhQAseH+wAoduw4nhvsDK9ZrKJgmN4h9Tx45HQajfzXRxxUXuhxHnuETB8BXX5XhxIly7N8/b1LN84+V+r//+7//d/TfpNwRhvKrozlAbZWLtpc+UkNAT0eA7s4AQ4NB9I5fQCgCynv+WYhXBICAbgjkFyqYMUfBrBIF+UUKVA2wUyHsZDw2KuT/TcGnrfcRhvKSnkSeQPEcFbNK5eu1/MK//hfQ22ujsXEAbW0p9Pa6sG0fipIdZ89PpDCUH/q+L5/8LUvD/PkJrF49HVu3zsaWLXOwalUxSkvzUFhowDDUnPgZ/OufJpry5NJWvpJxhoC2lz7uXHZw+TcbV8/YqK600dbsw04HCPyxrwgSeQJzyzSs3WRg/zcWDpyw8NkOHaXlKjRFHjft2fL+AW4Q0HiTATAy3WMYCpYuLcTu3XNw8uQiHD9ejg0bZk3aef6xYgAQIJ+7IRRA0SA3bIMQfZ0+ntX5qDiVxoUfU7hVYeP5IxcDffK42/d9dy8EoKgCuq5g2gwVS1fp2LrLxP4TFnYetbBolYaC6QpCn/cP0IcZ3eCVxzMbWLdu2vD5/Lt2yXn+6dNNaJoSrZRGf6epjQFAkgAUVY5zGgn5n/u6Azyvc3H1lI3zP9u4dcVG/WMnCoCxfTIPF8imqVi60sCWPRYO/S1P9gdWq8MbxE5KTmaM7Z9CuS7ziT+VChCGwIwZJtaulYWuv/0tvqBlOoqKDChKbr525B4AyT2AFh8P77roavehGQKKKiAgn4iEAIQi7wEY7A3R3uyjo9VHKiUvuNY0AU1/vz89I99XFsp0Xe4PFM9WMbNEQWGxLJK5TgjPjboD0a/D+/2jJiXuAYxNvLkLyGsY585NYP36GdiyZRY2bZqJNWtmYP78fBQVGdD13Hzqz/TXP02Us4SIXgcZAkZCwPdDtL70UFPp4Oz3KZz7IY0Ht2y0vvZhp8b+nK6qAok8BSVlGjbusLD3qwT2n7CwebeOGaUKFFWOirI/QO/ir87nP3p06s7zjxUDgN6NgHxaUmU4DPUHePrAw43zaZz/OYnrZ9NoeOKir3fs/QFFAayEwIxZKpasNLDrkIX93ySwbb+8fyCvYKRNzP4A4Y3jmQN4Xohp03Rs2lSMw4fn4euvF2LfvnlYtmw6ZsywYFlazj/xj8YAoHcyvCKIXvckB0PU17i4ec7B+Z/SqDibxvMn7rj0B4ri+weOJHDoZAI7DptYtk5DXqGA78ruAPsDhDcuaBk5n3/jxhk4enQeTpyIz+cvQlHR1J7nHyvuAdCf7gG8lRzTj/5SQCjy7/kuMNgXoqstQE9XgKGhAIoQY+oPxPsDcmNOyP2BAgXFsxXMnKugYJoKVZOvhZx0xqTQFOoPcA/g7TLn+X1fzvOXlcl5/i1bZmPr1jlYs6YYZWX5KCqSt3JN1RbvePjrnyait4kmhjRTTg35PtDZGsj+wC9pVPxh436lg9Zmb3z6A/M1rN1i4OAJC4e+S2D9dg2l5Rp0XcC15WqA/YHcEIaA58mnfdsGLEsdnuf/n/9ZhG+/jc/nz8+pef6xYgDQh4lWBEIBNAPwQ8j+wEMP1/5I49Ivady9ZuPFExf9fT58P3zvd/ciGh01TAXFM1UsW2Vgyy4De762sOOwiUUro/sHAvYHppr4id915Tx/GAJz5phYv346jh4tw7FjC7Fzp5znLy62YBgKVHXqrHg+NgYAfbjoOGgjIQBF9gde1Lqo+N3G+Z/SqLpi49ljBwO9cQC8/6dzHAJF01UsW2Ng2x4LB79LYPdRE4vXaCgqVgD2B6YcWegCHEfO8wMCc+ZY2LChGCdOjMzzr1iR2/P8Y8UAoPEz/O5eDJfK0qkQTQ0+aipdXP4tjYrTaTysdtDW7CE9hvHReG9AN4G8AoG5CzRs2Gbii8Mmdn5lYsMuA7PnyvsH5PHTvH9gMorP5w+CEHl5KsrL87F/fwmOHZuPAwfKsHnzHJSW5iEvT+c8/wdgANC4Gp4WivoDnheipdFDTaWLi7/YuPRbGnW3HbQ2+bDTY/9UVlWBREJujH72uYndRxPYf9zC5j06ZpXJ+wfYH5i8Rs/zL1lSgAMHSvHdd+U4fHg+Nm2ajZKSPFiWCvXPBhbov2IA0EclohYxhPxD3dcV4EmNh5sXbFz6LYXKi2k01rvo6x3D+Gi04lDVqD8wW8WSFQZ27Dex56iFLXsNLFmjI5Ev4LtyUinw2R/IRqPn+YuKdGzYUIwDB0px9OiC4WsYZ860kEhofM8/ThgA9FEJRR4up2nyw3qgN8TT+x5unrNx4ac0rp218eKxi77usRXIYkZ8/8BKHTu/lPsDsj+gIi9fyO6Ax2mhbPW2ef5Nm0bO5z9wYB7n+T8C/k7Sp5Fx9o9QgQBAOh2i7bWPe9ddVJxK49q5NGpu2ehs8+Vl8u9Z9Ir3BzRNnis0b6GGdVtN7P3Gwr5vLKzZamB2mQolPn7aiS6sZyB8cqOnezRNwaJF+di1axa++64cx48vxObNszF/fgEKCoycPa3zY2MA0KcT9Qd0U7628d0QHc0+7lY4uPKbjSun07h3w0Z7iwc7HX5Qf8BKyPsH1m02cOi7PBz6WwLrtukoma9CFYCdDOUGMVcEE2L0dI+qxufzl+B//mcRvvtuMTZunIW5c/NhWZzn/1gYADQxoie5eEXgeiH6OgM8f+ij4vc0Lv6cwp2rY+8PxKsBVRPR/cQqlq/WsWW3ib3HLOw4bGHhiuj+gRBwbU4LfUyZT/y2LW+ZmzHDwJo104Zf8+zcOfeNeX4+9X98DACaONGKwDDlX/f3BHhR5+LKrzbOfp/CzUs26h866P/A/oCiAEXTFCxdbeDzvSYO/z2BPV+bWLxKRcG06NjpdPQ6aPQ3oHERP/HHN3IBArNmyULXd98txP/5P4uxZ488n7+w0Bj9y+kjYQDQxMvoDwhVjpGm0yGaX/p4UOXi8i9pXDkl+wPtLf6Y+wOqChiWQH6RgtKFGjZsj/oDX5pYv8PArBL2B8Zb5jx/IqFi4cJ87NkzB199NR8HD5Zh69Y5KCvLR36+DsOQI5184v90GACUFeL+gG4KGHkCQQC0vfZQe9PBhZ9tXPwl6g+8lvsDY6WqAlYiun9gu4m9XyWw9xsLm3bpmDWP/YHxljnPn58vz+fft68UJ06U48iR+Hz+PJgm5/knAgOAso4Q0aoAAiHkqY993VF/4KKNy7+ncPNSGi+fja0/MDwtpAsk8gVmlahYslLH9v0mdh+J+gNrdeQXyespfZf3D7yreJ7fdeUU1/TpBjZsKMb+/aX48ssFw695Zs2ykEjofM8/wRgAlJXiFYGqySOlhwZCPK32UBn3B87ZeP7YRf+49QcM7Dws+wPbD5lYvl5DwTS5Qex5IXzeP/BO4nl+xwkRBCGKiw1s3izn+b/9duR8/mnTDBgGP34mGv8NUHaL+wNRhyAIgFQqROsrH/evu7j6RxqVF2zU3nXQ2Sr3B/zo/uB3Fe8P6IZAQZGCsoUa1m4ysOuIiZ1fGli9Wcec+SpUFXDTGL6jmCuCeHNXPvGn0wEMQ87z79gxC19/vRBHjizAxo2zMX9+PgoL5T28bPFmDwYAZb+4P2BE9w+4IToz+wNn07hfaY/L/QNWQt4/sGazgX3HLOw/kcC6z3XMXahC00RGgYz9AYya50+nQ+i6imXLCrFr1xycPFmO48fLsXHjLJSWFnCePwsxAGjyiPYGhinyg6e3NcCzOg83ztq4/LsskzU8dTHQHyAI3u9JPd4f0HV5Wf2sOSqWrzawZaeJPV+Z+PyQifIVGgqnR/cPROOjuRIGmfP8qZQ8n3/WLBPr1o2cz//FF3OxcuUMzJol7+Hle/7sxQCgySfaH4j7A309Pl7Uubh22saln9K4edlG/SMXA31y/HAs5Guh6P6B1Qa27TVx6GQCe74ysWSNvIAGAeAkow3i0d9gisp84k8m5fn8JSUWNmyYjhMnFuDvf+f5/JMJA4Amr3haSMjTRkOESCZDtDRG/YFfU7j8exp19xy0NY39/gFVA8yEQME02R/4bJuB7QdM7DhsYN0OHTNnK1CUeHxU7lNMtUSQm7tBdA+vigUL8rBnzxwcPTofe/fOw+bNcp6/sNAYHunke/7sxwCgSS2eFtJ0Ad0UcN0QrS99PKh0cPaHNM79kEL1TRvNLz2kk2Mf4xnuD0T3D+w9amHfiQQ27zYwY54SnW0U9QemYKPY92U5Lz6ff/HikfP5v/xy5Hx+zvNPLgwAmhri/YHosycIQvheiP6eAPW1Hqou27h8Ko2bF2V/oL8vgOu+38e0iDejdYFEvoLZJSqWrtKxY7+J3UctbN5jYPFqHXkFUZs47g9MwhXBn83zHzhQii+/nI89e+ZhxYrpmD3b4q1ckxgDgKaU4f6ALqDpAsmhEM9rPVRdcHD+pxQqzqTxfBzvH1iy0sDuIwkcPpmHHYdMLF+nIq9AwPfktJAXfYCO/Z80Mf5snv/IkXn49ttyHDw4D8uWTeM8/yTHf3M0JQ13B6JVQRAA6WSItlc+7l1zce101B+456CzTV5PGbxPfyDqJagaYJgChdMVlC3SsHaLXA3sOmpi1RYdJWUqdF3uDWTzjWSZ8/yOE8A0VSxalI/t2+U8/9Gjcp5/wYICFBWZGef28JF/MmMA0NSV0R9QNPkeu7M1wN0rNi79aqPiTBrVUX8gnZIbnGMV3z+wdrOBg98lcOhkHj773EBpuQrdEPDsaDWQpf2BzNM6bRswTTnPv3v3HPz97+U4cWLR8Dx/IsF5/qmCAUBTX7waiP467g90t/qor/NQedZGxek07lVG/YEx3j8Qt4kTeQpmlqhYvkbHpp0mdn1pYut+EwuXy/4AsuD+gT+b51+7dhoOH56Ho0cXYMeOEqxcWYyZMxOwLDWjxTv6u9FkxQCg3BGNdBoJASjy/oGGOg/X/rBx8ac0qi7bqH/koL9XrgY+5P6BwiIFS1fp2LbHxIFvE9h11MTi1VF/ABN//0DmPH8qJef558wx8dlnxTh+fAH+9rdy7N4dn8+vj/7lNEUwACjnjOwPCISQm5xDgyGaG3zUVnm4ciqNq3/I+wfamsfWH4hPG7XyBIqKFZSVR/2B/Sa2HzSx9nMDM+eMun/gE0wLxfP88fn8CxbkYdeuOfjyy5F5/vnz81FUZA63ePmef+piAFBOyuwPaHF/4JWPBzcdXPgpjQs/p/HgpiP7A6kP7w/Mmadhw+cm9hy1Ru4fKFOhaRn3D3yCFUEQjJzPn5enYsmSAhw8WIrvvls4PM8/Zw7n+XMFA4ByW8akEOL34k6I3q4AT2s93L7ioOJ0Greu2Hj1fOz9gXh/IK9AwZy5sj/w+V55G9mm3QYWrdJg5Ql594CLcdssjuf5HSeA54UoLNSxbt107Ns3F4cPzx8+tqGkJIH8fDnSyff8uYMBQJSxIlCi+weSA7I/cOuig0u/pHHtXBovnnx4f0A3BIqKVSxeoWPnYQsHvk1g+0ETy9ZryCsQ8FxZYAvG6QIaGQCA48h7DQoLdWzaNANHjpTh+PFy7N8vz+cvKpJHNVNuUf/3f//3/47+m5RbwhDoaPHx8K6LrnYfmiGg5OjyP54WCqMPzzAEghBwHWBoIERvR4C+ngDJZCif7DUBRQiId/zsjPcfFFVA0wRUVUA3BPILBKbPUDFjjoKC6QoUIZBOyldIM0pUzCqVx1AUFP71P6i310Zj4wCam1Noa7MRhkBZWQIrVxZh48bZ2LJlNtasKcaCBfkoLraQSGhRg5dP/bnor3+aiHLRqP6A54boaInuH/g9jStRf0BuEH9gfyBP3j+wdos8bfTLv+dh/XZD3j+gAm5qbNdRBoG8oEXTFCxdWog9e0rwj38swsmTi7BpE+f5SeIKgLgC+DPx/gDkeT5xizfwgORQiJ72AF3tAYYG5L6AqspN5fd5mo7HRlVVQNcFVF3AMAQKCgWmz1RRMl/FnHmyVzCnVENe/l8/sw0NuejqSkMIgfnzC7Fu3Qxs2DADy5ZNQ2lpPgoKdKgqz+0hSQRjPTCdpoT4CIC62w7+/f+SeFLjwCoQ0Ax+OowWhvFGMRC4IXwbmFGiYvkmDas2ali1wcDsufLmMEUZ2+9fEMgN4HQqxGBfgL7eAP09Acw8gfKlOqZFPYI/09GRxIMH3bBtD2VlRZg920J+vg7LklM9Y/3fRVMTAyDHMQDeTxjKlUDghfAcIJEvMHu+ipIyFSVlCubOV1EyX8PMOSqKpiswrbH9PvpeCMeW1ywODcjVxfSZKhJ5f/39BgddtLUl4fshZs40kZ8/cg8v0WgMgBzHABibeDUQ/7US7RvMXaBi/ecGln+mo3zJf39i/ythGH3Jou473a4VhuHwngQ3d+m/GftPJ1EOE9FpoBDyQ9rz5RN7T2eAJw883L5s4+qZNO5ctfHqhTfm/oASnTiqqv/9wx+Q7WZNU3gPL70TBgDRB5CjoHIcVNUEhvpD1Fe7uHnOwcWfU7h6No0Xjx30f2B/gOhjYAAQjYN4vh9C9gYcJ8Rgf4jmRh/3b7i4ftbGzYs2au866GjxkU7K4xiIJhIDgGi8RPsAWkZ/oLNZ9gcu/57GlT/SuHfdRstrD6lkAN/jioAmFgOAaJwNrwbiqaEASA3J+weePfRw84LcH6ipstH4zMVAf3z89OjvRPRxMQCIPpbofCHdkn/S+nsDND7ycP0PG5d+TuPmZRv1dS76e+MLaJgA9GkxAIg+spEVgUAQhvD8EAMDIZoafNTednH1VBrXzqTxqMZFe8vY7h8gGgsGANEnIKIjoTVDwEgI+J68oP7BTQfn4/sHquwPvn+A6H0wAIg+leGbyKJpoUBuFNvpEN0d0f0DFQ6unknjdoWN1y88DPQF8N6zP0D0rhgARBMgXhGouoCmC6QGQzx/4KHqgoMLP6ZRcSaN548d9PX4cNgfoI+EAUA0UUavCELAsUMMDgRoafBw76qLqvM2Ht2TV1OmkgwCGl8MAKKJltEfUHV52FxnS4DblxxUnLJx97qNxnoXyUHuDdD4YgAQZYnM/kAQyiscHSdEOgWkUyECNodpnDEAiLJNtCIwEoBuvnk9JdF4YgAQZaNoXwCQx06HyDh/mmicMACIiHIUA4CIKEcxAIiIchQDgIgoRzEAiIhyFAOAiChHMQCIiHIUA4CIKEcxAIiIchQDgIgoRzEAiIhyFAOAiChHMQCIiHIUA4CIKEcxAIiIchQDgIgoRzEAiIhyFAOAiChHMQCIiHIUA4CIKEcxAIiIchQDgIgoRzEAiIhyFAOAiChHMQCIiHIUA4CIKEcxAIiIchQDgIgoRzEAiIhyFAOAiChHMQCIiHIUA4CIKEcxAIiIchQDgIgoRzEAiIhyFAOAiChHMQCIiHIUA4CIKEcxAIiIchQDgIgoRzEAiIhyFAOAiChHMQCIiHIUA4CIKEcxAIiIchQDgIgoRzEAiIhyFAOAiChHMQCIiHIUA4CIKEcxAIiIchQDgIgoRzEAiIhyFAOAAABhCPgu4HvyKwjk3yOiqYsBQACAMAA8B/DSMggCLwQYAERTGgOAoCgC04oVrN6iYf12A6ULVeQVKEAoQyEIwDAgmoIYADlOCPk1u0zFnmMW9p80sWS9hqIZ8kfDtUMEHj//iaYiBgBBCMDKE5gzX8XSNTrWbTHw2ec61m0zsGS1jmkzFKgqEPhyfyDkioBoSmAAEABAVQUSCQVz5mnYsN3EnqMJ7PvGxKZdOmbNU6DpAoEHeHaIwOfnP9FUwAAgIFoFKCpgWgJF0xTMmqtiwRIdy9fr2LDdwGfbDSzfoGNuuQYzIYZXA4HPaSGiyYoBQG+lGwJFxQoWL9ex63ACB08ksOOAgeXrVeQXCPhuCM8J4bmhfCVERJMOA4DeSlEAXRfIK1BQPEtB6UIVi1fpWLPRwMadOtZvN1C+QkPxLBWKKqeF2B8gmlwYAPROrISCuWUa1m4xcODbBA5+a2H95zrmlqvQVAEnJVcE7A8QTR4MAHonqgpYCYGi6SrmlGpYuEzDys8MrNui47MdOlZu0lEyT0UiT0SlMrlZzDAgyl4MAHovQsiJoaLpKpau0vH5XguHvktg91ET5as0FExXEPqAk4w2iEd/AyLKGgwAem9CyP2B/EIFxbMVzCvXsHR13B8wsHabjsWrNBRNF1AEEETnC7E/QJRdGAD0QVRVwIr6Axu/MLHnKwv7j1vYtFvHjLlyg9hnf4AoKzEA6IPIV0Jyf2BasYKSMg0Ll+lY8ZmBjXF/4DMdcxeyP0CUbRgANK50QwbB4hU6dh+xcOi7POw4aGBZ3B/w2B8gyhYMABpXiiJDIL9QwYw5KsrKVSyJ+gMbvtCxbquBhcs1FM9SoGrx0dPsDxBNBAYAfVRWnoK58zWs22LgwIkEDn5nRv0BDbou4NpyNcD+ANGnxwCgj2q4P1CsoqRMQ/lyHSs/M7B2i47123Ss2KBjTlnG/QMup4WIPhUGAH0S/9Ef2GPh4LcJ7DpiYvFqDYXF8kfRTYfwOS1E9EkwAOiTifsDBUUKZsxRMG+R7A+s3Wxg/VYdqzcbWLRCQ9F03j9A9CkwAGhCZPYHNmw3sfuoJe8f2G3I+we06P6B6EgJfv4TjT8GAE2It/UHypfpWPGZjg3bDKzbpmPZeh0l81WYluwPBD6nhYjGEwOAssJwf2C5jp2HLRw4kcDnBw0sW68hv1Ag8EL4nBYiGlcMAMoKmf2BmSUq5i/SsHSVjjWbDHy2w8DarQYWLNMwfYYCIeTREtwfIPowDADKSlaegtIyDeu3mDj0XQKHTiawbpuOOQtVqApgJ+MQCPlKiGiMGACUlVQVsPLktZQlZSrKl8v7B9ZuNrD+cwMrNuooKVORGN0fIKJ3xgCgrCYEoCgChdMULInuH/jy7wnsO2Zh8VoNRaP7A1wNEL0zBgBlvbg/UFikYFaJgvmLNSxdK/cH1m3RsWqTgfLlf9IfIKI/xQCgSUVRBUxLwey56kh/4Nhf9Ae4IiD6UwwAmlSEAJSoPzB9hjxobtEKDSs+07F+q4E1W3QsWSv7A1aeAMKoP8AwIPoPDACa1HRDHjS3eLmOXYfl+UI7DhlY/pmGgmkCQQB4bgiP00JE/4EBQJOaogCGIc8XmjVXxYLFsj+weqOB9dt0rN6kY8FSDdNnKlDYHyB6AwOAppT4/oG1mw3sP57AgRMmPvtcR2m5Co39AaI3MABoSlFVIJEX7w+oWLRCni+0ZqOONdsMLF+vYdZcuT8QBoDnyPOFiHIRA4CmJCEEVFVB0TQVS1Ya2LbXwuGTCez62sLi1RoKpikIfcBJhQg8bhBTbmIA0JQlhNwkLpwW7Q8s0bB8rY41m3Ws3apj1WYdC5dpKJwu2B+gnMQAoJygqgJWnkBJmYZNX5jYezSBfd9Y2LxHx6x56pv9AR45TTni/wM3+GVt65YOkwAAAABJRU5ErkJggg==;" vertex="1" parent="RF7QKK640K8U4cVMku1n-13">
          <mxGeometry x="90" y="20" width="41.4" height="40" as="geometry" />
        </mxCell>
        <mxCell id="RF7QKK640K8U4cVMku1n-14" value="" style="group" vertex="1" connectable="0" parent="1">
          <mxGeometry x="368" y="500" width="166.66999999999996" height="100" as="geometry" />
        </mxCell>
        <mxCell id="RF7QKK640K8U4cVMku1n-15" value="" style="sketch=0;aspect=fixed;pointerEvents=1;shadow=0;dashed=0;html=1;strokeColor=none;labelPosition=center;verticalLabelPosition=bottom;verticalAlign=top;align=center;fillColor=#00188D;shape=mxgraph.azure.laptop" vertex="1" parent="RF7QKK640K8U4cVMku1n-14">
          <mxGeometry width="166.67" height="100" as="geometry" />
        </mxCell>
        <mxCell id="RF7QKK640K8U4cVMku1n-16" value="" style="shape=image;verticalLabelPosition=bottom;labelBackgroundColor=default;verticalAlign=top;aspect=fixed;imageAspect=0;image=data:image/png,iVBORw0KGgoAAAANSUhEUgAAAJIAAACHCAYAAAD9YACmAAAAAXNSR0IArs4c6QAAAARnQU1BAACxjwv8YQUAAAAJcEhZcwAADsMAAA7DAcdvqGQAAGiRSURBVHhe7f1ZzC1Zlt+H/dbeOyLO+M13nvJmVg6VU1UP7KbYhCiJMGFRhiEDDQHUgwnYDwZN0QAtyaZIi50i7TfCgl/k4cWW/SZQ8JsgCpApttgku6pr6MysHG8Odx6/e7/pDBGxBz+sHeec77s3b1Wxs7Ltrl4Xcc/54sSJE7H3P9Zae41y69atdP78eX5ZKaV0ctexfSJy7LOOgggt4AEBDGASWCKGAGIAYRrgoIV7BzU/vHabH127w+e7M24fRu5OI/utEBoDzMFMwDXQH0JvxGD7FBunzjLc2MSnRBsTPScMSstaIeyYxI6JXCodL1QFL/QsFyo434Oe7S6qXl6cACQ84KOhjYIxJc6CNfqxJD1cyUOquXP7Or/1F/6t1dt/iuw/+Af/4J2TO39ZqANMSgkR+bm2CEQgZSAtSYgYWjE0CI/rxL3Dmi8eHvDDT2/xLz78gi8eT3kUSg5kQIwFxBJ8A/Uh1BMwJeL6jPubjEc7DAbr1KlkEh0HQXjUBu7VDQ/mc+7Opxx6zzwlGjEEaxGnF+USOAzIAlWQBJKQYkJiwmKwRrCSgXTsfgRSZDAccPvOHT788ONjd7pKEmN8+pH8E0yr4Omo4zpfxX2eRSkDqQPT6msLTDxMWvjywQEf33rAJ7ce8sndPT65t8eT1jE1Q7wdgO2D60NzCLNHWD+hGIxw/RGDrdOMTp2l3NhiEiOTEAkWcGBtoqKlomGrEHYqw05p2K4cW5XjvDNcMoZzThj1YdSDnoPSQGECJgYkegQDplCwpXwTZAwJJBKRwD/6R/+If++v/3snRmFJv1RAWgVR977jMN37n4vyyCWBkAHUADNgdw67M/jDa3f4/fc/4b0vbvOktey1hkmqSNIDN4DhBma0zqCeMjzapTc7xFcVoaywa5uU2zuY8TqzlJjGhBSWoiqwBRgCRlqMabHGY6zHmICxgRdtjzfdiFfKijPrcGYNtirYcDA2UKQWYg2p46kC0eomhiSW0DExA3fu3OFf+63fOjkCC/qlBtJPA9Eq4DjJuVLIWwJxeGOZRDgIsFvD5w/nfPbwgI9u3ueD63f57P4T5pTMpcBTKFsxBVQDbH9I1dRU0yOKZk4sS2JVUK5v0N/aplgbU8dEHSPWWYqywDpLSp6YPAGPF08wgWAiwQTOScmLpscLRY+za5Zza3C6B6cK2C48I2kZGU/PgLMKHmJGDZbEcVkXQuDlV761MjrH6ZcSSN37nwVEMcbFvg54xhiI3RPtwVR4qXjUGu7XcH3f88Nrd/jBtdvc3J/xaBZ40iY8lhab5QYZhIII4COp8RATtldiq5LR5gbrO1sM1seEEPAhYI3BWYc1ljbva0k0Aq0kvBW8FYZJ2EiwZQxnhoazQ8uZXuRcFThTBrbLxHYFa6VjVJUMbKH3mLLCvSrm8uvVV64uxuIk/dICqaOTIDrJtU4CyRiTgVRDmCmgqJhQcXOS+Pwg8NHDKf/8wxv8s49u8NgbfDUmFIPl450CkjwSW1IzJ7U1RIGUuVSvhKpkbWudnVNbrK2NSKElBo8RgzMWEUPjoQ2JJgkNlhZVtr1xpOQhtjjxnKpgp0qcLSNny8DZKnFmYDkzcGwPe2wN+6yXULDcyggmAjFlzgtXv/3yykgdp18qIHECTKsg6oDzLLB11HEkEYHYgK/BNzxuhN0aPnww4ce39vjJ3QM+32v4bK/mMBUE1wdT5Uc7QWwxscGEmlRPSPWUSAFuqIp3YaF0bKyNOLW9ztp4QEgtPnpwBlMU4BxtMPhoSMEi0UEsMMlhEBobmbqa1tYM8QxTYEzLOp4NG9keVOwMSnbWR5xe77MzhjUHYwdjYBxhFCMmtpAaSImrr3/n5JAs6JcOSF9FMcanuM+qDtXt60g5REPdNNw+bLl92PD9z+/zex/e5Ee3njCpNplWm8xND6QArK7pUoRYY8IM52ek2SFpdoh3fag2oBqrUccKW6MBpzdGrI0qWjwNLbGy0K+IZUGIBTE5nC8ofUnVllQeKg9HFewOGg7LGVLXyLzGNjWuaaliZHPQZ2M44MzmOud3+pzdUh3qTB92BLYjbMeGXpxDmkOKXH3jX1nc/0la2p5+SehZHGeVG53kWCcBFWPEe89hk7g/M3x2KLx/74jvXbvHT27ucnN/xl6bmEZoERDJikeEGFQUhpboPTEEjLGUVZ/Slrr8awMSIj3AGSE5gy8dbWFpncOLI0QDwSAhIW1EggI0mkAowFcQChAbMZIwIhjjVJczfeYyYC/2ud9U3JgaPt6D9x/Au/fhR3fhJw/h872WO9OWSUDFrStXRuxp+qXiSCdBsro/xkgI4bge9IzjvPd473lYw52Z4frenHc//ZJ3P/2C2wczHjXwxFvackhTDsGUYLJB0LfQthAaNUCmlr4R+lYQb4iNIUWLDAoYFPQ31xie3qBaH9IETx1aRAyFsVixJA8EECzGFIhxGFsg1tEaz9zMaGiwHlwQNcN7gSiILRBT4JyhKISegw3bsOEarvQjLw3hpZHwwshxdeSwVrj64muLsThJvzRAWlWiT4qsk0Cy1i6A1H3eHVPXNU3T8MWR8MGB5YNHNX/44Sf84cefcOgTsTcglgMaWxBsAeIykERB1LQQPIQWUqJXlYzKCtcEzKRB2kAc9QijHuXOBr0zOxSbY2rvadqATUKBoYgGfAAfSJlzxcKSSkcqLTEFYmhIMVAkR5EcJtuJUjS0WNoktDHSxJYUG4ZMGTDj6kh4baPg1Y2SV7YGvLI1YFDAr1z901Ub/Bwc6SSQQgi0bUvTNBwdHTGZTPjRo8g/vQc/eBDY3d/j8cEe8xDwIgQRvBGSCJgVF0WM4COEpO+TIMZRWof4OamdQGyx/T62N2C4ucPaqTP01zd1dRZAxGCtQ0QIsSGEliSBZAPJJMQmcJCSIWbglFEoouCSweTNG0cQQ01iHlua0GDDFBumnO2jnGi94ltbY7613WNQwF9546uB9EunIz2PTnKqjkIINE3DZDLh4OCA3d1dPrt1n9//5A7//JP7fH4I9eA0abhDKIa0GFKMurILNRLnmDRHUqu6khXUNF2SkqNuhXmM1LamLidM7ZwpDT4EpIFybqnqin47oAw9rPpIiK5PW1Y0paWxiVZqfJoS2wOin5MCqiwFi3iwPlH6SC9GBiQGFvoWSitYKzQiHER42MDNWeLaUeLTifDRBD6cnByV42TUYZRQU/mq9yg/vd3b7qNjHycgkPB5C6Rj/57/9SxsVj4JgCelVg19KR4/Qb7Mbvt5KKEKb5JIkrS4bb11wSSDSwaXBBMThEjwkVkbeTQLfHkU+GAv8L2HLf/4bsOPHjXcnrbgW3wI+AQR5UIiNnMhiySDJEEi+trZkiRbjldvDllwLxF9xlOKhBSIBOU8ogwt5KERIwgGSWqZlmAxscBGi4sGp940QIgkgiRaIj55YvSQPJZIIVAaq0q/qZilkiet4/ZUuLYPH+8dH8+TJLGOCYk5zKALNZAVT/GxWc/f6g7RiY8ENamjg3fMtp7pWV+XfGL1pecBTZGUAiSLdK6ElXMsziM5UuMraJWvpJRBtAC6I5GdlNnwZulOvoT7PMBhgJuHDZ/tz7n2eMrHd57w0d0n3D1oeTRPzBpBCkdROCASQyCmsHK1KYNn9SHI48rK+MYa4gzwmN6AqhoyXttkvLHDYLROEEsUo5sxWWxqzEeMLTG2pOixknJIiEPEAQ6TEhLjMkQkAVn0hswKQoqkvBVG6DlDz1mGVcGwKrECf/hXnifaFixieePLJ2Tlz5NbSrrkJBBoiLQZUDFvz+BKaXV4u607qjuxV6ts58c6eUl51+LaTnCpYxyr21YO7v4tbuGpC8pu7wDTOrA7abl5UPPxbs2PH9R872HL9x4Fbk4SsyjYQjASiL4heg8pYTAYLMoPCkg2b/pwZljpTUnIG/mYAkeBFQdiiET1o0lLMC1BGkKqCbGGFLAkbDKYaDHBYVKFTT09BwZHQkhkhkUriUYiTQo0sSVGj8RAAVTG0nclhStJUjJPjsc13D703Djw3UA+k4wyEaMrCzFEhICowEpR9ULFzLGJSUk/b2KgToGWQFx5mkUZ/coXFtjLWyImhZBSx/ItxlgkX8+S+2VpIGDy64LyeWNIhJC5QgxqYEzddUjmRAUgmBSUpZOwktTGEzwpQRDLAQU3J/DRgwkf3HrMR1/e5fPrt9h/8kSX7ycettU76Wj5GP18lFIiLdSNpIJCBCNqlug21edWbF1Gss1IXSiC5AWGPn3PusYl6XFp9dj8pMUUjy1UnkWmCxMIIqi0VCal7C7go8fHhE8qmxP66lPUpWMINN7ThkDKk7YEUH7fXUhMpGxBjjHvSykfldGC0SWzZCBxXFJKB6hOfKUMyhiI0RN8Swhq7FtwNqIOqj6/CIJJEZs8Ii1IS0otdWiZRjgU2BO4NU18/HDCh7ce8+H1u3x2/Tb7e08oYoOVqADs6MREdRPy3Llbpe64xbx346O7BRQkYlYAddxgKis2MDEd30uZsS/P9SxaXOoKiHR6njbUPovMDKhzyKgOefd7qjOJ6bblPOsmiDEYazHGYcRismJnSItXSd175SRGumMEUYwRY1Z8M/QUTGap6TznHoQVLkVSSy7LbXE3+fwhocq17s13HfBGaKzjYR34+KHn+9fn/PjWE96/e8QXT2oe14kmWWJISNNgfIOsuFS60+Vn+il69t5n06rdKnUPXL7P1S0fvZzoFeDpJ6tjt3j08pc7xV8/E7JIz9+JCWJMiy2cvNcTZKZxCaROMOl0JqxJWAvW6baQNgbEKvKtcThbUpgCm9npytpkASIr4ERwIlgxGBEkyVLMxZQBJRkCS74WWYKt49THbkLyitoIVkQldZaKS7YF0UPIT0v3vHay1htLUxTcnbX8+OZDfveDL/ne5/d59+4BNw8DU/rY3hoijtQ0usVw/ELyKZ+e0OdzA6V8TEqq9AYFUcxcXG88j2oGQlpMdndsJKZ87GKcZEW5179l5Rxk0bgcET1vih2YEzFEYvgpQGpOcKNu6haCQBImc6SOKy1VF4PF4nBYrMrJ7hTdEwKLi1/VcYwsnwK98E4Z74C05CdpsUxfGaBuWwTQZECZfO7l2OhUdqw6KEfq7iABdUrs+8DDOvHlkwnv3X7I9z6/y3t3nnDt8Yx7s8QslUg5QMTpCihG5Ge15ebDOq70U7+V71UnUznSYiQ7qwEd6PIxMerxGQDLrTt4ec8LMB0DUd7ytC1ButyeR8Y5XfouRBEBQ8AS8rI8a8cZZou7yLOvN6r6UVoYZlbYR2J1JI+Nosp0lftqN1GFTcXbUhFKLAc2hqCcYHFNK6iSlZFe3VAlVG0lustHwzw5jlLFo9by4d0n/JN3P+H3P7nBpw/2eTAP7EeYi6XBMA/QeAFTUVZjXDlAbPFziazFoYvZ7cYnk+iYrBpFO/Gjt7bk94sj8lOmIFJutPrALUTeM65zlRMpnQThCqf7aaKtC3AQQJLHRI8JHgk+e6u7CVsB0yoL8QGaQGpDvhGeDablo7EggYXyKFnDWuVGSyDogHQ3FGPQa9MfOw6kxZJuRZHIfzqjQAJok2GeLBMcu94pkN77lN//5DqfPtznYR048JDEARYfoQ6QTEXRW6Moh+pRT/xcYErPAlFKGTI6CgvQHLt81esUTHlY8rjqQ9ZxpCWY9Lry/6n7wldTd0wHpNitrDPDeB6ZzuTnYsCGgPUB40Oen+6SVZ4lMVk1FSJqFzE4rDi1IyRDTKJbJ9aVR2ZAnbiRheKoijvSLWlPHCZqwTVGVPdZjGR33pXzd7+xAFNW/Tt5jALioIEbT2p+dP0Jv/fxHd67vc8X+57788S+T8yjGunUvd5NDrRiaaSklYK4YhH9qilairMTRyz+PL5fRLlnx32OaZ0diLrPupXa6qqt+zvfrIrxTIv3HTS7gVzu747vuFonHk9O3UkyJVDEhAse572CSO39i0BwRM0CPmdKeMlalDiMKShMiTMliArEkPKWtX31O2XO8awr6gC1slBb+QgxYK1gs4JvOk36WSBKOmURIYpFrUW246WkBLMAjxv49MERv/fhTf7RD6/xh7cPeOArjugxxxK6GCLxqkWKaugewzQVzJMlrKxyFGhPbwvG84zbPknLqc38+Rg4jk9/B5jj5oC8dYuZbjBXdMJugJfAXIJoQdkoe2JYn0vGRXAhYDvlMZLjh3MCFZY6GiYRjgIctnDU6mQ0EQIGMRrbksSpHUpM1rQk+7NSBlEHpo5dZRCtvHa3k79ByvuUYQlis7beHbUKoJTUD4Ucu4YMBdoI0xZ2J4FbT+Z8dG+fP/jiIf/is/t8sjtn15ccSUUjNnOQgKFVMGUgqSap9qi4OvjPo3yvT3Glp0g/F5acWgHUAWJ5TEdGsiFyYVdSrr7Uf54BlNV9i/Mvt9WxXx3i55GR0OpSRkQFnc35VqZPMCX73nJvCl/uB67ttnz0cM613YYbB5H7M9hrYSbQGAjWkKwj2QJcgTgNshJr1TdEt47vogVVB+sG+OS0HHsajt1I5xPsjkvK/TAk44imIGQO2m2TAA9nietPprz75T1+771PefeLe9ybJGq3zpQeR8FQR101WmsUKrFBYjaOLHyRK7/9U8HxLOq+07ErIKn+F0LQFVK+Z73/ZZhL8HkLYcHxlK8s9avuofqj0AKCqzrZc8hopF7UQ60DW4GrCNYwF9gLcG8GX+63XHs846MHh1zbnXJzv+H+FPZ8BlKesCRZpbKCWIO4bIgSQ0IVtxgDMXhi1NUeCzfGkpKO7XJQF3ufvquYEiElogjRqBhTXW4JpKMAD2ee608mvHf9Hv/03U9598v73JtG5sUac3pEb0hBSGKwokAyocWkVs9mUDCtUvqXBdMqnjJiotprdEyOc9oYIsF7QvAKqKAuoO63dY2hA/MveTULWgxvBlFmj8eOOUkSpodJjAOjYowIdYTHHnY93D5MXN874u7BhMN5zeGsZlgWbA367Iz6nBkPOTNybPRhXMGwBCedUFwaJCV7oIm6ukspqagy2XpoOvtRVs9SZ4bW2GWNM8uPKSmLx6jjn9TFk0xBMktO1CRoPDQBbj+a8/m9PT6/+5iP7zzmozu7PGqEA3ocsRKPbMEUiUIi0dektiEk1QeRUjm27WmYS6iR2HaP7kl8AxlkeWYX7zsWm3QvCY2YbFskRar+gLI/YDheZ7ixQW80JhijD0r2hyYRrHVYZzMAPSlGzXszy+ig2OlxqyJy9f0CeKs63fJ9/gQA/x+8vfjOSRJfT5KRAowjRDR0ooUbR3DjMPLZ4yM+293n+t4hh3XN0bxmVDp2Bj1OD/ucGw85Ox5yYb3k4kbBmTVDr4DKPA0mk5I6RqPagqTzCWUwdQElEcWJxvCoxdoYybec9axumdsNbg6zCDlteh5g1sLRLHI4q/ng5mN++Pl9Pri9xzQaJsGw13h2p56mCeCy+b4QrBOcJEJoiL5Vq25Mehe9AZQDfSh8o3HYi9E8OUGr3FRF1FMAWgDJg2+xKdIbDqn6QwZr6wzXN6iGI304Umc4Vq7pCkfhCuXyXoGkVn79XPl8Xll2uujyDd2ILiiv0BRU+XXl4/bff3Plr+NkkjEEMYSkesReC/dn8OVe5MMHE96/f8iP7x3yo3tH/OGDCe8/mvLeoynvPTzivfsHvHv3Ce/e2uXTB3vc3TviYNowqaFOusI75r+ThVMMkaTbCSevOis7g+Ny/2JLHTfKXmlUExdZcrMmwbSB/WnkwZNDbt3b5dPbj/jxzcf88M4BNyaRmRvgTY+QErSNTiQas0NS80aUgtgVWCApF5KWnq0pTYuVEy6SFdycBNGClgccp+xwddbirMO5vFmnob+i057S0uLdneMYdFd8dN15l/aS7kh9vzD8shIflY+VvIxW5X0ZaPdVJLPQJB8MrTfsThL3Dz239ls+3J3w8e6Ezw4brk8aHtR+eVFOWHfCpoNNk9iQxCtbBW+ernhlp8fGeMjGaMiwcgxK6IlyJgdZtLUQgy7jswExid5YF9EkOWrRJKOLtIWHV0VjTEnDVowq9ohdmCf2ani4X/Pg8QG37z3k9r2HvL8b+NETw+cTS2GF0gnJN/imJvgWsRaxlmgc0ViSyeDpABS1GpKxicImUjSE4DQu+tiI5tcTQDku1lZe834hURKpjKE3GNEbjeiP1xisrVP2B9QhUIdAGyGkRBJDWRQUZQlJ9acYAtJxPelCg05cHxlcJ2lxPfnPY38p1X/z2yd3LcgEscyjcNQmHh7NuP5on4/vPOTjO7t8cPcxn+4e8WAaIZTgxjDYht4m+27Eo1Ryc+K5tnvI5w+ecPPBI+4+fMjDx3s8OTxiMm9o/YmHMCuFaoDMwBQdyMy0gaS7O5G2mJysdIZO6Yw5sq/7tv7GvIW9gwl3H+zyxY3bfPjpZ3x+7xEPvYNqizYWTA7nTOcNlsi4NAxsokoBGwMppOzFtiCVLkDKElNaTGpI9R6pOcrgOkF5Ho/vWhFjX0HGGApXUFUVVa+iqip6VUVVlpRliXOF6kQrsUhyzG6UbUeSQXECGAt6Foh4ev8qD1vlZV9F8tC36d5ezb29ms93az57NOfa44brE41T3g2oYVIsVAVUZV65BKrgkekEmU44N4y8uGl4YbPgwsY65zfXubA25Px4wJmBYWhgaMjiIC+n1XsLomFwXVBdRLBAkcNQsryBGAnR51imzJpNBbbAC+zPYb+GLx9OuHb3EZ/dfciX9x7wxf0H3IsjHhWnSWYdmoluEihcorcoDSS0GBpcXnp2QO8Mkw0S5pgwI6WCKH2gpwOZjXudDSelpIK68wsuIgU0YdEJ2Oz2sCRODysubvQ5vaYZJLY3YOoG7Jk+R1LStp62CbQp0gpEEUpbUtkSwZNCTYwtIRlCVB2psyl9XVT/r18/uWtBcn02Sz+5s88Htw/45LHn073EF0fwJBXsxyKr/rmES16OiQiFGGxIzKdz0nQOhWc4jGyOhBfX13hxfY1X1oa8uj7gpXHFqRJOVQlnI1ifA6U7IBk8Ft/lIuRCBhUBUrsEErrMD4kMNZsFgnKhG4/hxu6Mj+4/4cO7u3z08Al3JjPuTGa0qQA70JVX0GxX1eQTzrAIElsAOpEV+hUj6qphIYfFktS0gRisMVij+kzIZo4QW1XKo9fzSKISoW8NPWMogRL49tk1/szVbV49v443Fd6WfFY7fjyxXJsJ0uhy2ptEbdVm10slVSqw0iJMiDQ0qaRJZY65Ui3o66L233/j5K4FmYeTmutPpnz48ID3Hx3xk72aL48i+60F0wdXoUUGATzOzyl9jfNtNiZaMD2IPSbzglsHhh89DvzowZz3H0z55MGE64+mPDyoOZpFUps0eHhRjk4Zp07gScmgnC/n1WiktagYEOMwpiSkLMomcHt3xqe3n/Dx7T0+uHfIR7tzrk8NLSOQnrL7mKOvbDa+IHiEBoM3RpmvRKxkjSs2GlobfDZHWD2XlPn6OxJIS+ezqDEtuxvywxi1AkmFZ2wj2wWc7zleGPV4c2fIn720xr92dYPfujzmN86PeGGzol8Z5rl+JBFSEqLJG7nCV0hICnrNkghdkgC6Uvy6tueR/TN/5W+88+luw42DwP2Z8KgxGi6hwjb7mTwYj4k1JsxJwWddBZItoTeCqgdFCabA+YSfzWmbObN6ylEzpTaJWBhC4SiKgrJUjtJlqqj3OuaVQgevoIH1MRLagETBJouhQCiIAk+mcOPxjI/v7/PB3Qd8cO8hX+4dcH8656CNtEkUuGTl02bwdnpE6nJ70iKYTLlwh2jlmIvQX5PDgFWxW8BeVRO1sPuY8ikWN5IlZaRInvXScKpfcnF9wCvndnjz6gVev7TDle0B6wNHwOKx3Krhs2ni9ixhQsKGRBTwVoHkosUlo4+C1CRaPAVt0qgEk75ejhT/m//s5K4F2Uv/o//FO9cPAvemwqNGeNJxYSF7vj3WBQbGY3wNzYzoPd5HYjK4/ojeeJNe1WdgSqpo8bM5e4f7HE6PeDI7ZK+ZEguLGfawVUlVWYZlZnIpJ2p5T/QtIgljDWgWlsaOB0+oPSYaTBZ6AgSBuweej+8/4r3bd/ng7kM+uP+QO0dT9n2kjsoliJo5WzhLYawq9CkH2MeoYZOhc93EhTQTlmEuJiclWMkb6nUTiarHLc6XN0SBaySDSChSi4sN2z3HuXGPqztj3nzhAr/x2mVePDtie1BSGC3I5THcmiuQ7swTxiuYgkCwQhRwyeKiXQGSx1PgU05w+JpF2/OAZD7Z9dw6Eh77kmmq8FJmKzd52dtgY42NDS616PPSCSId8UR+60EaSNGB9JhIxaPouN7Ahwdz/uD+Ht+/94Qf3p/y3qPEjUN1ovpkiWLVKgs4PBZVThMCUmBMBVKRUkls4dFB4ov7nk/v7vLx3Ud8cn+XL5/sc3cy4fG8ZtJ6fIyYlFQPSWBDRELAxIhNXRxWZhfkmOW4siUNtJPYJTmKipegoBGyLUzyhHXch6xftZpAaWOgbxOnxgNeOrPNa5fO8PbVs7z9wllePbvG5TU41YdBqXpWtxJ7SlHO0iUlHXMVOc8QX51l+hskm/71/+U7+6FgkipmKZemE5NjcNTZoFUPWyR6TAokMerpN45kK6ItiU0gTRti7dVdUZakssQXjsYYpjHyeDrncFYzmTXMmpaEoaoKlThW7TtW0CKbpCxeNebJmJIkFW0SDlu4/njCJ/ce8cHdh3x07xGfPtrj7tGchzPPLAg+GkgaAlyIU3UohaWxMycLarhG1mskuz5XYs8XAMvKm0ZppoWpQiTlXLXuu1avOwa1eseWAs+ogCs7Y169eIq3Lp/mrctneePSNpfGPXZKoS/gJIHRlWObhFtzuDZJ3J5FjE+IjwQBb3XV5qLJHKlFpAYJtMnhKfL1LOzaXws9lyM9qi17jWUSHHUqcgSAW4mej+r9Dh5JEWsEZ9Q7bowhpUhoa5qmpm4a2taDcdjeCKoxsRgxp8+dSeInDyb88M4+37/9mO/fecxPHh/xxSTxoIHDCL7TPSJZHxIMFpECcY4a2PdwdxL47NE+7928zwe3HvLp/Sfc3JvwcNLQtJ0NSB2+KalNihRVt2tbCAFJUZfeYnHG5tWW5oN1nCjlhMaFOhW7GqRJV/RJEy3JqpCRhJOEk4jFQ2rom8BGKZwZlrx4ap03rpzhzRfO8eaVTV47W3Jx3TC2LT1pKU3K3GgZHQnZJLS6ClF29DQn6rhQ5lKL478Bshf/nb/zjojQeo8P3RObH1fbBUhl+d8pm7ZCigpsSYgCrZZpSRKIDigtxllMjsNOyYKH5BM+Ck1ITEOgiYlpaJn6gI/KgQRDzzigQJLFRHXC1gnuT+HzvSkfPnjM+3fu897t+1x/csSjWctRAzGVJFPpiiqHyCYRgoE2etpchzHBwlks1iBGj3vKYSOZI8nxOB+TU6YXjCppapWEgGlrnK8Zu8hWz/DC9ojXLmzx1tUzvH5pm1fObnBxXLJVCCOBKmo9SUQQYwnG0EZ189ycwbVJ4NY0YoLqSTEXHO2UbRsMRjwiDUhQ+SGFVi1ZseV+HfRcjnR6c51Rr9BkwW6ZmyIYgyt7GFcRcTTJ4qUk2Qopetiyn83zAWYTaKdgWlIViQUYq6lKBT1cGkDoQ9tnNrfcOvC8tzvlD+7v8c9uP+AH93f5aG/CrannSWPwKTPkbLaJAWYJ7s8jHz/Z54f37/ODuw/40b0HfPJ4nwdHLfPWIqliYIf07YBCSrULiaqgIbWk0JB8Q4hefVWigBKn7hGMJWXn8SJKcMUnJaKgM0aP1VWn0dV9imomaCa45pB103BxAK+dGfLr3zrLn3/9Cr/24mleP1dxcU1YMwFbz5BQ642uZMJ0q1Y639ox/SfvX53FTtnPHElF9DdL9i/9jf/9O9LO8PMjkm80WzUGTXx0BQnRBU0yGqYhhQauZWdmG7TYExaosnWNnEnru3pAOZyhKzpluujFRO19DsdN+JBogxAoCF4rjIUWbu3DZw8n/OTOA96/fY8P7zzkxpMj7k1qpt7gU0GkREyJUGQdrvPf6fV0YSdqhHRqGzMahx47z/pCHORp6izvRjC2ixnXrQvlAPXcp7ZhKIGtUjg/LnnlzDpvXNzm9UtbvHpunRd3hpzuC5slDASqFCiIGMmgNDo2QTTspQ5wYxr59ChzJJ+wQS0ZwQqpW/5Hi5GAmAYxgSAlQcpvfNVm/+p/9DvvUM9oJvvEdk7bNjQ+YKxDbEXMYaWIhtIGLFEcYixijCqfJAVQlcBFHdi6JraemGMfrClwZR+KkmTVFuNDZFo3NG2gbgPTxjMLMMPQhIIUhbqBj+484sdf3OTd67f5ye37XHv4hN2ZZ5IcCVXCkxQ5tz+DKDuEYwciVJHFGHCGZHN8Tw4H7rIvFgqJsIiTkgwizZnTLUpWZSNquW5mbFXCpbUer5xe4zsvnOLXXzrLa+fXubJVcWYgjG2glzxlChQCrosDk6VOGnMITO3h+iTyyaECyeblfzSiy3+rinaRLIalaItSEUy5ULa/KSCZN3bg5U3Di2uJ8/3AtmsZ0VBFj4mJGI06LKRSlpMqQipokyHmWKGiMFgH2Kgpl3EOfgp+Br4mRq0PXRUVlRtQ2CHIAN8WTCeJ2/stnz6a8d79I3788IgfPJzw7uMpn+5HvtwLfHT3MX/42S3e/+I2n9y8z+17Tzg8atRFYXvqVDUlQQxNgjbbExejmKK+WqOlh7tWQGQNuvOHZXG39AF2loGcCNDJWnx+zXqdNQwLy+lRjxdPr/HGpW2+c3mHX3thhzfPjXlx3XKmatkwNf04o0wtTsgxUGbVwJ+vt8N0J9I0gG9Vngl5UbvyVckysdPlvkkBZ//2f/w779jQUlmh5yzW5tgTsdQ+4n1YjBlpKcATCUlRV3KSEAkQG1JolwY563SwnCXZ/N3gkRBwIWJCRJJQGEcylkYMhxEetp69ec3BZM6Dg0M+vvuQLx884eHBjINpoG5Q943t5VVmAYXLo6kxTRFNXzYp4ZK6VTpOpDPQWbe7ocjcSrpAuwyklCB6LYfsG4Kvic2cFLVARVUYXtgc8fqFU3z3hbO8feUMb1zY4spGj9N9YWQ9Rc5EEZKe1hgQRxLbqWLLLSlHmvvE9WnIoi1gAlm0CdGZJUeKZiHakEA01UK0SeqWDl8PPY8jyWFbp3uHLfePPJ8+mvLR/QkfPZzx5X7gy4PAQSh0JWTK7HOz+elsEfGUJlKaRIwzWj/Fx1qDwWyh9aUluyWjOjiLIDgPLuhaWvBa1tfp5l0kushpJ1wpDNsh8PD+Lg8f7HJ4OGMyb2l8guEYMxwRe5VGJTirdpvQqpU61+MpxDBAB78pDY3V5bsqfvnhQNTtYVwGUKfs5yTRkCMhfedzaxHnKKuKzfGI775wge9cvcBrp8a8slVwZQ1GyTOKE4z1yqltXvWKhSyOA07tnpnxmWzH3JvDXh357x+2/Ff3Wn5/t6VshbKF4Ax1JQRnqVpH1RZYZhhzCKamMSMaM9L1UlQzx9dF/j94ToTkgJbtShXEq1sDXj6zxutn13hpq8eloXCmigxs7vvT1ePtjHpR/VMhBFIQbHIUVFrjsFt5dSEY0oA0JPRVk4QCKSZChCYIjTdEb6G1PJhFPt+b8fGTCfcamJdDUn8d11+nqMZYU6gy32b3xqpYEhbXKSkuTIsLH1rnxjjJjYx68UHFocSAhBYTAi4FSkn0C8OwV3Bhvc/rp9f4tYsbvHVuzCs7A17YLDg7gq0ejAqHUXmf3TSSU7zU4Ku6XGZ4Jy+HVTG2/GBhIs12pmeKrs6G9A2TkeAZ2sR2z3Bhvccrp8e8cWGTb58e8q3NkssjOFMG1k3NQBqK1GJTwCT1S4UQadtADIKhopABlkoHLZL1D61BhKnBNmAaommINPjY4IMnhKSBZKkEGYAv2J0EvjiqeUJJHG3hNnao1rfpjTewriK1Qd0Q2cioj+GqSOoKMKRsUEwKvrDqlF2JJMwBYyYlbIyYEDC+pYyevsC4sGz2Kk6PR3zr1Ca/cfUU/+orZ/jOuTFXx5bTFaxZdccYIetulepywZGiJaTsAMorypSWz+XTSFruWAJI4SQsbAT58OPukW8aTIYUKQyMC8PpYcELmz1ePT3ilVNDXjs14MWNkguDxI7zrJuGfmooM5gkqaHS+6TV6Ckx0kcoc+8vyY+bWnmhIUlNNDXBNnhpacXjidnPZVQExh74AhqBGqamwg/WkdEGdryBG60hRc788EENok2r7+PqBOiK0ufqczHELPayh38h1hRAVgw2gYkR8R7jW6z3VCRGzrDZrzizNubS1havntvmVy5v8WevbPDG6R6XR8KpAkaSOwsJeUVWEaiYp4o6lTQZSHEFBbISu9ddfdLLzwewNC5lMB03fefvdADK3zthbfqFksR6ksiBXA2OeXIcBri133Jrv+azRxOuPTjk890pD2eRh/PIPBla47RAZsox1mIwovWfY9JKt7ELQSEsVz5CN8oZOOoTWwSJJYtgtbJtnOsKqXD0CqfKedOQmpp2NqGdThYGVEGjBqzrFFgNuVhk+Xa/KSYPdOedV1OGOkkNyXti20Db4JLXsI9Bxc54yM76mNPbG5ze2uSVHcubO4mXNoSeLalsQWlKSmNUOuZ5Vm1S09yTqJTLAQFaLiOmHO6hH4SUdaR54L9/5Pmv7jX8/q6n8oaeNwQn1JUhOEPRWMrGYdIUkQOSzGnMiFqGCAabYleO42uh5+pI2FKLPviAjZ6hjZzqwYs7Bd+9OuKtS1t869SQiyPLVhHo+SnOz3HR5zAKVVSjODyONhWE5JBYUERL4YXCJ4xvIcwVHGYOroaehyHQN1AYCjH0gzCaJ4ahpKo2sOMdpDdmbkqmzjHtFcwHFaFfYQY9jDWYusUcTimO5vQmNf0m0MdQOqfsIanzlOiXXCsBSUPQLIKJID5C40nzmjSvkabFhsDQOXbGYy6dPsUrly/z9quneevqNq+eGnJxFNnpB8ZloLJe8ZNVthbNQG4L8E6drdnOqgvhFDDisZI7Px5TeY79saQFZ8p/HzMT5AySPxbRlr3dRixWBJciJdpy6XQFL6wVvH56yHcvrvH66T7f2nSc60dGzLHNFBNbBdPqnYmQrNFMDDEa1RdQA0+7kqcU8mOadWQMJJOIJmkVe6PLZZ11VSKSCNEKsXDEXknsV8R+j9jLHYOs6h8xolb1NmnSf5AcFlsqWwhR/YO+JvkZ0c9IfgapwdpIVRm2N/pcOrPJK+e3ePPiJt+9uM7bpwreWocXBrBZGW324rSAupaNW4QV6JyvZNCsbhrPJFqc7Nj4ZZIVuZadep2ep7rnYkg0xCUJkrSersm1vfUzjXv/OrbnkQEQY7FOuxJKSohvqUJiFOF8H944M+A3X9jiVy+MeOtMjxfGsC5zTHOA+DrfDVl0adHqlG0dwVhCJ8baXCSgMVBbaAymNdigTs8oEe8idZVoioCnIYY6c5Mu5DaHlxQOyhIGfVgfkjbGtKM+815BYw1NjIQ65FhnwJusyFcZSAHamtROic0R0R8RwgQxDWUJ43HJuVPrvHLlDG+/eIZff3GbP3t5yK9uBd4say6amsqQw26rhYtDwaRIMUbD3IvsOapyqkCZY9JdjvVeRF8uqJu0lclbgKgrqpW5asxA6koyJ5tLMxtM50z+mrbnkV69ZOOhqBFLA79aXPJsVYmrG47Xzw55/eyI18+OeHGz4kwfxsbTNx6n7GW5idZ1TtmXlSSPbHQQLHiHtBbnLc4LxuuSPJLwJuJdwBtPSJ4YGgXSsSLo2UpdFtDrwWAAowFp0CNUBa21WpknqGuhDIILgokrRehjyjYibSkqscHQ0C8iGyPH2a0BV89t8PoLp3jjyjZvXlznzTM9rq4nBsUUY+vMcqpsL8tuDrNY4WO07Roay3B80zwVBUAXYreYqwUXXu5QVU9Xn0szhopnMjdSMK1wpe40X9f2HMqaZ95EMovugtvQi49gU2JzNODy2R1evnyON69e4K0XznJpvc86c3p+Cgvu0WKirk2cNZRFqZEE/SGmN8A4fYJjErxP+IUtKlcLDblKSdIAtMXkL24oi4LuiTZdeItu4pxWQlndiEhziMwfY+IcWxhsWWJchbF9+mWP9X6Pi+sj3jy3yW9ePcWvX9nkVy+u8fKpPjtDi3OALbXTo+nnUJU/JXTh0AnflBc2RoFk8tIjRcig2Bz1uHJmg1cuneONFy/w5pVzXN7osZ7m9MOUMswhttmIp3nshdGM0Krq0e8NKKs+tqgQU2gtpZBtOz4DKGgQnYJpZT1MBtRC01wFU/agi9U+ZAswOaRQ94kQoDnEzJ5QxJqes5RFhS16WNenX/VY7/W4tDnkzQub/MbVHf7MlU1+9dIaL++U7AyFIotsXJmb0qyKo19u6tbC+f9uclbsFElFgI2evoHNHpxfE17aGfDa2XVe3RnyrY2SiwPDVpGoaHGh1j6t8xmhrgmtV4ObuEUUQZRlSwXSym+KKDYky+WOWXYgWoCp0y+yQfEYR1IuRFFCUSJlhSkLytJROTChJcynON+w5gznxn1ePrXJr145y69cPs2bZzd4dbvP5ZHldBlYs5p2bkRXXfNcqKJLefyF0tIstNxx7PX/N2gp2rL0UMHakf4hMWJToEdgJHCqB1fW4bXTJa+dHvLmaTVcnuoJfTyunRPnE9r5hHY2pZnP8T4samhr/cllYFgHCGcNZd6KHHKqukG3cunAtAKiRTyPzUW9OiduiRQFkmPHXdWjN+jT6/WQ6GmO9rHNlK0i8cJ6n+9c3OHPv3qF33zxHG+eWePq2HG6jAzCHBtyiyw0ObPOQPr6vFhfTYn8MK/sSCd2LT/LJshnffYLJtXIVkC0vIYlR9J2C4FKAgOBTQvnK7i6Aa9s93n9zJhvbQ84NyrZKA19iThfQ1MT24bQtEQftRldF9+UF8DdplmquhVGkwBWOdJTYFqssZ/BlZyCKbmSVGRQVRWm6lFUPU1LIrJewMVRyWunR7x1fpPfeGGb755f4+WtARcGjjXH0gaVfRiRFQ/LNzJh3Y88/WP6+3n/InryJB0bxD/i9tWUgZTz1fPKIZLHLaruJEa0RhEBE1uqpMvYMXBhVPLauU2+feEUL184zdVzpzi/vc7WYMC4LKiswS4qr+YMVLolb7dl71FS31z0nhQ0dryzh+h7luI3rYq3HO1o1HaVjM0lCLUMYXKOxhRMUsnUDFjfPs1rL13l1159gT/32kX+3EuneOt0j8u9xCmXWLMahK9L+p5GPogFNNOjZ6DM3QZ+IbTi5ljsOra7+3CpQy4OX+zKK7xviPLy//j8JNS1EGJeNQnZYhjzE1pTpKBAGlu+fW7Mty/uZCCd5vzWBlujPuOqpDJdMqEudUXssjFeZz/pAutBV2shAymujETS/5RLneBKK4BagMkqmKJ1RFvQmII5JTPTZ2PrFK+9fJVffe0qf/bVC/y5l3Z481SPCz3P0HmM0YxfTKFOV1PlFZrgCPRoKGlzpYKvlzIuns5Ny/e/fL98+zQv6pCVndVf0/Y8ysYGpYR+oTNTJDqArUQMkhZRhRIjlYFhoVvPiratSgHTrcCiXwBDK7XlDgEnrjLlnhoxLttkpZTD7vOCcjHK3UAt/s4XKrqKS13ue26SF40WKcWVpKKH6w8YDEeMRgNGg4pRzzEozUrzw26xkbX+lZ9SCKsP6+sMGvtKyrd6bMex15P0Vft/sfSUT28ZG5NWVJIORCuoixqmQW4+SYDYtPh6jq/nhHpOaOdayKrVEnrJZ1DlaraLENeVNgXLyq4aQ71qmu9+XbnSKhB5hg6Vg/9FiJIdtK7AZCUcpwW1ApID/1dXjvnXVm63o582jV83JfK9ruzobv8p+mNVtlm9OL2Qbltdkq8+8SSNUvchMa8jR1M4PJpzeHDI5OCA2dER8/mEZjbD13Ni2xB9Q/KtGh27yMO0zO7omsvFpNXYlK3riCy0t2MA6t6vXrAevUDAAhC5203hcGVBQJg0gf15y+NZy+60Za8J+JCj7ztNujv/yk8kWOFHz0Da107djS1u8AR1F/i0gFNavfI/6vbVZEhCirl0XFSBZgwYq4XAUyfSRLJOUxClYErBk0b44uEBP/r0Fj/++Es+uvYln39xg9t377G7+5iDw0Oa2WyxeiM0SNDUb21+HDpn0VKSGKuGRGvBCEmWwVrdDWnMzbM2lu8hcyd9NVYYVIZBmdg7OuDDG7f4g2u3+Kef3uO/+/wxP7g/5+Mj4fbc8KSJzJsG385JfkoK2vYTLezDnJJGk4lWhvKPRk9N04kdi1t71oertHi2/hiU7RgT3gdCDPqcCar85myKLuM0iSUZRy2WaTIZSIf86Npt/vCT63z4+Zd8fv06t+/e4/DxE8LhIcxm0GpiYvINEhotKbwKJLpiDMo5JHvT9XdXAbSSn5a68jMrQFq8XxnrDKbCGoaVYVDC/uEBH924zfc/UyD97me7/OD+jI+OhBtz4UEd2G8bZu2c0M60DHLykPNHOjvS122QTPk/lQw/m7L9bOoQ900q2wtK+uML1UC/GXP+Q5NEq942cH8SufGk4dMHR3x494D3b+9x7eEhDw7mHNWeNpJ1kpyIaI32fcMjqcWmFpN8bgqsEQNp0VYZzTWTFW6U/+VRVuB1+tOxO833sBjwJaJiDLTeM29b5hha12MvldyaC58ceN57MOUPbj3hx/cO+OTJnFvTyKNWmGCppasmpyvLbq34ixBsP2W+Vo74qpijZ+37xZPpdArheOEC9FIzkGCe4LCN7M49t/fnfPrgkJ/cfsIHdw/44MGEG3sNezUEUyBFDwZD6A8w/R5FVVA4cvmoFkOL1j0JixLJrLR1Uh7V/VvCq9s0M2IBuUVaVGc01Is/PqA+BCbzmsN5TWtLZG2HMNxk3/a5NU/85NER/+LLB/zBzV1+sjvji0nkfms5NH3mpkdLQcoA6sJAvj7B9nNQfla621s8RyeP+4bJQC6MIBotuDqFrHCkOsL+vOX+wYwvHx3w8Z3H/OTmLh8/OOKzJy13p4lDbzTLs6hwVV+tyIXDWkFSIIY5KcxVvKUWg8dK1NIwucW7Uodo3a+fnQBUBo9uyp3MU0FYaQGsFBNtG5i3CW8rZLhG6I2oTcleC1/sz7Rm+L19Png04eO9huuTxL3G8KQ1TIPGyZmkcUXfJJCeD5LlPf5xUgaSwVqrOlFKOeZaJ7abyjpEHuwdcu3mHT78/CbvXbvBe1/e4db+nIkZ0hYjgutpzSTjNL07JpqmYT6bMJscMjvYY3a4Tz07xDdTom+QpHrZUqHvbDedfrTKjZaKdrdmOrl1IkdfF/kWap0uxlCug1Ra4yh2tQAgGJgB92YtHz444vs3nvAHN/b4wc1DPn4w5f6hZ95oiyXrW22OmOLJ8fzaSaXzzwiUr1y5/eLJIFqvuasun5IaBFOuqh9zyeJ5SDzYO+Czm3f5yec3+cPPbvDeF3e4tV8ztQN8OSI6zXyNopmzMSVS28BsCkcHsP8EjvZJ00NiPdXox5QLIi+AtAqmk0DqRNeS4xwHUtZh8mnyWkGr5psSipECyVS5sGjQ6rouEQzMEe5PWz58qED6/s19fnDzIAOpYd4EpJ2Dn0CcLVZyv1j6GaGxCraf8StfJ5mYPFE8SSLJaGRjNDCLif0QuX0w44Nbj/nBtXu8e32Xn9w+4Ppew+PGEcyA1EUImhwhqCXXiB0wtBzbMncsoulD85o0mxNnU1I9g6bBLFp+dQUfXG5N6CAaxAvWJ4oWigBl0q7aYoTkBG9zhCVayF1LKQsxdUEOYRF4p7asLnDO5voGJT4VTBvD42nk1pOaj+8f8v69Q35894gf3J/x4yeRm5OCg9oSvKapd3axlJN3u1jRhcaWNKaL1GpaVtJKYCkfpz0F9Fgdtlz5LYeLdQXDQJ8Q1We7AmB5mb/IeWP5sHXP3Ne1PYdMQ6P1g/C5/LAQjDCJsDsLXHtwyPc+vcs/fvc6v3/tEe/fm3FrYpnZNWR0CqrRwqGpy5kc/C4ogIoCW/WwVR9X9bGmQAIwb2A6IxweEicTpJlhfUOZPJVErO0CyHKUs7cYLxStUPpEFbQkaSGCcUJ0XeB9jhun8/WIVl6LEXzmJn6+ktotmgIlJcb0EdHfa4Ll0VHLFw+PeO/OAb9/65B/cnPCP3kIv3sw5MNZxWETNSsmNJD7rPlcMO4YmFLM4G20PHNS40HMIKrzaycoBdFyNxhSFEKuEJc/WSRJgoKMpKaTriMAsKJvfjNkQvJEApGIZqNBjfB41nLzyZSP7+7z4y8f8b3PH/CTu4d8sed5VFtqM8D0x4grM1yX+sYCSAImN2kpbUHlSkrjcEkwPkLdwmxOms9I8xm0c4xvcNFjU06axObcN4MJggmCDZpCZJMuEjjmGeki1buB7J7MpcN5kUyQgUa0SHIYKREpNfguWQ7mgTv7Mz57NOHde0d8/+6E7z/wfO8JfHgA96deH4hWM4VDXkEdE8AJJIWl3SzbzrqlQzhe22Qp3QWtcLRYlWXhnaMoEJO50XKRoqlhGUQnucnXsT2H7H/yd//OO2iqHnWyTKNldxr58MYjfvjJbT68+ZgvH894MEtMU0FjKqLRpbBWHmn0CZNWayNZ9FeTRlam1hPalhCjsmgRJPu8krUkUdSlqK2ifO78E9pIakLO7ddKHmLUYBmtwRuh6RoOJl2V6QxmROVBVQ4ZwUSVrjkhQR/orIt1E5V1RBV5STXEFBcl9FKMeO9pmgbqObFuaFuYSYWUfYzV1hAlYGOL9U1uGpiWceWmJOAIuSeuSNcuYzl0TdRiW9en8MlR4PY0UmIpMWCN1kcyYLwgrWhunGkRE9FUjAJ0VL9Wx3L8//xfTu5akHFYbLLEYKlbw2FteHgY+fjmE/75e1/ww8/vcX2vZj+WzF0fGYw1DSh5aCfgj8AfQppTmKARAIKGWAQPTa36UNPiQyCIQcoK1x9gypzGExLMajicwNEEP5kQJxOYHMH0CNpa+yYZrcLRlI6ZNcyBNiRiV3TRCyZaLAZrJOcweDA1xgacMxRFge2SG2DF+ZyBrmxUoy2NJWFoQuRoNmd374C7D3b58tZdPrz5iB/envK9+5HPDy37SbOtDBGJU8QfIe2+1olKAYwjmZI2d+huoyX4hIT0lDlByFEsOdDPWC0d3ZVM7sSXPq+qPynTUNCsupO+KTKkgnkt7B16bt4/5P1r9/n+h7f5+PYht46E+zPLw7nhSS1MvKFJOWuj6KK7AjDXzIzQYHPOPG2rE2QM5ChFypJoLU1KzH3Ad4Uf6Jb/ScVOPWOQWk6VhouDktM9x7gQShe1BA5hOdrSPc8OGw2Fh6JNOB+wQQ2fRhpEvBZXP3b7ndzIG0nFhzEZSNrCK4iliYlJ69mbzHm0d8TNJzM+2W15/1Hgvftz3r/T8vmjlodHDb7NWvdiwrUofAxREzezPcqKaL3vGBcRLN3cy0LMreT6d6fLCnYHn7xzcUt/HGRSsBzN4OF+y6c3n/C996/zuz/8lI/uHLGXRhzKmHlb5Ij3pFY5ASqHHRRQJC1TE+dIWyN1TaobYt3o0+4K6A+Qfh/TH4BzJB+I8zk0XcO9hC0MVeWoCPTaOZsSuDIseXV7zIVxyWYlVDYSJa9+yCA1BZgSJ5VWefVgfMC0LeJzvpq0GFEd5XgsFBlMGcxJZ0+M1dKHrsC4imS0Qt3cJ44az5PpnHuHDV/sBz7YDbx754g/+OIh79/e48ZezZNGmCerqUvGQkyktiW1DalpkRBxQGkk97BbBoE9i5cswN/hnQycDlDdrfwxkpm28PDAc+PBhI9vPOZHn97hB5/c4YvdOQdpQC1DiOUyad3ntYU1FGXO9TJBFUrvNXd+UbMIxBbYssJWPRVl1umILIpiNRg8QwebpWGnZznVM1walbyyPeLbp8e8sNHn9NAyLqEwnXoasy5kQRxWCkxymChISFpLO+h1SW7tlWLM/UZWQbT6JHfsQGPAxTqN/TaOII42GeqQmDWR3Znn9qHn872WDx9M+fGtPT64e8hnjxtuTxK7taGJBSk5UlQdkBAwocGGFqcpEAqSjJzUMZYTzEUvrRNhK6/582fR8z77RZD9d//677zz/o2H/OjaLd6/tcvnu1PuzxJ1MaBx/VyI1OQqsOl4Rm3UTQCDQ6IlRauNhG2hEYm2IInNjX0l32Lm7bEBP89FzROnB46rOxu8cfkcb75wjtcu7nD51BplkbAmgmh36akPGsKRJBf00jRlchSBZjlFonSmCO34GIMhhpyZQicas6jOSj+Lh30lDKOz0ZjcMdw6jHEkRI23UeuE+2SYR8NhA5MW5tHgk3K3qig0m1siZuFfJCv8uYBqfjzqqFVtvzxKfLTfcuPIY7vSfwLeaKUV4/MK1gScCxiT8KJ9Gki6hPqmlG37l//n//E7P7p2i3/+wed8cn+fO9PAJDqCG5BcX5XhnGRIymXwkhrgYlIQWWuRZEnBkILaf0zR06e5m6CFnE9aYtgmxM+hPmLNeLZL4fyo5I0r5/j1117kzStneeX8iAtbRe4w0BKCZ940zJuWGI0GorGM/9ZB66IGIqnrrizZJhhkYYw2GUCSU5lUn1koIStcQUBU4dVKvw5jC0hC8J62bWhjYh6EaTAcNNp8cB4NHodxjmGvZK3nltXrupVhTItyg13oVEgKotrDF0dRgXTYYkPCxmwyyKWnrDeYYHAmKpBswqNVYUALhn1jQHrtf/zX3vnw9kOu3X/CozoykUJbZ1ntsIM+8GrsSyqKNGdexVdCl7SSSi2wJeWiL6zCLG8pZctygw01vdSw4SKn+oYXd8a8dm6LNy6d5vVLp3nt/DYXNkt2RjCqQIgUuTKJKqdqR/K+ixjQpXmUpFVQbI5rMkaf+AgpGlLMHjgxGGM1iC63jUh0ekoWd3FlAkTBtHw12TmcRbrRxoVNEqYtHDaR2ifmXi3rJrugLELplpkzOr5ac6GjSK6zHeHLiXKkm0dey1CGXP/C5nbt0WBXgCQ24pNbttn6JjnS8Lf+3Xe+fHzEg1nLRApaV6lFmbyCkkhZwNCpbUSiJ4Sgd9smkJKULcLGVoitCJhscSVzIxYgEj/HtVP6ac65ccmL22PevHyaX3npAr/y0gW+dWadS+t9NvswLAOlCxQmMSodlbWUWCosBGhrj/eBJnqtMmuFVDpSruQv1qll25NFoG7GOoztslmyHStlM8CCW3RmxY5RrRaB12LoLnmcSSRxeHHUQThsIvvzyKzxHM5b7d0meRVoHYOeozC551sHoIhaqnNTpiZX4vnyCD7a99yYqGhzcaXOtskginbJkUykTY42am9VIwqmr4ueC6T6V/4n7zyat0yiocmeex3coP4hExm4xMBEbGhwOSMkeLXbYHpghyRTql/MOK2gH5JORKdNxhZCTZVqhtKwWcG3dtZ4/eIp3rxylu9cPcsbl05xblyx0YPKeQrXUJqWnjOMq5KesVRiKbBEH6jrhjYEZsHTpqB6XKnlZZJx6mbIJSzpXAum40jZndDl83Xg6TgSK9kkqxsdo465gU0iYGiTUet2E2nqwL6PTOYBn3RBEEWzgMtK8ax9bU3m1F0vEqNAirp9OYGPD1RHciscKTrN4XNBK/87E3HWIzbSRksTLaLQP1G8649GzwWS+fV/+50gghSlWogbLXuHFaRX0LMJm3P5U6tlgiUZMCWx6IMbqDc9ii7rfe4V64y+phb8nCLOqOJMFertMa+d3+Htq+d5++p5vnV2k/PrfTYroUcLKQezikZRWoQiCRZDZQr6TutHGgGsEIhMU8Abtaar2E3qJw1gkoovlUw5hDgz/ZSrnC1FWRcyoFbkZd/djnso4JKg4tFafEjE0P0Y4AzO2VyG0DJrE/uzwKRJHNSOWasZcYXLRW1MyL9pibkeWZPg+kT4+MBzcxIoEhRRtO6UU/Fto8EFgzUBawNiAk20NFFNm92lf130XCD5t//Nd6SoKPoD2hCJ0xnUc+iVrI37FARSfUSYHYJvMSFijMOVA2w5wktuQBKiAtA34Axlr8ChYRemnVLFOf045+JGj9cu7PD21Qt85+p5vvPSBS5vDdnuGSqTXS5+rm5Mo2EekrTyT9841quCcc8h4hCjIJrHlmloaFIgtM2i/wlBIDoMpVqFbVpUCk2yBFGKmQOlrA+ZvJKz2j1pAaIuCjOEvJLVYhWt99DMVEZZwTmDzYmZsxZ2Jy33DxoO68RBAx5Lr7KMempLqkybwWpJGvJEm9RF8vFBUCBFwSVN71UgqViz0WpbL+cRCTTRZCAJRr5BjvTqX/6fvlMYg29bfNMSIqoAlgXWGq1439Yk32Z1J6kR0FUkWxJEg9gWMkQ0KMLEhjLWDKVlq4JLW31eOr3Om5fO8Mbls3z7wikunxpzbr1k7KDoROmCjeRaTdKVqdL3xhqcgSgO62yuWJUTFoBZCBoz3m0YRFxevWmMuEqvbI9ZNdxk8SW5cY1kEaSfZ5HXGS/zik57AKqlXZylsNo9QZvlaMusuU/UPuGj9l4JviWEkMtABQqnveFCFEIUXbVFuD6Bjw88tyaBIimQ1E2krzYYrBetP2laMCra2mgRchPFbwpIf/mv/o13/HzO3uMneB+Qsgf9ISJC6yPBawEFXWTo6iuZnFNvHT6nR2v79YBIi/gZab5Pn4btnnBxo8/rF0/xKy9d5O2r5/n2hVNcPbXOzqBkXAguBWSR76YcQoz2hcNUGo+UwyoQrRorDnoDhy0czmrtIpMisWmRkIt3+ZT1JbsAUqLLn1vRhRb6EMvmNd0irWNGdI7cFVB1pZatoSwLCuewRkVozLbbmADRblBN23A0mTKfT6nnU2azGcFYXH9IFKtp6iFQB0ubgfTJYeDWLOKSivdkO2Vbsh1J+7UZ0yISaJOljS4DSb45IP3P/lf/23dmRxMePXpMTIKrhphySBsiqcnWYAPWZJ2CqPn1VpvURdH3iKegoUw1Nsywfsp233Bpc8C3Tm/w1gvn+NWXL/Lq+R2u7PQ4t2YYFoJDK+ynpCnaQXtrk0yBMb0MpNyNW1UbMEJRwqAHRekorKM0AiESGk8KieD1qY7ZTtTZlgRNwNQZPg4kbaHVYSpzncyFFqlQHfeKXb3uCM5S9iqs0bis2HWoUBTplsA3c+bTCfNmznw+Y9a04CroDUkp4XxLERtVtpPjRu5FcmeWKGIGkhFt/AcKIi8YCVjrwWgr0jZqtOs3ypH+1v/mf/dOjGBQDjD1wpNpq+2x0OjGbjmNqMU4CPiU8DEso7rbKXF+qAAaFFzYXuPVC6d548o53rhylpfPbnFle8xOX1hzUEjXcChH4uTiD9E6gisQ01M9KAkhCW0U/U2JeIlEMYvCBYWx9GyBxVBKoe0ljLo0PIJfLWRKfulAKWhQmOQsmpSIUXP8gvcr2cHZwZyBvPSwKgh90kiENhoCVoPpRHIMUovEOY6GQjw9B85qTs2BF+4ceOazOcM0Z914mghtMrlfW+T2TBvzFFG7a3sLQVIOIwErHms9YhJtsvjUcaRvEEj/6d/7+++IOMRVTFvh/v6cx48nGUSVOl2LAnE2JwQEQopqtwldneMIzQRmB9gw48LOGt/KIHrr6gXevHKGK9s9zo2E9VJBtDBQJo3KxFiiKwhGmy6L0RUNeSk8j0JDpDWBYDRhwObEx1EpjCtLKT16ViuHNEmYhsQkBOo2Z8oK2Za0JAVRZ3OBlLSABcHnRjZdRd3MjUQVcCsJkzNg0kKOmZUCyJmDJo+JM8owpW88A6d1NYM4JsFy+9Dz0YMp0sw5V7ac60XaJHgsN2eJa5PEnTm4rGxHA17Uwm18Fm+iLpJlPJICycjX3Bz5eUD6P7zzd98JCZwr1BbXBnyMiLXMY1wsp1MI+vwtXAo5OCwG8A1rLvDCmuHNUwPeurTNGxd3eOXcBi+eXuPChmW9B6NitaZQfrqlWyl1fWWzO7YLq6CL/wZjEkaS+qy0LczCHuMMgFC4IivJSUO80hzfTggp4bPlXfUsyUmbQYPPoicmnzsF6ApquekqCP0JShKWzuCqdcQzq1pRrDK3Stor06DxRZJtSq046mSYtIm6CRSS6Emk9pEbE+HmJPHZYeLGFA4ao1GlSUVazI4CG3WfkUgSVQ18tMSk7iLN9cuDuAjP7a5vxecICzatOuFiYvQWO0b+PCC98zt/5x0xlmFZ0DOGvoGxGIrkaacz5nVNaBqNVDQOyv5i2VuIYNoamR3xrbHhX7m0zl/41g5vXdrm2+c3eGF7wNm1io2+pWezaQmWg2xEJ8l0wVpqGEwhIB16MrewBgqjEYgFYLIioqYBq6ex0KugsJaeDQxNy8BPGNb7kAxHaYBnqJm/TrAETKyROCfGRksxQ3Y4a/NnbC8r+uqwc0R6ySMJbacqWuh4MUHS3Z8uG/UuugdFuYUXjZD0GRgJkJQ4bCK3jgLXDhKfHURuTGCvtUQsJo9HzMxcUu5YkOsjxBRzUwOTpW5St1F+MDrjq4jGfXfRA93CYwmqxSTpTHUrXIB//Bwg/c5/8nfeqQrLuFfRN4ahdQytIbUqt5u25bDNfWud0wA1a+lZw8gKw+gZp5q3T4/4V1/a4c+/fIqXzqxzeWfM6XGP9b6jXyjHkBxPHJPGLJO7XB97inOhLdCwXEQVYGfAiSwKB0peMUkeTGsMhYVeCVVh6JnEUDw9P2XQTmhSwWNGHMU+2KS+u9RgwhxiTci1mzTrpcorxkLBJLk5T4oUKVImr0t/0fCSDkQahKZVMoWuxwjZu6+ACGIIWXeLAKhobUJidxa4dei5PU3cnib2vSFKQZn9nh2IyNzaGIOxRhWOkPBBQWtED+wqu5hFYkBnzV8BUF50ZLgtOFIXhanrEgWa/Hf/12PgWSX7d37nb72TuoYuWIyrKKs+UlWU/T62KkkWDqLXqhyzQyTO2XKJs33HSzvrvHX5PL9y9SzfvrDFxZ0xw+GQfr+/CGtdhIbmJ6CjRfTfCTJ56bQMeM/Ma3GEfqKrrM75uny69dVhjMU5S1VV+GLIREoOQ6SIc2impNAQsi8s2UqjHWypT2XsdDjVAY0RnFP7TESUq0gXc67U+cu663z6zlZpZRygC09QZ3COSrCuoCiK3KS6u+tlHNJi/DJoSFHBZZbiS0THqAvTzUg5VvAsoYhZcK3Flel+BdtPAdLf/p2/9Y6Ixga7wtIfWIajiqK/Rn84xjhD2zbU8wnt7JD2ySPK1HC6Z7m8PuStyxf4zW+/zBuXT3N5e8jWuKLf1+qxzjkFRaZVEPEMIHV/63e0Z273RC3a0HaKUxaHcsxnlqcnmyuKoqCq+oxGQxpbMvWRWV1DPaWeTbQCC12aeR/bU3uOulhyAdIUMAbKoqAstLZSE2UJotXr/7mApJDIUS750dfE1A5IzhW4osA6twDSgn8sOKDkYDfVh9SYqte1GE/ReO/FBSU0EbYzyOYh1WHsdKnu2E7sJeSf/N+W+0+Q/Y9+52+/s1DDjMXl/sFioCwLnDVUhWFcOXaGJeujipdPb/Ht8zt8+/xpXr94htfO7XBuvWRzYBlUywD7DiQdgI5bk58G0uq+RC6nk0WbdDe6CkZFVn6KVoCEXr814JyhKkoCQkyqgJcSkBgAwYvBR7VbRZNDZ/RC8o/GxRI6JqGNLIP9TiClA5K+f+pjpeW8weoxnUhPIXcwz0AqS10I5aNT/lJaKO/6x7K2lQJHx7UD0zLfDbrw3OU85FPn5kZLriQZ33TAfQ5HkoN4lLpUNJscJpWkCEcejlp4eAR3D2bc35+yfzRh/2jCsCzYHvY5NR5wfn3MuXXHoFLHu7M+s9fjnKhr/7RKJ4/rSJU7WeZ65etTlbYTYN3W3bKKnJBEXWxdzljU7d5B4sbjCV/uTvjswSHXHhxx/aDl1mHgSZ2gyN26rSA2aUhvaCC0hJgIORJTi5OWKkBT1yNFSadq+f9y6pb/SWIhnFKnQyU0tctr1q4rKlxZ0e8PGYzHVP1h5rjavjQCiGiavTFaKC2XVFTunR/E/Psdx+64i+pHUXXCjjpbmtGysR3ullm+ifQ7v7I8/gTJfpxo9euUcMngFunLhiAwCXDYwFED0zlMa09lDOPSMC5hXMC4M510s51plROtAqnjOrIQY8/4TudYXXzAIlBryXsWQ5W/K2pRFqvhR/n7Cb3+vSOtpvLRgwkf35/y4cM5Hz2a88WBJ0lu5lxYisrSKyC2M2I7p/FRW6UmA8UQylGOr6rVyXyC92ReoE90t3MhQhZ7luORkho+2xpiwJUVrijpD0YMRmOqwVAV9syl1dogWKsBeilpxb0Ug6YtGb2C5S+Rr0oDAZ+WDN2cLL/7LCDFv/vdY2dcJQMOg8OJxS1uXfUDm7Qv37qF7RJOD+D82HFmZNjqw7iESlbSRfOVd8A5Vlg0A6hjxyfF2irYlCOtDrnOQ0z5xuKKfUQ/hZWIRYle46FyGQELDAxsV3BxbHn51Ii3Lm3z1qUtXju7zotbAzb6Ru87aK3Ltg2EKLkgRm6h1Ym7zgh7YqpW6dj1n+DEXx8tx3AVygqFlYtI+Rq6KsEZPCZzoU6H6sRit18Wn+v+55FJOXDe0kXsxZxeXEOssXhGGUhnBnB+DGdGsN1XblRK1M6QQZ8mTgCp28hA6sC0kO/5+NXtpBjs3qaUbSMdkPKTolv2haUcRZDFkgTNGeubxFaVuDiyvHxqyNuXN3jz4javnVMgne5bKrQ0YWpb/AJI2jtFdSKTLaUr9QW6C1xwnMVVr1zjL5aWynF+XYBr5Rq668tgMosVnc6FNQbbgSibCgxLIK0+9M8i4zBYHJK6FuuSByFPSvLa8SiG3H81x6uBrhZMILmk7WjNEhQdrXKfZ3GiVVo8XSvKHieeNv1jdcBWPhX1eFujFfrVchMxKWIye3IW1kvh9ACubpW8eW7Mr1/Z1Jbr2wPO9C0VHl/PaVtP61Hl2lVQVSq6uwdnRT9apZ8FOotF/Cr+uvHpxmIxXsvPn0/Lc668dPg5Ni9kkCznY3nu7oFdfbh/2gNhigQ2klGw0q0I9BJiVjrbmtDMaeoZTTOn8XPq1NDaSKyEpHnax6i7yK8SZyePY0UBX4Aq/ycoK17I8WM3n/8WNTgZY7DW4Ky6DyR1qVPKySoTWHdwaQxvn+/xmy9u8auXN3j7/BpX1kuGBK3pVDdaWABHUfYY9PtUNuHCNBsytUDpkhZP2DE0LSYy70zH0LN8vxijfP+Lie5WX90x3YAsaGlb0p/Wf3TgWXDuJelwrZ5XD9NAv+PSZFWqfBUZ1/m0FmA6oeGSrc3RE0NL9C0+trTR0+IJNhFsrq6/ylF+RhDB8klZPU5WxkqW4UILMC1Rm49KeTSMuly6TWDpc8r35SQytJGzA3h5C757Hr5zfsxb58e8uN1np29wkr+jSyScsVTWUBBwYaaulWdypOOTdvLdKohS1gVBjUkLoCzAsrKR74/uwdIxWp55FTTdznz2DKhjkmIFnN13U8qgCcf125PffRYZDeXIv6kWwGzVRSfLaMV8cbokLaoeRVVhqxIpC6JRc/9KkMYJQDwNoO7COqSvAml5jCrWIaQlV10dWCGDfuWaY1qtb7Pyna6thCWgGRYkT5ECgwQbApdG8MbZIW9f3OC7V07x1qVTXNwc0nOCCw1hesTsYJ84n2GDx+ZS0itIOUZpZTx+mlhQ0vtaTG5+XWwrk97R4rTpxG+k/Ov5ZcVHsHhdfk+PTxlAGrnpCV5rFagFvAtH/mrSbJW08DHmHlL5IjpPaO5/ZsuKsldSVCXWlYg4EvZEfZ8lJ3oWN+pAsyp/n4X2rgRhDF6tvRkTyydUz6fxZUnTfhan6YZ8Ke4wliAOr377rPvNsXHCmsy4PIbXz/b4zqVNvntlh7cun+LK1pCNUihjQ5wdMT/cJ8ynmKD1m57febqbzOcds6TFHeX70/cLFC2PW7ztzqu/k/HQCbUVkK0CSmlx2vx5ikm5UAhEHzKIuk1BlNJPEW3Zc7iwAUWnweXLeNPOiqtcoIvb0U1IRAItEb8iqZ9NzwLPs0DEsZvNdqPlWK5Yk3QLOfgtLCITyZwpX2nmSMs2XJ0HOWmalK8ZSctOCVfWLK+fGfDdi2u8eXbIqzsVF4eWNRsoQqNRBzlOXf1sz75++GkfHf8wz3We+Pxpt7PjMN3bE69f/TMnPzl+cKKbi058PS0hjNGMGGfd8ovPINNJg2QhFZAKIRWG5HJf2w5Ei5taVvczALkTdggt6Zk6g9IqgFbl7rNEX0eSsyCEpYutow5EudK2AimCj2lRO7I7hpzciFHjtNqENCyWoPFUNjaMaTjXT7y6Y/nVC32+c27A22f6vLRZcKqCnkScGJJURAqWYWPPnc0lSI7PYn5dIuLkg7bYSBlfeqZuortXPddzLgDy91b+yghc/s5xXWgJIofLzuPnkYkEogSSCZryLEKUHKKKELJXfUFZObdJO29LiFqFJOSSMV8TrfCTpSV7yaV1E1FOQ5e1IUt1KVfjVaCtTiYKri7GKGb5mDzQsFEGXhjD69vw5umKt872eWWnx4X1HpuDiqqsiFIRpFwCqZvI597+sz48vi/l0I64AM+ztu6n9LsLMD2LjgFnZecJICpIl8dIXjFaa3HOUZYlZam5hF9FRnIKZyQQ8LQEWkIuT6qVYRcX0c1Gtse5BD3RGKaesRjy8vErbu6k/vRVOlSMWhdR1RsBEilqCKyuKJbXJEa0opl1WKchF5Lz6fOlZmAdu3ytZmJK9bEVPeW+yYOf4poJa2HGxUHg9bMD3rq8w9svXeTbV19ge+sUwfbxqfMJ/eyU8n8nxdrysxXOkIPSjoGoA5ee5DhSvoqSnnepEy33L/7O7yXblmzmRIUrKIuSqizoVT9FtBmnqFAgBfwCTJE2FyhdXHM3C937lHAi9KyjMua5QHoWiE7ajGDJavXmc8ftpAH5XUNABZqOjOT0N5u9GJ3U6qwYqVs/xByDkwKBnK1iCnAngBRm0O5T+j0u9QNvnBny9uUt3nrpAq+9+AJbW6cIpr/iXPz56Cvnvxuz7ALSoLPudcmNnuJOz6NjK7ZVwCxVztXP1GJisCYXkC0KqtLRqzTy9HlktHGEyf8sFofLLhOLgkM6ObP6KvmDXOgKcSfCFf7laPF96VZnqqdJjrNecLATl9OJwcWWVSLp3ueti3RYDKCYXBFEW8kjLkdGFtjCMSrh9BBeXIc3dwx/9pzh37jkeGWzYGQKaEqgR2kHlKZQcR8biA2JRusEWzS6tPsdcl2aXC9MomBTwsaghSlSwEWP6Xqs5IdZOakQkkZZhiTEKNq9POri3mBxYrE5/y8ZjUbVxbgQosUHR0gFMfUIVAS1jmmNp6AlnEupGbmanUHi4gZc3jwxUSfIoIWG1XGLo6SgpKTEUWJxIhqP89RMdQjrogUcIhrW8EcFk56jU/S1PI0xFmO0KGeX+LcKpmduuYGxXeR2SHZRa4bK8ipNLjpfgR2oh78Ygi0wAus2cbnn+c7ajH/jXODfecXwF845ThclzHqYOGRQjOnbiiJF7Q4QZrqJVkmh0HqUGK13STC5Cp5gAxQxaY1xWkpaigwok42pKak49nlrk8ZR+ahgStkzYbEU4nBGU9Sj0XI/gYSPgg8WH0p87OFTSaCHp6f5cCHRtnNSmFAyYeymnB02vLgF3zp1bIqeIgMmA6njRo4CR4FF/XCieDk5Y9JxDZPB1BVq+OpV2M9Cx3SmxdaBqduOA+lZ20lAKahy9unKLaSErv7EEqQg2opk+5CLjAkwtIEzZcPL45Y/czrxP7hs+c1zJVfHfWwxZGQq+uIoUc6idbXjMkpAuspxq1eWXVE5O8R0Jcpzc57VkBnRgVnh0rotlOSYw2FjQmLuTM5yMFTMawq5lmV2+CT4XLDCY1DzaoDUUEnD2NWcqhouDQPf2oBXNk5M1AmSqOmgv7S0XLmo3nFS+Sfrfd77RY3ttm1596Hj9+72+NE9uLv7iHuPdzkKLbWB2qjUWtgsFiO8AiCMFpzvqiD6muDnpNhiiwJXlPQGIwbjMb3hSHU4azur2kLfMYjWJ28bog84azM30vTuZARN3nJZHFpi0vI5QVgUsbeppp9mDNKMCyPHC+s9XtgccHVng6s7hl4B//ZbVxdjcpL+FEg/A5C6z2KMtG1L27Y8qPvcqguuPYbfe/dL/um7H7IbLO1ok6Y3plU+Au1ck0fbOstZQ+FKeq7CmZLWa2uWuu1KSgcts1g4BoMB47Uhw+EAZzSQTVuSKZxUfUq0Tct83tA27cJH51ypAXJdAVjjCCK0CdqUaJP6S0kKooqabevZtoGX1nq8ujnm1c0RL2z0uLoOPQevfvtPgfSV9LMAqaPOkRlCYBIKDoPl/hF879N7fP+TW3x+ELjTOh60jmkW98RWwRQbsGjBCzG4HMDTRgVSq62+lVsVFgrLcNBnbW3IaFBpqSajDui0MAGo4Gt9pGkCPiSMcRibW7ladWB3Mdyd5ZoYtYKJBAYFjCtYr+B0BadLuDQsuDqquDwoOdOznOmpBnP1zT8F0lfSzwOkVc4Us39v0kQ+3/N8vuf54c0Dfv+LXd67d8QhJZGcE5fVIkukNFo0g+jVSZpdOiHleOUc7mucZTTssT7uM+yXquFIJMWg7TgSixWz6j2GKA5X9ilKSwPMYkMTGmwM2BCx3mN9SxE941JT3U+v9Ti/NeDMep+zAzgzhFMFbFvYNDBMgV7ykBJXf+3bJ4dkQX8KpJ8DSMcoNtoZKQUOGfMExz/7dMJ/8+Mv+b1PH7DrHY9bLRFNUeGcw6IrsRhqfDMntDV0RkYpQXL1lcJSOMtoWDEe9Rn2CrXPp0BMiRCiLvmtFqtPplCXjS0pe4aiB7MAh03LvD2iioEqRPrB0/ctYyI7PcdO33Jpe8yVM2Mu7cDpkYZTj4FeAheA+RzqKcTI1d/4MydHYUG/9EBiBUQdqE4C6ZmgSo2GI6dATY9J6vHJgynv3tjjJ7cO+OThlI8fTDmIBY3p05iKENXAq5WBGyTWuet4nRViNQ9Yq2UDe70eg+GQXl8NpmKy41lyLfNs7/JRaH0iRNFCqw7a0FD7x5Am7PR67PT7nCoLTheOU6VjuzLslMLOyHBqDFtDjcEfV9pqtUwgSUs9kmtkXX37106OwoL+FEiZnmWRXwXU02Bqc9P2lpRrEj2Zw4MJ3Hjc8C8+vss///ged2aWJ4zZp8+8yxkg5Mp2NcYfYfwRNoFDM2KTaHGwotenHIwp+kNNlXfaL1hcpe3NjAEDTQvzeaSu/YpJYI8UHtEzE67ubHN1e4cXN9a4ug6XR7BdwLaDkYWBhZ7NawEBKy1C7oKeUnfRXH3lq7NIfumA1Imvk7TKkVY5U0dPAyqQ0LI+Km4SdbDMg+PxJPGHN57w3vUnfLLb8vle5OZR4iBY5qFLIAi5eHtNQY2LniJ4bEoqqmyB7Y0pRmvY/phoS6KrNDbMOMTabhFIbCOhnhPbBpfBMHJz1ooZ273Aha0NLmxucGHNcWGketC6gzUHlQEni0I8SPKYpJalpQ9GAOHqK28sxuMk/VIB6VkcZ5VOAmn1+FUgiUiuFBW1hV9stcZmUht6HSx3DiO3DyI/vv6E7197wLu393kSS56EAq+mUJ2fUiicoQxzXDPB+gaKPsn1sIN17GgLM1jT1lxSqKszaSfxUgKlRIpYU/g5VWrpO2Hg4OK45OpGycW1io1BxcYQ1nsqukYVVE6X9DkGIq8HtF6eJWJDxISkK89kCCHwrTdeX4zHSfqlAdJJcDzNYZ4+rttWj+lcQD6n8nmi+tbaBieGwjjElMySYQr88LMZv/vul3z/03vcayz3GstBMNRJdJJ6FVL1KP2UYr6P8zMo1UVjR5u48TYyWKNOKki1+FzCxJahtAykZSw1Y6lZsy0bPcNmZXhpa43XT23y4qZmQFeFliF3XYvhRcOBhDpQYramq7ZmY8J5EBwky527d/mtf/3PLwfqBP1SAWlVfLHCXZ4HppPUHa9tW7WJq3pUc7RCdgur6wFu7wY+v7fHtbt7fHxvj4/u7nNvnnjUOvZCkZtLl6qA+ykmtZhqgFRDiuEG5XgTNxgRchSDiREba3q0bJWe7cJzqgqcrjynepGdoePUoODMcMDZ4YjtvrbWc1ZFWJcboWausOCsuUwrsYsWiIKJQkmBE8N//Y/+a/7aX/9rJ4djQb+0QOo4zfOczM8CEhlMIYW85cY0osXWF70MUVXIJ+228fiw5V988Dm//8HnfLYXuFVX3KkrjpocQZCCKvA2QjWAaoAM1+mvbVAOBnrCFCmp6ac5Y9NwfhA5P4hcHiUujeHy2HBureT8uGTgKgpTkeNAT1BuU5/9M0nAk7qlg5oWkkGSoTAFhcDf/g//Q/7f//AfnjzRguTWrVvp/PnzJ/f/iaOvEllfxZU6Ogmm7jgtC6OlAoNYtJYb2QmcdQ6tJYYIzOrIT768x/tf3uOTh3M+eRz5bC9xa2o4muYmJCYHBRUlFCXVYMhoPGYw7FM5oedgXCY2isBWlbgwhHNDOD+InBtEzvYTOwPLRj+3OUsFEYdJKyGQMS0dyZ0zOcfcdB2/1cguRNQC/+DOHf6Hv/Vbx8bhJFkReecv/aW/dHL/nzjqALAEwtOrt5N/d/ueBTZB61maRdqUCgWTe+kusn0loklQgaIs2FofU5QVMaK+sRipvScZMM5incOZhMMzdJF1F9gsPKcqz/lB5Oq68PJOyWune7x2qserp/pc2Sg5NzRs94RxIUhuWV9LZGYCEBTmuRjXIm0ryUouo8FicqMfDU+OuarJP/h7f59PPvjg2LicJHvnzp13Njc3+e53v9pG8CeFOjCsirhj4HgGkH4aSVLlN4SAkc6XJrrykYAVXUpbSQwGA7bWBxjbp/WB2HpKSZQpMCgt/aqiKktGBYxcZLvSegtnB5oVfGVNeGnL8cpOxaunSq5uGq5sCKf7ho3KUjmNKCXphc1NopaQq9vqlgObWEQhSA4FEs0aMrmNRRdh+l/85/9P/u//2f/55G0/RXLlypUE8M477/BX/+pfPfn5n0h6VvaoPENfWhWHq8eJiOaCdXFAKS+bu5gQk/JsJkDz6QKOFkcLPDyEO49q7j2e8OjJEY/2JuzWhoe+4jA4ShMpTWBz4NgZF2yPCjb7wmbfsDlwbA4LNvqOQWkZFHkJnyWVZEnlibTSEnKx5CIJNuZkh1WkdMYok5Mn9I5JKfL/+n/85/z9v/f3F/f+PFoACeC3f/u3+Zt/82/yJ11nWgVSB5IuaI4T4u+rABeCeu1TTFTGY6xmoSB1NgzkyTI9WjOgoaLJOkjMVad9A5O9wHR/j9sT+HJW8qh1DIrEoIicGjrOrDlODS1jFxgXgZ5NVDZRWMlRpCo4u1UieguYvDAzNFp5hBx8ktUknxJtLjNoTK7Lnb/38M5t/k//x/+Uf/hf/peL+/5pdAxIHf32b/82f/Ev/kXefvttzpw5g7XP1v3//5WeBaRVjtQBadVtchJwPgMphkTfZiBJDczVD9eZ+UyfxoxoKMnNw5DcpkcSzPdhtnfArQl8Pi253ziGRWJUJk6NLGfHllNDGLnEyHqNHuharOZQlYijThrtSM5IzwHQOHKMUgZSzMp0m6ICyRpSEHbvP+CDd9/ld//b//a5q7Ovov8v5f4MeT3dD84AAAAASUVORK5CYII=;" vertex="1" parent="RF7QKK640K8U4cVMku1n-14">
          <mxGeometry x="41.30000000000001" y="20" width="32.44" height="30" as="geometry" />
        </mxCell>
        <mxCell id="RF7QKK640K8U4cVMku1n-17" value="" style="shape=image;verticalLabelPosition=bottom;labelBackgroundColor=default;verticalAlign=top;aspect=fixed;imageAspect=0;image=data:image/png,iVBORw0KGgoAAAANSUhEUgAAAYAAAAFzCAYAAAA3wd4IAAAAAXNSR0IArs4c6QAAAARnQU1BAACxjwv8YQUAAAAJcEhZcwAADsMAAA7DAcdvqGQAAEPoSURBVHhe7d33dlRXui3wuXYuJRBJCAEiZ0w2mJwMNgab7tP3ec59kfsG3e1sg8kgghBRQiIJkADlnKpq5/vH2lsq1NgNQqCSav7G0Rhuj0bug0XNvfb65loiCIIQRESUc5TRf4OIiHIDA4CIKEcxAIiIchQDgIgoRzEAiIhyFAOAiChHMQCIiHIUA4CIKEcxAIiIchQDgIgoRzEAiIhyFAOAiChHMQCIiHIUA4CIKEcxAIiIchQDgIgoRzEAiIhylBjrjWC+D7hOiDAEFAVQVUBVBQQjhYhoUhhzAKSSIXq6fHhOCCtPwMpTkMgT0HUx+r9KRERZaMwB0N8XoLnRQ3+Pj8ATSOQJzChRUVQsYFoCuiGgKAKCeUBElJXGHAC93T5ePHHxvM7D81ofALBkrYryFSrmlSuYPlOFaapQVSYAEVE2GvMb+yAAXAfo6w7w4qGLh7cdPLzn4tF9B/V1Ll49c9HZ5mNoIIDnjSljiIjoIxpzAAgAQgFUHTALBHyEaH/to/a2h8u/Obj0m4OaWw5eN3pIDTEAiIiyzZgDAFEIKCqg6UAY7Qu0vvTxrNbD47seHt118eSBixdPXbS88tDXEyCdCuHLN0ZERDSBPigAMgkBKKqAqgmoqkByKMCLhx5uX3Jw4ac0Kk6nUV/noKfTh2NzRUBENNHGLQAgZB9AUQGhAo4DdLb5aHzi4dE9B7V3HDy6J/cHXj+X+wPJQbk/EDIPiIg+ufELgAwiCgPNEFB1IPCBrrYA1ZUerpyycen3FG5dTaP5lY/kUMhNYiKiCfBRAgDxBrEmVwRBCCQHQjQ3enhW6+LRPQ8P77h4Uu2g4bGLttc++noCODZXA0REn8pHC4BMcn8AMEwBRQVSQyFeP/Nx/YyNCz+mUXkxjSe1Dvp6fPh+gJApQET00X2SAEDGyKhQAMcJ0dMZ4MUjDw/vOqi75w7vD7x65qGrPWB/gIjoI/tkAZBJCPl6yEgIBCHQ2eyj9paLs9+n8ce/U7h3w0YT+wNERB/VhAQAohWBZsj+wEBfgJZGH4/vuait8vDwrountS4a6z20Nfno7w1gp0ME7A8QEY2bCQuAmBDyGGnNEDAsATsdoOGhh1uXHJz/KYUrp1Kor3PQ3eHDZn+AiGjcTHgAQIxMDKk64PlAZ7uPhsdyf+BBdMbQ80cumho9dHeMjI5yr5iIaOwmPgAyvK0/0N0WoOaGiyunbVScTuHOdRutr+T+gM9NYiKiMcuqAMBb+gNDAyGaGjzU17iou+OO7A8889DW7KOvN4CdDuD7XBEQEb2PrAuATMP9AUsAAhjsC9DwyMP1szYu/pzCzYtpPK620dXhwrZ9jPFqAyKinJTVAYDM/oAA0qkQXW0+nte5eHjHRe09F4+qo/OFXrjo7vAxFJ0vREREfy3rAyCWOS2kmwKeF6KzycfDOx4u/+7g0q8OqqscNLM/QET0TiZNAMTTQooqVwRBAPT3yP7A02oPdbdlf+BJ3B947aO/j/0BIqI/M3kCYBTZJhbQdAFNE0gNyf5A1QUHZ/6dwoVfk3j6wEF3J/sDRERvM2kDIHNFoGiA6wIdrT5ePHJRe8tBTZWLh3cdvHjkojnqD6TYHyAiGjZ5AyBDZn9AMwSEAvR1BXhQ5aHitI0rf8j+QMtr9geIiGJTIgCQ0R9QNbk6SA2FaHrh4Um1i7rbLuruunj6wMXLZx7aW9gfICKaMgGQKbM/IBQgORji1RMP1/6wcf6HFCovpPGkhv0BIsptUzIAkNkfUAA7HaKrPcCzWrk/UHvXxaP7Dp4/lvsDPZ3yfCHfG/1diIimrikbAJmEkBvFmfcPPLzr4crvDi7/ZqO6ykFTg4vkUDD6lxIRTVk5EQBAvEks7x/o7wnQ0uDjyT1v5P6BOhevXnjoaPExwP4AEeWAnAmAWNwfUHUBVRNIDgV4Ed8/8GMKV07L+wd6On047A8Q0RSWcwGQ2R8QKuDYQEeLjxcPPdTedlBT5eDxfRcvnrhofiX3B1JJOTrKaSEimkpyLwAyxNNCb9w/0B6gpspFxSkbl39P4dZVGy0vvWiTmAlARFNHTgcA3nL/wGBfiNfPZX+g9paL2tvy/oFXzz10tMr9AdfhaoCIJr+cD4BMmSsCKFGZ7JmHG2dsnP9R9gee1jro6/Hh+wFCpgARTWIMgFHiFYEQgG3L/sDTBy4e3HTw4I6Lh/cdvHjsouWlj96uQO4PcFqIiCYhBsBfGOkPyNdDnc0+aqtcnPlXGn/8M4n7lTaaX7pIsT9ARJMQA+C/iA+Zi/sDTc9lCNy/7qL2jov6hy5eN3jojPYHHDtEwDwgokmAAfCuBKBo8rRRIyFfD8X3D5yL+gPPHrroZn+AiCYJBsA7io+cVnVAMwU8D2hv8fGs1sODKgfVN+X5Qg1PXLS+8tDbHSCdlOcLca+YiLIRA2AMBN7SH2jzUV3pyvOFTqdx52oaLa88JIcC9geIKCsxAMYiahNn9gcG+kO8qvfw+J6DB1UOau+4ePbIRVOjh842HwP97A8QUXZhAIwDAUBVAd2S/YHBvgAvn3i4dsbGhZ9SuHkp6g/0+ryAhoiyBgNgPEQrAk2XewXpZIiOFh/1NS4eVLmouS33BxqfuGh77aGvOzpfiP0BIppADIDxFk8L6QK6KeB5ITqbfNTd9nDuJxtnf0zhXqWNpgaP/QEimlAMgHEWTwspmpwYCgKgrzvA6+ceaqsc3L/mou6Oi/pHsj/Q1eZjsJ/9ASL69BgAH1u8IohWBalk1B+4aOPsDylc/j2F+jr2B4jo02MAfGSZKwJFAxw7RFuTj2cPPNRUOrh3I9ofeOqi9bWHvu4A6RT7A0T08TEAPqHh/oAp+wNhCPR0+qi5GfUHfk/h1tV0dP8A+wNE9HExAD6ljP6Aqsn7iQf7Qrx86uHhXQc1N108uC3PF2pq9NDVHmTsD3B8lIjGFwNgAgnIINAtAUWN7h+o93DtDxvnvk+h8mIKjx/Y6Op0Yds+goAJQETjhwEwkTL7A4o8YK6zLcDT+y5qKh3U3IrPF3Lk/kAP+wNENH4YAFkk3iPIvH/g0V0PV353cfk3GzVVDpob2R8govHBAMgm8ZWUprx/oK87wOtnPh7edlFzwxvuDzQ3euju8DE0EMBx2B8gorFhAGSrqD+g6gKKJpAcCvHioYdbFx2c+0neP1D/0EVPB/sDRDQ2DIAsNdwfUOWXnQ7R9tpH/QMX1VF/4PF9B431HtqbPfT1RP0Bn/0BIno3DIBJ4I3+gCaPlxi+f+CUjUu/pXC7Irp/YJD9ASJ6NwyAySDz/oEoAAZ6QzQ+8VB320F1pewPPHvoouWlh+6OAEMDATyX3QEi+nMMgElIQAaBbgooCpBKhnj9LOoP/JBC5cU0nta56O8LEIZ8JUREb8cAmIyi/QHNAES0P9DZGuDxPRf3rju4X+mgvs5BX3cAz+MqgIjejgEwBcR7BGYC8D2g5bmPl48D9HWNHCNBRDQaA2AqyOgP+AHQ1Rago8nHUL/cB2BPgIjehgEwxYgoDBQtWhoQEf0JBsBUI+S+gKIKCAYAEf0FBgARUY5iABDCEPC9EOmU/OJpo0Tjy/dDpFIeUikPnifHs7MBAyDHhaH84RwcDPC6QV5Ew9NGicbX0JCLxsYBNDT0Y3DQhe9nx3g2AyDHhaEcEx3sC9D41MOzhy5aX/vo6w6QSoayTcw8IHovQRDCcQIMDrro6krj1ashPHrUg/r6PvT1OdENfxOfAAyAnCcghMBAb4hHt11c/122ia+eTeHFExd9PfLIaSJ6d7bto7MziYcPe3Dq1Ev88EMDzpxpwf37vejrc0f/1ycMAyDHCSG/0kMhXtcHqLvl4u41edpo/QMHTQ0eutp9DPTFpTIeLUE0WvwqNZ320ddno7U1iefPB1Bd3YmrV9tQUdGCO3e60dAwiKEhb/QvnzAMAAIQXU1pAEIDPDdEZ5OPO1ddXPw1jcu/p3Dvho22Jg/pZIDAZwIQZfK8AENDLl6+HMSVKy349ddG/PbbK1y/3oGWliRcN4CuA4ahQFGyZz6bAUBAtBJQdUBRQ/h+iN7uAM8euKi+4eDedQc1txy8eOyirclHb3eA1FAIj8dOUw4LQ8B14/f8qeH3/FVV7bh2rQ2Vle2oq+tDd7d856+qgK5nVz+HAUD/Yfi0UUsAAhjoC9HwyMOVUzbOfp/EzUtp1D9yMNgX8JUQ5aT4lU9PTxoPHnTh/Pkm/PvfDTh1qglPnvRjYMCFogCWJaDrAoqSXR/8MQYA/afM00YFkBoM0PbKR+1NB3cqHNRUuXj6wMXr6G7iwYGR/QGiqUy+5/fQ32+jrS2JFy8GcP9+Jyor21FR0YLbt7vQ1JRCMulDCAHDUKBp8th2BgBNPkIeK6EZAmaeQBAA7a981Nx0cfb7NM5+n0TtbQetr+X+ANFUlkzKef7r19vwr3+9wL/+1YBbt7rQ3JxCGIZIJAQMQ0BVs/MDfzQGAP2l+HA5VZevhIIQ6O708eKhi7sVNm5ddlB7x8GLpx7amn309bA/QFNHEIRwXbnB292dxuvXQ3j8uAe3bnXg4sVmVFS04fHjfnR12QAAy4qf+LPzlc9oDAB6P9GKQNXlV3IoRP0DD5XnbZz/KYVrZ9N48ZT9AZoa3pznf4Uff2zExYutePSoD+m0D8uaXE/8ozEA6L0Mrwg0+WWnQjS/8PDojuwP3L3uyP5AvD/Qz/4ATR7x5q5t++jrc9DWFs/zd+Hq1VZUVLTg7t0uvHw5BNf1h9/xq5P09F0GAI1ZfBOZZggomf2BKy4u/ZJGxek0qm/aaG9mf4Amh8x5/oqKFvz660v89ttr3LjRgfb2FIIghKbJp/5smucfKwYAjZ2QBTLZHwB8H+jtCvC0xsX9aDVQc9tBw1MP7S0Z+wO8p5iySBiOfPB3d6fR1DQyz3/1aitu3GhDbW0fenrieX4BTZucT/yjMQBo3MT9ASMhf7IGegI0PPRx9YyNCz+lUHXFRv0jB/29ftachki5bWSe38aDB124cKEJP/7YiLNnm/H06Zvz/FPhiX80BgCNn2h/QDcFhAIMDQRoafTwoFL2B6pvOnhaI/cHejrZH6CJE5/b09/voKMjFc3zd6Gysg1XrrSgqqoTr18nh+f5ZZlr9HeZ/Kbg/0uUFeJpIUNANwVcN0TbSx81VS4u/CRXBHV3HLRG5wsRfUpynr8flZVynv/77+U8f1NTCr4fDjd4J+t0z7tiANBH8ca0kA54HtDd4aPhoTfSH7jroOGJh/ZmH329AdLcH6CPZGSe30NPz5vz/JcuNePKlTY8ftyHzk4bQRBmNHinxrv+P8MAoI9ORKeNKqqAqgkomsDQYIj6Gg83zts480MKV06l8PyJi/6eAC77AzTO4nn+urpu/PLLS/zrXy9w4UIrHj7sRSrlwTRz44l/NAYAfXzRnQOKKjeJFRVIJ0O8fu6h7paLW5ds3K4Y2R/o7vAxNCCDgP0BGovMef7+fgft7Sk0NAzi/v1OXLrUjEuXmnH7dhcaG4dg2z50XU72TNZ5/rFiANAnF/cHdENA1eUf1p52H3evZvYHHLQ1++wP0Jj85zx/I3799RUqKzvR3W1DUeQs/1SZ5x8rBgB9ehn9AVUDQgD93SGe1ri4d9XBnWsOam7baHzqoqNV3kaWToXwuT9AfyGe508mPfT22mhuTuLx415UVbWjoqIV16+3oa6uD/39LoQANG3qzPOPFQOAJtzb+gMvHvqoOG3j/I+yP/DssYP+PvYH6O1Gz/OfO/ca//53A06fbsLjxyPz/KaZ20/8ozEAaOK9pT/Q3OCh+oaDW5dlf6D+gYPmVx76un0MDcqD5tgfoCCQ7/kHBhx0daXQ2Cjf89+40YZLl5px8+ab8/zylc/o75K7+FtB2SW+f0AXMCwBzwvR0uDj/k0PF36ycfGXNOru8v4BkoaG5Pn8lZVt+P77Bvz4YyNu35685/N/agwAyipv3D9gyvOFOtt8PH/g4u5VB7euOKi76+BlvYfOtgADfQHsNPcHckUYhvC8AKmUh74+By0tKTx+3IPbt+X5/FeutODRIznPj0l4Pv+nxgCgrCYUQNXk3QNCAIN9AZ5We7hx3sH5n5O4di6NF0/k/QPsD0x9cp4/hbq6Hpw69RI//tiAS5daUVfXh6Ehb3hjl0/874YBQFlNiJG7B4QCJAdDvHrmoe6W3B+4c9XB01oHzS/l+UJDg+wPTCVhKN/zO46PgQEXHR0pNDQMoKamE1eutODSpWbcutWJhoZBpNOZAcAn/nfBAKBJI7M/MHz/QHPUH/g1jSun0rh/w0Zbs4d0iv2BqcDzAgwOynn+q1czz+fvRHt7GkEQQtc5zz9WDACaPN5y/0BPZ4An96P9gQob1bccND710NnqY6A/6g9wdHRSief55Xt+O3rP34vKyjZcvtyCq1dbUVPTi+5ueW7PVDqf/1NjANCkFa8IDEsAAhjsDdHw0MOVUzbOfZ/CzUvx/QMBQ2CS+M95/ib8858v8Pvvcp5/cDBznn/0r6b3xd9CmryiiSHNkHsFycEAzY0+qq/ZuHnRxv0bDuofuGh+6aKv20cyY3+AskvmPH93dxovX8p5/mvXWnHhQjOuX+/Aq1dJDA1lzvPzkf9DMQBoaoj6A7oBmHkCQQC0v/ZRfdPFuR9snPshhdo7DlqbfKRTXApkm3ie/+bN9uh8fjnP39KSghAh8vMVzvN/BAwAmhJG+gMCuiUQhEBXu49nD1xUXbBRed5B7R0HL+tddLX5GOxnf2AixfP86bSc529tTeHJk17cutWO8+ebcPFiC+rq5Dy/EEBenhLdysV3/eOJAUBTU0ajWDcEUskQ9Q/i/kCK/YEJljnPf/r0q2ieX37o5/L5/J8aA4CmpMxGsWoAdlr2Bx5UOai6ZOP2VQf1dS5aXnvo6w6QGgrhuewPfCwj8/xyrLOzU77nr6npwpUrzbh4sRlVVXKeP5fP5//UGAA05WX2B1QV8Fygs8nH3asOLv+aRsXpFO7ftOX9A+wPfBS+L8/nf/VqIJrnl+fz37jRgba2kXl+XRcQ/MT/ZBgANPVl9ge0aMywM8Djey7uVDi4dVXeP/DymYvudh+DA6HcH+Do6AeJRzrjeX75nr8PN27Ief6KilZUV785zy/f84/+TvSx8Leacs4b/QEA/d0BXtT5uHraxvmfUqi6nGZ/4AONzPOn8eBBF86fb8KPPzbizJkmPH06kHE+P/iBP4H4W0+5J6M/AAEM9QdoeuHh/nUHVZcc3K+U/YHWJg8DvT5SyQButD9Afy0+t2doyEVvr41Xr4ZQXd2FGzfacOFCUzTPP5Qxz69wnn8CMQAot8XTQoaAbgq4boi2lz6qq1yc+z6Ncz+mUHvbQetr9gfeReb5/HKevwG3bnXh9eskfD+EZXG6J5swACinDU8LaXJF4Hvy/oFnNS5uXoz6A3cdvHzmoqvdx9BAAMcO4fucFsIb8/w++vsdtLXJef6qqnacPfsa58+3oLa2Fx0d8j2/afJ8/mzCACDKFK0I1GgMMTkUor7Gw41zDs5+n8SV02k8f+yiv8dnfyBjnr+2thu//tqIf/3rBS5ebMHDh3Ke3zB4I1c2YwAQZchcEag6kE6GeFnvoeaGgxvnbNy8bONprYOWJg/9PQFSSdkfCAMAOZAH8Ty/6wYYGvKGz+2pru7E+fPNOHv2NSorO/HihZznNwzO82czBgDRn4inhTRDQNXlh19PW4B711xc+jmNy7+ncO+G7A+kUnJiaKqL5/lfvhxARUULfv75JX755RWuX+9EV5cNIeQ7fs7zTw4MAKI/E/UHNF2uBkIAfd2yP3D7ioOqKzaqq2R/oKfDx+BgOCX3B+KRzsz3/E+fynn+S5eacelSK6qre9Db60BRMBwAHO/MfvxXRPSO3ugPxPcPPPJQccrG2R9G+gMDvT6CYGr0B+JXPpnz/N9/34jTp5vw9Kk8n1/TAMuS7/lpcmEAEL2rUfcPDA0EaHru4+5lGzfO2rh3zcHTuD/QJ/sDw/sDk0z8nj+ZlPP8TU1JVFfL8/nPnm3C1avtaGyU8/yqKmBZClSVr3wmGwYA0VjE/QETMPIF/ABofeWjpsrFxV/SuPhLGg9uy8vqU8nJlwBDQy4aGvpx82Y7fvihAT/8IM/nb2pKIgwDJBI8n38qYAAQjUE8LaTpAoYlL6DpbPVRX+2i6pKDGxfk/QONzzx0d8rTRl0nRJCl+wPxe37b9jE46KKjI4X6enk+/9mzTbhwoWl4nh8AEgmezz8VfFAAyPeDQBh/ZeEPNtGnIBRA1WR/QAhgqC/Aswceqi46uPBzClfPpvDisYu+LO0P2LaHzs4kamu78csvjfjnPxtw4UIr6up6MTTkQtPicU4+8U8lYw8AIQ9xUhT5AxH/TDAEKBcJEXUHNBkGycEQL596qLnpoPKCjVsVDuofumht9tDfGyCdCuFN4G1kmfP8yaSHnp6Rc3vOn2/CmTPyqOZnzwaRSnkZAcAn/qlkzAGgGwLFs1TMmquioFiRy2Af8Bwg8HOjFEP0NsP9AVM+MfuevH/gztWR/sDd6zbamuRGse99+j8smefzV1SMnM9fWdnBef4cMuYAMAyB4pkK5sxVMbNEwbSZihwFU+QfgDAc+SLKKRn9AUUDPC9Ed0eAR3cc3Lrk4OYl2R949dxFb1eAoXh/4BPsFcfv+QcG4vf8/dFJnc24fLkF1dW96OvjPH+uGPO/WlUTSOQpmL9Yw67DFg6dTOCLIyZWbtRROF2Rm0qufPrhioByWbwi0E0BKMBgX9Qf+N3G2e+TUX/AxUBf8NGupIw3eUfm+V/j3/9uxKlTcp6f5/PnpjH/q1ZVwMoTKCnTsGmniV1HLGzbZ2LVRh2z5qlI5Avo0bw0MlYEDALKOdHEkG7KPw/JqD9w57KNG2ds3L3moL7WQXuzh8GBAHY643yhD5T5nr+vzxme5796tRVnzjShoqINDQ08nz9XjTkARjNNgTmlKlZtMLDvawsHT1jY8IWBBUtVmKaAa4fw3alXkyd6L5n9gTzZH2h/7aP6pouzP6Rw7vskaqpsNL8an/5AMukNn8//z3++wL//Lc/nb2pKcZ6fxjEALIGZc1QsW6Njx0ETu45a2LDDQPlyDUXFCnQjmhmGXAVwNUC56I3+QEIgCGV/4Ol9F9fP2Lj6h42aWzZePvPQ2xUgHZ02+q6vhuJXPY7jI5n00Nkp5/mrqtpx+vQr/PFHE6qre9HRkQY4z5/zxi0AMgkhkF+oYNFyHZt3mjjwrYU9X5tYtl5D8SwFCAAnKVcDDAHKaZn3D+gCqaEQz+t8VF10cP7nFK6dS6Ox3sNAvw/P/e9/WOJ5/rq6Hpw69RI//NCAixdb8fBhL9JpD5bF8/lpxLgHgIj6AfkFCsrKNazdbOCLQxa2H7SwYr2G2WUKEvlyWkgR8g8Ap4UoV8UrguH7B1KyP1B9w8GN8zZuV9h4+dzFQI+8l/i/sW0f7e0pPHzYjUuXmnH2bBNu3GjH8+eDcBwfpimf+DnPT/gYATCaogqYltwfWLvZxM7DFvafsLD1gInSchWmJRB4gJsGAo8rAspdAoCI+gOKCtipEH3dAVpf+Whv8eGk//sfjmTSw8uXg2hoGER3twPHCaCqnOent/v4AaAAhilLYyvXG9i6x8LOIxa27DFQtlRFYbFckmY2ibk/QDkpWj1ruuwROHaIgb4AHW0BOjt82PZ//0ORTntoaRlCc/Mg+vsduG4AVZUz/RzvpNE++Y+EpgOFRQoWLtWxY5+FfccS2PGliVVbdBRl9Ac8T54vRJSrFCG/RPSq6F0IIV/vxK943vXXUW769AGgyQ3i0gUaNmw38cUhC9v2m1i9UcfMUgVWQsjzVNgmplwW7Y/FH/4i47yt/0ZRZABwsof+m08eAKOZpkBJqYrVGw0cOJ7A4ZMWNu0yMH+JCl0D7GQIzwnhewwCIqLxNPEBEPUHlq/VsfOwhT1fJ7Bxh4GFy1QUFCpQ46cgZPQHiIjog014AIyWl6+gfLmOLbssHPybhb3HLSzfoKN4lgIBTgsREY2XrAuARL5AWbmGdVsN7D6awM4jFlas0zCrTIGVJ+SmWLwk4LQQEdGYZV0AxOL+wOy5KtZtMbHrkIX9xy1s3W9gbtwfCACX9w8QEY1J9gZA1B+YMVvFys8MbN070h+Yv0RF4fSoPxBNOYTR1BCDgIjo3WRtAIym6UBBkYIFS3Rs32dh77EEth8ysGqTjukzFAghVwKeJ+8pZhAQEf21yRMAmkBBoYJ5CzVs3GFi5yEL2/ZZsj8wT0UiTx5whRBAdHIiJ4aIiP7cpAmA0UxLoGSevH9g71EL+76J7h9YpsKwRu4fCNgfICJ6q0kdAPH9A9sPyBvJNkT9gcKiqAoPgRAh+wNERG8xaQMgk6LI10Ply3Rs3mlh/4kEdn9tYul6DcUzFSAEnJRsE3NvgIhImvQBMHz/QKGCBYs1rN9qYPdRCzsPy/sHZs6TV1IiAET04c/9ASKiKRAAow33B0qj/kB0/8C2AyZmz1ehagK+y0YxEdHUC4CM/sCqzwx8vtfC7q8sbN5tYF65irx8eS56mDEpxNUAEeWiKRcAo8X9gYXLdHxx0MKBby3sPGJi9RYdRcXR/QMe4LnsDxBRbsmBABAoKFIwf5GGrXtM7Pk6ge2HLKzepKF4jgLDkOcLsT9ARLlmygfAaJY1cv/AweMJHDppYeMuAwuWRv0Bh/0BIsoNORcApiUwq0TFinVyWmjfNwlsjApkBQUCCkTUG5D9Ab4SIqKpKucCYLS8AgWLlunYstPC/m8t7D5mYtlnOopnqRAAHJvTQkQ0NTEA8gXmL9awfpuBPV8lsPNLC8vXaZg5T4ER9QeGcUVARFNIzgdAbPT9AzsPyvOF4vsHjISA73FFQERTBwMgEvcHZs5RsXqDge37Lez5Wt4/MG+RiryCqD/gsz9ARFMDA+BPDPcHlurYsd/E/m8sfPGliVWb/7M/EGa+JiIimiQYAH8i7g+UlWvYvNPCriMj/YHpsxXouryWOD5plKsBIppsGADv6M3+gIVD3yWwaZeBssUqNA1wkiFcm/0BIpo8GADvKO4PrFwvp4X2n4j6A0tVJBJCfvAH7A8Q0eTBABijvHyB8mUatuwycfBkAvtOmFg+uj/gMwiIKHsxAMYor0BeUL9hu4n9xxPY/XUCK9ZrmFGqQDcEwswPf4YAEWUhBsAHyuwPrM3oD2zbb2DuQhVmQiAIAJcrAiLKMgyAD5TZH1iz0cCOAxb2HrOwZa/sDyQKBNRR9w8wBIgoGzAAxlncH1iwRMf2/Sb2HbOw/bCJlZt0FE2X/QGP9w8QURZgAIyzzPsHtuyysPtoAp8fMLFqg4bpMxWoatQd8MPhVQFDgIgmAgPgI5P9AQ2rNxrYd8zCwW+j+weWaTBNAc8J4fH+ASKaAAyAjyzeIF653sDuryzsO57Axi90LFgq7ycOA7k/EATsDxDRp8UA+IQURb4eWrRMx+adprx/4GsLy9brKJ6lACHgpEL4PG2UiD4BBsAnIoScGCoolAfMbdhuYt+xBHZ9Je8fKC5RoSqjDpdjCBDRR8QAmCCKImCaAnPmqli71cSuwyYOfGvh84MmSsvl/cS+Bzhp9geI6ONgAEwQRQUMS/YH1m40sONgAnuPJ7B1X9QfyBcQgLygPrqDgCFAROOJAZAl9Pj+gSUatu8zsfeYhR2HTazabAzfP8D+ABGNJwZAltB0gcIiBfMX69i6x8LerxPY8aWJNZtkf0CJ2sQB+wNENE4YAFlquD+wycCB4xYOn0xg024DC5ayP0BE44MBkKXi/sCqzwzs+yaBg98lsCnqDyQSAoEvN4eH+wNERO+JATBJyPsH3t4fEOC0EBG9PwbAJJFXIPsDG3fE9w/I/sD0EhWqKuC7obyDAAwBIno3DIBJRlEEDFNgdomKdVsN7DpkYt9xE9v2m5hbrsK05ErATYdyWoiI6E8wACYZRR25n3jtJhNfHEpg3zeyP1BarsLKE0AABA5GVgRERG/BAJjk4v7Agqg/sP8bC7uOmVizXcO0WfzXS0R/jp8Qk5ymCxROU7BgsY5tey3sO56H3ccsrP3cQNEMuUEsRv8iIiIGwNRjJQTmlqkoK9dQPFOBmVCgqIwAIvpPDIApRgaAhnkLNUwrVmElhLyFjIhoFAYAEVGOYgAQEeUoBgABkAfNeTbgO2wUE423MARcF/C8MKvO7mIAEBAFgO8AniMQ+oKnjRKNoyCQH/4yALLnDxYDgKAoAvnTFCxcrWDhShVmAiOnjcaX0RDROwtDwPdDuG4I2w5gWSpWrCjEypVFmDbNgKoKCDHx03kMgBwX31VcOF2gfI2G+StVmAkBzwF8DwiybMlKNBmEYQjPA1w3hOMAiYSKZcsKsWpVIYqL9SgARv+qT48BQACA/EIFy1fr+HyviX3HLez40sTi1TqKZihAADgpefcAXwsR/af4id9xAiSTAYJAYNYsA+vXT8exY/Px7beLsHt3KZYvL0Z+vj76l08YBgABAAqnKVi+1sDn+ywcOJHAriMWFq9WUVisIAwAJxnCj1cDDAGiN4RhiCCQT/syAICZM02sWzcdx48vwMmTi7BrVymWL5+OwkJj9C+fMAwAeoOmAYl8gbnzVWz83MTuoxb2HTexea+J2WUqNF3A9wGP00JECAL5jt/3gURCw+LF+Th0qBQnT5bj6NEF2LatBHPn5sE05bHt2YYBQG9QNYG8fAVz52vYsN3E7i8t7PsmgU17DMyep0LTgcCTm8RhwM9/ym2+D9h2CN8H8vJULF5cgIMH5+LkyYU4cmQBtm6dg5ISGQCKwgCgScYwBabPVLBkhY6dhywcOG7h84MGlq7TkcgT8OyR1QA3i2mqk6955FO/64YoKtKxefMMHDlShm++Kcf+/WVYtmwapk0zYRjZfwYLA4D+km4ITCtWsXiljl2HLRz8NoEdh0wsX6chkSfgOiF8N0Tg8W5imvqCYGSyRwaAgU2bZuCrr8rw7bflOHCgDEuXygDQ9ez/eM3+/4WUPQRgJRSUztewbquBgycTOPx3C+u2GyhZoEJVASfFFQFNHSPTPSGSyQCapmDJkgLs2TMH//jHIpw8uQibN89GaWkeLEvLitHO98EAoPdi5QnMna9h3RYTh/+WwOG/5WH9dh0lCzSoqoCTDuE5XBHQ1CCne+TTfioVQFVlAOzePQf/+MdinDy5CBs3zkZpaQESCW30L896DAAaEyEAVRUoKlawbJWBbXsMHPjWws6jJhat1uT4aAi4aU4L0eSR2eBNpwMIMTLPf/z4Avz974uxe3cpVqwoRmGhASGyo9A1VgwAGpO4QVw0TcHS1fI2skMnE9jztYlFq1QUTFOAEHDs6DiJ0d+AKAtlPvGn0yEAEc3zT8N33y3EP/6xCHv2zMu6ef6xYgDQBxMCUDUgkRAoKdOwabuFXUdM7PnaxMadBmaVKtA0Ad9jf4CyU+Y8f16eikWL8rF//1wcP74Ahw/H8/wJWJYGTZvcT/2ZGAA0LlRVwMpTUDJPw8YdJvZ+lcC+bxLYvMfA7FL2Byi7xfP8QTAyz3/gwFycOFGeMc+fn7Xz/GPFAMhx8TvPjhYP186mcfn3FJ4/ctHX48N13v9jWgj5ZVoCxbMULF6h44tDJvZ/Y2HbAQPL1usomCbk/QOuPHCO00L0qcWveVxXfugXFxvYvHkGDh+eh2PHyrFvnxznLC42YZrqpH/X/2cYADkuDEP4foi2Fg9Xz6Zx6VQazx476OsOxhQAseH+wAoduw4nhvsDK9ZrKJgmN4h9Tx45HQajfzXRxxUXuhxHnuETB8BXX5XhxIly7N8/b1LN84+V+r//+7//d/TfpNwRhvKrozlAbZWLtpc+UkNAT0eA7s4AQ4NB9I5fQCgCynv+WYhXBICAbgjkFyqYMUfBrBIF+UUKVA2wUyHsZDw2KuT/TcGnrfcRhvKSnkSeQPEcFbNK5eu1/MK//hfQ22ujsXEAbW0p9Pa6sG0fipIdZ89PpDCUH/q+L5/8LUvD/PkJrF49HVu3zsaWLXOwalUxSkvzUFhowDDUnPgZ/OufJpry5NJWvpJxhoC2lz7uXHZw+TcbV8/YqK600dbsw04HCPyxrwgSeQJzyzSs3WRg/zcWDpyw8NkOHaXlKjRFHjft2fL+AW4Q0HiTATAy3WMYCpYuLcTu3XNw8uQiHD9ejg0bZk3aef6xYgAQIJ+7IRRA0SA3bIMQfZ0+ntX5qDiVxoUfU7hVYeP5IxcDffK42/d9dy8EoKgCuq5g2gwVS1fp2LrLxP4TFnYetbBolYaC6QpCn/cP0IcZ3eCVxzMbWLdu2vD5/Lt2yXn+6dNNaJoSrZRGf6epjQFAkgAUVY5zGgn5n/u6Azyvc3H1lI3zP9u4dcVG/WMnCoCxfTIPF8imqVi60sCWPRYO/S1P9gdWq8MbxE5KTmaM7Z9CuS7ziT+VChCGwIwZJtaulYWuv/0tvqBlOoqKDChKbr525B4AyT2AFh8P77roavehGQKKKiAgn4iEAIQi7wEY7A3R3uyjo9VHKiUvuNY0AU1/vz89I99XFsp0Xe4PFM9WMbNEQWGxLJK5TgjPjboD0a/D+/2jJiXuAYxNvLkLyGsY585NYP36GdiyZRY2bZqJNWtmYP78fBQVGdD13Hzqz/TXP02Us4SIXgcZAkZCwPdDtL70UFPp4Oz3KZz7IY0Ht2y0vvZhp8b+nK6qAok8BSVlGjbusLD3qwT2n7CwebeOGaUKFFWOirI/QO/ir87nP3p06s7zjxUDgN6NgHxaUmU4DPUHePrAw43zaZz/OYnrZ9NoeOKir3fs/QFFAayEwIxZKpasNLDrkIX93ySwbb+8fyCvYKRNzP4A4Y3jmQN4Xohp03Rs2lSMw4fn4euvF2LfvnlYtmw6ZsywYFlazj/xj8YAoHcyvCKIXvckB0PU17i4ec7B+Z/SqDibxvMn7rj0B4ri+weOJHDoZAI7DptYtk5DXqGA78ruAPsDhDcuaBk5n3/jxhk4enQeTpyIz+cvQlHR1J7nHyvuAdCf7gG8lRzTj/5SQCjy7/kuMNgXoqstQE9XgKGhAIoQY+oPxPsDcmNOyP2BAgXFsxXMnKugYJoKVZOvhZx0xqTQFOoPcA/g7TLn+X1fzvOXlcl5/i1bZmPr1jlYs6YYZWX5KCqSt3JN1RbvePjrnyait4kmhjRTTg35PtDZGsj+wC9pVPxh436lg9Zmb3z6A/M1rN1i4OAJC4e+S2D9dg2l5Rp0XcC15WqA/YHcEIaA58mnfdsGLEsdnuf/n/9ZhG+/jc/nz8+pef6xYgDQh4lWBEIBNAPwQ8j+wEMP1/5I49Ivady9ZuPFExf9fT58P3zvd/ciGh01TAXFM1UsW2Vgyy4De762sOOwiUUro/sHAvYHppr4id915Tx/GAJz5phYv346jh4tw7FjC7Fzp5znLy62YBgKVHXqrHg+NgYAfbjoOGgjIQBF9gde1Lqo+N3G+Z/SqLpi49ljBwO9cQC8/6dzHAJF01UsW2Ng2x4LB79LYPdRE4vXaCgqVgD2B6YcWegCHEfO8wMCc+ZY2LChGCdOjMzzr1iR2/P8Y8UAoPEz/O5eDJfK0qkQTQ0+aipdXP4tjYrTaTysdtDW7CE9hvHReG9AN4G8AoG5CzRs2Gbii8Mmdn5lYsMuA7PnyvsH5PHTvH9gMorP5w+CEHl5KsrL87F/fwmOHZuPAwfKsHnzHJSW5iEvT+c8/wdgANC4Gp4WivoDnheipdFDTaWLi7/YuPRbGnW3HbQ2+bDTY/9UVlWBREJujH72uYndRxPYf9zC5j06ZpXJ+wfYH5i8Rs/zL1lSgAMHSvHdd+U4fHg+Nm2ajZKSPFiWCvXPBhbov2IA0EclohYxhPxD3dcV4EmNh5sXbFz6LYXKi2k01rvo6x3D+Gi04lDVqD8wW8WSFQZ27Dex56iFLXsNLFmjI5Ev4LtyUinw2R/IRqPn+YuKdGzYUIwDB0px9OiC4WsYZ860kEhofM8/ThgA9FEJRR4up2nyw3qgN8TT+x5unrNx4ac0rp218eKxi77usRXIYkZ8/8BKHTu/lPsDsj+gIi9fyO6Ax2mhbPW2ef5Nm0bO5z9wYB7n+T8C/k7Sp5Fx9o9QgQBAOh2i7bWPe9ddVJxK49q5NGpu2ehs8+Vl8u9Z9Ir3BzRNnis0b6GGdVtN7P3Gwr5vLKzZamB2mQolPn7aiS6sZyB8cqOnezRNwaJF+di1axa++64cx48vxObNszF/fgEKCoycPa3zY2MA0KcT9Qd0U7628d0QHc0+7lY4uPKbjSun07h3w0Z7iwc7HX5Qf8BKyPsH1m02cOi7PBz6WwLrtukoma9CFYCdDOUGMVcEE2L0dI+qxufzl+B//mcRvvtuMTZunIW5c/NhWZzn/1gYADQxoie5eEXgeiH6OgM8f+ij4vc0Lv6cwp2rY+8PxKsBVRPR/cQqlq/WsWW3ib3HLOw4bGHhiuj+gRBwbU4LfUyZT/y2LW+ZmzHDwJo104Zf8+zcOfeNeX4+9X98DACaONGKwDDlX/f3BHhR5+LKrzbOfp/CzUs26h866P/A/oCiAEXTFCxdbeDzvSYO/z2BPV+bWLxKRcG06NjpdPQ6aPQ3oHERP/HHN3IBArNmyULXd98txP/5P4uxZ488n7+w0Bj9y+kjYQDQxMvoDwhVjpGm0yGaX/p4UOXi8i9pXDkl+wPtLf6Y+wOqChiWQH6RgtKFGjZsj/oDX5pYv8PArBL2B8Zb5jx/IqFi4cJ87NkzB199NR8HD5Zh69Y5KCvLR36+DsOQI5184v90GACUFeL+gG4KGHkCQQC0vfZQe9PBhZ9tXPwl6g+8lvsDY6WqAlYiun9gu4m9XyWw9xsLm3bpmDWP/YHxljnPn58vz+fft68UJ06U48iR+Hz+PJgm5/knAgOAso4Q0aoAAiHkqY993VF/4KKNy7+ncPNSGi+fja0/MDwtpAsk8gVmlahYslLH9v0mdh+J+gNrdeQXyespfZf3D7yreJ7fdeUU1/TpBjZsKMb+/aX48ssFw695Zs2ykEjofM8/wRgAlJXiFYGqySOlhwZCPK32UBn3B87ZeP7YRf+49QcM7Dws+wPbD5lYvl5DwTS5Qex5IXzeP/BO4nl+xwkRBCGKiw1s3izn+b/9duR8/mnTDBgGP34mGv8NUHaL+wNRhyAIgFQqROsrH/evu7j6RxqVF2zU3nXQ2Sr3B/zo/uB3Fe8P6IZAQZGCsoUa1m4ysOuIiZ1fGli9Wcec+SpUFXDTGL6jmCuCeHNXPvGn0wEMQ87z79gxC19/vRBHjizAxo2zMX9+PgoL5T28bPFmDwYAZb+4P2BE9w+4IToz+wNn07hfaY/L/QNWQt4/sGazgX3HLOw/kcC6z3XMXahC00RGgYz9AYya50+nQ+i6imXLCrFr1xycPFmO48fLsXHjLJSWFnCePwsxAGjyiPYGhinyg6e3NcCzOg83ztq4/LsskzU8dTHQHyAI3u9JPd4f0HV5Wf2sOSqWrzawZaeJPV+Z+PyQifIVGgqnR/cPROOjuRIGmfP8qZQ8n3/WLBPr1o2cz//FF3OxcuUMzJol7+Hle/7sxQCgySfaH4j7A309Pl7Uubh22saln9K4edlG/SMXA31y/HAs5Guh6P6B1Qa27TVx6GQCe74ysWSNvIAGAeAkow3i0d9gisp84k8m5fn8JSUWNmyYjhMnFuDvf+f5/JMJA4Amr3haSMjTRkOESCZDtDRG/YFfU7j8exp19xy0NY39/gFVA8yEQME02R/4bJuB7QdM7DhsYN0OHTNnK1CUeHxU7lNMtUSQm7tBdA+vigUL8rBnzxwcPTofe/fOw+bNcp6/sNAYHunke/7sxwCgSS2eFtJ0Ad0UcN0QrS99PKh0cPaHNM79kEL1TRvNLz2kk2Mf4xnuD0T3D+w9amHfiQQ27zYwY54SnW0U9QemYKPY92U5Lz6ff/HikfP5v/xy5Hx+zvNPLgwAmhri/YHosycIQvheiP6eAPW1Hqou27h8Ko2bF2V/oL8vgOu+38e0iDejdYFEvoLZJSqWrtKxY7+J3UctbN5jYPFqHXkFUZs47g9MwhXBn83zHzhQii+/nI89e+ZhxYrpmD3b4q1ckxgDgKaU4f6ALqDpAsmhEM9rPVRdcHD+pxQqzqTxfBzvH1iy0sDuIwkcPpmHHYdMLF+nIq9AwPfktJAXfYCO/Z80Mf5snv/IkXn49ttyHDw4D8uWTeM8/yTHf3M0JQ13B6JVQRAA6WSItlc+7l1zce101B+456CzTV5PGbxPfyDqJagaYJgChdMVlC3SsHaLXA3sOmpi1RYdJWUqdF3uDWTzjWSZ8/yOE8A0VSxalI/t2+U8/9Gjcp5/wYICFBWZGef28JF/MmMA0NSV0R9QNPkeu7M1wN0rNi79aqPiTBrVUX8gnZIbnGMV3z+wdrOBg98lcOhkHj773EBpuQrdEPDsaDWQpf2BzNM6bRswTTnPv3v3HPz97+U4cWLR8Dx/IsF5/qmCAUBTX7waiP467g90t/qor/NQedZGxek07lVG/YEx3j8Qt4kTeQpmlqhYvkbHpp0mdn1pYut+EwuXy/4AsuD+gT+b51+7dhoOH56Ho0cXYMeOEqxcWYyZMxOwLDWjxTv6u9FkxQCg3BGNdBoJASjy/oGGOg/X/rBx8ac0qi7bqH/koL9XrgY+5P6BwiIFS1fp2LbHxIFvE9h11MTi1VF/ABN//0DmPH8qJef558wx8dlnxTh+fAH+9rdy7N4dn8+vj/7lNEUwACjnjOwPCISQm5xDgyGaG3zUVnm4ciqNq3/I+wfamsfWH4hPG7XyBIqKFZSVR/2B/Sa2HzSx9nMDM+eMun/gE0wLxfP88fn8CxbkYdeuOfjyy5F5/vnz81FUZA63ePmef+piAFBOyuwPaHF/4JWPBzcdXPgpjQs/p/HgpiP7A6kP7w/Mmadhw+cm9hy1Ru4fKFOhaRn3D3yCFUEQjJzPn5enYsmSAhw8WIrvvls4PM8/Zw7n+XMFA4ByW8akEOL34k6I3q4AT2s93L7ioOJ0Greu2Hj1fOz9gXh/IK9AwZy5sj/w+V55G9mm3QYWrdJg5Ql594CLcdssjuf5HSeA54UoLNSxbt107Ns3F4cPzx8+tqGkJIH8fDnSyff8uYMBQJSxIlCi+weSA7I/cOuig0u/pHHtXBovnnx4f0A3BIqKVSxeoWPnYQsHvk1g+0ETy9ZryCsQ8FxZYAvG6QIaGQCA48h7DQoLdWzaNANHjpTh+PFy7N8vz+cvKpJHNVNuUf/3f//3/47+m5RbwhDoaPHx8K6LrnYfmiGg5OjyP54WCqMPzzAEghBwHWBoIERvR4C+ngDJZCif7DUBRQiId/zsjPcfFFVA0wRUVUA3BPILBKbPUDFjjoKC6QoUIZBOyldIM0pUzCqVx1AUFP71P6i310Zj4wCam1Noa7MRhkBZWQIrVxZh48bZ2LJlNtasKcaCBfkoLraQSGhRg5dP/bnor3+aiHLRqP6A54boaInuH/g9jStRf0BuEH9gfyBP3j+wdos8bfTLv+dh/XZD3j+gAm5qbNdRBoG8oEXTFCxdWog9e0rwj38swsmTi7BpE+f5SeIKgLgC+DPx/gDkeT5xizfwgORQiJ72AF3tAYYG5L6AqspN5fd5mo7HRlVVQNcFVF3AMAQKCgWmz1RRMl/FnHmyVzCnVENe/l8/sw0NuejqSkMIgfnzC7Fu3Qxs2DADy5ZNQ2lpPgoKdKgqz+0hSQRjPTCdpoT4CIC62w7+/f+SeFLjwCoQ0Ax+OowWhvFGMRC4IXwbmFGiYvkmDas2ali1wcDsufLmMEUZ2+9fEMgN4HQqxGBfgL7eAP09Acw8gfKlOqZFPYI/09GRxIMH3bBtD2VlRZg920J+vg7LklM9Y/3fRVMTAyDHMQDeTxjKlUDghfAcIJEvMHu+ipIyFSVlCubOV1EyX8PMOSqKpiswrbH9PvpeCMeW1ywODcjVxfSZKhJ5f/39BgddtLUl4fshZs40kZ8/cg8v0WgMgBzHABibeDUQ/7US7RvMXaBi/ecGln+mo3zJf39i/ythGH3Jou473a4VhuHwngQ3d+m/GftPJ1EOE9FpoBDyQ9rz5RN7T2eAJw883L5s4+qZNO5ctfHqhTfm/oASnTiqqv/9wx+Q7WZNU3gPL70TBgDRB5CjoHIcVNUEhvpD1Fe7uHnOwcWfU7h6No0Xjx30f2B/gOhjYAAQjYN4vh9C9gYcJ8Rgf4jmRh/3b7i4ftbGzYs2au866GjxkU7K4xiIJhIDgGi8RPsAWkZ/oLNZ9gcu/57GlT/SuHfdRstrD6lkAN/jioAmFgOAaJwNrwbiqaEASA3J+weePfRw84LcH6ipstH4zMVAf3z89OjvRPRxMQCIPpbofCHdkn/S+nsDND7ycP0PG5d+TuPmZRv1dS76e+MLaJgA9GkxAIg+spEVgUAQhvD8EAMDIZoafNTednH1VBrXzqTxqMZFe8vY7h8gGgsGANEnIKIjoTVDwEgI+J68oP7BTQfn4/sHquwPvn+A6H0wAIg+leGbyKJpoUBuFNvpEN0d0f0DFQ6unknjdoWN1y88DPQF8N6zP0D0rhgARBMgXhGouoCmC6QGQzx/4KHqgoMLP6ZRcSaN548d9PX4cNgfoI+EAUA0UUavCELAsUMMDgRoafBw76qLqvM2Ht2TV1OmkgwCGl8MAKKJltEfUHV52FxnS4DblxxUnLJx97qNxnoXyUHuDdD4YgAQZYnM/kAQyiscHSdEOgWkUyECNodpnDEAiLJNtCIwEoBuvnk9JdF4YgAQZaNoXwCQx06HyDh/mmicMACIiHIUA4CIKEcxAIiIchQDgIgoRzEAiIhyFAOAiChHMQCIiHIUA4CIKEcxAIiIchQDgIgoRzEAiIhyFAOAiChHMQCIiHIUA4CIKEcxAIiIchQDgIgoRzEAiIhyFAOAiChHMQCIiHIUA4CIKEcxAIiIchQDgIgoRzEAiIhyFAOAiChHMQCIiHIUA4CIKEcxAIiIchQDgIgoRzEAiIhyFAOAiChHMQCIiHIUA4CIKEcxAIiIchQDgIgoRzEAiIhyFAOAiChHMQCIiHIUA4CIKEcxAIiIchQDgIgoRzEAiIhyFAOAiChHMQCIiHIUA4CIKEcxAIiIchQDgIgoRzEAiIhyFAOAiChHMQCIiHIUA4CIKEcxAIiIchQDgIgoRzEAiIhyFAOAAABhCPgu4HvyKwjk3yOiqYsBQACAMAA8B/DSMggCLwQYAERTGgOAoCgC04oVrN6iYf12A6ULVeQVKEAoQyEIwDAgmoIYADlOCPk1u0zFnmMW9p80sWS9hqIZ8kfDtUMEHj//iaYiBgBBCMDKE5gzX8XSNTrWbTHw2ec61m0zsGS1jmkzFKgqEPhyfyDkioBoSmAAEABAVQUSCQVz5mnYsN3EnqMJ7PvGxKZdOmbNU6DpAoEHeHaIwOfnP9FUwAAgIFoFKCpgWgJF0xTMmqtiwRIdy9fr2LDdwGfbDSzfoGNuuQYzIYZXA4HPaSGiyYoBQG+lGwJFxQoWL9ex63ACB08ksOOAgeXrVeQXCPhuCM8J4bmhfCVERJMOA4DeSlEAXRfIK1BQPEtB6UIVi1fpWLPRwMadOtZvN1C+QkPxLBWKKqeF2B8gmlwYAPROrISCuWUa1m4xcODbBA5+a2H95zrmlqvQVAEnJVcE7A8QTR4MAHonqgpYCYGi6SrmlGpYuEzDys8MrNui47MdOlZu0lEyT0UiT0SlMrlZzDAgyl4MAHovQsiJoaLpKpau0vH5XguHvktg91ET5as0FExXEPqAk4w2iEd/AyLKGgwAem9CyP2B/EIFxbMVzCvXsHR13B8wsHabjsWrNBRNF1AEEETnC7E/QJRdGAD0QVRVwIr6Axu/MLHnKwv7j1vYtFvHjLlyg9hnf4AoKzEA6IPIV0Jyf2BasYKSMg0Ll+lY8ZmBjXF/4DMdcxeyP0CUbRgANK50QwbB4hU6dh+xcOi7POw4aGBZ3B/w2B8gyhYMABpXiiJDIL9QwYw5KsrKVSyJ+gMbvtCxbquBhcs1FM9SoGrx0dPsDxBNBAYAfVRWnoK58zWs22LgwIkEDn5nRv0BDbou4NpyNcD+ANGnxwCgj2q4P1CsoqRMQ/lyHSs/M7B2i47123Ss2KBjTlnG/QMup4WIPhUGAH0S/9Ef2GPh4LcJ7DpiYvFqDYXF8kfRTYfwOS1E9EkwAOiTifsDBUUKZsxRMG+R7A+s3Wxg/VYdqzcbWLRCQ9F03j9A9CkwAGhCZPYHNmw3sfuoJe8f2G3I+we06P6B6EgJfv4TjT8GAE2It/UHypfpWPGZjg3bDKzbpmPZeh0l81WYluwPBD6nhYjGEwOAssJwf2C5jp2HLRw4kcDnBw0sW68hv1Ag8EL4nBYiGlcMAMoKmf2BmSUq5i/SsHSVjjWbDHy2w8DarQYWLNMwfYYCIeTREtwfIPowDADKSlaegtIyDeu3mDj0XQKHTiawbpuOOQtVqApgJ+MQCPlKiGiMGACUlVQVsPLktZQlZSrKl8v7B9ZuNrD+cwMrNuooKVORGN0fIKJ3xgCgrCYEoCgChdMULInuH/jy7wnsO2Zh8VoNRaP7A1wNEL0zBgBlvbg/UFikYFaJgvmLNSxdK/cH1m3RsWqTgfLlf9IfIKI/xQCgSUVRBUxLwey56kh/4Nhf9Ae4IiD6UwwAmlSEAJSoPzB9hjxobtEKDSs+07F+q4E1W3QsWSv7A1aeAMKoP8AwIPoPDACa1HRDHjS3eLmOXYfl+UI7DhlY/pmGgmkCQQB4bgiP00JE/4EBQJOaogCGIc8XmjVXxYLFsj+weqOB9dt0rN6kY8FSDdNnKlDYHyB6AwOAppT4/oG1mw3sP57AgRMmPvtcR2m5Co39AaI3MABoSlFVIJEX7w+oWLRCni+0ZqOONdsMLF+vYdZcuT8QBoDnyPOFiHIRA4CmJCEEVFVB0TQVS1Ya2LbXwuGTCez62sLi1RoKpikIfcBJhQg8bhBTbmIA0JQlhNwkLpwW7Q8s0bB8rY41m3Ws3apj1WYdC5dpKJwu2B+gnMQAoJygqgJWnkBJmYZNX5jYezSBfd9Y2LxHx6x56pv9AR45TTni/wM3+GVt65YOkwAAAABJRU5ErkJggg==;" vertex="1" parent="RF7QKK640K8U4cVMku1n-14">
          <mxGeometry x="90" y="20" width="41.4" height="40" as="geometry" />
        </mxCell>
        <mxCell id="RF7QKK640K8U4cVMku1n-20" value="" style="group" vertex="1" connectable="0" parent="1">
          <mxGeometry x="600" y="500" width="166.66999999999996" height="100" as="geometry" />
        </mxCell>
        <mxCell id="RF7QKK640K8U4cVMku1n-21" value="" style="sketch=0;aspect=fixed;pointerEvents=1;shadow=0;dashed=0;html=1;strokeColor=none;labelPosition=center;verticalLabelPosition=bottom;verticalAlign=top;align=center;fillColor=#00188D;shape=mxgraph.azure.laptop" vertex="1" parent="RF7QKK640K8U4cVMku1n-20">
          <mxGeometry width="166.67" height="100" as="geometry" />
        </mxCell>
        <mxCell id="RF7QKK640K8U4cVMku1n-22" value="" style="shape=image;verticalLabelPosition=bottom;labelBackgroundColor=default;verticalAlign=top;aspect=fixed;imageAspect=0;image=data:image/png,iVBORw0KGgoAAAANSUhEUgAAAJIAAACHCAYAAAD9YACmAAAAAXNSR0IArs4c6QAAAARnQU1BAACxjwv8YQUAAAAJcEhZcwAADsMAAA7DAcdvqGQAAGiRSURBVHhe7f1ZzC1Zlt+H/dbeOyLO+M13nvJmVg6VU1UP7KbYhCiJMGFRhiEDDQHUgwnYDwZN0QAtyaZIi50i7TfCgl/k4cWW/SZQ8JsgCpApttgku6pr6MysHG8Odx6/e7/pDBGxBz+sHeec77s3b1Wxs7Ltrl4Xcc/54sSJE7H3P9Zae41y69atdP78eX5ZKaV0ctexfSJy7LOOgggt4AEBDGASWCKGAGIAYRrgoIV7BzU/vHabH127w+e7M24fRu5OI/utEBoDzMFMwDXQH0JvxGD7FBunzjLc2MSnRBsTPScMSstaIeyYxI6JXCodL1QFL/QsFyo434Oe7S6qXl6cACQ84KOhjYIxJc6CNfqxJD1cyUOquXP7Or/1F/6t1dt/iuw/+Af/4J2TO39ZqANMSgkR+bm2CEQgZSAtSYgYWjE0CI/rxL3Dmi8eHvDDT2/xLz78gi8eT3kUSg5kQIwFxBJ8A/Uh1BMwJeL6jPubjEc7DAbr1KlkEh0HQXjUBu7VDQ/mc+7Opxx6zzwlGjEEaxGnF+USOAzIAlWQBJKQYkJiwmKwRrCSgXTsfgRSZDAccPvOHT788ONjd7pKEmN8+pH8E0yr4Omo4zpfxX2eRSkDqQPT6msLTDxMWvjywQEf33rAJ7ce8sndPT65t8eT1jE1Q7wdgO2D60NzCLNHWD+hGIxw/RGDrdOMTp2l3NhiEiOTEAkWcGBtoqKlomGrEHYqw05p2K4cW5XjvDNcMoZzThj1YdSDnoPSQGECJgYkegQDplCwpXwTZAwJJBKRwD/6R/+If++v/3snRmFJv1RAWgVR977jMN37n4vyyCWBkAHUADNgdw67M/jDa3f4/fc/4b0vbvOktey1hkmqSNIDN4DhBma0zqCeMjzapTc7xFcVoaywa5uU2zuY8TqzlJjGhBSWoiqwBRgCRlqMabHGY6zHmICxgRdtjzfdiFfKijPrcGYNtirYcDA2UKQWYg2p46kC0eomhiSW0DExA3fu3OFf+63fOjkCC/qlBtJPA9Eq4DjJuVLIWwJxeGOZRDgIsFvD5w/nfPbwgI9u3ueD63f57P4T5pTMpcBTKFsxBVQDbH9I1dRU0yOKZk4sS2JVUK5v0N/aplgbU8dEHSPWWYqywDpLSp6YPAGPF08wgWAiwQTOScmLpscLRY+za5Zza3C6B6cK2C48I2kZGU/PgLMKHmJGDZbEcVkXQuDlV761MjrH6ZcSSN37nwVEMcbFvg54xhiI3RPtwVR4qXjUGu7XcH3f88Nrd/jBtdvc3J/xaBZ40iY8lhab5QYZhIII4COp8RATtldiq5LR5gbrO1sM1seEEPAhYI3BWYc1ljbva0k0Aq0kvBW8FYZJ2EiwZQxnhoazQ8uZXuRcFThTBrbLxHYFa6VjVJUMbKH3mLLCvSrm8uvVV64uxuIk/dICqaOTIDrJtU4CyRiTgVRDmCmgqJhQcXOS+Pwg8NHDKf/8wxv8s49u8NgbfDUmFIPl450CkjwSW1IzJ7U1RIGUuVSvhKpkbWudnVNbrK2NSKElBo8RgzMWEUPjoQ2JJgkNlhZVtr1xpOQhtjjxnKpgp0qcLSNny8DZKnFmYDkzcGwPe2wN+6yXULDcyggmAjFlzgtXv/3yykgdp18qIHECTKsg6oDzLLB11HEkEYHYgK/BNzxuhN0aPnww4ce39vjJ3QM+32v4bK/mMBUE1wdT5Uc7QWwxscGEmlRPSPWUSAFuqIp3YaF0bKyNOLW9ztp4QEgtPnpwBlMU4BxtMPhoSMEi0UEsMMlhEBobmbqa1tYM8QxTYEzLOp4NG9keVOwMSnbWR5xe77MzhjUHYwdjYBxhFCMmtpAaSImrr3/n5JAs6JcOSF9FMcanuM+qDtXt60g5REPdNNw+bLl92PD9z+/zex/e5Ee3njCpNplWm8xND6QArK7pUoRYY8IM52ek2SFpdoh3fag2oBqrUccKW6MBpzdGrI0qWjwNLbGy0K+IZUGIBTE5nC8ofUnVllQeKg9HFewOGg7LGVLXyLzGNjWuaaliZHPQZ2M44MzmOud3+pzdUh3qTB92BLYjbMeGXpxDmkOKXH3jX1nc/0la2p5+SehZHGeVG53kWCcBFWPEe89hk7g/M3x2KLx/74jvXbvHT27ucnN/xl6bmEZoERDJikeEGFQUhpboPTEEjLGUVZ/Slrr8awMSIj3AGSE5gy8dbWFpncOLI0QDwSAhIW1EggI0mkAowFcQChAbMZIwIhjjVJczfeYyYC/2ud9U3JgaPt6D9x/Au/fhR3fhJw/h872WO9OWSUDFrStXRuxp+qXiSCdBsro/xkgI4bge9IzjvPd473lYw52Z4frenHc//ZJ3P/2C2wczHjXwxFvackhTDsGUYLJB0LfQthAaNUCmlr4R+lYQb4iNIUWLDAoYFPQ31xie3qBaH9IETx1aRAyFsVixJA8EECzGFIhxGFsg1tEaz9zMaGiwHlwQNcN7gSiILRBT4JyhKISegw3bsOEarvQjLw3hpZHwwshxdeSwVrj64muLsThJvzRAWlWiT4qsk0Cy1i6A1H3eHVPXNU3T8MWR8MGB5YNHNX/44Sf84cefcOgTsTcglgMaWxBsAeIykERB1LQQPIQWUqJXlYzKCtcEzKRB2kAc9QijHuXOBr0zOxSbY2rvadqATUKBoYgGfAAfSJlzxcKSSkcqLTEFYmhIMVAkR5EcJtuJUjS0WNoktDHSxJYUG4ZMGTDj6kh4baPg1Y2SV7YGvLI1YFDAr1z901Ub/Bwc6SSQQgi0bUvTNBwdHTGZTPjRo8g/vQc/eBDY3d/j8cEe8xDwIgQRvBGSCJgVF0WM4COEpO+TIMZRWof4OamdQGyx/T62N2C4ucPaqTP01zd1dRZAxGCtQ0QIsSGEliSBZAPJJMQmcJCSIWbglFEoouCSweTNG0cQQ01iHlua0GDDFBumnO2jnGi94ltbY7613WNQwF9546uB9EunIz2PTnKqjkIINE3DZDLh4OCA3d1dPrt1n9//5A7//JP7fH4I9eA0abhDKIa0GFKMurILNRLnmDRHUqu6khXUNF2SkqNuhXmM1LamLidM7ZwpDT4EpIFybqnqin47oAw9rPpIiK5PW1Y0paWxiVZqfJoS2wOin5MCqiwFi3iwPlH6SC9GBiQGFvoWSitYKzQiHER42MDNWeLaUeLTifDRBD6cnByV42TUYZRQU/mq9yg/vd3b7qNjHycgkPB5C6Rj/57/9SxsVj4JgCelVg19KR4/Qb7Mbvt5KKEKb5JIkrS4bb11wSSDSwaXBBMThEjwkVkbeTQLfHkU+GAv8L2HLf/4bsOPHjXcnrbgW3wI+AQR5UIiNnMhiySDJEEi+trZkiRbjldvDllwLxF9xlOKhBSIBOU8ogwt5KERIwgGSWqZlmAxscBGi4sGp940QIgkgiRaIj55YvSQPJZIIVAaq0q/qZilkiet4/ZUuLYPH+8dH8+TJLGOCYk5zKALNZAVT/GxWc/f6g7RiY8ENamjg3fMtp7pWV+XfGL1pecBTZGUAiSLdK6ElXMsziM5UuMraJWvpJRBtAC6I5GdlNnwZulOvoT7PMBhgJuHDZ/tz7n2eMrHd57w0d0n3D1oeTRPzBpBCkdROCASQyCmsHK1KYNn9SHI48rK+MYa4gzwmN6AqhoyXttkvLHDYLROEEsUo5sxWWxqzEeMLTG2pOixknJIiEPEAQ6TEhLjMkQkAVn0hswKQoqkvBVG6DlDz1mGVcGwKrECf/hXnifaFixieePLJ2Tlz5NbSrrkJBBoiLQZUDFvz+BKaXV4u607qjuxV6ts58c6eUl51+LaTnCpYxyr21YO7v4tbuGpC8pu7wDTOrA7abl5UPPxbs2PH9R872HL9x4Fbk4SsyjYQjASiL4heg8pYTAYLMoPCkg2b/pwZljpTUnIG/mYAkeBFQdiiET1o0lLMC1BGkKqCbGGFLAkbDKYaDHBYVKFTT09BwZHQkhkhkUriUYiTQo0sSVGj8RAAVTG0nclhStJUjJPjsc13D703Djw3UA+k4wyEaMrCzFEhICowEpR9ULFzLGJSUk/b2KgToGWQFx5mkUZ/coXFtjLWyImhZBSx/ItxlgkX8+S+2VpIGDy64LyeWNIhJC5QgxqYEzddUjmRAUgmBSUpZOwktTGEzwpQRDLAQU3J/DRgwkf3HrMR1/e5fPrt9h/8kSX7ycettU76Wj5GP18lFIiLdSNpIJCBCNqlug21edWbF1Gss1IXSiC5AWGPn3PusYl6XFp9dj8pMUUjy1UnkWmCxMIIqi0VCal7C7go8fHhE8qmxP66lPUpWMINN7ThkDKk7YEUH7fXUhMpGxBjjHvSykfldGC0SWzZCBxXFJKB6hOfKUMyhiI0RN8Swhq7FtwNqIOqj6/CIJJEZs8Ii1IS0otdWiZRjgU2BO4NU18/HDCh7ce8+H1u3x2/Tb7e08oYoOVqADs6MREdRPy3Llbpe64xbx346O7BRQkYlYAddxgKis2MDEd30uZsS/P9SxaXOoKiHR6njbUPovMDKhzyKgOefd7qjOJ6bblPOsmiDEYazHGYcRismJnSItXSd175SRGumMEUYwRY1Z8M/QUTGap6TznHoQVLkVSSy7LbXE3+fwhocq17s13HfBGaKzjYR34+KHn+9fn/PjWE96/e8QXT2oe14kmWWJISNNgfIOsuFS60+Vn+il69t5n06rdKnUPXL7P1S0fvZzoFeDpJ6tjt3j08pc7xV8/E7JIz9+JCWJMiy2cvNcTZKZxCaROMOl0JqxJWAvW6baQNgbEKvKtcThbUpgCm9npytpkASIr4ERwIlgxGBEkyVLMxZQBJRkCS74WWYKt49THbkLyitoIVkQldZaKS7YF0UPIT0v3vHay1htLUxTcnbX8+OZDfveDL/ne5/d59+4BNw8DU/rY3hoijtQ0usVw/ELyKZ+e0OdzA6V8TEqq9AYFUcxcXG88j2oGQlpMdndsJKZ87GKcZEW5179l5Rxk0bgcET1vih2YEzFEYvgpQGpOcKNu6haCQBImc6SOKy1VF4PF4nBYrMrJ7hTdEwKLi1/VcYwsnwK98E4Z74C05CdpsUxfGaBuWwTQZECZfO7l2OhUdqw6KEfq7iABdUrs+8DDOvHlkwnv3X7I9z6/y3t3nnDt8Yx7s8QslUg5QMTpCihG5Ge15ebDOq70U7+V71UnUznSYiQ7qwEd6PIxMerxGQDLrTt4ec8LMB0DUd7ytC1ButyeR8Y5XfouRBEBQ8AS8rI8a8cZZou7yLOvN6r6UVoYZlbYR2J1JI+Nosp0lftqN1GFTcXbUhFKLAc2hqCcYHFNK6iSlZFe3VAlVG0lustHwzw5jlLFo9by4d0n/JN3P+H3P7nBpw/2eTAP7EeYi6XBMA/QeAFTUVZjXDlAbPFziazFoYvZ7cYnk+iYrBpFO/Gjt7bk94sj8lOmIFJutPrALUTeM65zlRMpnQThCqf7aaKtC3AQQJLHRI8JHgk+e6u7CVsB0yoL8QGaQGpDvhGeDablo7EggYXyKFnDWuVGSyDogHQ3FGPQa9MfOw6kxZJuRZHIfzqjQAJok2GeLBMcu94pkN77lN//5DqfPtznYR048JDEARYfoQ6QTEXRW6Moh+pRT/xcYErPAlFKGTI6CgvQHLt81esUTHlY8rjqQ9ZxpCWY9Lry/6n7wldTd0wHpNitrDPDeB6ZzuTnYsCGgPUB40Oen+6SVZ4lMVk1FSJqFzE4rDi1IyRDTKJbJ9aVR2ZAnbiRheKoijvSLWlPHCZqwTVGVPdZjGR33pXzd7+xAFNW/Tt5jALioIEbT2p+dP0Jv/fxHd67vc8X+57788S+T8yjGunUvd5NDrRiaaSklYK4YhH9qilairMTRyz+PL5fRLlnx32OaZ0diLrPupXa6qqt+zvfrIrxTIv3HTS7gVzu747vuFonHk9O3UkyJVDEhAse572CSO39i0BwRM0CPmdKeMlalDiMKShMiTMliArEkPKWtX31O2XO8awr6gC1slBb+QgxYK1gs4JvOk36WSBKOmURIYpFrUW246WkBLMAjxv49MERv/fhTf7RD6/xh7cPeOArjugxxxK6GCLxqkWKaugewzQVzJMlrKxyFGhPbwvG84zbPknLqc38+Rg4jk9/B5jj5oC8dYuZbjBXdMJugJfAXIJoQdkoe2JYn0vGRXAhYDvlMZLjh3MCFZY6GiYRjgIctnDU6mQ0EQIGMRrbksSpHUpM1rQk+7NSBlEHpo5dZRCtvHa3k79ByvuUYQlis7beHbUKoJTUD4Ucu4YMBdoI0xZ2J4FbT+Z8dG+fP/jiIf/is/t8sjtn15ccSUUjNnOQgKFVMGUgqSap9qi4OvjPo3yvT3Glp0g/F5acWgHUAWJ5TEdGsiFyYVdSrr7Uf54BlNV9i/Mvt9WxXx3i55GR0OpSRkQFnc35VqZPMCX73nJvCl/uB67ttnz0cM613YYbB5H7M9hrYSbQGAjWkKwj2QJcgTgNshJr1TdEt47vogVVB+sG+OS0HHsajt1I5xPsjkvK/TAk44imIGQO2m2TAA9nietPprz75T1+771PefeLe9ybJGq3zpQeR8FQR101WmsUKrFBYjaOLHyRK7/9U8HxLOq+07ErIKn+F0LQFVK+Z73/ZZhL8HkLYcHxlK8s9avuofqj0AKCqzrZc8hopF7UQ60DW4GrCNYwF9gLcG8GX+63XHs846MHh1zbnXJzv+H+FPZ8BlKesCRZpbKCWIO4bIgSQ0IVtxgDMXhi1NUeCzfGkpKO7XJQF3ufvquYEiElogjRqBhTXW4JpKMAD2ee608mvHf9Hv/03U9598v73JtG5sUac3pEb0hBSGKwokAyocWkVs9mUDCtUvqXBdMqnjJiotprdEyOc9oYIsF7QvAKqKAuoO63dY2hA/MveTULWgxvBlFmj8eOOUkSpodJjAOjYowIdYTHHnY93D5MXN874u7BhMN5zeGsZlgWbA367Iz6nBkPOTNybPRhXMGwBCedUFwaJCV7oIm6ukspqagy2XpoOvtRVs9SZ4bW2GWNM8uPKSmLx6jjn9TFk0xBMktO1CRoPDQBbj+a8/m9PT6/+5iP7zzmozu7PGqEA3ocsRKPbMEUiUIi0dektiEk1QeRUjm27WmYS6iR2HaP7kl8AxlkeWYX7zsWm3QvCY2YbFskRar+gLI/YDheZ7ixQW80JhijD0r2hyYRrHVYZzMAPSlGzXszy+ig2OlxqyJy9f0CeKs63fJ9/gQA/x+8vfjOSRJfT5KRAowjRDR0ooUbR3DjMPLZ4yM+293n+t4hh3XN0bxmVDp2Bj1OD/ucGw85Ox5yYb3k4kbBmTVDr4DKPA0mk5I6RqPagqTzCWUwdQElEcWJxvCoxdoYybec9axumdsNbg6zCDlteh5g1sLRLHI4q/ng5mN++Pl9Pri9xzQaJsGw13h2p56mCeCy+b4QrBOcJEJoiL5Vq25Mehe9AZQDfSh8o3HYi9E8OUGr3FRF1FMAWgDJg2+xKdIbDqn6QwZr6wzXN6iGI304Umc4Vq7pCkfhCuXyXoGkVn79XPl8Xll2uujyDd2ILiiv0BRU+XXl4/bff3Plr+NkkjEEMYSkesReC/dn8OVe5MMHE96/f8iP7x3yo3tH/OGDCe8/mvLeoynvPTzivfsHvHv3Ce/e2uXTB3vc3TviYNowqaFOusI75r+ThVMMkaTbCSevOis7g+Ny/2JLHTfKXmlUExdZcrMmwbSB/WnkwZNDbt3b5dPbj/jxzcf88M4BNyaRmRvgTY+QErSNTiQas0NS80aUgtgVWCApF5KWnq0pTYuVEy6SFdycBNGClgccp+xwddbirMO5vFmnob+i057S0uLdneMYdFd8dN15l/aS7kh9vzD8shIflY+VvIxW5X0ZaPdVJLPQJB8MrTfsThL3Dz239ls+3J3w8e6Ezw4brk8aHtR+eVFOWHfCpoNNk9iQxCtbBW+ernhlp8fGeMjGaMiwcgxK6IlyJgdZtLUQgy7jswExid5YF9EkOWrRJKOLtIWHV0VjTEnDVowq9ohdmCf2ani4X/Pg8QG37z3k9r2HvL8b+NETw+cTS2GF0gnJN/imJvgWsRaxlmgc0ViSyeDpABS1GpKxicImUjSE4DQu+tiI5tcTQDku1lZe834hURKpjKE3GNEbjeiP1xisrVP2B9QhUIdAGyGkRBJDWRQUZQlJ9acYAtJxPelCg05cHxlcJ2lxPfnPY38p1X/z2yd3LcgEscyjcNQmHh7NuP5on4/vPOTjO7t8cPcxn+4e8WAaIZTgxjDYht4m+27Eo1Ryc+K5tnvI5w+ecPPBI+4+fMjDx3s8OTxiMm9o/YmHMCuFaoDMwBQdyMy0gaS7O5G2mJysdIZO6Yw5sq/7tv7GvIW9gwl3H+zyxY3bfPjpZ3x+7xEPvYNqizYWTA7nTOcNlsi4NAxsokoBGwMppOzFtiCVLkDKElNaTGpI9R6pOcrgOkF5Ho/vWhFjX0HGGApXUFUVVa+iqip6VUVVlpRliXOF6kQrsUhyzG6UbUeSQXECGAt6Foh4ev8qD1vlZV9F8tC36d5ezb29ms93az57NOfa44brE41T3g2oYVIsVAVUZV65BKrgkekEmU44N4y8uGl4YbPgwsY65zfXubA25Px4wJmBYWhgaMjiIC+n1XsLomFwXVBdRLBAkcNQsryBGAnR51imzJpNBbbAC+zPYb+GLx9OuHb3EZ/dfciX9x7wxf0H3IsjHhWnSWYdmoluEihcorcoDSS0GBpcXnp2QO8Mkw0S5pgwI6WCKH2gpwOZjXudDSelpIK68wsuIgU0YdEJ2Oz2sCRODysubvQ5vaYZJLY3YOoG7Jk+R1LStp62CbQp0gpEEUpbUtkSwZNCTYwtIRlCVB2psyl9XVT/r18/uWtBcn02Sz+5s88Htw/45LHn073EF0fwJBXsxyKr/rmES16OiQiFGGxIzKdz0nQOhWc4jGyOhBfX13hxfY1X1oa8uj7gpXHFqRJOVQlnI1ifA6U7IBk8Ft/lIuRCBhUBUrsEErrMD4kMNZsFgnKhG4/hxu6Mj+4/4cO7u3z08Al3JjPuTGa0qQA70JVX0GxX1eQTzrAIElsAOpEV+hUj6qphIYfFktS0gRisMVij+kzIZo4QW1XKo9fzSKISoW8NPWMogRL49tk1/szVbV49v443Fd6WfFY7fjyxXJsJ0uhy2ptEbdVm10slVSqw0iJMiDQ0qaRJZY65Ui3o66L233/j5K4FmYeTmutPpnz48ID3Hx3xk72aL48i+60F0wdXoUUGATzOzyl9jfNtNiZaMD2IPSbzglsHhh89DvzowZz3H0z55MGE64+mPDyoOZpFUps0eHhRjk4Zp07gScmgnC/n1WiktagYEOMwpiSkLMomcHt3xqe3n/Dx7T0+uHfIR7tzrk8NLSOQnrL7mKOvbDa+IHiEBoM3RpmvRKxkjSs2GlobfDZHWD2XlPn6OxJIS+ezqDEtuxvywxi1AkmFZ2wj2wWc7zleGPV4c2fIn720xr92dYPfujzmN86PeGGzol8Z5rl+JBFSEqLJG7nCV0hICnrNkghdkgC6Uvy6tueR/TN/5W+88+luw42DwP2Z8KgxGi6hwjb7mTwYj4k1JsxJwWddBZItoTeCqgdFCabA+YSfzWmbObN6ylEzpTaJWBhC4SiKgrJUjtJlqqj3OuaVQgevoIH1MRLagETBJouhQCiIAk+mcOPxjI/v7/PB3Qd8cO8hX+4dcH8656CNtEkUuGTl02bwdnpE6nJ70iKYTLlwh2jlmIvQX5PDgFWxW8BeVRO1sPuY8ikWN5IlZaRInvXScKpfcnF9wCvndnjz6gVev7TDle0B6wNHwOKx3Krhs2ni9ixhQsKGRBTwVoHkosUlo4+C1CRaPAVt0qgEk75ejhT/m//s5K4F2Uv/o//FO9cPAvemwqNGeNJxYSF7vj3WBQbGY3wNzYzoPd5HYjK4/ojeeJNe1WdgSqpo8bM5e4f7HE6PeDI7ZK+ZEguLGfawVUlVWYZlZnIpJ2p5T/QtIgljDWgWlsaOB0+oPSYaTBZ6AgSBuweej+8/4r3bd/ng7kM+uP+QO0dT9n2kjsoliJo5WzhLYawq9CkH2MeoYZOhc93EhTQTlmEuJiclWMkb6nUTiarHLc6XN0SBaySDSChSi4sN2z3HuXGPqztj3nzhAr/x2mVePDtie1BSGC3I5THcmiuQ7swTxiuYgkCwQhRwyeKiXQGSx1PgU05w+JpF2/OAZD7Z9dw6Eh77kmmq8FJmKzd52dtgY42NDS616PPSCSId8UR+60EaSNGB9JhIxaPouN7Ahwdz/uD+Ht+/94Qf3p/y3qPEjUN1ovpkiWLVKgs4PBZVThMCUmBMBVKRUkls4dFB4ov7nk/v7vLx3Ud8cn+XL5/sc3cy4fG8ZtJ6fIyYlFQPSWBDRELAxIhNXRxWZhfkmOW4siUNtJPYJTmKipegoBGyLUzyhHXch6xftZpAaWOgbxOnxgNeOrPNa5fO8PbVs7z9wllePbvG5TU41YdBqXpWtxJ7SlHO0iUlHXMVOc8QX51l+hskm/71/+U7+6FgkipmKZemE5NjcNTZoFUPWyR6TAokMerpN45kK6ItiU0gTRti7dVdUZakssQXjsYYpjHyeDrncFYzmTXMmpaEoaoKlThW7TtW0CKbpCxeNebJmJIkFW0SDlu4/njCJ/ce8cHdh3x07xGfPtrj7tGchzPPLAg+GkgaAlyIU3UohaWxMycLarhG1mskuz5XYs8XAMvKm0ZppoWpQiTlXLXuu1avOwa1eseWAs+ogCs7Y169eIq3Lp/mrctneePSNpfGPXZKoS/gJIHRlWObhFtzuDZJ3J5FjE+IjwQBb3XV5qLJHKlFpAYJtMnhKfL1LOzaXws9lyM9qi17jWUSHHUqcgSAW4mej+r9Dh5JEWsEZ9Q7bowhpUhoa5qmpm4a2taDcdjeCKoxsRgxp8+dSeInDyb88M4+37/9mO/fecxPHh/xxSTxoIHDCL7TPSJZHxIMFpECcY4a2PdwdxL47NE+7928zwe3HvLp/Sfc3JvwcNLQtJ0NSB2+KalNihRVt2tbCAFJUZfeYnHG5tWW5oN1nCjlhMaFOhW7GqRJV/RJEy3JqpCRhJOEk4jFQ2rom8BGKZwZlrx4ap03rpzhzRfO8eaVTV47W3Jx3TC2LT1pKU3K3GgZHQnZJLS6ClF29DQn6rhQ5lKL478Bshf/nb/zjojQeo8P3RObH1fbBUhl+d8pm7ZCigpsSYgCrZZpSRKIDigtxllMjsNOyYKH5BM+Ck1ITEOgiYlpaJn6gI/KgQRDzzigQJLFRHXC1gnuT+HzvSkfPnjM+3fu897t+1x/csSjWctRAzGVJFPpiiqHyCYRgoE2etpchzHBwlks1iBGj3vKYSOZI8nxOB+TU6YXjCppapWEgGlrnK8Zu8hWz/DC9ojXLmzx1tUzvH5pm1fObnBxXLJVCCOBKmo9SUQQYwnG0EZ189ycwbVJ4NY0YoLqSTEXHO2UbRsMRjwiDUhQ+SGFVi1ZseV+HfRcjnR6c51Rr9BkwW6ZmyIYgyt7GFcRcTTJ4qUk2Qopetiyn83zAWYTaKdgWlIViQUYq6lKBT1cGkDoQ9tnNrfcOvC8tzvlD+7v8c9uP+AH93f5aG/CrannSWPwKTPkbLaJAWYJ7s8jHz/Z54f37/ODuw/40b0HfPJ4nwdHLfPWIqliYIf07YBCSrULiaqgIbWk0JB8Q4hefVWigBKn7hGMJWXn8SJKcMUnJaKgM0aP1VWn0dV9imomaCa45pB103BxAK+dGfLr3zrLn3/9Cr/24mleP1dxcU1YMwFbz5BQ642uZMJ0q1Y639ox/SfvX53FTtnPHElF9DdL9i/9jf/9O9LO8PMjkm80WzUGTXx0BQnRBU0yGqYhhQauZWdmG7TYExaosnWNnEnru3pAOZyhKzpluujFRO19DsdN+JBogxAoCF4rjIUWbu3DZw8n/OTOA96/fY8P7zzkxpMj7k1qpt7gU0GkREyJUGQdrvPf6fV0YSdqhHRqGzMahx47z/pCHORp6izvRjC2ixnXrQvlAPXcp7ZhKIGtUjg/LnnlzDpvXNzm9UtbvHpunRd3hpzuC5slDASqFCiIGMmgNDo2QTTspQ5wYxr59ChzJJ+wQS0ZwQqpW/5Hi5GAmAYxgSAlQcpvfNVm/+p/9DvvUM9oJvvEdk7bNjQ+YKxDbEXMYaWIhtIGLFEcYixijCqfJAVQlcBFHdi6JraemGMfrClwZR+KkmTVFuNDZFo3NG2gbgPTxjMLMMPQhIIUhbqBj+484sdf3OTd67f5ye37XHv4hN2ZZ5IcCVXCkxQ5tz+DKDuEYwciVJHFGHCGZHN8Tw4H7rIvFgqJsIiTkgwizZnTLUpWZSNquW5mbFXCpbUer5xe4zsvnOLXXzrLa+fXubJVcWYgjG2glzxlChQCrosDk6VOGnMITO3h+iTyyaECyeblfzSiy3+rinaRLIalaItSEUy5ULa/KSCZN3bg5U3Di2uJ8/3AtmsZ0VBFj4mJGI06LKRSlpMqQipokyHmWKGiMFgH2Kgpl3EOfgp+Br4mRq0PXRUVlRtQ2CHIAN8WTCeJ2/stnz6a8d79I3788IgfPJzw7uMpn+5HvtwLfHT3MX/42S3e/+I2n9y8z+17Tzg8atRFYXvqVDUlQQxNgjbbExejmKK+WqOlh7tWQGQNuvOHZXG39AF2loGcCNDJWnx+zXqdNQwLy+lRjxdPr/HGpW2+c3mHX3thhzfPjXlx3XKmatkwNf04o0wtTsgxUGbVwJ+vt8N0J9I0gG9Vngl5UbvyVckysdPlvkkBZ//2f/w779jQUlmh5yzW5tgTsdQ+4n1YjBlpKcATCUlRV3KSEAkQG1JolwY563SwnCXZ/N3gkRBwIWJCRJJQGEcylkYMhxEetp69ec3BZM6Dg0M+vvuQLx884eHBjINpoG5Q943t5VVmAYXLo6kxTRFNXzYp4ZK6VTpOpDPQWbe7ocjcSrpAuwyklCB6LYfsG4Kvic2cFLVARVUYXtgc8fqFU3z3hbO8feUMb1zY4spGj9N9YWQ9Rc5EEZKe1hgQRxLbqWLLLSlHmvvE9WnIoi1gAlm0CdGZJUeKZiHakEA01UK0SeqWDl8PPY8jyWFbp3uHLfePPJ8+mvLR/QkfPZzx5X7gy4PAQSh0JWTK7HOz+elsEfGUJlKaRIwzWj/Fx1qDwWyh9aUluyWjOjiLIDgPLuhaWvBa1tfp5l0kushpJ1wpDNsh8PD+Lg8f7HJ4OGMyb2l8guEYMxwRe5VGJTirdpvQqpU61+MpxDBAB78pDY3V5bsqfvnhQNTtYVwGUKfs5yTRkCMhfedzaxHnKKuKzfGI775wge9cvcBrp8a8slVwZQ1GyTOKE4z1yqltXvWKhSyOA07tnpnxmWzH3JvDXh357x+2/Ff3Wn5/t6VshbKF4Ax1JQRnqVpH1RZYZhhzCKamMSMaM9L1UlQzx9dF/j94ToTkgJbtShXEq1sDXj6zxutn13hpq8eloXCmigxs7vvT1ePtjHpR/VMhBFIQbHIUVFrjsFt5dSEY0oA0JPRVk4QCKSZChCYIjTdEb6G1PJhFPt+b8fGTCfcamJdDUn8d11+nqMZYU6gy32b3xqpYEhbXKSkuTIsLH1rnxjjJjYx68UHFocSAhBYTAi4FSkn0C8OwV3Bhvc/rp9f4tYsbvHVuzCs7A17YLDg7gq0ejAqHUXmf3TSSU7zU4Ku6XGZ4Jy+HVTG2/GBhIs12pmeKrs6G9A2TkeAZ2sR2z3Bhvccrp8e8cWGTb58e8q3NkssjOFMG1k3NQBqK1GJTwCT1S4UQadtADIKhopABlkoHLZL1D61BhKnBNmAaommINPjY4IMnhKSBZKkEGYAv2J0EvjiqeUJJHG3hNnao1rfpjTewriK1Qd0Q2cioj+GqSOoKMKRsUEwKvrDqlF2JJMwBYyYlbIyYEDC+pYyevsC4sGz2Kk6PR3zr1Ca/cfUU/+orZ/jOuTFXx5bTFaxZdccYIetulepywZGiJaTsAMorypSWz+XTSFruWAJI4SQsbAT58OPukW8aTIYUKQyMC8PpYcELmz1ePT3ilVNDXjs14MWNkguDxI7zrJuGfmooM5gkqaHS+6TV6Ckx0kcoc+8vyY+bWnmhIUlNNDXBNnhpacXjidnPZVQExh74AhqBGqamwg/WkdEGdryBG60hRc788EENok2r7+PqBOiK0ufqczHELPayh38h1hRAVgw2gYkR8R7jW6z3VCRGzrDZrzizNubS1havntvmVy5v8WevbPDG6R6XR8KpAkaSOwsJeUVWEaiYp4o6lTQZSHEFBbISu9ddfdLLzwewNC5lMB03fefvdADK3zthbfqFksR6ksiBXA2OeXIcBri133Jrv+azRxOuPTjk890pD2eRh/PIPBla47RAZsox1mIwovWfY9JKt7ELQSEsVz5CN8oZOOoTWwSJJYtgtbJtnOsKqXD0CqfKedOQmpp2NqGdThYGVEGjBqzrFFgNuVhk+Xa/KSYPdOedV1OGOkkNyXti20Db4JLXsI9Bxc54yM76mNPbG5ze2uSVHcubO4mXNoSeLalsQWlKSmNUOuZ5Vm1S09yTqJTLAQFaLiOmHO6hH4SUdaR54L9/5Pmv7jX8/q6n8oaeNwQn1JUhOEPRWMrGYdIUkQOSzGnMiFqGCAabYleO42uh5+pI2FKLPviAjZ6hjZzqwYs7Bd+9OuKtS1t869SQiyPLVhHo+SnOz3HR5zAKVVSjODyONhWE5JBYUERL4YXCJ4xvIcwVHGYOroaehyHQN1AYCjH0gzCaJ4ahpKo2sOMdpDdmbkqmzjHtFcwHFaFfYQY9jDWYusUcTimO5vQmNf0m0MdQOqfsIanzlOiXXCsBSUPQLIKJID5C40nzmjSvkabFhsDQOXbGYy6dPsUrly/z9quneevqNq+eGnJxFNnpB8ZloLJe8ZNVthbNQG4L8E6drdnOqgvhFDDisZI7Px5TeY79saQFZ8p/HzMT5AySPxbRlr3dRixWBJciJdpy6XQFL6wVvH56yHcvrvH66T7f2nSc60dGzLHNFBNbBdPqnYmQrNFMDDEa1RdQA0+7kqcU8mOadWQMJJOIJmkVe6PLZZ11VSKSCNEKsXDEXknsV8R+j9jLHYOs6h8xolb1NmnSf5AcFlsqWwhR/YO+JvkZ0c9IfgapwdpIVRm2N/pcOrPJK+e3ePPiJt+9uM7bpwreWocXBrBZGW324rSAupaNW4QV6JyvZNCsbhrPJFqc7Nj4ZZIVuZadep2ep7rnYkg0xCUJkrSersm1vfUzjXv/OrbnkQEQY7FOuxJKSohvqUJiFOF8H944M+A3X9jiVy+MeOtMjxfGsC5zTHOA+DrfDVl0adHqlG0dwVhCJ8baXCSgMVBbaAymNdigTs8oEe8idZVoioCnIYY6c5Mu5DaHlxQOyhIGfVgfkjbGtKM+815BYw1NjIQ65FhnwJusyFcZSAHamtROic0R0R8RwgQxDWUJ43HJuVPrvHLlDG+/eIZff3GbP3t5yK9uBd4say6amsqQw26rhYtDwaRIMUbD3IvsOapyqkCZY9JdjvVeRF8uqJu0lclbgKgrqpW5asxA6koyJ5tLMxtM50z+mrbnkV69ZOOhqBFLA79aXPJsVYmrG47Xzw55/eyI18+OeHGz4kwfxsbTNx6n7GW5idZ1TtmXlSSPbHQQLHiHtBbnLc4LxuuSPJLwJuJdwBtPSJ4YGgXSsSLo2UpdFtDrwWAAowFp0CNUBa21WpknqGuhDIILgokrRehjyjYibSkqscHQ0C8iGyPH2a0BV89t8PoLp3jjyjZvXlznzTM9rq4nBsUUY+vMcqpsL8tuDrNY4WO07Roay3B80zwVBUAXYreYqwUXXu5QVU9Xn0szhopnMjdSMK1wpe40X9f2HMqaZ95EMovugtvQi49gU2JzNODy2R1evnyON69e4K0XznJpvc86c3p+Cgvu0WKirk2cNZRFqZEE/SGmN8A4fYJjErxP+IUtKlcLDblKSdIAtMXkL24oi4LuiTZdeItu4pxWQlndiEhziMwfY+IcWxhsWWJchbF9+mWP9X6Pi+sj3jy3yW9ePcWvX9nkVy+u8fKpPjtDi3OALbXTo+nnUJU/JXTh0AnflBc2RoFk8tIjRcig2Bz1uHJmg1cuneONFy/w5pVzXN7osZ7m9MOUMswhttmIp3nshdGM0Krq0e8NKKs+tqgQU2gtpZBtOz4DKGgQnYJpZT1MBtRC01wFU/agi9U+ZAswOaRQ94kQoDnEzJ5QxJqes5RFhS16WNenX/VY7/W4tDnkzQub/MbVHf7MlU1+9dIaL++U7AyFIotsXJmb0qyKo19u6tbC+f9uclbsFElFgI2evoHNHpxfE17aGfDa2XVe3RnyrY2SiwPDVpGoaHGh1j6t8xmhrgmtV4ObuEUUQZRlSwXSym+KKDYky+WOWXYgWoCp0y+yQfEYR1IuRFFCUSJlhSkLytJROTChJcynON+w5gznxn1ePrXJr145y69cPs2bZzd4dbvP5ZHldBlYs5p2bkRXXfNcqKJLefyF0tIstNxx7PX/N2gp2rL0UMHakf4hMWJToEdgJHCqB1fW4bXTJa+dHvLmaTVcnuoJfTyunRPnE9r5hHY2pZnP8T4samhr/cllYFgHCGcNZd6KHHKqukG3cunAtAKiRTyPzUW9OiduiRQFkmPHXdWjN+jT6/WQ6GmO9rHNlK0i8cJ6n+9c3OHPv3qF33zxHG+eWePq2HG6jAzCHBtyiyw0ObPOQPr6vFhfTYn8MK/sSCd2LT/LJshnffYLJtXIVkC0vIYlR9J2C4FKAgOBTQvnK7i6Aa9s93n9zJhvbQ84NyrZKA19iThfQ1MT24bQtEQftRldF9+UF8DdplmquhVGkwBWOdJTYFqssZ/BlZyCKbmSVGRQVRWm6lFUPU1LIrJewMVRyWunR7x1fpPfeGGb755f4+WtARcGjjXH0gaVfRiRFQ/LNzJh3Y88/WP6+3n/InryJB0bxD/i9tWUgZTz1fPKIZLHLaruJEa0RhEBE1uqpMvYMXBhVPLauU2+feEUL184zdVzpzi/vc7WYMC4LKiswS4qr+YMVLolb7dl71FS31z0nhQ0dryzh+h7luI3rYq3HO1o1HaVjM0lCLUMYXKOxhRMUsnUDFjfPs1rL13l1159gT/32kX+3EuneOt0j8u9xCmXWLMahK9L+p5GPogFNNOjZ6DM3QZ+IbTi5ljsOra7+3CpQy4OX+zKK7xviPLy//j8JNS1EGJeNQnZYhjzE1pTpKBAGlu+fW7Mty/uZCCd5vzWBlujPuOqpDJdMqEudUXssjFeZz/pAutBV2shAymujETS/5RLneBKK4BagMkqmKJ1RFvQmII5JTPTZ2PrFK+9fJVffe0qf/bVC/y5l3Z481SPCz3P0HmM0YxfTKFOV1PlFZrgCPRoKGlzpYKvlzIuns5Ny/e/fL98+zQv6pCVndVf0/Y8ysYGpYR+oTNTJDqArUQMkhZRhRIjlYFhoVvPiratSgHTrcCiXwBDK7XlDgEnrjLlnhoxLttkpZTD7vOCcjHK3UAt/s4XKrqKS13ue26SF40WKcWVpKKH6w8YDEeMRgNGg4pRzzEozUrzw26xkbX+lZ9SCKsP6+sMGvtKyrd6bMex15P0Vft/sfSUT28ZG5NWVJIORCuoixqmQW4+SYDYtPh6jq/nhHpOaOdayKrVEnrJZ1DlaraLENeVNgXLyq4aQ71qmu9+XbnSKhB5hg6Vg/9FiJIdtK7AZCUcpwW1ApID/1dXjvnXVm63o582jV83JfK9ruzobv8p+mNVtlm9OL2Qbltdkq8+8SSNUvchMa8jR1M4PJpzeHDI5OCA2dER8/mEZjbD13Ni2xB9Q/KtGh27yMO0zO7omsvFpNXYlK3riCy0t2MA6t6vXrAevUDAAhC5203hcGVBQJg0gf15y+NZy+60Za8J+JCj7ztNujv/yk8kWOFHz0Da107djS1u8AR1F/i0gFNavfI/6vbVZEhCirl0XFSBZgwYq4XAUyfSRLJOUxClYErBk0b44uEBP/r0Fj/++Es+uvYln39xg9t377G7+5iDw0Oa2WyxeiM0SNDUb21+HDpn0VKSGKuGRGvBCEmWwVrdDWnMzbM2lu8hcyd9NVYYVIZBmdg7OuDDG7f4g2u3+Kef3uO/+/wxP7g/5+Mj4fbc8KSJzJsG385JfkoK2vYTLezDnJJGk4lWhvKPRk9N04kdi1t71oertHi2/hiU7RgT3gdCDPqcCar85myKLuM0iSUZRy2WaTIZSIf86Npt/vCT63z4+Zd8fv06t+/e4/DxE8LhIcxm0GpiYvINEhotKbwKJLpiDMo5JHvT9XdXAbSSn5a68jMrQFq8XxnrDKbCGoaVYVDC/uEBH924zfc/UyD97me7/OD+jI+OhBtz4UEd2G8bZu2c0M60DHLykPNHOjvS122QTPk/lQw/m7L9bOoQ900q2wtK+uML1UC/GXP+Q5NEq942cH8SufGk4dMHR3x494D3b+9x7eEhDw7mHNWeNpJ1kpyIaI32fcMjqcWmFpN8bgqsEQNp0VYZzTWTFW6U/+VRVuB1+tOxO833sBjwJaJiDLTeM29b5hha12MvldyaC58ceN57MOUPbj3hx/cO+OTJnFvTyKNWmGCppasmpyvLbq34ixBsP2W+Vo74qpijZ+37xZPpdArheOEC9FIzkGCe4LCN7M49t/fnfPrgkJ/cfsIHdw/44MGEG3sNezUEUyBFDwZD6A8w/R5FVVA4cvmoFkOL1j0JixLJrLR1Uh7V/VvCq9s0M2IBuUVaVGc01Is/PqA+BCbzmsN5TWtLZG2HMNxk3/a5NU/85NER/+LLB/zBzV1+sjvji0nkfms5NH3mpkdLQcoA6sJAvj7B9nNQfla621s8RyeP+4bJQC6MIBotuDqFrHCkOsL+vOX+wYwvHx3w8Z3H/OTmLh8/OOKzJy13p4lDbzTLs6hwVV+tyIXDWkFSIIY5KcxVvKUWg8dK1NIwucW7Uodo3a+fnQBUBo9uyp3MU0FYaQGsFBNtG5i3CW8rZLhG6I2oTcleC1/sz7Rm+L19Png04eO9huuTxL3G8KQ1TIPGyZmkcUXfJJCeD5LlPf5xUgaSwVqrOlFKOeZaJ7abyjpEHuwdcu3mHT78/CbvXbvBe1/e4db+nIkZ0hYjgutpzSTjNL07JpqmYT6bMJscMjvYY3a4Tz07xDdTom+QpHrZUqHvbDedfrTKjZaKdrdmOrl1IkdfF/kWap0uxlCug1Ra4yh2tQAgGJgB92YtHz444vs3nvAHN/b4wc1DPn4w5f6hZ95oiyXrW22OmOLJ8fzaSaXzzwiUr1y5/eLJIFqvuasun5IaBFOuqh9zyeJ5SDzYO+Czm3f5yec3+cPPbvDeF3e4tV8ztQN8OSI6zXyNopmzMSVS28BsCkcHsP8EjvZJ00NiPdXox5QLIi+AtAqmk0DqRNeS4xwHUtZh8mnyWkGr5psSipECyVS5sGjQ6rouEQzMEe5PWz58qED6/s19fnDzIAOpYd4EpJ2Dn0CcLVZyv1j6GaGxCraf8StfJ5mYPFE8SSLJaGRjNDCLif0QuX0w44Nbj/nBtXu8e32Xn9w+4Ppew+PGEcyA1EUImhwhqCXXiB0wtBzbMncsoulD85o0mxNnU1I9g6bBLFp+dQUfXG5N6CAaxAvWJ4oWigBl0q7aYoTkBG9zhCVayF1LKQsxdUEOYRF4p7asLnDO5voGJT4VTBvD42nk1pOaj+8f8v69Q35894gf3J/x4yeRm5OCg9oSvKapd3axlJN3u1jRhcaWNKaL1GpaVtJKYCkfpz0F9Fgdtlz5LYeLdQXDQJ8Q1We7AmB5mb/IeWP5sHXP3Ne1PYdMQ6P1g/C5/LAQjDCJsDsLXHtwyPc+vcs/fvc6v3/tEe/fm3FrYpnZNWR0CqrRwqGpy5kc/C4ogIoCW/WwVR9X9bGmQAIwb2A6IxweEicTpJlhfUOZPJVErO0CyHKUs7cYLxStUPpEFbQkaSGCcUJ0XeB9jhun8/WIVl6LEXzmJn6+ktotmgIlJcb0EdHfa4Ll0VHLFw+PeO/OAb9/65B/cnPCP3kIv3sw5MNZxWETNSsmNJD7rPlcMO4YmFLM4G20PHNS40HMIKrzaycoBdFyNxhSFEKuEJc/WSRJgoKMpKaTriMAsKJvfjNkQvJEApGIZqNBjfB41nLzyZSP7+7z4y8f8b3PH/CTu4d8sed5VFtqM8D0x4grM1yX+sYCSAImN2kpbUHlSkrjcEkwPkLdwmxOms9I8xm0c4xvcNFjU06axObcN4MJggmCDZpCZJMuEjjmGeki1buB7J7MpcN5kUyQgUa0SHIYKREpNfguWQ7mgTv7Mz57NOHde0d8/+6E7z/wfO8JfHgA96deH4hWM4VDXkEdE8AJJIWl3SzbzrqlQzhe22Qp3QWtcLRYlWXhnaMoEJO50XKRoqlhGUQnucnXsT2H7H/yd//OO2iqHnWyTKNldxr58MYjfvjJbT68+ZgvH894MEtMU0FjKqLRpbBWHmn0CZNWayNZ9FeTRlam1hPalhCjsmgRJPu8krUkUdSlqK2ifO78E9pIakLO7ddKHmLUYBmtwRuh6RoOJl2V6QxmROVBVQ4ZwUSVrjkhQR/orIt1E5V1RBV5STXEFBcl9FKMeO9pmgbqObFuaFuYSYWUfYzV1hAlYGOL9U1uGpiWceWmJOAIuSeuSNcuYzl0TdRiW9en8MlR4PY0UmIpMWCN1kcyYLwgrWhunGkRE9FUjAJ0VL9Wx3L8//xfTu5akHFYbLLEYKlbw2FteHgY+fjmE/75e1/ww8/vcX2vZj+WzF0fGYw1DSh5aCfgj8AfQppTmKARAIKGWAQPTa36UNPiQyCIQcoK1x9gypzGExLMajicwNEEP5kQJxOYHMH0CNpa+yYZrcLRlI6ZNcyBNiRiV3TRCyZaLAZrJOcweDA1xgacMxRFge2SG2DF+ZyBrmxUoy2NJWFoQuRoNmd374C7D3b58tZdPrz5iB/envK9+5HPDy37SbOtDBGJU8QfIe2+1olKAYwjmZI2d+huoyX4hIT0lDlByFEsOdDPWC0d3ZVM7sSXPq+qPynTUNCsupO+KTKkgnkt7B16bt4/5P1r9/n+h7f5+PYht46E+zPLw7nhSS1MvKFJOWuj6KK7AjDXzIzQYHPOPG2rE2QM5ChFypJoLU1KzH3Ad4Uf6Jb/ScVOPWOQWk6VhouDktM9x7gQShe1BA5hOdrSPc8OGw2Fh6JNOB+wQQ2fRhpEvBZXP3b7ndzIG0nFhzEZSNrCK4iliYlJ69mbzHm0d8TNJzM+2W15/1Hgvftz3r/T8vmjlodHDb7NWvdiwrUofAxREzezPcqKaL3vGBcRLN3cy0LMreT6d6fLCnYHn7xzcUt/HGRSsBzN4OF+y6c3n/C996/zuz/8lI/uHLGXRhzKmHlb5Ij3pFY5ASqHHRRQJC1TE+dIWyN1TaobYt3o0+4K6A+Qfh/TH4BzJB+I8zk0XcO9hC0MVeWoCPTaOZsSuDIseXV7zIVxyWYlVDYSJa9+yCA1BZgSJ5VWefVgfMC0LeJzvpq0GFEd5XgsFBlMGcxJZ0+M1dKHrsC4imS0Qt3cJ44az5PpnHuHDV/sBz7YDbx754g/+OIh79/e48ZezZNGmCerqUvGQkyktiW1DalpkRBxQGkk97BbBoE9i5cswN/hnQycDlDdrfwxkpm28PDAc+PBhI9vPOZHn97hB5/c4YvdOQdpQC1DiOUyad3ntYU1FGXO9TJBFUrvNXd+UbMIxBbYssJWPRVl1umILIpiNRg8QwebpWGnZznVM1walbyyPeLbp8e8sNHn9NAyLqEwnXoasy5kQRxWCkxymChISFpLO+h1SW7tlWLM/UZWQbT6JHfsQGPAxTqN/TaOII42GeqQmDWR3Znn9qHn872WDx9M+fGtPT64e8hnjxtuTxK7taGJBSk5UlQdkBAwocGGFqcpEAqSjJzUMZYTzEUvrRNhK6/582fR8z77RZD9d//677zz/o2H/OjaLd6/tcvnu1PuzxJ1MaBx/VyI1OQqsOl4Rm3UTQCDQ6IlRauNhG2hEYm2IInNjX0l32Lm7bEBP89FzROnB46rOxu8cfkcb75wjtcu7nD51BplkbAmgmh36akPGsKRJBf00jRlchSBZjlFonSmCO34GIMhhpyZQicas6jOSj+Lh30lDKOz0ZjcMdw6jHEkRI23UeuE+2SYR8NhA5MW5tHgk3K3qig0m1siZuFfJCv8uYBqfjzqqFVtvzxKfLTfcuPIY7vSfwLeaKUV4/MK1gScCxiT8KJ9Gki6hPqmlG37l//n//E7P7p2i3/+wed8cn+fO9PAJDqCG5BcX5XhnGRIymXwkhrgYlIQWWuRZEnBkILaf0zR06e5m6CFnE9aYtgmxM+hPmLNeLZL4fyo5I0r5/j1117kzStneeX8iAtbRe4w0BKCZ940zJuWGI0GorGM/9ZB66IGIqnrrizZJhhkYYw2GUCSU5lUn1koIStcQUBU4dVKvw5jC0hC8J62bWhjYh6EaTAcNNp8cB4NHodxjmGvZK3nltXrupVhTItyg13oVEgKotrDF0dRgXTYYkPCxmwyyKWnrDeYYHAmKpBswqNVYUALhn1jQHrtf/zX3vnw9kOu3X/CozoykUJbZ1ntsIM+8GrsSyqKNGdexVdCl7SSSi2wJeWiL6zCLG8pZctygw01vdSw4SKn+oYXd8a8dm6LNy6d5vVLp3nt/DYXNkt2RjCqQIgUuTKJKqdqR/K+ixjQpXmUpFVQbI5rMkaf+AgpGlLMHjgxGGM1iC63jUh0ekoWd3FlAkTBtHw12TmcRbrRxoVNEqYtHDaR2ifmXi3rJrugLELplpkzOr5ac6GjSK6zHeHLiXKkm0dey1CGXP/C5nbt0WBXgCQ24pNbttn6JjnS8Lf+3Xe+fHzEg1nLRApaV6lFmbyCkkhZwNCpbUSiJ4Sgd9smkJKULcLGVoitCJhscSVzIxYgEj/HtVP6ac65ccmL22PevHyaX3npAr/y0gW+dWadS+t9NvswLAOlCxQmMSodlbWUWCosBGhrj/eBJnqtMmuFVDpSruQv1qll25NFoG7GOoztslmyHStlM8CCW3RmxY5RrRaB12LoLnmcSSRxeHHUQThsIvvzyKzxHM5b7d0meRVoHYOeozC551sHoIhaqnNTpiZX4vnyCD7a99yYqGhzcaXOtskginbJkUykTY42am9VIwqmr4ueC6T6V/4n7zyat0yiocmeex3coP4hExm4xMBEbGhwOSMkeLXbYHpghyRTql/MOK2gH5JORKdNxhZCTZVqhtKwWcG3dtZ4/eIp3rxylu9cPcsbl05xblyx0YPKeQrXUJqWnjOMq5KesVRiKbBEH6jrhjYEZsHTpqB6XKnlZZJx6mbIJSzpXAum40jZndDl83Xg6TgSK9kkqxsdo465gU0iYGiTUet2E2nqwL6PTOYBn3RBEEWzgMtK8ax9bU3m1F0vEqNAirp9OYGPD1RHciscKTrN4XNBK/87E3HWIzbSRksTLaLQP1G8649GzwWS+fV/+50gghSlWogbLXuHFaRX0LMJm3P5U6tlgiUZMCWx6IMbqDc9ii7rfe4V64y+phb8nCLOqOJMFertMa+d3+Htq+d5++p5vnV2k/PrfTYroUcLKQezikZRWoQiCRZDZQr6TutHGgGsEIhMU8Abtaar2E3qJw1gkoovlUw5hDgz/ZSrnC1FWRcyoFbkZd/djnso4JKg4tFafEjE0P0Y4AzO2VyG0DJrE/uzwKRJHNSOWasZcYXLRW1MyL9pibkeWZPg+kT4+MBzcxIoEhRRtO6UU/Fto8EFgzUBawNiAk20NFFNm92lf130XCD5t//Nd6SoKPoD2hCJ0xnUc+iVrI37FARSfUSYHYJvMSFijMOVA2w5wktuQBKiAtA34Axlr8ChYRemnVLFOf045+JGj9cu7PD21Qt85+p5vvPSBS5vDdnuGSqTXS5+rm5Mo2EekrTyT9841quCcc8h4hCjIJrHlmloaFIgtM2i/wlBIDoMpVqFbVpUCk2yBFGKmQOlrA+ZvJKz2j1pAaIuCjOEvJLVYhWt99DMVEZZwTmDzYmZsxZ2Jy33DxoO68RBAx5Lr7KMempLqkybwWpJGvJEm9RF8vFBUCBFwSVN71UgqViz0WpbL+cRCTTRZCAJRr5BjvTqX/6fvlMYg29bfNMSIqoAlgXWGq1439Yk32Z1J6kR0FUkWxJEg9gWMkQ0KMLEhjLWDKVlq4JLW31eOr3Om5fO8Mbls3z7wikunxpzbr1k7KDoROmCjeRaTdKVqdL3xhqcgSgO62yuWJUTFoBZCBoz3m0YRFxevWmMuEqvbI9ZNdxk8SW5cY1kEaSfZ5HXGS/zik57AKqlXZylsNo9QZvlaMusuU/UPuGj9l4JviWEkMtABQqnveFCFEIUXbVFuD6Bjw88tyaBIimQ1E2krzYYrBetP2laMCra2mgRchPFbwpIf/mv/o13/HzO3uMneB+Qsgf9ISJC6yPBawEFXWTo6iuZnFNvHT6nR2v79YBIi/gZab5Pn4btnnBxo8/rF0/xKy9d5O2r5/n2hVNcPbXOzqBkXAguBWSR76YcQoz2hcNUGo+UwyoQrRorDnoDhy0czmrtIpMisWmRkIt3+ZT1JbsAUqLLn1vRhRb6EMvmNd0irWNGdI7cFVB1pZatoSwLCuewRkVozLbbmADRblBN23A0mTKfT6nnU2azGcFYXH9IFKtp6iFQB0ubgfTJYeDWLOKSivdkO2Vbsh1J+7UZ0yISaJOljS4DSb45IP3P/lf/23dmRxMePXpMTIKrhphySBsiqcnWYAPWZJ2CqPn1VpvURdH3iKegoUw1Nsywfsp233Bpc8C3Tm/w1gvn+NWXL/Lq+R2u7PQ4t2YYFoJDK+ynpCnaQXtrk0yBMb0MpNyNW1UbMEJRwqAHRekorKM0AiESGk8KieD1qY7ZTtTZlgRNwNQZPg4kbaHVYSpzncyFFqlQHfeKXb3uCM5S9iqs0bis2HWoUBTplsA3c+bTCfNmznw+Y9a04CroDUkp4XxLERtVtpPjRu5FcmeWKGIGkhFt/AcKIi8YCVjrwWgr0jZqtOs3ypH+1v/mf/dOjGBQDjD1wpNpq+2x0OjGbjmNqMU4CPiU8DEso7rbKXF+qAAaFFzYXuPVC6d548o53rhylpfPbnFle8xOX1hzUEjXcChH4uTiD9E6gisQ01M9KAkhCW0U/U2JeIlEMYvCBYWx9GyBxVBKoe0ljLo0PIJfLWRKfulAKWhQmOQsmpSIUXP8gvcr2cHZwZyBvPSwKgh90kiENhoCVoPpRHIMUovEOY6GQjw9B85qTs2BF+4ceOazOcM0Z914mghtMrlfW+T2TBvzFFG7a3sLQVIOIwErHms9YhJtsvjUcaRvEEj/6d/7+++IOMRVTFvh/v6cx48nGUSVOl2LAnE2JwQEQopqtwldneMIzQRmB9gw48LOGt/KIHrr6gXevHKGK9s9zo2E9VJBtDBQJo3KxFiiKwhGmy6L0RUNeSk8j0JDpDWBYDRhwObEx1EpjCtLKT16ViuHNEmYhsQkBOo2Z8oK2Za0JAVRZ3OBlLSABcHnRjZdRd3MjUQVcCsJkzNg0kKOmZUCyJmDJo+JM8owpW88A6d1NYM4JsFy+9Dz0YMp0sw5V7ac60XaJHgsN2eJa5PEnTm4rGxHA17Uwm18Fm+iLpJlPJICycjX3Bz5eUD6P7zzd98JCZwr1BbXBnyMiLXMY1wsp1MI+vwtXAo5OCwG8A1rLvDCmuHNUwPeurTNGxd3eOXcBi+eXuPChmW9B6NitaZQfrqlWyl1fWWzO7YLq6CL/wZjEkaS+qy0LczCHuMMgFC4IivJSUO80hzfTggp4bPlXfUsyUmbQYPPoicmnzsF6ApquekqCP0JShKWzuCqdcQzq1pRrDK3Stor06DxRZJtSq046mSYtIm6CRSS6Emk9pEbE+HmJPHZYeLGFA4ao1GlSUVazI4CG3WfkUgSVQ18tMSk7iLN9cuDuAjP7a5vxecICzatOuFiYvQWO0b+PCC98zt/5x0xlmFZ0DOGvoGxGIrkaacz5nVNaBqNVDQOyv5i2VuIYNoamR3xrbHhX7m0zl/41g5vXdrm2+c3eGF7wNm1io2+pWezaQmWg2xEJ8l0wVpqGEwhIB16MrewBgqjEYgFYLIioqYBq6ex0KugsJaeDQxNy8BPGNb7kAxHaYBnqJm/TrAETKyROCfGRksxQ3Y4a/NnbC8r+uqwc0R6ySMJbacqWuh4MUHS3Z8uG/UuugdFuYUXjZD0GRgJkJQ4bCK3jgLXDhKfHURuTGCvtUQsJo9HzMxcUu5YkOsjxBRzUwOTpW5St1F+MDrjq4jGfXfRA93CYwmqxSTpTHUrXIB//Bwg/c5/8nfeqQrLuFfRN4ahdQytIbUqt5u25bDNfWud0wA1a+lZw8gKw+gZp5q3T4/4V1/a4c+/fIqXzqxzeWfM6XGP9b6jXyjHkBxPHJPGLJO7XB97inOhLdCwXEQVYGfAiSwKB0peMUkeTGsMhYVeCVVh6JnEUDw9P2XQTmhSwWNGHMU+2KS+u9RgwhxiTci1mzTrpcorxkLBJLk5T4oUKVImr0t/0fCSDkQahKZVMoWuxwjZu6+ACGIIWXeLAKhobUJidxa4dei5PU3cnib2vSFKQZn9nh2IyNzaGIOxRhWOkPBBQWtED+wqu5hFYkBnzV8BUF50ZLgtOFIXhanrEgWa/Hf/12PgWSX7d37nb72TuoYuWIyrKKs+UlWU/T62KkkWDqLXqhyzQyTO2XKJs33HSzvrvHX5PL9y9SzfvrDFxZ0xw+GQfr+/CGtdhIbmJ6CjRfTfCTJ56bQMeM/Ma3GEfqKrrM75uny69dVhjMU5S1VV+GLIREoOQ6SIc2impNAQsi8s2UqjHWypT2XsdDjVAY0RnFP7TESUq0gXc67U+cu663z6zlZpZRygC09QZ3COSrCuoCiK3KS6u+tlHNJi/DJoSFHBZZbiS0THqAvTzUg5VvAsoYhZcK3Flel+BdtPAdLf/p2/9Y6Ixga7wtIfWIajiqK/Rn84xjhD2zbU8wnt7JD2ySPK1HC6Z7m8PuStyxf4zW+/zBuXT3N5e8jWuKLf1+qxzjkFRaZVEPEMIHV/63e0Z273RC3a0HaKUxaHcsxnlqcnmyuKoqCq+oxGQxpbMvWRWV1DPaWeTbQCC12aeR/bU3uOulhyAdIUMAbKoqAstLZSE2UJotXr/7mApJDIUS750dfE1A5IzhW4osA6twDSgn8sOKDkYDfVh9SYqte1GE/ReO/FBSU0EbYzyOYh1WHsdKnu2E7sJeSf/N+W+0+Q/Y9+52+/s1DDjMXl/sFioCwLnDVUhWFcOXaGJeujipdPb/Ht8zt8+/xpXr94htfO7XBuvWRzYBlUywD7DiQdgI5bk58G0uq+RC6nk0WbdDe6CkZFVn6KVoCEXr814JyhKkoCQkyqgJcSkBgAwYvBR7VbRZNDZ/RC8o/GxRI6JqGNLIP9TiClA5K+f+pjpeW8weoxnUhPIXcwz0AqS10I5aNT/lJaKO/6x7K2lQJHx7UD0zLfDbrw3OU85FPn5kZLriQZ33TAfQ5HkoN4lLpUNJscJpWkCEcejlp4eAR3D2bc35+yfzRh/2jCsCzYHvY5NR5wfn3MuXXHoFLHu7M+s9fjnKhr/7RKJ4/rSJU7WeZ65etTlbYTYN3W3bKKnJBEXWxdzljU7d5B4sbjCV/uTvjswSHXHhxx/aDl1mHgSZ2gyN26rSA2aUhvaCC0hJgIORJTi5OWKkBT1yNFSadq+f9y6pb/SWIhnFKnQyU0tctr1q4rKlxZ0e8PGYzHVP1h5rjavjQCiGiavTFaKC2XVFTunR/E/Psdx+64i+pHUXXCjjpbmtGysR3ullm+ifQ7v7I8/gTJfpxo9euUcMngFunLhiAwCXDYwFED0zlMa09lDOPSMC5hXMC4M510s51plROtAqnjOrIQY8/4TudYXXzAIlBryXsWQ5W/K2pRFqvhR/n7Cb3+vSOtpvLRgwkf35/y4cM5Hz2a88WBJ0lu5lxYisrSKyC2M2I7p/FRW6UmA8UQylGOr6rVyXyC92ReoE90t3MhQhZ7luORkho+2xpiwJUVrijpD0YMRmOqwVAV9syl1dogWKsBeilpxb0Ug6YtGb2C5S+Rr0oDAZ+WDN2cLL/7LCDFv/vdY2dcJQMOg8OJxS1uXfUDm7Qv37qF7RJOD+D82HFmZNjqw7iESlbSRfOVd8A5Vlg0A6hjxyfF2irYlCOtDrnOQ0z5xuKKfUQ/hZWIRYle46FyGQELDAxsV3BxbHn51Ii3Lm3z1qUtXju7zotbAzb6Ru87aK3Ltg2EKLkgRm6h1Ym7zgh7YqpW6dj1n+DEXx8tx3AVygqFlYtI+Rq6KsEZPCZzoU6H6sRit18Wn+v+55FJOXDe0kXsxZxeXEOssXhGGUhnBnB+DGdGsN1XblRK1M6QQZ8mTgCp28hA6sC0kO/5+NXtpBjs3qaUbSMdkPKTolv2haUcRZDFkgTNGeubxFaVuDiyvHxqyNuXN3jz4javnVMgne5bKrQ0YWpb/AJI2jtFdSKTLaUr9QW6C1xwnMVVr1zjL5aWynF+XYBr5Rq668tgMosVnc6FNQbbgSibCgxLIK0+9M8i4zBYHJK6FuuSByFPSvLa8SiG3H81x6uBrhZMILmk7WjNEhQdrXKfZ3GiVVo8XSvKHieeNv1jdcBWPhX1eFujFfrVchMxKWIye3IW1kvh9ACubpW8eW7Mr1/Z1Jbr2wPO9C0VHl/PaVtP61Hl2lVQVSq6uwdnRT9apZ8FOotF/Cr+uvHpxmIxXsvPn0/Lc668dPg5Ni9kkCznY3nu7oFdfbh/2gNhigQ2klGw0q0I9BJiVjrbmtDMaeoZTTOn8XPq1NDaSKyEpHnax6i7yK8SZyePY0UBX4Aq/ycoK17I8WM3n/8WNTgZY7DW4Ky6DyR1qVPKySoTWHdwaQxvn+/xmy9u8auXN3j7/BpX1kuGBK3pVDdaWABHUfYY9PtUNuHCNBsytUDpkhZP2DE0LSYy70zH0LN8vxijfP+Lie5WX90x3YAsaGlb0p/Wf3TgWXDuJelwrZ5XD9NAv+PSZFWqfBUZ1/m0FmA6oeGSrc3RE0NL9C0+trTR0+IJNhFsrq6/ylF+RhDB8klZPU5WxkqW4UILMC1Rm49KeTSMuly6TWDpc8r35SQytJGzA3h5C757Hr5zfsxb58e8uN1np29wkr+jSyScsVTWUBBwYaaulWdypOOTdvLdKohS1gVBjUkLoCzAsrKR74/uwdIxWp55FTTdznz2DKhjkmIFnN13U8qgCcf125PffRYZDeXIv6kWwGzVRSfLaMV8cbokLaoeRVVhqxIpC6JRc/9KkMYJQDwNoO7COqSvAml5jCrWIaQlV10dWCGDfuWaY1qtb7Pyna6thCWgGRYkT5ECgwQbApdG8MbZIW9f3OC7V07x1qVTXNwc0nOCCw1hesTsYJ84n2GDx+ZS0itIOUZpZTx+mlhQ0vtaTG5+XWwrk97R4rTpxG+k/Ov5ZcVHsHhdfk+PTxlAGrnpCV5rFagFvAtH/mrSbJW08DHmHlL5IjpPaO5/ZsuKsldSVCXWlYg4EvZEfZ8lJ3oWN+pAsyp/n4X2rgRhDF6tvRkTyydUz6fxZUnTfhan6YZ8Ke4wliAOr377rPvNsXHCmsy4PIbXz/b4zqVNvntlh7cun+LK1pCNUihjQ5wdMT/cJ8ynmKD1m57febqbzOcds6TFHeX70/cLFC2PW7ztzqu/k/HQCbUVkK0CSmlx2vx5ikm5UAhEHzKIuk1BlNJPEW3Zc7iwAUWnweXLeNPOiqtcoIvb0U1IRAItEb8iqZ9NzwLPs0DEsZvNdqPlWK5Yk3QLOfgtLCITyZwpX2nmSMs2XJ0HOWmalK8ZSctOCVfWLK+fGfDdi2u8eXbIqzsVF4eWNRsoQqNRBzlOXf1sz75++GkfHf8wz3We+Pxpt7PjMN3bE69f/TMnPzl+cKKbi058PS0hjNGMGGfd8ovPINNJg2QhFZAKIRWG5HJf2w5Ei5taVvczALkTdggt6Zk6g9IqgFbl7rNEX0eSsyCEpYutow5EudK2AimCj2lRO7I7hpzciFHjtNqENCyWoPFUNjaMaTjXT7y6Y/nVC32+c27A22f6vLRZcKqCnkScGJJURAqWYWPPnc0lSI7PYn5dIuLkg7bYSBlfeqZuortXPddzLgDy91b+yghc/s5xXWgJIofLzuPnkYkEogSSCZryLEKUHKKKELJXfUFZObdJO29LiFqFJOSSMV8TrfCTpSV7yaV1E1FOQ5e1IUt1KVfjVaCtTiYKri7GKGb5mDzQsFEGXhjD69vw5umKt872eWWnx4X1HpuDiqqsiFIRpFwCqZvI597+sz48vi/l0I64AM+ztu6n9LsLMD2LjgFnZecJICpIl8dIXjFaa3HOUZYlZam5hF9FRnIKZyQQ8LQEWkIuT6qVYRcX0c1Gtse5BD3RGKaesRjy8vErbu6k/vRVOlSMWhdR1RsBEilqCKyuKJbXJEa0opl1WKchF5Lz6fOlZmAdu3ytZmJK9bEVPeW+yYOf4poJa2HGxUHg9bMD3rq8w9svXeTbV19ge+sUwfbxqfMJ/eyU8n8nxdrysxXOkIPSjoGoA5ee5DhSvoqSnnepEy33L/7O7yXblmzmRIUrKIuSqizoVT9FtBmnqFAgBfwCTJE2FyhdXHM3C937lHAi9KyjMua5QHoWiE7ajGDJavXmc8ftpAH5XUNABZqOjOT0N5u9GJ3U6qwYqVs/xByDkwKBnK1iCnAngBRm0O5T+j0u9QNvnBny9uUt3nrpAq+9+AJbW6cIpr/iXPz56Cvnvxuz7ALSoLPudcmNnuJOz6NjK7ZVwCxVztXP1GJisCYXkC0KqtLRqzTy9HlktHGEyf8sFofLLhOLgkM6ObP6KvmDXOgKcSfCFf7laPF96VZnqqdJjrNecLATl9OJwcWWVSLp3ueti3RYDKCYXBFEW8kjLkdGFtjCMSrh9BBeXIc3dwx/9pzh37jkeGWzYGQKaEqgR2kHlKZQcR8biA2JRusEWzS6tPsdcl2aXC9MomBTwsaghSlSwEWP6Xqs5IdZOakQkkZZhiTEKNq9POri3mBxYrE5/y8ZjUbVxbgQosUHR0gFMfUIVAS1jmmNp6AlnEupGbmanUHi4gZc3jwxUSfIoIWG1XGLo6SgpKTEUWJxIhqP89RMdQjrogUcIhrW8EcFk56jU/S1PI0xFmO0KGeX+LcKpmduuYGxXeR2SHZRa4bK8ipNLjpfgR2oh78Ygi0wAus2cbnn+c7ajH/jXODfecXwF845ThclzHqYOGRQjOnbiiJF7Q4QZrqJVkmh0HqUGK13STC5Cp5gAxQxaY1xWkpaigwok42pKak49nlrk8ZR+ahgStkzYbEU4nBGU9Sj0XI/gYSPgg8WH0p87OFTSaCHp6f5cCHRtnNSmFAyYeymnB02vLgF3zp1bIqeIgMmA6njRo4CR4FF/XCieDk5Y9JxDZPB1BVq+OpV2M9Cx3SmxdaBqduOA+lZ20lAKahy9unKLaSErv7EEqQg2opk+5CLjAkwtIEzZcPL45Y/czrxP7hs+c1zJVfHfWwxZGQq+uIoUc6idbXjMkpAuspxq1eWXVE5O8R0Jcpzc57VkBnRgVnh0rotlOSYw2FjQmLuTM5yMFTMawq5lmV2+CT4XLDCY1DzaoDUUEnD2NWcqhouDQPf2oBXNk5M1AmSqOmgv7S0XLmo3nFS+Sfrfd77RY3ttm1596Hj9+72+NE9uLv7iHuPdzkKLbWB2qjUWtgsFiO8AiCMFpzvqiD6muDnpNhiiwJXlPQGIwbjMb3hSHU4azur2kLfMYjWJ28bog84azM30vTuZARN3nJZHFpi0vI5QVgUsbeppp9mDNKMCyPHC+s9XtgccHVng6s7hl4B//ZbVxdjcpL+FEg/A5C6z2KMtG1L27Y8qPvcqguuPYbfe/dL/um7H7IbLO1ok6Y3plU+Au1ck0fbOstZQ+FKeq7CmZLWa2uWuu1KSgcts1g4BoMB47Uhw+EAZzSQTVuSKZxUfUq0Tct83tA27cJH51ypAXJdAVjjCCK0CdqUaJP6S0kKooqabevZtoGX1nq8ujnm1c0RL2z0uLoOPQevfvtPgfSV9LMAqaPOkRlCYBIKDoPl/hF879N7fP+TW3x+ELjTOh60jmkW98RWwRQbsGjBCzG4HMDTRgVSq62+lVsVFgrLcNBnbW3IaFBpqSajDui0MAGo4Gt9pGkCPiSMcRibW7ladWB3Mdyd5ZoYtYKJBAYFjCtYr+B0BadLuDQsuDqquDwoOdOznOmpBnP1zT8F0lfSzwOkVc4Us39v0kQ+3/N8vuf54c0Dfv+LXd67d8QhJZGcE5fVIkukNFo0g+jVSZpdOiHleOUc7mucZTTssT7uM+yXquFIJMWg7TgSixWz6j2GKA5X9ilKSwPMYkMTGmwM2BCx3mN9SxE941JT3U+v9Ti/NeDMep+zAzgzhFMFbFvYNDBMgV7ykBJXf+3bJ4dkQX8KpJ8DSMcoNtoZKQUOGfMExz/7dMJ/8+Mv+b1PH7DrHY9bLRFNUeGcw6IrsRhqfDMntDV0RkYpQXL1lcJSOMtoWDEe9Rn2CrXPp0BMiRCiLvmtFqtPplCXjS0pe4aiB7MAh03LvD2iioEqRPrB0/ctYyI7PcdO33Jpe8yVM2Mu7cDpkYZTj4FeAheA+RzqKcTI1d/4MydHYUG/9EBiBUQdqE4C6ZmgSo2GI6dATY9J6vHJgynv3tjjJ7cO+OThlI8fTDmIBY3p05iKENXAq5WBGyTWuet4nRViNQ9Yq2UDe70eg+GQXl8NpmKy41lyLfNs7/JRaH0iRNFCqw7a0FD7x5Am7PR67PT7nCoLTheOU6VjuzLslMLOyHBqDFtDjcEfV9pqtUwgSUs9kmtkXX37106OwoL+FEiZnmWRXwXU02Bqc9P2lpRrEj2Zw4MJ3Hjc8C8+vss///ged2aWJ4zZp8+8yxkg5Mp2NcYfYfwRNoFDM2KTaHGwotenHIwp+kNNlXfaL1hcpe3NjAEDTQvzeaSu/YpJYI8UHtEzE67ubHN1e4cXN9a4ug6XR7BdwLaDkYWBhZ7NawEBKy1C7oKeUnfRXH3lq7NIfumA1Imvk7TKkVY5U0dPAyqQ0LI+Km4SdbDMg+PxJPGHN57w3vUnfLLb8vle5OZR4iBY5qFLIAi5eHtNQY2LniJ4bEoqqmyB7Y0pRmvY/phoS6KrNDbMOMTabhFIbCOhnhPbBpfBMHJz1ooZ273Aha0NLmxucGHNcWGketC6gzUHlQEni0I8SPKYpJalpQ9GAOHqK28sxuMk/VIB6VkcZ5VOAmn1+FUgiUiuFBW1hV9stcZmUht6HSx3DiO3DyI/vv6E7197wLu393kSS56EAq+mUJ2fUiicoQxzXDPB+gaKPsn1sIN17GgLM1jT1lxSqKszaSfxUgKlRIpYU/g5VWrpO2Hg4OK45OpGycW1io1BxcYQ1nsqukYVVE6X9DkGIq8HtF6eJWJDxISkK89kCCHwrTdeX4zHSfqlAdJJcDzNYZ4+rttWj+lcQD6n8nmi+tbaBieGwjjElMySYQr88LMZv/vul3z/03vcayz3GstBMNRJdJJ6FVL1KP2UYr6P8zMo1UVjR5u48TYyWKNOKki1+FzCxJahtAykZSw1Y6lZsy0bPcNmZXhpa43XT23y4qZmQFeFliF3XYvhRcOBhDpQYramq7ZmY8J5EBwky527d/mtf/3PLwfqBP1SAWlVfLHCXZ4HppPUHa9tW7WJq3pUc7RCdgur6wFu7wY+v7fHtbt7fHxvj4/u7nNvnnjUOvZCkZtLl6qA+ykmtZhqgFRDiuEG5XgTNxgRchSDiREba3q0bJWe7cJzqgqcrjynepGdoePUoODMcMDZ4YjtvrbWc1ZFWJcboWausOCsuUwrsYsWiIKJQkmBE8N//Y/+a/7aX/9rJ4djQb+0QOo4zfOczM8CEhlMIYW85cY0osXWF70MUVXIJ+228fiw5V988Dm//8HnfLYXuFVX3KkrjpocQZCCKvA2QjWAaoAM1+mvbVAOBnrCFCmp6ac5Y9NwfhA5P4hcHiUujeHy2HBureT8uGTgKgpTkeNAT1BuU5/9M0nAk7qlg5oWkkGSoTAFhcDf/g//Q/7f//AfnjzRguTWrVvp/PnzJ/f/iaOvEllfxZU6Ogmm7jgtC6OlAoNYtJYb2QmcdQ6tJYYIzOrIT768x/tf3uOTh3M+eRz5bC9xa2o4muYmJCYHBRUlFCXVYMhoPGYw7FM5oedgXCY2isBWlbgwhHNDOD+InBtEzvYTOwPLRj+3OUsFEYdJKyGQMS0dyZ0zOcfcdB2/1cguRNQC/+DOHf6Hv/Vbx8bhJFkReecv/aW/dHL/nzjqALAEwtOrt5N/d/ueBTZB61maRdqUCgWTe+kusn0loklQgaIs2FofU5QVMaK+sRipvScZMM5incOZhMMzdJF1F9gsPKcqz/lB5Oq68PJOyWune7x2qserp/pc2Sg5NzRs94RxIUhuWV9LZGYCEBTmuRjXIm0ryUouo8FicqMfDU+OuarJP/h7f59PPvjg2LicJHvnzp13Njc3+e53v9pG8CeFOjCsirhj4HgGkH4aSVLlN4SAkc6XJrrykYAVXUpbSQwGA7bWBxjbp/WB2HpKSZQpMCgt/aqiKktGBYxcZLvSegtnB5oVfGVNeGnL8cpOxaunSq5uGq5sCKf7ho3KUjmNKCXphc1NopaQq9vqlgObWEQhSA4FEs0aMrmNRRdh+l/85/9P/u//2f/55G0/RXLlypUE8M477/BX/+pfPfn5n0h6VvaoPENfWhWHq8eJiOaCdXFAKS+bu5gQk/JsJkDz6QKOFkcLPDyEO49q7j2e8OjJEY/2JuzWhoe+4jA4ShMpTWBz4NgZF2yPCjb7wmbfsDlwbA4LNvqOQWkZFHkJnyWVZEnlibTSEnKx5CIJNuZkh1WkdMYok5Mn9I5JKfL/+n/85/z9v/f3F/f+PFoACeC3f/u3+Zt/82/yJ11nWgVSB5IuaI4T4u+rABeCeu1TTFTGY6xmoSB1NgzkyTI9WjOgoaLJOkjMVad9A5O9wHR/j9sT+HJW8qh1DIrEoIicGjrOrDlODS1jFxgXgZ5NVDZRWMlRpCo4u1UieguYvDAzNFp5hBx8ktUknxJtLjNoTK7Lnb/38M5t/k//x/+Uf/hf/peL+/5pdAxIHf32b/82f/Ev/kXefvttzpw5g7XP1v3//5WeBaRVjtQBadVtchJwPgMphkTfZiBJDczVD9eZ+UyfxoxoKMnNw5DcpkcSzPdhtnfArQl8Pi253ziGRWJUJk6NLGfHllNDGLnEyHqNHuharOZQlYijThrtSM5IzwHQOHKMUgZSzMp0m6ICyRpSEHbvP+CDd9/ld//b//a5q7Ovov8v5f4MeT3dD84AAAAASUVORK5CYII=;" vertex="1" parent="RF7QKK640K8U4cVMku1n-20">
          <mxGeometry x="41.30000000000001" y="20" width="32.44" height="30" as="geometry" />
        </mxCell>
        <mxCell id="RF7QKK640K8U4cVMku1n-23" value="" style="shape=image;verticalLabelPosition=bottom;labelBackgroundColor=default;verticalAlign=top;aspect=fixed;imageAspect=0;image=data:image/png,iVBORw0KGgoAAAANSUhEUgAAAYAAAAFzCAYAAAA3wd4IAAAAAXNSR0IArs4c6QAAAARnQU1BAACxjwv8YQUAAAAJcEhZcwAADsMAAA7DAcdvqGQAAEPoSURBVHhe7d33dlRXui3wuXYuJRBJCAEiZ0w2mJwMNgab7tP3ec59kfsG3e1sg8kgghBRQiIJkADlnKpq5/vH2lsq1NgNQqCSav7G0Rhuj0bug0XNvfb65loiCIIQRESUc5TRf4OIiHIDA4CIKEcxAIiIchQDgIgoRzEAiIhyFAOAiChHMQCIiHIUA4CIKEcxAIiIchQDgIgoRzEAiIhyFAOAiChHMQCIiHIUA4CIKEcxAIiIchQDgIgoRzEAiIhylBjrjWC+D7hOiDAEFAVQVUBVBQQjhYhoUhhzAKSSIXq6fHhOCCtPwMpTkMgT0HUx+r9KRERZaMwB0N8XoLnRQ3+Pj8ATSOQJzChRUVQsYFoCuiGgKAKCeUBElJXGHAC93T5ePHHxvM7D81ofALBkrYryFSrmlSuYPlOFaapQVSYAEVE2GvMb+yAAXAfo6w7w4qGLh7cdPLzn4tF9B/V1Ll49c9HZ5mNoIIDnjSljiIjoIxpzAAgAQgFUHTALBHyEaH/to/a2h8u/Obj0m4OaWw5eN3pIDTEAiIiyzZgDAFEIKCqg6UAY7Qu0vvTxrNbD47seHt118eSBixdPXbS88tDXEyCdCuHLN0ZERDSBPigAMgkBKKqAqgmoqkByKMCLhx5uX3Jw4ac0Kk6nUV/noKfTh2NzRUBENNHGLQAgZB9AUQGhAo4DdLb5aHzi4dE9B7V3HDy6J/cHXj+X+wPJQbk/EDIPiIg+ufELgAwiCgPNEFB1IPCBrrYA1ZUerpyycen3FG5dTaP5lY/kUMhNYiKiCfBRAgDxBrEmVwRBCCQHQjQ3enhW6+LRPQ8P77h4Uu2g4bGLttc++noCODZXA0REn8pHC4BMcn8AMEwBRQVSQyFeP/Nx/YyNCz+mUXkxjSe1Dvp6fPh+gJApQET00X2SAEDGyKhQAMcJ0dMZ4MUjDw/vOqi75w7vD7x65qGrPWB/gIjoI/tkAZBJCPl6yEgIBCHQ2eyj9paLs9+n8ce/U7h3w0YT+wNERB/VhAQAohWBZsj+wEBfgJZGH4/vuait8vDwrountS4a6z20Nfno7w1gp0ME7A8QEY2bCQuAmBDyGGnNEDAsATsdoOGhh1uXHJz/KYUrp1Kor3PQ3eHDZn+AiGjcTHgAQIxMDKk64PlAZ7uPhsdyf+BBdMbQ80cumho9dHeMjI5yr5iIaOwmPgAyvK0/0N0WoOaGiyunbVScTuHOdRutr+T+gM9NYiKiMcuqAMBb+gNDAyGaGjzU17iou+OO7A8889DW7KOvN4CdDuD7XBEQEb2PrAuATMP9AUsAAhjsC9DwyMP1szYu/pzCzYtpPK620dXhwrZ9jPFqAyKinJTVAYDM/oAA0qkQXW0+nte5eHjHRe09F4+qo/OFXrjo7vAxFJ0vREREfy3rAyCWOS2kmwKeF6KzycfDOx4u/+7g0q8OqqscNLM/QET0TiZNAMTTQooqVwRBAPT3yP7A02oPdbdlf+BJ3B947aO/j/0BIqI/M3kCYBTZJhbQdAFNE0gNyf5A1QUHZ/6dwoVfk3j6wEF3J/sDRERvM2kDIHNFoGiA6wIdrT5ePHJRe8tBTZWLh3cdvHjkojnqD6TYHyAiGjZ5AyBDZn9AMwSEAvR1BXhQ5aHitI0rf8j+QMtr9geIiGJTIgCQ0R9QNbk6SA2FaHrh4Um1i7rbLuruunj6wMXLZx7aW9gfICKaMgGQKbM/IBQgORji1RMP1/6wcf6HFCovpPGkhv0BIsptUzIAkNkfUAA7HaKrPcCzWrk/UHvXxaP7Dp4/lvsDPZ3yfCHfG/1diIimrikbAJmEkBvFmfcPPLzr4crvDi7/ZqO6ykFTg4vkUDD6lxIRTVk5EQBAvEks7x/o7wnQ0uDjyT1v5P6BOhevXnjoaPExwP4AEeWAnAmAWNwfUHUBVRNIDgV4Ed8/8GMKV07L+wd6On047A8Q0RSWcwGQ2R8QKuDYQEeLjxcPPdTedlBT5eDxfRcvnrhofiX3B1JJOTrKaSEimkpyLwAyxNNCb9w/0B6gpspFxSkbl39P4dZVGy0vvWiTmAlARFNHTgcA3nL/wGBfiNfPZX+g9paL2tvy/oFXzz10tMr9AdfhaoCIJr+cD4BMmSsCKFGZ7JmHG2dsnP9R9gee1jro6/Hh+wFCpgARTWIMgFHiFYEQgG3L/sDTBy4e3HTw4I6Lh/cdvHjsouWlj96uQO4PcFqIiCYhBsBfGOkPyNdDnc0+aqtcnPlXGn/8M4n7lTaaX7pIsT9ARJMQA+C/iA+Zi/sDTc9lCNy/7qL2jov6hy5eN3jojPYHHDtEwDwgokmAAfCuBKBo8rRRIyFfD8X3D5yL+gPPHrroZn+AiCYJBsA7io+cVnVAMwU8D2hv8fGs1sODKgfVN+X5Qg1PXLS+8tDbHSCdlOcLca+YiLIRA2AMBN7SH2jzUV3pyvOFTqdx52oaLa88JIcC9geIKCsxAMYiahNn9gcG+kO8qvfw+J6DB1UOau+4ePbIRVOjh842HwP97A8QUXZhAIwDAUBVAd2S/YHBvgAvn3i4dsbGhZ9SuHkp6g/0+ryAhoiyBgNgPEQrAk2XewXpZIiOFh/1NS4eVLmouS33BxqfuGh77aGvOzpfiP0BIppADIDxFk8L6QK6KeB5ITqbfNTd9nDuJxtnf0zhXqWNpgaP/QEimlAMgHEWTwspmpwYCgKgrzvA6+ceaqsc3L/mou6Oi/pHsj/Q1eZjsJ/9ASL69BgAH1u8IohWBalk1B+4aOPsDylc/j2F+jr2B4jo02MAfGSZKwJFAxw7RFuTj2cPPNRUOrh3I9ofeOqi9bWHvu4A6RT7A0T08TEAPqHh/oAp+wNhCPR0+qi5GfUHfk/h1tV0dP8A+wNE9HExAD6ljP6Aqsn7iQf7Qrx86uHhXQc1N108uC3PF2pq9NDVHmTsD3B8lIjGFwNgAgnIINAtAUWN7h+o93DtDxvnvk+h8mIKjx/Y6Op0Yds+goAJQETjhwEwkTL7A4o8YK6zLcDT+y5qKh3U3IrPF3Lk/kAP+wNENH4YAFkk3iPIvH/g0V0PV353cfk3GzVVDpob2R8govHBAMgm8ZWUprx/oK87wOtnPh7edlFzwxvuDzQ3euju8DE0EMBx2B8gorFhAGSrqD+g6gKKJpAcCvHioYdbFx2c+0neP1D/0EVPB/sDRDQ2DIAsNdwfUOWXnQ7R9tpH/QMX1VF/4PF9B431HtqbPfT1RP0Bn/0BIno3DIBJ4I3+gCaPlxi+f+CUjUu/pXC7Irp/YJD9ASJ6NwyAySDz/oEoAAZ6QzQ+8VB320F1pewPPHvoouWlh+6OAEMDATyX3QEi+nMMgElIQAaBbgooCpBKhnj9LOoP/JBC5cU0nta56O8LEIZ8JUREb8cAmIyi/QHNAES0P9DZGuDxPRf3rju4X+mgvs5BX3cAz+MqgIjejgEwBcR7BGYC8D2g5bmPl48D9HWNHCNBRDQaA2AqyOgP+AHQ1Rago8nHUL/cB2BPgIjehgEwxYgoDBQtWhoQEf0JBsBUI+S+gKIKCAYAEf0FBgARUY5iABDCEPC9EOmU/OJpo0Tjy/dDpFIeUikPnifHs7MBAyDHhaH84RwcDPC6QV5Ew9NGicbX0JCLxsYBNDT0Y3DQhe9nx3g2AyDHhaEcEx3sC9D41MOzhy5aX/vo6w6QSoayTcw8IHovQRDCcQIMDrro6krj1ashPHrUg/r6PvT1OdENfxOfAAyAnCcghMBAb4hHt11c/122ia+eTeHFExd9PfLIaSJ6d7bto7MziYcPe3Dq1Ev88EMDzpxpwf37vejrc0f/1ycMAyDHCSG/0kMhXtcHqLvl4u41edpo/QMHTQ0eutp9DPTFpTIeLUE0WvwqNZ320ddno7U1iefPB1Bd3YmrV9tQUdGCO3e60dAwiKEhb/QvnzAMAAIQXU1pAEIDPDdEZ5OPO1ddXPw1jcu/p3Dvho22Jg/pZIDAZwIQZfK8AENDLl6+HMSVKy349ddG/PbbK1y/3oGWliRcN4CuA4ahQFGyZz6bAUBAtBJQdUBRQ/h+iN7uAM8euKi+4eDedQc1txy8eOyirclHb3eA1FAIj8dOUw4LQ8B14/f8qeH3/FVV7bh2rQ2Vle2oq+tDd7d856+qgK5nVz+HAUD/Yfi0UUsAAhjoC9HwyMOVUzbOfp/EzUtp1D9yMNgX8JUQ5aT4lU9PTxoPHnTh/Pkm/PvfDTh1qglPnvRjYMCFogCWJaDrAoqSXR/8MQYA/afM00YFkBoM0PbKR+1NB3cqHNRUuXj6wMXr6G7iwYGR/QGiqUy+5/fQ32+jrS2JFy8GcP9+Jyor21FR0YLbt7vQ1JRCMulDCAHDUKBp8th2BgBNPkIeK6EZAmaeQBAA7a981Nx0cfb7NM5+n0TtbQetr+X+ANFUlkzKef7r19vwr3+9wL/+1YBbt7rQ3JxCGIZIJAQMQ0BVs/MDfzQGAP2l+HA5VZevhIIQ6O708eKhi7sVNm5ddlB7x8GLpx7amn309bA/QFNHEIRwXbnB292dxuvXQ3j8uAe3bnXg4sVmVFS04fHjfnR12QAAy4qf+LPzlc9oDAB6P9GKQNXlV3IoRP0DD5XnbZz/KYVrZ9N48ZT9AZoa3pznf4Uff2zExYutePSoD+m0D8uaXE/8ozEA6L0Mrwg0+WWnQjS/8PDojuwP3L3uyP5AvD/Qz/4ATR7x5q5t++jrc9DWFs/zd+Hq1VZUVLTg7t0uvHw5BNf1h9/xq5P09F0GAI1ZfBOZZggomf2BKy4u/ZJGxek0qm/aaG9mf4Amh8x5/oqKFvz660v89ttr3LjRgfb2FIIghKbJp/5smucfKwYAjZ2QBTLZHwB8H+jtCvC0xsX9aDVQc9tBw1MP7S0Z+wO8p5iySBiOfPB3d6fR1DQyz3/1aitu3GhDbW0fenrieX4BTZucT/yjMQBo3MT9ASMhf7IGegI0PPRx9YyNCz+lUHXFRv0jB/29ftachki5bWSe38aDB124cKEJP/7YiLNnm/H06Zvz/FPhiX80BgCNn2h/QDcFhAIMDQRoafTwoFL2B6pvOnhaI/cHejrZH6CJE5/b09/voKMjFc3zd6Gysg1XrrSgqqoTr18nh+f5ZZlr9HeZ/Kbg/0uUFeJpIUNANwVcN0TbSx81VS4u/CRXBHV3HLRG5wsRfUpynr8flZVynv/77+U8f1NTCr4fDjd4J+t0z7tiANBH8ca0kA54HtDd4aPhoTfSH7jroOGJh/ZmH329AdLcH6CPZGSe30NPz5vz/JcuNePKlTY8ftyHzk4bQRBmNHinxrv+P8MAoI9ORKeNKqqAqgkomsDQYIj6Gg83zts480MKV06l8PyJi/6eAC77AzTO4nn+urpu/PLLS/zrXy9w4UIrHj7sRSrlwTRz44l/NAYAfXzRnQOKKjeJFRVIJ0O8fu6h7paLW5ds3K4Y2R/o7vAxNCCDgP0BGovMef7+fgft7Sk0NAzi/v1OXLrUjEuXmnH7dhcaG4dg2z50XU72TNZ5/rFiANAnF/cHdENA1eUf1p52H3evZvYHHLQ1++wP0Jj85zx/I3799RUqKzvR3W1DUeQs/1SZ5x8rBgB9ehn9AVUDQgD93SGe1ri4d9XBnWsOam7baHzqoqNV3kaWToXwuT9AfyGe508mPfT22mhuTuLx415UVbWjoqIV16+3oa6uD/39LoQANG3qzPOPFQOAJtzb+gMvHvqoOG3j/I+yP/DssYP+PvYH6O1Gz/OfO/ca//53A06fbsLjxyPz/KaZ20/8ozEAaOK9pT/Q3OCh+oaDW5dlf6D+gYPmVx76un0MDcqD5tgfoCCQ7/kHBhx0daXQ2Cjf89+40YZLl5px8+ab8/zylc/o75K7+FtB2SW+f0AXMCwBzwvR0uDj/k0PF36ycfGXNOru8v4BkoaG5Pn8lZVt+P77Bvz4YyNu35685/N/agwAyipv3D9gyvOFOtt8PH/g4u5VB7euOKi76+BlvYfOtgADfQHsNPcHckUYhvC8AKmUh74+By0tKTx+3IPbt+X5/FeutODRIznPj0l4Pv+nxgCgrCYUQNXk3QNCAIN9AZ5We7hx3sH5n5O4di6NF0/k/QPsD0x9cp4/hbq6Hpw69RI//tiAS5daUVfXh6Ehb3hjl0/874YBQFlNiJG7B4QCJAdDvHrmoe6W3B+4c9XB01oHzS/l+UJDg+wPTCVhKN/zO46PgQEXHR0pNDQMoKamE1eutODSpWbcutWJhoZBpNOZAcAn/nfBAKBJI7M/MHz/QHPUH/g1jSun0rh/w0Zbs4d0iv2BqcDzAgwOynn+q1czz+fvRHt7GkEQQtc5zz9WDACaPN5y/0BPZ4An96P9gQob1bccND710NnqY6A/6g9wdHRSief55Xt+O3rP34vKyjZcvtyCq1dbUVPTi+5ueW7PVDqf/1NjANCkFa8IDEsAAhjsDdHw0MOVUzbOfZ/CzUvx/QMBQ2CS+M95/ib8858v8Pvvcp5/cDBznn/0r6b3xd9CmryiiSHNkHsFycEAzY0+qq/ZuHnRxv0bDuofuGh+6aKv20cyY3+AskvmPH93dxovX8p5/mvXWnHhQjOuX+/Aq1dJDA1lzvPzkf9DMQBoaoj6A7oBmHkCQQC0v/ZRfdPFuR9snPshhdo7DlqbfKRTXApkm3ie/+bN9uh8fjnP39KSghAh8vMVzvN/BAwAmhJG+gMCuiUQhEBXu49nD1xUXbBRed5B7R0HL+tddLX5GOxnf2AixfP86bSc529tTeHJk17cutWO8+ebcPFiC+rq5Dy/EEBenhLdysV3/eOJAUBTU0ajWDcEUskQ9Q/i/kCK/YEJljnPf/r0q2ieX37o5/L5/J8aA4CmpMxGsWoAdlr2Bx5UOai6ZOP2VQf1dS5aXnvo6w6QGgrhuewPfCwj8/xyrLOzU77nr6npwpUrzbh4sRlVVXKeP5fP5//UGAA05WX2B1QV8Fygs8nH3asOLv+aRsXpFO7ftOX9A+wPfBS+L8/nf/VqIJrnl+fz37jRgba2kXl+XRcQ/MT/ZBgANPVl9ge0aMywM8Djey7uVDi4dVXeP/DymYvudh+DA6HcH+Do6AeJRzrjeX75nr8PN27Ief6KilZUV785zy/f84/+TvSx8Leacs4b/QEA/d0BXtT5uHraxvmfUqi6nGZ/4AONzPOn8eBBF86fb8KPPzbizJkmPH06kHE+P/iBP4H4W0+5J6M/AAEM9QdoeuHh/nUHVZcc3K+U/YHWJg8DvT5SyQButD9Afy0+t2doyEVvr41Xr4ZQXd2FGzfacOFCUzTPP5Qxz69wnn8CMQAot8XTQoaAbgq4boi2lz6qq1yc+z6Ncz+mUHvbQetr9gfeReb5/HKevwG3bnXh9eskfD+EZXG6J5swACinDU8LaXJF4Hvy/oFnNS5uXoz6A3cdvHzmoqvdx9BAAMcO4fucFsIb8/w++vsdtLXJef6qqnacPfsa58+3oLa2Fx0d8j2/afJ8/mzCACDKFK0I1GgMMTkUor7Gw41zDs5+n8SV02k8f+yiv8dnfyBjnr+2thu//tqIf/3rBS5ebMHDh3Ke3zB4I1c2YwAQZchcEag6kE6GeFnvoeaGgxvnbNy8bONprYOWJg/9PQFSSdkfCAMAOZAH8Ty/6wYYGvKGz+2pru7E+fPNOHv2NSorO/HihZznNwzO82czBgDRn4inhTRDQNXlh19PW4B711xc+jmNy7+ncO+G7A+kUnJiaKqL5/lfvhxARUULfv75JX755RWuX+9EV5cNIeQ7fs7zTw4MAKI/E/UHNF2uBkIAfd2yP3D7ioOqKzaqq2R/oKfDx+BgOCX3B+KRzsz3/E+fynn+S5eacelSK6qre9Db60BRMBwAHO/MfvxXRPSO3ugPxPcPPPJQccrG2R9G+gMDvT6CYGr0B+JXPpnz/N9/34jTp5vw9Kk8n1/TAMuS7/lpcmEAEL2rUfcPDA0EaHru4+5lGzfO2rh3zcHTuD/QJ/sDw/sDk0z8nj+ZlPP8TU1JVFfL8/nPnm3C1avtaGyU8/yqKmBZClSVr3wmGwYA0VjE/QETMPIF/ABofeWjpsrFxV/SuPhLGg9uy8vqU8nJlwBDQy4aGvpx82Y7fvihAT/8IM/nb2pKIgwDJBI8n38qYAAQjUE8LaTpAoYlL6DpbPVRX+2i6pKDGxfk/QONzzx0d8rTRl0nRJCl+wPxe37b9jE46KKjI4X6enk+/9mzTbhwoWl4nh8AEgmezz8VfFAAyPeDQBh/ZeEPNtGnIBRA1WR/QAhgqC/Aswceqi46uPBzClfPpvDisYu+LO0P2LaHzs4kamu78csvjfjnPxtw4UIr6up6MTTkQtPicU4+8U8lYw8AIQ9xUhT5AxH/TDAEKBcJEXUHNBkGycEQL596qLnpoPKCjVsVDuofumht9tDfGyCdCuFN4G1kmfP8yaSHnp6Rc3vOn2/CmTPyqOZnzwaRSnkZAcAn/qlkzAGgGwLFs1TMmquioFiRy2Af8Bwg8HOjFEP0NsP9AVM+MfuevH/gztWR/sDd6zbamuRGse99+j8smefzV1SMnM9fWdnBef4cMuYAMAyB4pkK5sxVMbNEwbSZihwFU+QfgDAc+SLKKRn9AUUDPC9Ed0eAR3cc3Lrk4OYl2R949dxFb1eAoXh/4BPsFcfv+QcG4vf8/dFJnc24fLkF1dW96OvjPH+uGPO/WlUTSOQpmL9Yw67DFg6dTOCLIyZWbtRROF2Rm0qufPrhioByWbwi0E0BKMBgX9Qf+N3G2e+TUX/AxUBf8NGupIw3eUfm+V/j3/9uxKlTcp6f5/PnpjH/q1ZVwMoTKCnTsGmniV1HLGzbZ2LVRh2z5qlI5Avo0bw0MlYEDALKOdHEkG7KPw/JqD9w57KNG2ds3L3moL7WQXuzh8GBAHY643yhD5T5nr+vzxme5796tRVnzjShoqINDQ08nz9XjTkARjNNgTmlKlZtMLDvawsHT1jY8IWBBUtVmKaAa4fw3alXkyd6L5n9gTzZH2h/7aP6pouzP6Rw7vskaqpsNL8an/5AMukNn8//z3++wL//Lc/nb2pKcZ6fxjEALIGZc1QsW6Njx0ETu45a2LDDQPlyDUXFCnQjmhmGXAVwNUC56I3+QEIgCGV/4Ol9F9fP2Lj6h42aWzZePvPQ2xUgHZ02+q6vhuJXPY7jI5n00Nkp5/mrqtpx+vQr/PFHE6qre9HRkQY4z5/zxi0AMgkhkF+oYNFyHZt3mjjwrYU9X5tYtl5D8SwFCAAnKVcDDAHKaZn3D+gCqaEQz+t8VF10cP7nFK6dS6Ox3sNAvw/P/e9/WOJ5/rq6Hpw69RI//NCAixdb8fBhL9JpD5bF8/lpxLgHgIj6AfkFCsrKNazdbOCLQxa2H7SwYr2G2WUKEvlyWkgR8g8Ap4UoV8UrguH7B1KyP1B9w8GN8zZuV9h4+dzFQI+8l/i/sW0f7e0pPHzYjUuXmnH2bBNu3GjH8+eDcBwfpimf+DnPT/gYATCaogqYltwfWLvZxM7DFvafsLD1gInSchWmJRB4gJsGAo8rAspdAoCI+gOKCtipEH3dAVpf+Whv8eGk//sfjmTSw8uXg2hoGER3twPHCaCqnOent/v4AaAAhilLYyvXG9i6x8LOIxa27DFQtlRFYbFckmY2ibk/QDkpWj1ruuwROHaIgb4AHW0BOjt82PZ//0ORTntoaRlCc/Mg+vsduG4AVZUz/RzvpNE++Y+EpgOFRQoWLtWxY5+FfccS2PGliVVbdBRl9Ac8T54vRJSrFCG/RPSq6F0IIV/vxK943vXXUW769AGgyQ3i0gUaNmw38cUhC9v2m1i9UcfMUgVWQsjzVNgmplwW7Y/FH/4i47yt/0ZRZABwsof+m08eAKOZpkBJqYrVGw0cOJ7A4ZMWNu0yMH+JCl0D7GQIzwnhewwCIqLxNPEBEPUHlq/VsfOwhT1fJ7Bxh4GFy1QUFCpQ46cgZPQHiIjog014AIyWl6+gfLmOLbssHPybhb3HLSzfoKN4lgIBTgsREY2XrAuARL5AWbmGdVsN7D6awM4jFlas0zCrTIGVJ+SmWLwk4LQQEdGYZV0AxOL+wOy5KtZtMbHrkIX9xy1s3W9gbtwfCACX9w8QEY1J9gZA1B+YMVvFys8MbN070h+Yv0RF4fSoPxBNOYTR1BCDgIjo3WRtAIym6UBBkYIFS3Rs32dh77EEth8ysGqTjukzFAghVwKeJ+8pZhAQEf21yRMAmkBBoYJ5CzVs3GFi5yEL2/ZZsj8wT0UiTx5whRBAdHIiJ4aIiP7cpAmA0UxLoGSevH9g71EL+76J7h9YpsKwRu4fCNgfICJ6q0kdAPH9A9sPyBvJNkT9gcKiqAoPgRAh+wNERG8xaQMgk6LI10Ply3Rs3mlh/4kEdn9tYul6DcUzFSAEnJRsE3NvgIhImvQBMHz/QKGCBYs1rN9qYPdRCzsPy/sHZs6TV1IiAET04c/9ASKiKRAAow33B0qj/kB0/8C2AyZmz1ehagK+y0YxEdHUC4CM/sCqzwx8vtfC7q8sbN5tYF65irx8eS56mDEpxNUAEeWiKRcAo8X9gYXLdHxx0MKBby3sPGJi9RYdRcXR/QMe4LnsDxBRbsmBABAoKFIwf5GGrXtM7Pk6ge2HLKzepKF4jgLDkOcLsT9ARLlmygfAaJY1cv/AweMJHDppYeMuAwuWRv0Bh/0BIsoNORcApiUwq0TFinVyWmjfNwlsjApkBQUCCkTUG5D9Ab4SIqKpKucCYLS8AgWLlunYstPC/m8t7D5mYtlnOopnqRAAHJvTQkQ0NTEA8gXmL9awfpuBPV8lsPNLC8vXaZg5T4ER9QeGcUVARFNIzgdAbPT9AzsPyvOF4vsHjISA73FFQERTBwMgEvcHZs5RsXqDge37Lez5Wt4/MG+RiryCqD/gsz9ARFMDA+BPDPcHlurYsd/E/m8sfPGliVWb/7M/EGa+JiIimiQYAH8i7g+UlWvYvNPCriMj/YHpsxXouryWOD5plKsBIppsGADv6M3+gIVD3yWwaZeBssUqNA1wkiFcm/0BIpo8GADvKO4PrFwvp4X2n4j6A0tVJBJCfvAH7A8Q0eTBABijvHyB8mUatuwycfBkAvtOmFg+uj/gMwiIKHsxAMYor0BeUL9hu4n9xxPY/XUCK9ZrmFGqQDcEwswPf4YAEWUhBsAHyuwPrM3oD2zbb2DuQhVmQiAIAJcrAiLKMgyAD5TZH1iz0cCOAxb2HrOwZa/sDyQKBNRR9w8wBIgoGzAAxlncH1iwRMf2/Sb2HbOw/bCJlZt0FE2X/QGP9w8QURZgAIyzzPsHtuyysPtoAp8fMLFqg4bpMxWoatQd8MPhVQFDgIgmAgPgI5P9AQ2rNxrYd8zCwW+j+weWaTBNAc8J4fH+ASKaAAyAjyzeIF653sDuryzsO57Axi90LFgq7ycOA7k/EATsDxDRp8UA+IQURb4eWrRMx+adprx/4GsLy9brKJ6lACHgpEL4PG2UiD4BBsAnIoScGCoolAfMbdhuYt+xBHZ9Je8fKC5RoSqjDpdjCBDRR8QAmCCKImCaAnPmqli71cSuwyYOfGvh84MmSsvl/cS+Bzhp9geI6ONgAEwQRQUMS/YH1m40sONgAnuPJ7B1X9QfyBcQgLygPrqDgCFAROOJAZAl9Pj+gSUatu8zsfeYhR2HTazabAzfP8D+ABGNJwZAltB0gcIiBfMX69i6x8LerxPY8aWJNZtkf0CJ2sQB+wNENE4YAFlquD+wycCB4xYOn0xg024DC5ayP0BE44MBkKXi/sCqzwzs+yaBg98lsCnqDyQSAoEvN4eH+wNERO+JATBJyPsH3t4fEOC0EBG9PwbAJJFXIPsDG3fE9w/I/sD0EhWqKuC7obyDAAwBIno3DIBJRlEEDFNgdomKdVsN7DpkYt9xE9v2m5hbrsK05ErATYdyWoiI6E8wACYZRR25n3jtJhNfHEpg3zeyP1BarsLKE0AABA5GVgRERG/BAJjk4v7Agqg/sP8bC7uOmVizXcO0WfzXS0R/jp8Qk5ymCxROU7BgsY5tey3sO56H3ccsrP3cQNEMuUEsRv8iIiIGwNRjJQTmlqkoK9dQPFOBmVCgqIwAIvpPDIApRgaAhnkLNUwrVmElhLyFjIhoFAYAEVGOYgAQEeUoBgABkAfNeTbgO2wUE423MARcF/C8MKvO7mIAEBAFgO8AniMQ+oKnjRKNoyCQH/4yALLnDxYDgKAoAvnTFCxcrWDhShVmAiOnjcaX0RDROwtDwPdDuG4I2w5gWSpWrCjEypVFmDbNgKoKCDHx03kMgBwX31VcOF2gfI2G+StVmAkBzwF8DwiybMlKNBmEYQjPA1w3hOMAiYSKZcsKsWpVIYqL9SgARv+qT48BQACA/EIFy1fr+HyviX3HLez40sTi1TqKZihAADgpefcAXwsR/af4id9xAiSTAYJAYNYsA+vXT8exY/Px7beLsHt3KZYvL0Z+vj76l08YBgABAAqnKVi+1sDn+ywcOJHAriMWFq9WUVisIAwAJxnCj1cDDAGiN4RhiCCQT/syAICZM02sWzcdx48vwMmTi7BrVymWL5+OwkJj9C+fMAwAeoOmAYl8gbnzVWz83MTuoxb2HTexea+J2WUqNF3A9wGP00JECAL5jt/3gURCw+LF+Th0qBQnT5bj6NEF2LatBHPn5sE05bHt2YYBQG9QNYG8fAVz52vYsN3E7i8t7PsmgU17DMyep0LTgcCTm8RhwM9/ym2+D9h2CN8H8vJULF5cgIMH5+LkyYU4cmQBtm6dg5ISGQCKwgCgScYwBabPVLBkhY6dhywcOG7h84MGlq7TkcgT8OyR1QA3i2mqk6955FO/64YoKtKxefMMHDlShm++Kcf+/WVYtmwapk0zYRjZfwYLA4D+km4ITCtWsXiljl2HLRz8NoEdh0wsX6chkSfgOiF8N0Tg8W5imvqCYGSyRwaAgU2bZuCrr8rw7bflOHCgDEuXygDQ9ez/eM3+/4WUPQRgJRSUztewbquBgycTOPx3C+u2GyhZoEJVASfFFQFNHSPTPSGSyQCapmDJkgLs2TMH//jHIpw8uQibN89GaWkeLEvLitHO98EAoPdi5QnMna9h3RYTh/+WwOG/5WH9dh0lCzSoqoCTDuE5XBHQ1CCne+TTfioVQFVlAOzePQf/+MdinDy5CBs3zkZpaQESCW30L896DAAaEyEAVRUoKlawbJWBbXsMHPjWws6jJhat1uT4aAi4aU4L0eSR2eBNpwMIMTLPf/z4Avz974uxe3cpVqwoRmGhASGyo9A1VgwAGpO4QVw0TcHS1fI2skMnE9jztYlFq1QUTFOAEHDs6DiJ0d+AKAtlPvGn0yEAEc3zT8N33y3EP/6xCHv2zMu6ef6xYgDQBxMCUDUgkRAoKdOwabuFXUdM7PnaxMadBmaVKtA0Ad9jf4CyU+Y8f16eikWL8rF//1wcP74Ahw/H8/wJWJYGTZvcT/2ZGAA0LlRVwMpTUDJPw8YdJvZ+lcC+bxLYvMfA7FL2Byi7xfP8QTAyz3/gwFycOFGeMc+fn7Xz/GPFAMhx8TvPjhYP186mcfn3FJ4/ctHX48N13v9jWgj5ZVoCxbMULF6h44tDJvZ/Y2HbAQPL1usomCbk/QOuPHCO00L0qcWveVxXfugXFxvYvHkGDh+eh2PHyrFvnxznLC42YZrqpH/X/2cYADkuDEP4foi2Fg9Xz6Zx6VQazx476OsOxhQAseH+wAoduw4nhvsDK9ZrKJgmN4h9Tx45HQajfzXRxxUXuhxHnuETB8BXX5XhxIly7N8/b1LN84+V+r//+7//d/TfpNwRhvKrozlAbZWLtpc+UkNAT0eA7s4AQ4NB9I5fQCgCynv+WYhXBICAbgjkFyqYMUfBrBIF+UUKVA2wUyHsZDw2KuT/TcGnrfcRhvKSnkSeQPEcFbNK5eu1/MK//hfQ22ujsXEAbW0p9Pa6sG0fipIdZ89PpDCUH/q+L5/8LUvD/PkJrF49HVu3zsaWLXOwalUxSkvzUFhowDDUnPgZ/OufJpry5NJWvpJxhoC2lz7uXHZw+TcbV8/YqK600dbsw04HCPyxrwgSeQJzyzSs3WRg/zcWDpyw8NkOHaXlKjRFHjft2fL+AW4Q0HiTATAy3WMYCpYuLcTu3XNw8uQiHD9ejg0bZk3aef6xYgAQIJ+7IRRA0SA3bIMQfZ0+ntX5qDiVxoUfU7hVYeP5IxcDffK42/d9dy8EoKgCuq5g2gwVS1fp2LrLxP4TFnYetbBolYaC6QpCn/cP0IcZ3eCVxzMbWLdu2vD5/Lt2yXn+6dNNaJoSrZRGf6epjQFAkgAUVY5zGgn5n/u6Azyvc3H1lI3zP9u4dcVG/WMnCoCxfTIPF8imqVi60sCWPRYO/S1P9gdWq8MbxE5KTmaM7Z9CuS7ziT+VChCGwIwZJtaulYWuv/0tvqBlOoqKDChKbr525B4AyT2AFh8P77roavehGQKKKiAgn4iEAIQi7wEY7A3R3uyjo9VHKiUvuNY0AU1/vz89I99XFsp0Xe4PFM9WMbNEQWGxLJK5TgjPjboD0a/D+/2jJiXuAYxNvLkLyGsY585NYP36GdiyZRY2bZqJNWtmYP78fBQVGdD13Hzqz/TXP02Us4SIXgcZAkZCwPdDtL70UFPp4Oz3KZz7IY0Ht2y0vvZhp8b+nK6qAok8BSVlGjbusLD3qwT2n7CwebeOGaUKFFWOirI/QO/ir87nP3p06s7zjxUDgN6NgHxaUmU4DPUHePrAw43zaZz/OYnrZ9NoeOKir3fs/QFFAayEwIxZKpasNLDrkIX93ySwbb+8fyCvYKRNzP4A4Y3jmQN4Xohp03Rs2lSMw4fn4euvF2LfvnlYtmw6ZsywYFlazj/xj8YAoHcyvCKIXvckB0PU17i4ec7B+Z/SqDibxvMn7rj0B4ri+weOJHDoZAI7DptYtk5DXqGA78ruAPsDhDcuaBk5n3/jxhk4enQeTpyIz+cvQlHR1J7nHyvuAdCf7gG8lRzTj/5SQCjy7/kuMNgXoqstQE9XgKGhAIoQY+oPxPsDcmNOyP2BAgXFsxXMnKugYJoKVZOvhZx0xqTQFOoPcA/g7TLn+X1fzvOXlcl5/i1bZmPr1jlYs6YYZWX5KCqSt3JN1RbvePjrnyait4kmhjRTTg35PtDZGsj+wC9pVPxh436lg9Zmb3z6A/M1rN1i4OAJC4e+S2D9dg2l5Rp0XcC15WqA/YHcEIaA58mnfdsGLEsdnuf/n/9ZhG+/jc/nz8+pef6xYgDQh4lWBEIBNAPwQ8j+wEMP1/5I49Ivady9ZuPFExf9fT58P3zvd/ciGh01TAXFM1UsW2Vgyy4De762sOOwiUUro/sHAvYHppr4id915Tx/GAJz5phYv346jh4tw7FjC7Fzp5znLy62YBgKVHXqrHg+NgYAfbjoOGgjIQBF9gde1Lqo+N3G+Z/SqLpi49ljBwO9cQC8/6dzHAJF01UsW2Ng2x4LB79LYPdRE4vXaCgqVgD2B6YcWegCHEfO8wMCc+ZY2LChGCdOjMzzr1iR2/P8Y8UAoPEz/O5eDJfK0qkQTQ0+aipdXP4tjYrTaTysdtDW7CE9hvHReG9AN4G8AoG5CzRs2Gbii8Mmdn5lYsMuA7PnyvsH5PHTvH9gMorP5w+CEHl5KsrL87F/fwmOHZuPAwfKsHnzHJSW5iEvT+c8/wdgANC4Gp4WivoDnheipdFDTaWLi7/YuPRbGnW3HbQ2+bDTY/9UVlWBREJujH72uYndRxPYf9zC5j06ZpXJ+wfYH5i8Rs/zL1lSgAMHSvHdd+U4fHg+Nm2ajZKSPFiWCvXPBhbov2IA0EclohYxhPxD3dcV4EmNh5sXbFz6LYXKi2k01rvo6x3D+Gi04lDVqD8wW8WSFQZ27Dex56iFLXsNLFmjI5Ev4LtyUinw2R/IRqPn+YuKdGzYUIwDB0px9OiC4WsYZ860kEhofM8/ThgA9FEJRR4up2nyw3qgN8TT+x5unrNx4ac0rp218eKxi77usRXIYkZ8/8BKHTu/lPsDsj+gIi9fyO6Ax2mhbPW2ef5Nm0bO5z9wYB7n+T8C/k7Sp5Fx9o9QgQBAOh2i7bWPe9ddVJxK49q5NGpu2ehs8+Vl8u9Z9Ir3BzRNnis0b6GGdVtN7P3Gwr5vLKzZamB2mQolPn7aiS6sZyB8cqOnezRNwaJF+di1axa++64cx48vxObNszF/fgEKCoycPa3zY2MA0KcT9Qd0U7628d0QHc0+7lY4uPKbjSun07h3w0Z7iwc7HX5Qf8BKyPsH1m02cOi7PBz6WwLrtukoma9CFYCdDOUGMVcEE2L0dI+qxufzl+B//mcRvvtuMTZunIW5c/NhWZzn/1gYADQxoie5eEXgeiH6OgM8f+ij4vc0Lv6cwp2rY+8PxKsBVRPR/cQqlq/WsWW3ib3HLOw4bGHhiuj+gRBwbU4LfUyZT/y2LW+ZmzHDwJo104Zf8+zcOfeNeX4+9X98DACaONGKwDDlX/f3BHhR5+LKrzbOfp/CzUs26h866P/A/oCiAEXTFCxdbeDzvSYO/z2BPV+bWLxKRcG06NjpdPQ6aPQ3oHERP/HHN3IBArNmyULXd98txP/5P4uxZ488n7+w0Bj9y+kjYQDQxMvoDwhVjpGm0yGaX/p4UOXi8i9pXDkl+wPtLf6Y+wOqChiWQH6RgtKFGjZsj/oDX5pYv8PArBL2B8Zb5jx/IqFi4cJ87NkzB199NR8HD5Zh69Y5KCvLR36+DsOQI5184v90GACUFeL+gG4KGHkCQQC0vfZQe9PBhZ9tXPwl6g+8lvsDY6WqAlYiun9gu4m9XyWw9xsLm3bpmDWP/YHxljnPn58vz+fft68UJ06U48iR+Hz+PJgm5/knAgOAso4Q0aoAAiHkqY993VF/4KKNy7+ncPNSGi+fja0/MDwtpAsk8gVmlahYslLH9v0mdh+J+gNrdeQXyespfZf3D7yreJ7fdeUU1/TpBjZsKMb+/aX48ssFw695Zs2ykEjofM8/wRgAlJXiFYGqySOlhwZCPK32UBn3B87ZeP7YRf+49QcM7Dws+wPbD5lYvl5DwTS5Qex5IXzeP/BO4nl+xwkRBCGKiw1s3izn+b/9duR8/mnTDBgGP34mGv8NUHaL+wNRhyAIgFQqROsrH/evu7j6RxqVF2zU3nXQ2Sr3B/zo/uB3Fe8P6IZAQZGCsoUa1m4ysOuIiZ1fGli9Wcec+SpUFXDTGL6jmCuCeHNXPvGn0wEMQ87z79gxC19/vRBHjizAxo2zMX9+PgoL5T28bPFmDwYAZb+4P2BE9w+4IToz+wNn07hfaY/L/QNWQt4/sGazgX3HLOw/kcC6z3XMXahC00RGgYz9AYya50+nQ+i6imXLCrFr1xycPFmO48fLsXHjLJSWFnCePwsxAGjyiPYGhinyg6e3NcCzOg83ztq4/LsskzU8dTHQHyAI3u9JPd4f0HV5Wf2sOSqWrzawZaeJPV+Z+PyQifIVGgqnR/cPROOjuRIGmfP8qZQ8n3/WLBPr1o2cz//FF3OxcuUMzJol7+Hle/7sxQCgySfaH4j7A309Pl7Uubh22saln9K4edlG/SMXA31y/HAs5Guh6P6B1Qa27TVx6GQCe74ysWSNvIAGAeAkow3i0d9gisp84k8m5fn8JSUWNmyYjhMnFuDvf+f5/JMJA4Amr3haSMjTRkOESCZDtDRG/YFfU7j8exp19xy0NY39/gFVA8yEQME02R/4bJuB7QdM7DhsYN0OHTNnK1CUeHxU7lNMtUSQm7tBdA+vigUL8rBnzxwcPTofe/fOw+bNcp6/sNAYHunke/7sxwCgSS2eFtJ0Ad0UcN0QrS99PKh0cPaHNM79kEL1TRvNLz2kk2Mf4xnuD0T3D+w9amHfiQQ27zYwY54SnW0U9QemYKPY92U5Lz6ff/HikfP5v/xy5Hx+zvNPLgwAmhri/YHosycIQvheiP6eAPW1Hqou27h8Ko2bF2V/oL8vgOu+38e0iDejdYFEvoLZJSqWrtKxY7+J3UctbN5jYPFqHXkFUZs47g9MwhXBn83zHzhQii+/nI89e+ZhxYrpmD3b4q1ckxgDgKaU4f6ALqDpAsmhEM9rPVRdcHD+pxQqzqTxfBzvH1iy0sDuIwkcPpmHHYdMLF+nIq9AwPfktJAXfYCO/Z80Mf5snv/IkXn49ttyHDw4D8uWTeM8/yTHf3M0JQ13B6JVQRAA6WSItlc+7l1zce101B+456CzTV5PGbxPfyDqJagaYJgChdMVlC3SsHaLXA3sOmpi1RYdJWUqdF3uDWTzjWSZ8/yOE8A0VSxalI/t2+U8/9Gjcp5/wYICFBWZGef28JF/MmMA0NSV0R9QNPkeu7M1wN0rNi79aqPiTBrVUX8gnZIbnGMV3z+wdrOBg98lcOhkHj773EBpuQrdEPDsaDWQpf2BzNM6bRswTTnPv3v3HPz97+U4cWLR8Dx/IsF5/qmCAUBTX7waiP467g90t/qor/NQedZGxek07lVG/YEx3j8Qt4kTeQpmlqhYvkbHpp0mdn1pYut+EwuXy/4AsuD+gT+b51+7dhoOH56Ho0cXYMeOEqxcWYyZMxOwLDWjxTv6u9FkxQCg3BGNdBoJASjy/oGGOg/X/rBx8ac0qi7bqH/koL9XrgY+5P6BwiIFS1fp2LbHxIFvE9h11MTi1VF/ABN//0DmPH8qJef558wx8dlnxTh+fAH+9rdy7N4dn8+vj/7lNEUwACjnjOwPCISQm5xDgyGaG3zUVnm4ciqNq3/I+wfamsfWH4hPG7XyBIqKFZSVR/2B/Sa2HzSx9nMDM+eMun/gE0wLxfP88fn8CxbkYdeuOfjyy5F5/vnz81FUZA63ePmef+piAFBOyuwPaHF/4JWPBzcdXPgpjQs/p/HgpiP7A6kP7w/Mmadhw+cm9hy1Ru4fKFOhaRn3D3yCFUEQjJzPn5enYsmSAhw8WIrvvls4PM8/Zw7n+XMFA4ByW8akEOL34k6I3q4AT2s93L7ioOJ0Greu2Hj1fOz9gXh/IK9AwZy5sj/w+V55G9mm3QYWrdJg5Ql594CLcdssjuf5HSeA54UoLNSxbt107Ns3F4cPzx8+tqGkJIH8fDnSyff8uYMBQJSxIlCi+weSA7I/cOuig0u/pHHtXBovnnx4f0A3BIqKVSxeoWPnYQsHvk1g+0ETy9ZryCsQ8FxZYAvG6QIaGQCA48h7DQoLdWzaNANHjpTh+PFy7N8vz+cvKpJHNVNuUf/3f//3/47+m5RbwhDoaPHx8K6LrnYfmiGg5OjyP54WCqMPzzAEghBwHWBoIERvR4C+ngDJZCif7DUBRQiId/zsjPcfFFVA0wRUVUA3BPILBKbPUDFjjoKC6QoUIZBOyldIM0pUzCqVx1AUFP71P6i310Zj4wCam1Noa7MRhkBZWQIrVxZh48bZ2LJlNtasKcaCBfkoLraQSGhRg5dP/bnor3+aiHLRqP6A54boaInuH/g9jStRf0BuEH9gfyBP3j+wdos8bfTLv+dh/XZD3j+gAm5qbNdRBoG8oEXTFCxdWog9e0rwj38swsmTi7BpE+f5SeIKgLgC+DPx/gDkeT5xizfwgORQiJ72AF3tAYYG5L6AqspN5fd5mo7HRlVVQNcFVF3AMAQKCgWmz1RRMl/FnHmyVzCnVENe/l8/sw0NuejqSkMIgfnzC7Fu3Qxs2DADy5ZNQ2lpPgoKdKgqz+0hSQRjPTCdpoT4CIC62w7+/f+SeFLjwCoQ0Ax+OowWhvFGMRC4IXwbmFGiYvkmDas2ali1wcDsufLmMEUZ2+9fEMgN4HQqxGBfgL7eAP09Acw8gfKlOqZFPYI/09GRxIMH3bBtD2VlRZg920J+vg7LklM9Y/3fRVMTAyDHMQDeTxjKlUDghfAcIJEvMHu+ipIyFSVlCubOV1EyX8PMOSqKpiswrbH9PvpeCMeW1ywODcjVxfSZKhJ5f/39BgddtLUl4fshZs40kZ8/cg8v0WgMgBzHABibeDUQ/7US7RvMXaBi/ecGln+mo3zJf39i/ythGH3Jou473a4VhuHwngQ3d+m/GftPJ1EOE9FpoBDyQ9rz5RN7T2eAJw883L5s4+qZNO5ctfHqhTfm/oASnTiqqv/9wx+Q7WZNU3gPL70TBgDRB5CjoHIcVNUEhvpD1Fe7uHnOwcWfU7h6No0Xjx30f2B/gOhjYAAQjYN4vh9C9gYcJ8Rgf4jmRh/3b7i4ftbGzYs2au866GjxkU7K4xiIJhIDgGi8RPsAWkZ/oLNZ9gcu/57GlT/SuHfdRstrD6lkAN/jioAmFgOAaJwNrwbiqaEASA3J+weePfRw84LcH6ipstH4zMVAf3z89OjvRPRxMQCIPpbofCHdkn/S+nsDND7ycP0PG5d+TuPmZRv1dS76e+MLaJgA9GkxAIg+spEVgUAQhvD8EAMDIZoafNTednH1VBrXzqTxqMZFe8vY7h8gGgsGANEnIKIjoTVDwEgI+J68oP7BTQfn4/sHquwPvn+A6H0wAIg+leGbyKJpoUBuFNvpEN0d0f0DFQ6unknjdoWN1y88DPQF8N6zP0D0rhgARBMgXhGouoCmC6QGQzx/4KHqgoMLP6ZRcSaN548d9PX4cNgfoI+EAUA0UUavCELAsUMMDgRoafBw76qLqvM2Ht2TV1OmkgwCGl8MAKKJltEfUHV52FxnS4DblxxUnLJx97qNxnoXyUHuDdD4YgAQZYnM/kAQyiscHSdEOgWkUyECNodpnDEAiLJNtCIwEoBuvnk9JdF4YgAQZaNoXwCQx06HyDh/mmicMACIiHIUA4CIKEcxAIiIchQDgIgoRzEAiIhyFAOAiChHMQCIiHIUA4CIKEcxAIiIchQDgIgoRzEAiIhyFAOAiChHMQCIiHIUA4CIKEcxAIiIchQDgIgoRzEAiIhyFAOAiChHMQCIiHIUA4CIKEcxAIiIchQDgIgoRzEAiIhyFAOAiChHMQCIiHIUA4CIKEcxAIiIchQDgIgoRzEAiIhyFAOAiChHMQCIiHIUA4CIKEcxAIiIchQDgIgoRzEAiIhyFAOAiChHMQCIiHIUA4CIKEcxAIiIchQDgIgoRzEAiIhyFAOAiChHMQCIiHIUA4CIKEcxAIiIchQDgIgoRzEAiIhyFAOAiChHMQCIiHIUA4CIKEcxAIiIchQDgIgoRzEAiIhyFAOAAABhCPgu4HvyKwjk3yOiqYsBQACAMAA8B/DSMggCLwQYAERTGgOAoCgC04oVrN6iYf12A6ULVeQVKEAoQyEIwDAgmoIYADlOCPk1u0zFnmMW9p80sWS9hqIZ8kfDtUMEHj//iaYiBgBBCMDKE5gzX8XSNTrWbTHw2ec61m0zsGS1jmkzFKgqEPhyfyDkioBoSmAAEABAVQUSCQVz5mnYsN3EnqMJ7PvGxKZdOmbNU6DpAoEHeHaIwOfnP9FUwAAgIFoFKCpgWgJF0xTMmqtiwRIdy9fr2LDdwGfbDSzfoGNuuQYzIYZXA4HPaSGiyYoBQG+lGwJFxQoWL9ex63ACB08ksOOAgeXrVeQXCPhuCM8J4bmhfCVERJMOA4DeSlEAXRfIK1BQPEtB6UIVi1fpWLPRwMadOtZvN1C+QkPxLBWKKqeF2B8gmlwYAPROrISCuWUa1m4xcODbBA5+a2H95zrmlqvQVAEnJVcE7A8QTR4MAHonqgpYCYGi6SrmlGpYuEzDys8MrNui47MdOlZu0lEyT0UiT0SlMrlZzDAgyl4MAHovQsiJoaLpKpau0vH5XguHvktg91ET5as0FExXEPqAk4w2iEd/AyLKGgwAem9CyP2B/EIFxbMVzCvXsHR13B8wsHabjsWrNBRNF1AEEETnC7E/QJRdGAD0QVRVwIr6Axu/MLHnKwv7j1vYtFvHjLlyg9hnf4AoKzEA6IPIV0Jyf2BasYKSMg0Ll+lY8ZmBjXF/4DMdcxeyP0CUbRgANK50QwbB4hU6dh+xcOi7POw4aGBZ3B/w2B8gyhYMABpXiiJDIL9QwYw5KsrKVSyJ+gMbvtCxbquBhcs1FM9SoGrx0dPsDxBNBAYAfVRWnoK58zWs22LgwIkEDn5nRv0BDbou4NpyNcD+ANGnxwCgj2q4P1CsoqRMQ/lyHSs/M7B2i47123Ss2KBjTlnG/QMup4WIPhUGAH0S/9Ef2GPh4LcJ7DpiYvFqDYXF8kfRTYfwOS1E9EkwAOiTifsDBUUKZsxRMG+R7A+s3Wxg/VYdqzcbWLRCQ9F03j9A9CkwAGhCZPYHNmw3sfuoJe8f2G3I+we06P6B6EgJfv4TjT8GAE2It/UHypfpWPGZjg3bDKzbpmPZeh0l81WYluwPBD6nhYjGEwOAssJwf2C5jp2HLRw4kcDnBw0sW68hv1Ag8EL4nBYiGlcMAMoKmf2BmSUq5i/SsHSVjjWbDHy2w8DarQYWLNMwfYYCIeTREtwfIPowDADKSlaegtIyDeu3mDj0XQKHTiawbpuOOQtVqApgJ+MQCPlKiGiMGACUlVQVsPLktZQlZSrKl8v7B9ZuNrD+cwMrNuooKVORGN0fIKJ3xgCgrCYEoCgChdMULInuH/jy7wnsO2Zh8VoNRaP7A1wNEL0zBgBlvbg/UFikYFaJgvmLNSxdK/cH1m3RsWqTgfLlf9IfIKI/xQCgSUVRBUxLwey56kh/4Nhf9Ae4IiD6UwwAmlSEAJSoPzB9hjxobtEKDSs+07F+q4E1W3QsWSv7A1aeAMKoP8AwIPoPDACa1HRDHjS3eLmOXYfl+UI7DhlY/pmGgmkCQQB4bgiP00JE/4EBQJOaogCGIc8XmjVXxYLFsj+weqOB9dt0rN6kY8FSDdNnKlDYHyB6AwOAppT4/oG1mw3sP57AgRMmPvtcR2m5Co39AaI3MABoSlFVIJEX7w+oWLRCni+0ZqOONdsMLF+vYdZcuT8QBoDnyPOFiHIRA4CmJCEEVFVB0TQVS1Ya2LbXwuGTCez62sLi1RoKpikIfcBJhQg8bhBTbmIA0JQlhNwkLpwW7Q8s0bB8rY41m3Ws3apj1WYdC5dpKJwu2B+gnMQAoJygqgJWnkBJmYZNX5jYezSBfd9Y2LxHx6x56pv9AR45TTni/wM3+GVt65YOkwAAAABJRU5ErkJggg==;" vertex="1" parent="RF7QKK640K8U4cVMku1n-20">
          <mxGeometry x="90" y="20" width="41.4" height="40" as="geometry" />
        </mxCell>
        <mxCell id="RF7QKK640K8U4cVMku1n-24" value="&lt;b&gt;Remote State&lt;/b&gt;" style="rounded=1;whiteSpace=wrap;html=1;fillColor=#f8cecc;strokeColor=#b85450;" vertex="1" parent="1">
          <mxGeometry x="391.34" y="320" width="120" height="60" as="geometry" />
        </mxCell>
        <mxCell id="RF7QKK640K8U4cVMku1n-25" style="edgeStyle=orthogonalEdgeStyle;rounded=0;orthogonalLoop=1;jettySize=auto;html=1;entryX=0;entryY=0.5;entryDx=0;entryDy=0;" edge="1" parent="1" source="RF7QKK640K8U4cVMku1n-8" target="RF7QKK640K8U4cVMku1n-24">
          <mxGeometry relative="1" as="geometry">
            <Array as="points">
              <mxPoint x="213" y="350" />
            </Array>
          </mxGeometry>
        </mxCell>
        <mxCell id="RF7QKK640K8U4cVMku1n-26" style="edgeStyle=orthogonalEdgeStyle;rounded=0;orthogonalLoop=1;jettySize=auto;html=1;entryX=0.5;entryY=1;entryDx=0;entryDy=0;" edge="1" parent="1" source="RF7QKK640K8U4cVMku1n-15" target="RF7QKK640K8U4cVMku1n-24">
          <mxGeometry relative="1" as="geometry" />
        </mxCell>
        <mxCell id="RF7QKK640K8U4cVMku1n-27" style="edgeStyle=orthogonalEdgeStyle;rounded=0;orthogonalLoop=1;jettySize=auto;html=1;entryX=1;entryY=0.5;entryDx=0;entryDy=0;" edge="1" parent="1" source="RF7QKK640K8U4cVMku1n-21" target="RF7QKK640K8U4cVMku1n-24">
          <mxGeometry relative="1" as="geometry">
            <Array as="points">
              <mxPoint x="670" y="350" />
            </Array>
          </mxGeometry>
        </mxCell>
      </root>
    </mxGraphModel>
  </diagram>
</mxfile>
